<?xml version="1.0" encoding="utf-8"?>
<!-- Generator: Adobe Illustrator 23.0.2, SVG Export Plug-In . SVG Version: 6.00 Build 0)  -->
<svg version="1.1" id="Layer_1" xmlns="http://www.w3.org/2000/svg" xmlns:xlink="http://www.w3.org/1999/xlink" x="0px" y="0px"
	 width="500px" height="504.6px" viewBox="0 0 500 504.6" enable-background="new 0 0 500 504.6" xml:space="preserve">
<rect x="-2.3" fill="#D7F1F4" width="504.6" height="504.6"/>
<path fill="none" stroke="#441211" stroke-miterlimit="10" d="M252.1,372.1c0.9-11.4,0.6-21.5-0.5-34.3c-0.3-3.5-0.6-7-0.4-10.4
	c0.3-4.3,1.4-8.5,2.4-12.7c1.2-4.6,2.4-9.1,3.6-13.7"/>
<g>
	<path fill="none" stroke="#441211" stroke-miterlimit="10" d="M257.3,301.6c-0.2-4-0.5-8.7-0.8-12.7c-0.2-3-0.4-5.9-0.9-8.9
		c-0.7-3.7-2-7.2-3.2-10.8c-2.5-7.9-3.9-16.1-4.4-24.4"/>
	<g>
		<path fill="#ECC2C0" stroke="#441211" stroke-miterlimit="10" d="M254.1,237.5c1.3,0.3,2.7-0.1,3.8-0.8c1.1-0.7,2.1-1.7,3.1-2.5
			c3.4-2.7,7.6-4.1,11.5-6c3.9-1.9,7.7-4.7,9-8.8c0.8-2.6,0.4-5.4-0.5-8s-2.4-4.9-3.9-7.1c-0.6-1-1.3-1.9-2.3-2.6
			c-0.6-0.4-1.4-0.6-2.1-1c-2.7-1.3-4.3-4.1-5.7-6.7c-1.6-2.9-2.5-6.2-3.8-9.3c-1.3-3.1-3.8-6.3-7.1-6.2c-1.7,0-3.4,1-4.3,2.5
			c-1.1,1.8-0.9,4.1-1,6.2c-0.4,8.5-5.7,16-7.3,24.3c-0.5,2.7-0.4,5.6-0.4,8.4c0,2.3-0.2,4.6,0.1,6.9c0.2,1.1,0.5,2,1.1,2.9
			c1.6,2.4,0.9,5.6,2.1,8.1c0.1,0.3,0.4,0.6,0.7,0.6c0.3,0,0.5-0.2,0.6-0.4c0.5-0.6,1.1-1.2,1.7-1.7c0.5-0.5,1.2-1,1.9-0.8
			c0.3,0,1,1,1.3,1.2C253.4,237.1,253.3,237.3,254.1,237.5z"/>
		<path fill="none" stroke="#441211" stroke-linejoin="round" stroke-miterlimit="10" d="M248.1,233.6c0.6-2.5,2.4-4.5,4.4-6.2
			c2-1.6,4.2-3,6.1-4.8c1.8-1.8,3.3-4.3,3.1-6.8"/>
		<path fill="none" stroke="#441211" stroke-linejoin="round" stroke-miterlimit="10" d="M255.6,221.6c0.7-1,1.4-2.1,2.1-3.1
			c1.4-2.1,2.9-4.3,3.7-6.7c1-3,0.9-6.2,0.7-9.3"/>
		<path fill="none" stroke="#441211" stroke-linejoin="round" stroke-miterlimit="10" d="M253.3,232.2c0.7-2.8,3.1-4.7,5.6-6.2
			s5.2-2.7,6.9-4.9c1.3-1.7,2-3.8,1.9-5.9"/>
		<path fill="none" stroke="#441211" stroke-linejoin="round" stroke-miterlimit="10" d="M269.1,211.1c0.6-2.6,0.8-5.2,0.6-7.9"/>
		<path fill="none" stroke="#441211" stroke-linejoin="round" stroke-miterlimit="10" d="M271.5,210.6c0-0.8-0.1-1.6-0.1-2.4"/>
		<path fill="none" stroke="#441211" stroke-linejoin="round" stroke-miterlimit="10" d="M264,228.2c2.6,0,5.1-1.2,7.3-2.7
			c1.8-1.2,3.6-2.6,4.3-4.7"/>
		<path fill="none" stroke="#441211" stroke-linejoin="round" stroke-miterlimit="10" d="M254.8,234c1.4-1.8,3.3-3.1,5.4-3.8"/>
		<path fill="none" stroke="#441211" stroke-linejoin="round" stroke-miterlimit="10" d="M246.5,229.6c-0.4-2.4,0.6-4.9,1.6-7.1
			c1.3-2.9,2.8-5.7,3.8-8.7s1.6-6.3,1-9.4"/>
		<path fill="none" stroke="#441211" stroke-linejoin="round" stroke-miterlimit="10" d="M246.6,215.2c-0.2-2.4-0.3-5,0.4-7.3
			c0.4-1.3,1.1-2.4,1.8-3.5c1-1.5,2-2.8,3.1-4.2"/>
	</g>
	<path fill="none" d="M240.8,209.5c-0.4-1.8-1.3-3.5-2.5-4.8"/>
	<path fill="none" d="M223.4,202c-0.3,1,0.2,2.1,0.9,2.8s1.7,1.2,2.5,1.8c4.1,2.7,6.8,7.4,7,12.3"/>
	<path fill="#ECC2C0" stroke="#441211" stroke-miterlimit="10" d="M240.3,240.9c-1-2.8-2.3-5.6-3.7-8.2c-0.3-0.5-0.5-0.9-0.9-1.2
		c-0.4-0.3-0.9-0.4-1.4-0.6c-2.2-0.8-3.7-2.8-5.6-4.2c-2.7-2-6-2.8-9.3-3c-3.3-0.2-6.6,0-9.9-0.1c-1.8-0.1-3.7-0.2-5.5,0.1
		c-1.8,0.3-3.6,1.2-4.5,2.8s-0.7,3.9,0.8,4.9c1,0.7,2.4,0.8,3.1,1.8c0.7,0.9,0.4,2.2,0.4,3.4c0.1,1.7,0.9,3.4,2.3,4.4
		c0.4,0.3,0.9,0.5,1.2,0.9c0.5,0.6,0.7,1.5,0.9,2.3c1,4.8,3.3,9.6,7.3,12.4c2,1.4,4.4,2.2,6.8,2.8c5.1,1.4,10.3,2.3,15.6,3.2
		c0.9,0.2,1.8,0.3,2.7,0.1c2.4-0.5,3.8-3.1,4.1-5.5c0.3-2.4-0.3-4.9,0-7.4c0.1-1.2,0.7-2.3-0.5-2.3c-1.7,0-2.1-2.1-2-3.2
		C242.3,243,240.7,242,240.3,240.9z"/>
	<path fill="none" stroke="#441211" stroke-linejoin="round" stroke-miterlimit="10" d="M235.2,251.1c0-1.5,0.6-3,1.6-4.1"/>
	<path fill="none" stroke="#441211" stroke-linejoin="round" stroke-miterlimit="10" d="M225.4,250.8c0.6-4.2,3-8.1,6.4-10.6
		c0.9-0.6,1.9-1.2,3-1"/>
	<path fill="none" stroke="#441211" stroke-linejoin="round" stroke-miterlimit="10" d="M207,242c1.3-0.4,2.3-1.5,3.3-2.4
		c5.1-4.8,12.5-7.1,19.5-6.1"/>
	<path fill="none" stroke="#441211" stroke-linejoin="round" stroke-miterlimit="10" d="M216.2,233.3c3.4-1.7,7.2-2.6,10.9-2.4"/>
	<path fill="none" stroke="#441211" stroke-linejoin="round" stroke-miterlimit="10" d="M202.9,232.3c5.1,0.5,9.9-3.7,15.1-3.2"/>
	<path fill="none" stroke="#441211" stroke-linejoin="round" stroke-miterlimit="10" d="M229.4,257.8c1.3-1.7,2.3-3.7,2.8-5.8
		c0.3-1.4,0.5-2.9,0.9-4.3c0.5-1.4,1.3-2.7,2.7-3.3"/>
	<g>
		<path fill="#ECC2C0" stroke="#441211" stroke-miterlimit="10" d="M236.4,233.6c-0.5-0.9-1.3-1.5-2.1-2.2c-1.8-1.5-3.7-3-5.8-4
			c-3.7-1.6-7.9-1.3-11.9-0.6c-4,0.7-7.9,1.9-11.9,1.9c-0.9,0-1.9,0-2.7-0.5c-1-0.6-1.6-1.6-2.1-2.7c-0.8-1.6-1.7-3.3-2.5-4.9
			c-0.6-1.1-1.1-2.3-0.9-3.5c0.3-1.7,1.8-2.8,2.7-4.2c1.1-1.8,1.3-4,1.9-6c0.6-2,2-4.1,4.1-4.3c0.2-2.7,2.2-4.9,4.2-6.7
			c1.8-1.6,4.2-3,6.5-2.3c0.5,0.2,1,0.4,1.6,0.5c1.6,0.2,3-1.1,4-2.4c1-1.3,2.2-2.8,3.9-2.8c0-1.6,1.3-3.1,2.8-3.7s3.2-0.7,4.8-0.7
			c4-0.1,8-0.1,11.9-0.2c3.8,0,8.1,0.1,10.5,3c2.2,2.6,2,6.4,2.4,9.8c0.3,2.4,0.9,4.8,1.2,7.2c0.6,5.8-1.2,11.7-4.3,16.7
			c-1.5,2.4-3.4,4.7-4.2,7.4c-0.8,2.7-0.4,6-2.4,8.1c-1.6,1.6-2.9,2.3-3.8,4.4c-0.6,1.5-1.5,2.9-3.3,2.5
			C236.6,242.9,238.1,236.3,236.4,233.6z"/>
		<path fill="none" stroke="#441211" stroke-linejoin="round" stroke-miterlimit="10" d="M240.6,239.8c-0.7-2.6-0.3-5.3-0.3-8
			c0.1-2.7-0.2-5.5-1.8-7.7"/>
		<path fill="none" stroke="#441211" stroke-linejoin="round" stroke-miterlimit="10" d="M243.1,231.9c-0.3-3.3,0.8-6.5,0.9-9.8
			c0.5-8.1-2-16.5-7.3-22.6"/>
		<path fill="none" stroke="#441211" stroke-linejoin="round" stroke-miterlimit="10" d="M225.2,189c7.6,7.9,12.8,17.9,15,28.7"/>
		<path fill="none" stroke="#441211" stroke-linejoin="round" stroke-miterlimit="10" d="M246.4,191.6c2.4,5.1,4.3,10.5,5.1,16.1
			c0.8,5.6,0.5,11.4-1.5,16.7"/>
		<path fill="none" stroke="#441211" stroke-linejoin="round" stroke-miterlimit="10" d="M238.5,231.9c-1.4-3.2-2.9-6.4-6-8.2"/>
		<path fill="none" stroke="#441211" stroke-linejoin="round" stroke-miterlimit="10" d="M221.7,224c3-0.4,6,0.3,8.8,1.5
			c2.2,1,4.4,2.3,5.8,4.2c2.4,3.2,2.4,7.5,2,11.5"/>
		<path fill="none" stroke="#441211" stroke-linejoin="round" stroke-miterlimit="10" d="M205.3,202.2c-0.3,1.6,0.7,3.1,1.7,4.4
			c5.5,6.7,13.6,10.4,21.5,13.9"/>
		<path fill="none" stroke="#441211" stroke-linejoin="round" stroke-miterlimit="10" d="M218.3,203.8c-0.5,0.9-0.3,2.1,0.3,3
			c0.5,0.9,1.3,1.6,2.1,2.3c3.1,2.7,6.2,5.3,9.3,8"/>
		<path fill="none" stroke="#441211" stroke-linejoin="round" stroke-miterlimit="10" d="M228.5,211.3c-1.1-0.2-2.2-0.9-2.8-1.9"/>
		<path fill="none" stroke="#441211" stroke-linejoin="round" stroke-miterlimit="10" d="M223.3,208.9c-1.6-1.6-2.8-3.6-3.5-5.7
			c-1.1-3-1.3-6.5-3.5-8.9"/>
		<path fill="none" stroke="#441211" stroke-linejoin="round" stroke-miterlimit="10" d="M248.5,189.1c1,1.1,1.8,2.4,2.4,3.8"/>
		<path fill="none" stroke="#441211" stroke-linejoin="round" stroke-miterlimit="10" d="M200.3,218.2c1.7,1.5,4.1,2.1,6.3,2.3
			c2.3,0.2,4.6,0,6.9,0.2c2,0.1,4,0.5,5.9,1.2"/>
		<path fill="none" stroke="#441211" stroke-linejoin="round" stroke-miterlimit="10" d="M202.7,222.5c0.6,0.7,1.6,1.1,2.5,0.7"/>
		<path fill="none" stroke="#441211" stroke-linejoin="round" stroke-miterlimit="10" d="M244,236.1c0.3,0.1,0.5-0.3,0.6-0.6
			c0.3-1.9,0.4-3.8,0.3-5.7"/>
	</g>
	<path fill="#441211" stroke="#441211" stroke-miterlimit="10" d="M247.6,244.8c1.5,0.1,2.9-0.8,4.2-1.7c1-0.7,2.1-1.6,2.6-2.7
		c0.5-1.2,0-2.8-1.2-3.2c-0.3-0.1-0.6-0.1-0.8-0.2c-0.7-0.4-0.3-1.5-0.9-2.1c-0.5-0.5-1.3-0.3-1.8,0.2c-0.5,0.4-0.8,1-1.3,1.5
		c-1.1,1-2.8,0.9-4.1,1.6c-1.5,0.8-2.2,2.8-1.6,4.4c0.2,0.5,0.5,1,0.2,1.4c-0.1,0.3-0.4,0.4-0.6,0.6c-0.4,0.5-0.3,1.2,0.1,1.7
		c0.3,0.5,0.9,0.8,1.4,1c0.2,0.1,0.4,0.2,0.6,0.1c0.4,0,0.6-0.4,0.9-0.7c0.9-1.2,2.3-1.9,3.7-2.1"/>
</g>
<g>
	<path fill="#ECC2C0" stroke="#441211" stroke-miterlimit="10" d="M222,305.1c-4.9-1.5-9.7-2.1-15-0.7c-4.9,1.3-9.4,4-13.3,7.2
		c5.3,2.9,11.6,3.3,17.7,3.3c3,0,6.1-0.2,8.9-1.1c2.6-0.8,5.4-2.5,6.7-5c0.7-1.3,0.6-1.7-0.7-2.3C224.8,306.1,223.4,305.5,222,305.1
		z"/>
	<path fill="#ECC2C0" stroke="#441211" stroke-miterlimit="10" d="M208.7,324.6c4.7,2.2,9.5,4.3,14.7,5.1c5,0.8,10.7,0.1,14.9-3.1
		c1.2-0.9,3.7-3,3.6-4.6c0-2.8-7.3-2.4-9-2.4C224.8,319.5,216,320.7,208.7,324.6z"/>
	<path fill="#ECC2C0" stroke="#441211" stroke-miterlimit="10" d="M223.5,279.4c2.4,2,4.5,4.2,6.2,6.8c3.7,5.8,4.2,11.9,4.2,18.6
		c0,1.4,0,3.2-0.7,4.5c-1.8,3.2-5.1-3.9-5.7-5.1c-1.8-3.8-3.2-7.9-4-12.1c-0.4-2.1-0.6-4.3-0.6-6.4
		C222.8,283.7,222.6,281.2,223.5,279.4z"/>
	<path fill="#ECC2C0" stroke="#441211" stroke-miterlimit="10" d="M201.7,277.6c-2-4.3-3.8-9.1-2.2-13.6c4.9,2.4,8.6,6.9,10.9,11.9
		c2.3,5,3.3,10.5,3.9,15.9c0.2,1.7-1,3.3-2.6,1.8c-1.2-1.1-2.2-3-3.2-4.3C205.8,285.7,203.7,281.7,201.7,277.6z"/>
	<path fill="#ECC2C0" stroke="#441211" stroke-miterlimit="10" d="M180.9,293.6c-1.6,0.6-3.2,1.3-4.5,2.2c1.2,1.5,4.9,2.2,6.8,2.7
		c2.5,0.6,5.2,0.8,7.8,0.6c5.1-0.3,10.2-1.9,14.4-4.9c0.7-0.5,2.1-1.5,2.1-2.5c0.1-2.5-14.8-0.8-16.3-0.6
		C188,291.8,184.2,292.5,180.9,293.6z"/>
	<path fill="#ECC2C0" stroke="#441211" stroke-miterlimit="10" d="M191,269.8c-0.5-0.4-1.1-0.7-1.6-1c-2.2-1.3-4.6-2.2-7.1-2.9
		c-0.6-0.2-7.1-1.4-7.1-1.1c1.1,4.9,4,10.1,6.8,14.2c2.8,4,6.4,7.5,11,9.3c2.2,0.9,8.7,1.6,9.1-2.1c0.2-2.3-2.1-6-3.3-7.9
		C196.9,274.9,194.2,272,191,269.8z"/>
	<path fill="none" stroke="#441211" stroke-miterlimit="10" d="M175.2,264.4c2.3,3,13.9,12.9,16.7,15.4c3.7,3.3,8,5.8,12.2,8.5
		c9.4,6.1,18,13.4,26.5,20.6c2.2,1.8,4.3,3.7,6.3,5.8c2.7,2.8,5,6,7.2,9.2c2.4,3.3,5.3,8.3,7.7,11.7"/>
	<path fill="none" stroke="#441211" stroke-miterlimit="10" d="M176.1,295.7c4.7,0.7,14.6-1.6,19.3-2.8c3.9-1,8.9-1.4,13-1.8"/>
	<path fill="none" stroke="#441211" stroke-miterlimit="10" d="M213.3,294.5c-1.7-4.1-2.5-8.5-4.1-12.7c-2.4-6.4-6.2-12.1-9.7-17.9"
		/>
	<path fill="none" stroke="#441211" stroke-miterlimit="10" d="M232.6,310.4c-0.6-1.5-0.7-3.2-1-4.8c-1-4.9-1.9-9.5-3.9-14.1
		c-1.7-4-3.7-8.2-4.4-12.5"/>
	<path fill="none" stroke="#441211" stroke-miterlimit="10" d="M193.6,311.6c7.5-2.1,27.4-3.1,35.4-4.2"/>
	<path fill="none" stroke="#441211" stroke-miterlimit="10" d="M208.7,324.6c2.9,0.3,17-1.4,19.9-1.9c4.2-0.6,9.4-0.9,13.6-1.5"/>
	<path fill="none" stroke="#441211" stroke-linejoin="round" stroke-miterlimit="10" d="M222.3,327.2c1.1-0.5,2.1-0.9,3.3-1
		c1-0.1,2-0.1,3-0.2c2.3-0.3,4.5-1.6,5.9-3.4"/>
	<path fill="none" stroke="#441211" stroke-linejoin="round" stroke-miterlimit="10" d="M218.5,326.2c0.1-0.4,0.6-0.5,1-0.6
		c1.1-0.2,2.1-0.5,3.1-1"/>
	<path fill="none" stroke="#441211" stroke-linejoin="round" stroke-miterlimit="10" d="M215.7,312.7c1.4,0.1,2.7-0.5,3.8-1.3
		s1.9-2,2.8-3"/>
	<path fill="none" stroke="#441211" stroke-linejoin="round" stroke-miterlimit="10" d="M209.1,312.9c0.7-0.1,1.4-0.4,2-0.9
		c0.6-0.5,1-1.2,1.4-1.9s1-1.3,1.8-1.5"/>
	<path fill="none" stroke="#441211" stroke-linejoin="round" stroke-miterlimit="10" d="M202.1,312.4c1.1-0.1,2.1-0.3,3.1-0.7
		c1-0.5,1.9-1.2,2.8-2"/>
	<path fill="none" stroke="#441211" stroke-linejoin="round" stroke-miterlimit="10" d="M223.8,321.6c1.8-0.2,3.6-0.1,5.4,0.4
		c0.5,0.1,1,0.3,1.4,0.4"/>
	<path fill="none" stroke="#441211" stroke-linejoin="round" stroke-miterlimit="10" d="M231.5,304.7c-0.6,0.1-1.2-0.3-1.6-0.7
		c-1.6-1.8-2.1-4.2-3.1-6.3"/>
	<path fill="none" stroke="#441211" stroke-linejoin="round" stroke-miterlimit="10" d="M230.7,299.9c0.5-1.7,1-3.5,0.5-5.2
		c-0.4-1.8-1.9-3.4-1.7-5.3"/>
	<path fill="none" stroke="#441211" stroke-linejoin="round" stroke-miterlimit="10" d="M227.9,293c-1.7-0.8-3.1-2.1-4-3.7"/>
	<path fill="none" stroke="#441211" stroke-linejoin="round" stroke-miterlimit="10" d="M216.6,308.4c-1.1-0.2-1.6-1.6-2.6-2.3
		c-1.3-0.9-3.1-0.5-4.5-1"/>
	<path fill="none" stroke="#441211" stroke-linejoin="round" stroke-miterlimit="10" d="M211.2,309.1c-1.6-1.1-3.5-1.8-5.5-1.8"/>
	<path fill="none" stroke="#441211" stroke-linejoin="round" stroke-miterlimit="10" d="M202.8,310.2c-1.3-0.6-2.8-0.9-4.2-1"/>
	<path fill="none" stroke="#441211" stroke-linejoin="round" stroke-miterlimit="10" d="M201.9,292.2c-2.1,2.9-5.5,4.8-9.1,5"/>
	<path fill="none" stroke="#441211" stroke-linejoin="round" stroke-miterlimit="10" d="M195.6,293c-1.9,0.9-3.7,1.9-5.4,3.1
		c-1.1,0.7-2.2,1.5-3.5,1.6"/>
	<path fill="none" stroke="#441211" stroke-linejoin="round" stroke-miterlimit="10" d="M186.7,294.9c-0.6,0.9-1.5,1.6-2.5,2"/>
	<path fill="none" stroke="#441211" stroke-linejoin="round" stroke-miterlimit="10" d="M191.3,293.4c-1.8-0.2-3.7-0.3-5.6-0.1"/>
	<path fill="none" stroke="#441211" stroke-linejoin="round" stroke-miterlimit="10" d="M199,284.8c0.2-1.5-0.2-3.1-1-4.4
		c-1.2-1.7-3.2-2.8-3.9-4.7"/>
	<path fill="none" stroke="#441211" stroke-linejoin="round" stroke-miterlimit="10" d="M193.8,281.1c-0.5-3.5-2.1-6.9-4.6-9.5"/>
	<path fill="none" stroke="#441211" stroke-linejoin="round" stroke-miterlimit="10" d="M188.8,276.9c-0.2-1.6-1.2-3.1-2.1-4.5
		c-0.7-1.1-1.4-2.2-2.2-3.2"/>
	<path fill="none" stroke="#441211" stroke-linejoin="round" stroke-miterlimit="10" d="M196,283c-1.8,0.3-3.6,0.7-5.4,0.4
		c-1.4-0.2-2.7-0.8-3.8-1.7c-0.8-0.7-1.5-1.6-2.4-2.1"/>
	<path fill="none" stroke="#441211" stroke-linejoin="round" stroke-miterlimit="10" d="M190.5,278.6c-0.9-0.2-1.8-0.8-2.7-1.1
		c-0.7-0.2-1.4-0.2-2.1-0.4c-0.9-0.3-1.8-0.8-2.4-1.5"/>
	<path fill="none" stroke="#441211" stroke-linejoin="round" stroke-miterlimit="10" d="M211.7,289.1c0.3-1.8,0.6-3.6,0.3-5.3
		c-0.3-1.6-1.1-3.2-0.9-4.8"/>
	<path fill="none" stroke="#441211" stroke-linejoin="round" stroke-miterlimit="10" d="M210.4,285.5c-1,0.1-1.9-0.7-2.5-1.5
		c-0.7-0.9-1.2-1.9-1.8-2.8s-1.4-1.8-2.3-2.4"/>
	<path fill="none" stroke="#441211" stroke-linejoin="round" stroke-miterlimit="10" d="M208.4,279.1c0.1-2.5-0.5-5-1.9-7.2"/>
	<path fill="none" stroke="#441211" stroke-linejoin="round" stroke-miterlimit="10" d="M206.3,275.4c-0.8,0-1.8-0.1-2.4-0.6
		c-0.4-0.3-0.7-0.8-0.9-1.3c-0.6-1-1.1-2.1-1.7-3.1"/>
	<path fill="none" stroke="#441211" stroke-linejoin="round" stroke-miterlimit="10" d="M183.8,272.3c-0.3-0.1-0.5-0.4-0.7-0.7
		c-0.8-1.3-1.6-2.6-2.5-3.9"/>
</g>
<circle fill="#441211" cx="399.5" cy="106.8" r="21.6"/>
<g>
	<path fill="none" stroke="#441211" stroke-miterlimit="10" d="M409,75.8c-1.6,0.3-2.2-1.9-2-3.5c0.5-4.1,2-8.1,4.3-11.5
		c0.7-1,1.4-1.9,1.7-3c0.3-1.1-0.1-2.5-1.1-3"/>
	<path fill="none" stroke="#441211" stroke-miterlimit="10" d="M368.8,96.2c0.2,1.6-2,2.2-3.6,1.9c-4.1-0.6-8-2.2-11.4-4.7
		c-0.9-0.7-1.9-1.5-3-1.8c-1.1-0.3-2.5,0-3,1"/>
	<path fill="none" stroke="#441211" stroke-miterlimit="10" d="M389,137.5c1.6-0.3,2.2,2,1.9,3.6c-0.6,4.1-2.2,8-4.6,11.4
		c-0.7,0.9-1.5,1.9-1.8,3c-0.3,1.1,0,2.5,1,3"/>
	<path fill="none" stroke="#441211" stroke-miterlimit="10" d="M430.2,117.3c-0.3-1.6,2-2.2,3.6-1.9c4.1,0.6,8,2.2,11.4,4.6
		c0.9,0.7,1.9,1.5,3,1.8c1.1,0.3,2.5,0,3-1"/>
	<path fill="none" stroke="#441211" stroke-miterlimit="10" d="M384.3,78.1c-0.9,1.3-2.9,0.2-3.9-1c-2.6-3.2-4.3-7.1-5.1-11.2
		c-0.2-1.1-0.4-2.3-1-3.3c-0.6-1-1.8-1.7-2.9-1.3"/>
	<path fill="none" stroke="#441211" stroke-miterlimit="10" d="M370.4,121c1.3,0.9,0.1,2.9-1.2,3.9c-3.3,2.5-7.3,4.1-11.3,4.7
		c-1.2,0.2-2.4,0.3-3.4,0.8s-1.8,1.8-1.4,2.9"/>
	<path fill="none" stroke="#441211" stroke-miterlimit="10" d="M413.8,135.9c0.9-1.3,2.9-0.1,3.9,1.2c2.5,3.3,4.1,7.2,4.8,11.3
		c0.2,1.2,0.3,2.4,0.9,3.4c0.6,1,1.8,1.8,2.9,1.4"/>
	<path fill="none" stroke="#441211" stroke-miterlimit="10" d="M428.6,92.5c-1.3-0.9-0.1-2.9,1.2-3.9c3.3-2.5,7.2-4.1,11.3-4.8
		c1.2-0.2,2.4-0.3,3.4-0.9c1-0.6,1.8-1.8,1.4-2.9"/>
</g>
<path fill="#D7F1F4" stroke="#441211" stroke-miterlimit="10" d="M285.2,8.3c-2.8,0-5.3,1.3-6.9,3.4c-1.1-8.3-8.2-14.7-16.9-14.7
	c-3,0-5.9,0.8-8.3,2.2c-3.3-5.6-9.4-9.4-16.4-9.4c-10.4,0-18.8,8.3-19.1,18.6C207.3,8.6,199,17,199,27.4c0,10.6,8.6,19.1,19.1,19.1
	c2.2,0,4.3-0.4,6.3-1.1c3.3,5.6,9.4,9.4,16.4,9.4c9.1,0,16.7-6.4,18.6-14.9c2.5,2.8,6.2,4.6,10.3,4.6c7.7,0,13.9-6.2,13.9-13.9
	c0-1.8-0.3-3.5-0.9-5c0.8,0.2,1.6,0.4,2.5,0.4c4.8,0,8.8-3.9,8.8-8.8C294,12.2,290.1,8.3,285.2,8.3z"/>
<path fill="#D7F1F4" stroke="#441211" stroke-miterlimit="10" d="M468.9,267.1c-2.8,0-5.3,1.3-6.9,3.4c-1.1-8.3-8.2-14.7-16.9-14.7
	c-3,0-5.9,0.8-8.3,2.2c-3.3-5.6-9.4-9.4-16.4-9.4c-10.4,0-18.8,8.3-19.1,18.6c-10.3,0.3-18.6,8.7-18.6,19.1
	c0,10.6,8.6,19.1,19.1,19.1c2.2,0,4.3-0.4,6.3-1.1c3.3,5.6,9.4,9.4,16.4,9.4c9.1,0,16.7-6.4,18.6-14.9c2.5,2.8,6.2,4.6,10.3,4.6
	c7.7,0,13.9-6.2,13.9-13.9c0-1.8-0.3-3.5-0.9-5c0.8,0.2,1.6,0.4,2.5,0.4c4.8,0,8.8-3.9,8.8-8.8C477.7,271.1,473.7,267.1,468.9,267.1
	z"/>
<path fill="#D7F1F4" stroke="#441211" stroke-miterlimit="10" d="M60.6,121.7c-2.7,0-5.2,1.3-6.7,3.3c-1.1-8.1-8.1-14.4-16.5-14.4
	c-3,0-5.7,0.8-8.2,2.1c-3.3-5.5-9.2-9.2-16.1-9.2c-10.2,0-18.4,8.1-18.7,18.2c-10.1,0.3-18.2,8.5-18.2,18.7
	c0,10.3,8.4,18.7,18.7,18.7c2.2,0,4.2-0.4,6.2-1.1c3.3,5.5,9.2,9.2,16.1,9.2c8.9,0,16.3-6.2,18.2-14.6c2.5,2.7,6.1,4.5,10.1,4.5
	c7.5,0,13.6-6.1,13.6-13.6c0-1.7-0.3-3.4-0.9-4.9c0.8,0.2,1.6,0.4,2.4,0.4c4.7,0,8.6-3.8,8.6-8.6C69.1,125.5,65.3,121.7,60.6,121.7z
	"/>
<g>
	<path fill="none" d="M249,392.9c0.7-4.2,1.3-8.1,1.8-11.7c-0.1,0.4-0.3,0.9-0.5,1.3c-0.7,1.5-2.2,2.7-3.5,3.8
		c-0.4,0.3-0.7,0.6-1.1,0.9c-4.5,4.1-9.7,7.3-15.3,9.5c0.4,1.5,4.8,11.4,8.5,16.7c2.6,3.8,5.9,7.9,10.4,9.7
		c5.4,2.2,10.6-0.1,12.4-3.5c0.7-1.3,1-3,1-4.9c-0.1-5-2.9-9.3-5.8-13.9c-2.5-3.9-5-7.9-5.7-12.3c-0.2-0.9-0.2-1.8-0.3-2.7
		c-0.3,2.3-0.7,4.6-1.1,7.1L249,392.9z"/>
	<path fill="#441211" d="M250.7,381.2c-0.5,3.6-1,7.5-1.8,11.7l0.7,0.1c0.4-2.5,0.8-4.8,1.1-7.1c-0.1-2.5,0.2-4.9,0.5-7.4
		c0.1-0.5,0.3-0.9,0.6-1.3c0.2-1.9,0.4-3.8,0.5-5.7l-0.7-0.1c-0.2,2.2-0.4,4.4-0.6,6.6C251.2,379.1,251.1,380.1,250.7,381.2z"/>
	<path fill="#441211" d="M300.4,509.7c-1.3-9.2-1.9-18.9-5.9-27.5c-0.1-0.2-0.2-0.4-0.4-0.5c-0.2-0.1-0.4-0.1-0.6-0.1
		c-0.7,0-1.4,0.1-2.1,0.1c-0.2,0.9-0.5,1.7-0.7,2.6c-0.3,1.1-5.2,3-5.8,3.1c-1.4,0.2-2.9,0.7-4.3,1.1c-1.2,0.4-2.5,0.8-3.8,1
		c-2.3,0.5-4.6,0.8-6.9,1.2c-3.1,0.5-6.4,1.1-9.5,1.8c-3.5,0.8-7.1,1.2-10.6,1.2c-1.7,0-3.3-0.1-4.9-0.3l-0.1,0l-0.1-0.1
		c-0.5-0.6-0.9-1.2-1.4-1.8c-1.4,0.4-2.8,0.9-4.1,1.4c-0.2,0.1-0.4,0.1-0.5,0.3c-0.1,0.2-0.1,0.4-0.2,0.5c-0.8,9.9,0.4,20.1,1,30.1
		c0.1,1.7-0.1,3.1-0.5,4.7c0.8,0,1.5-0.1,2.3-0.2l-0.2-0.1l0.2-0.3l0.5,0.3c0.2,0,0.5,0,0.7-0.1c0.5-0.1,1.1-0.1,1.6-0.2l0.8-1
		l0.3,0.2l-0.6,0.7c1-0.1,2.1-0.2,3.1-0.3l0.1-0.1l0.2,0.1c1-0.1,1.9-0.2,2.9-0.3l0.6-0.7l0.3,0.2l-0.4,0.5c1-0.1,1.9-0.2,2.9-0.3
		l0.1-0.1l0.2,0.1c0.9-0.1,1.8-0.2,2.7-0.3l0.8-1l0.3,0.2l-0.6,0.8c1.1-0.1,2.1-0.2,3.2-0.3l-0.2-0.1l0.2-0.3l0.6,0.3
		c0.7-0.1,1.4-0.1,2.1-0.2l0.9-1.3l0.3,0.2l-0.8,1c1.3-0.1,2.6-0.2,3.9-0.4l-0.7-0.3l0.1-0.3l1.2,0.5c0.4,0,0.8-0.1,1.3-0.1l1.2-1.7
		l0.3,0.2l-1,1.5c1.7-0.2,3.4-0.3,5.1-0.5l-1.6-0.7l0.1-0.3l1.6,0.8c0.2,0.1,0.3,0.1,0.4,0.1c0.1,0,0.2-0.2,0.3-0.3l1.3-1.9l0.3,0.2
		l-1.3,1.9c0,0.1-0.1,0.1-0.1,0.2c0.5,0,1-0.1,1.5-0.1c5.8-0.6,11.7-1.1,17.5-1.7c2.2-0.2,5.2-1.1,7.4-0.7
		C302.4,518.2,301,514,300.4,509.7z M293.6,497.3c0.1,0.1,0.3,0.2,0.4,0.1c0.1,0,0.2-0.1,0.3-0.3l1.5-1.7l0.3,0.2l-1.5,1.7
		c-0.1,0.1-0.3,0.3-0.5,0.4c0,0-0.1,0-0.1,0c-0.2,0-0.4-0.1-0.5-0.2l-1.5-0.9l0.2-0.3L293.6,497.3z M290.8,504.1l-1.6-0.8l0.1-0.3
		l1.6,0.8c0.2,0.1,0.3,0.1,0.4,0.1c0.1,0,0.2-0.2,0.3-0.3l1.3-1.9l0.3,0.2l-1.3,1.9c-0.1,0.1-0.2,0.4-0.5,0.4c-0.1,0-0.1,0-0.2,0
		C291.1,504.3,290.9,504.2,290.8,504.1z M290.8,507.9l-1.3,1.9c-0.1,0.1-0.2,0.4-0.5,0.4c-0.1,0-0.1,0-0.2,0c-0.2,0-0.4-0.1-0.5-0.1
		l-1.6-0.8l0.1-0.3l1.6,0.8c0.2,0.1,0.3,0.1,0.4,0.1c0.1,0,0.2-0.2,0.3-0.3l1.3-1.9L290.8,507.9z M288.1,491.7l1.6,0.8
		c0.2,0.1,0.3,0.1,0.4,0.1c0.1,0,0.2-0.2,0.3-0.3l1.3-1.9l0.3,0.2l-1.3,1.9c-0.1,0.1-0.2,0.4-0.5,0.4c-0.1,0-0.1,0-0.2,0
		c-0.2,0-0.4-0.1-0.5-0.1L288,492L288.1,491.7z M285.7,497.7l1.6,0.8c0.2,0.1,0.3,0.1,0.4,0.1c0.1,0,0.2-0.2,0.3-0.3l1.3-1.9
		l0.3,0.2l-1.3,1.9c-0.1,0.1-0.2,0.4-0.5,0.4c-0.1,0-0.1,0-0.2,0c-0.2,0-0.4-0.1-0.5-0.1l-1.6-0.8L285.7,497.7z M281.7,492.9
		l1.6,0.8c0.2,0.1,0.3,0.1,0.4,0.1c0.1,0,0.2-0.2,0.3-0.3l1.3-1.9l0.3,0.2l-1.3,1.9c-0.1,0.1-0.2,0.4-0.5,0.4c-0.1,0-0.1,0-0.2,0
		c-0.2,0-0.4-0.1-0.5-0.1l-1.6-0.8L281.7,492.9z M279.3,498.8l1.6,0.8c0.2,0.1,0.3,0.1,0.4,0.1c0.1,0,0.2-0.2,0.3-0.3l1.3-1.9
		l0.3,0.2l-1.3,1.9c-0.1,0.1-0.2,0.4-0.5,0.4c-0.1,0-0.1,0-0.2,0c-0.2,0-0.4-0.1-0.5-0.1l-1.6-0.8L279.3,498.8z M282.8,510.8
		l1.3-1.9l0.3,0.2l-1.3,1.9c-0.1,0.1-0.2,0.4-0.5,0.4c-0.1,0-0.1,0-0.2,0c-0.2,0-0.4-0.1-0.5-0.1l-1.6-0.8l0.1-0.3l1.6,0.8
		c0.2,0.1,0.3,0.1,0.4,0.1C282.6,511,282.7,510.9,282.8,510.8z M275.1,494.9l1.6,0.8c0.2,0.1,0.3,0.1,0.4,0.1c0.1,0,0.2-0.2,0.3-0.3
		l1.3-1.9l0.3,0.2l-1.3,1.9c-0.1,0.1-0.2,0.4-0.5,0.4c-0.1,0-0.1,0-0.2,0c-0.2,0-0.4-0.1-0.5-0.1l-1.6-0.8L275.1,494.9z M268.7,496
		l1.6,0.8c0.2,0.1,0.3,0.1,0.4,0.1c0.1,0,0.2-0.2,0.3-0.3l1.3-1.9l0.3,0.2l-1.3,1.9c-0.1,0.1-0.2,0.4-0.5,0.4c-0.1,0-0.1,0-0.2,0
		c-0.2,0-0.4-0.1-0.5-0.1l-1.6-0.8L268.7,496z M262.1,497.5l1.6,0.8c0.2,0.1,0.3,0.1,0.4,0.1c0.1,0,0.2-0.1,0.3-0.3l1.3-1.8l0.3,0.2
		l-1.3,1.8c-0.1,0.1-0.3,0.3-0.5,0.4c0,0-0.1,0-0.1,0c-0.2,0-0.4-0.1-0.5-0.2l-1.6-0.8L262.1,497.5z M255.6,498.4l1.6,0.8
		c0.2,0.1,0.3,0.1,0.4,0.1c0.1,0,0.2-0.1,0.3-0.3l1.3-1.8l0.3,0.2l-1.3,1.8c-0.1,0.1-0.3,0.3-0.5,0.4c0,0-0.1,0-0.1,0
		c-0.2,0-0.4-0.1-0.5-0.2l-1.6-0.8L255.6,498.4z M253.2,504.4l1.6,0.8c0.2,0.1,0.3,0.1,0.4,0.1c0.1,0,0.2-0.1,0.3-0.3l1.3-1.8
		l0.3,0.2l-1.3,1.8c-0.1,0.1-0.3,0.3-0.5,0.4c0,0-0.1,0-0.1,0c-0.2,0-0.4-0.1-0.5-0.2l-1.6-0.8L253.2,504.4z M249.1,499l1.5,0.9
		c0.1,0.1,0.3,0.2,0.4,0.1c0.1,0,0.2-0.1,0.3-0.3l1.5-1.7l0.3,0.2l-1.5,1.7c-0.1,0.1-0.3,0.3-0.5,0.4c0,0-0.1,0-0.1,0
		c-0.2,0-0.4-0.1-0.5-0.2l-1.5-0.9L249.1,499z M246.7,505l1.5,0.9c0.1,0.1,0.3,0.2,0.4,0.1c0.1,0,0.2-0.1,0.3-0.3l1.5-1.7l0.3,0.2
		l-1.5,1.7c-0.1,0.1-0.3,0.3-0.5,0.4c0,0-0.1,0-0.1,0c-0.2,0-0.4-0.1-0.5-0.2l-1.5-0.9L246.7,505z M242.5,499.4l1.5,0.9
		c0.1,0.1,0.3,0.2,0.4,0.1c0.1,0,0.2-0.1,0.3-0.3l1.5-1.7l0.3,0.2l-1.5,1.7c-0.1,0.1-0.3,0.3-0.5,0.4c0,0-0.1,0-0.1,0
		c-0.2,0-0.4-0.1-0.5-0.2l-1.5-0.9L242.5,499.4z M240,505.7l0.2-0.3l1.5,0.9c0.1,0.1,0.3,0.2,0.4,0.1c0.1,0,0.2-0.1,0.3-0.3l1.5-1.7
		l0.3,0.2l-1.5,1.7c-0.1,0.1-0.3,0.3-0.5,0.4c0,0-0.1,0-0.1,0c-0.2,0-0.4-0.1-0.5-0.2L240,505.7z M243.2,518.1
		c-0.2,0-0.4-0.1-0.5-0.2l-1.5-0.9l0.2-0.3l1.5,0.9c0.1,0.1,0.3,0.2,0.4,0.1c0.1,0,0.2-0.1,0.3-0.3l1.5-1.7l0.3,0.2l-1.5,1.7
		C243.7,517.9,243.5,518.1,243.2,518.1C243.3,518.1,243.2,518.1,243.2,518.1z M246.2,523.7c-0.1,0.1-0.3,0.3-0.5,0.4
		c0,0-0.1,0-0.1,0c-0.2,0-0.4-0.1-0.5-0.2l-1.5-0.9l0.2-0.3l1.5,0.9c0.1,0.1,0.3,0.2,0.4,0.1c0.1,0,0.2-0.1,0.3-0.3l1.5-1.7l0.3,0.2
		L246.2,523.7z M246.2,511.8c-0.1,0.1-0.3,0.3-0.5,0.4c0,0-0.1,0-0.1,0c-0.2,0-0.4-0.1-0.5-0.2l-1.5-0.9l0.2-0.3l1.5,0.9
		c0.1,0.1,0.3,0.2,0.4,0.1c0.1,0,0.2-0.1,0.3-0.3l1.5-1.7l0.3,0.2L246.2,511.8z M249.8,517.8c-0.2,0-0.4-0.1-0.5-0.2l-1.5-0.9
		l0.2-0.3l1.5,0.9c0.1,0.1,0.3,0.2,0.4,0.1c0.1,0,0.2-0.1,0.3-0.3l1.5-1.7l0.3,0.2l-1.5,1.7C250.3,517.5,250.1,517.7,249.8,517.8
		C249.8,517.8,249.8,517.8,249.8,517.8z M252.8,523.4c-0.1,0.1-0.3,0.3-0.5,0.4c0,0-0.1,0-0.1,0c-0.2,0-0.4-0.1-0.5-0.2l-1.5-0.9
		l0.2-0.3l1.5,0.9c0.1,0.1,0.3,0.2,0.4,0.1c0.1,0,0.2-0.1,0.3-0.3l1.5-1.7l0.3,0.2L252.8,523.4z M252.8,511.4
		c-0.1,0.1-0.3,0.3-0.5,0.4c0,0-0.1,0-0.1,0c-0.2,0-0.4-0.1-0.5-0.2l-1.5-0.9l0.2-0.3l1.5,0.9c0.1,0.1,0.3,0.2,0.4,0.1
		c0.1,0,0.2-0.1,0.3-0.3l1.5-1.7l0.3,0.2L252.8,511.4z M256.4,517c-0.2,0-0.4-0.1-0.5-0.2l-1.6-0.8l0.2-0.3l1.6,0.8
		c0.2,0.1,0.3,0.1,0.4,0.1c0.1,0,0.2-0.1,0.3-0.3l1.3-1.8l0.3,0.2l-1.3,1.8c-0.1,0.1-0.3,0.3-0.5,0.4C256.5,517,256.4,517,256.4,517
		z M259.4,522.6c-0.1,0.1-0.3,0.3-0.5,0.4c0,0-0.1,0-0.1,0c-0.2,0-0.4-0.1-0.5-0.2l-1.6-0.8l0.2-0.3l1.6,0.8
		c0.2,0.1,0.3,0.1,0.4,0.1c0.1,0,0.2-0.1,0.3-0.3l1.3-1.8l0.3,0.2L259.4,522.6z M259.4,510.6c-0.1,0.1-0.3,0.3-0.5,0.4
		c0,0-0.1,0-0.1,0c-0.2,0-0.4-0.1-0.5-0.2l-1.6-0.8l0.2-0.3l1.6,0.8c0.2,0.1,0.3,0.1,0.4,0.1c0.1,0,0.2-0.1,0.3-0.3l1.3-1.8l0.3,0.2
		L259.4,510.6z M259.6,503.8l0.2-0.3l1.6,0.8c0.2,0.1,0.3,0.1,0.4,0.1c0.1,0,0.2-0.1,0.3-0.3l1.3-1.8l0.3,0.2l-1.3,1.8
		c-0.1,0.1-0.3,0.3-0.5,0.4c0,0-0.1,0-0.1,0c-0.2,0-0.4-0.1-0.5-0.2L259.6,503.8z M262.9,516.1c-0.2,0-0.4-0.1-0.5-0.2l-1.6-0.8
		l0.2-0.3l1.6,0.8c0.2,0.1,0.3,0.1,0.4,0.1c0.1,0,0.2-0.1,0.3-0.3l1.3-1.8l0.3,0.2l-1.3,1.8c-0.1,0.1-0.3,0.3-0.5,0.4
		C263,516.1,262.9,516.1,262.9,516.1z M265.9,521.7c-0.1,0.1-0.3,0.3-0.5,0.4c0,0-0.1,0-0.1,0c-0.2,0-0.4-0.1-0.5-0.2l-1.6-0.8
		l0.2-0.3l1.6,0.8c0.2,0.1,0.3,0.1,0.4,0.1c0.1,0,0.2-0.1,0.3-0.3l1.3-1.8l0.3,0.2L265.9,521.7z M265.9,509.7
		c-0.1,0.1-0.3,0.3-0.5,0.4c0,0-0.1,0-0.1,0c-0.2,0-0.4-0.1-0.5-0.2l-1.6-0.8l0.2-0.3l1.6,0.8c0.2,0.1,0.3,0.1,0.4,0.1
		c0.1,0,0.2-0.1,0.3-0.3l1.3-1.8l0.3,0.2L265.9,509.7z M266.1,502.3l0.1-0.3l1.6,0.8c0.2,0.1,0.3,0.1,0.4,0.1c0.1,0,0.2-0.2,0.3-0.3
		l1.3-1.9l0.3,0.2l-1.3,1.9c-0.1,0.1-0.2,0.4-0.5,0.4c-0.1,0-0.1,0-0.2,0c-0.2,0-0.4-0.1-0.5-0.1L266.1,502.3z M269.4,514.6
		c-0.2,0-0.4-0.1-0.5-0.1l-1.6-0.8l0.1-0.3l1.6,0.8c0.2,0.1,0.3,0.1,0.4,0.1c0.1,0,0.2-0.2,0.3-0.3l1.3-1.9l0.3,0.2l-1.3,1.9
		c-0.1,0.1-0.2,0.4-0.5,0.4C269.5,514.5,269.5,514.6,269.4,514.6z M272.5,520.1c-0.1,0.1-0.2,0.4-0.5,0.4c-0.1,0-0.1,0-0.2,0
		c-0.2,0-0.4-0.1-0.5-0.1l-1.6-0.8l0.1-0.3l1.6,0.8c0.2,0.1,0.3,0.1,0.4,0.1c0.1,0,0.2-0.2,0.3-0.3l1.3-1.9l0.3,0.2L272.5,520.1z
		 M272.5,508.1c-0.1,0.1-0.2,0.4-0.5,0.4c-0.1,0-0.1,0-0.2,0c-0.2,0-0.4-0.1-0.5-0.1l-1.6-0.8l0.1-0.3l1.6,0.8
		c0.2,0.1,0.3,0.1,0.4,0.1c0.1,0,0.2-0.2,0.3-0.3l1.3-1.9l0.3,0.2L272.5,508.1z M272.6,501.2l0.1-0.3l1.6,0.8
		c0.2,0.1,0.3,0.1,0.4,0.1c0.1,0,0.2-0.2,0.3-0.3l1.3-1.9l0.3,0.2l-1.3,1.9c-0.1,0.1-0.2,0.4-0.5,0.4c-0.1,0-0.1,0-0.2,0
		c-0.2,0-0.4-0.1-0.5-0.1L272.6,501.2z M276.1,513.4c-0.1,0-0.1,0-0.2,0c-0.2,0-0.4-0.1-0.5-0.1l-1.6-0.8l0.1-0.3l1.6,0.8
		c0.2,0.1,0.3,0.1,0.4,0.1c0.1,0,0.2-0.2,0.3-0.3l1.3-1.9l0.3,0.2l-1.3,1.9C276.5,513.1,276.3,513.3,276.1,513.4z M278.9,519
		c-0.1,0.1-0.2,0.4-0.5,0.4c-0.1,0-0.1,0-0.2,0c-0.2,0-0.4-0.1-0.5-0.1l-1.6-0.8l0.1-0.3l1.6,0.8c0.2,0.1,0.3,0.1,0.4,0.1
		c0.1,0,0.2-0.2,0.3-0.3l1.3-1.9l0.3,0.2L278.9,519z M278.9,507c-0.1,0.1-0.2,0.4-0.5,0.4c-0.1,0-0.1,0-0.2,0
		c-0.2,0-0.4-0.1-0.5-0.1l-1.6-0.8l0.1-0.3l1.6,0.8c0.2,0.1,0.3,0.1,0.4,0.1c0.1,0,0.2-0.2,0.3-0.3l1.3-1.9l0.3,0.2L278.9,507z
		 M283.1,522.9c-0.1,0.1-0.2,0.4-0.5,0.4c-0.1,0-0.1,0-0.2,0c-0.2,0-0.4-0.1-0.5-0.1l-1.6-0.8l0.1-0.3l1.6,0.8
		c0.2,0.1,0.3,0.1,0.4,0.1c0.1,0,0.2-0.2,0.3-0.3l1.3-1.9l0.3,0.2L283.1,522.9z M285.5,516.9c-0.1,0.1-0.2,0.4-0.5,0.4
		c-0.1,0-0.1,0-0.2,0c-0.2,0-0.4-0.1-0.5-0.1l-1.6-0.8l0.1-0.3l1.6,0.8c0.2,0.1,0.3,0.1,0.4,0.1c0.1,0,0.2-0.2,0.3-0.3l1.3-1.9
		l0.3,0.2L285.5,516.9z M285.5,505c-0.1,0.1-0.2,0.4-0.5,0.4c-0.1,0-0.1,0-0.2,0c-0.2,0-0.4-0.1-0.5-0.1l-1.6-0.8l0.1-0.3l1.6,0.8
		c0.2,0.1,0.3,0.1,0.4,0.1c0.1,0,0.2-0.2,0.3-0.3l1.3-1.9l0.3,0.2L285.5,505z M289.5,521.8c-0.1,0.1-0.2,0.4-0.5,0.4
		c-0.1,0-0.1,0-0.2,0c-0.2,0-0.4-0.1-0.5-0.1l-1.6-0.8l0.1-0.3l1.6,0.8c0.2,0.1,0.3,0.1,0.4,0.1c0.1,0,0.2-0.2,0.3-0.3l1.3-1.9
		l0.3,0.2L289.5,521.8z M291.4,516.2c-0.1,0-0.1,0-0.2,0c-0.2,0-0.4-0.1-0.5-0.1l-1.6-0.8l0.1-0.3l1.6,0.8c0.2,0.1,0.3,0.1,0.4,0.1
		c0.1,0,0.2-0.2,0.3-0.3l1.3-1.9l0.3,0.2l-1.3,1.9C291.8,515.9,291.7,516.1,291.4,516.2z M295.8,520.8c-0.1,0.1-0.3,0.3-0.5,0.4
		c0,0-0.1,0-0.1,0c-0.2,0-0.4-0.1-0.5-0.2l-1.5-0.9l0.2-0.3l1.5,0.9c0.1,0.1,0.3,0.2,0.4,0.1c0.1,0,0.2-0.1,0.3-0.3l1.5-1.7l0.3,0.2
		L295.8,520.8z M295.8,508.8c-0.1,0.1-0.3,0.3-0.5,0.4c0,0-0.1,0-0.1,0c-0.2,0-0.4-0.1-0.5-0.2l-1.5-0.9l0.2-0.3l1.5,0.9
		c0.1,0.1,0.3,0.2,0.4,0.1c0.1,0,0.2-0.1,0.3-0.3l1.5-1.7l0.3,0.2L295.8,508.8z"/>
	<path fill="#ECC2C0" d="M212.9,458.7c0.1,0.1,0.3,0.1,0.3,0.1l0.3,0.6c-0.1,0-0.2,0.1-0.3,0.1l10.3,12.1c0.4,0,0.8,0.1,1,0.3
		c6.4,5.6,13.7,12.1,19.5,19.4l46.7-9.6c4.5-16.6,4.1-36.3-1-53.1c-5.8-19-17.3-36.9-33.3-51.7c-0.7-0.7-1.7-0.9-2.6-0.6
		c-0.9,0.3-1.7,1.2-1.9,2.1c-0.5,3.4-0.8,6.7-0.3,9.9c0.7,4.3,3.2,8.3,5.7,12.1c2.8,4.4,5.7,9,5.9,14.2c0.1,2-0.3,3.8-1.1,5.2
		c-1.1,2.1-3.2,3.6-5.8,4.3c-2.4,0.6-5.1,0.4-7.5-0.5c-4.7-1.9-8-6.1-10.7-9.9c-2.3-3.3-4.8-8.3-5.7-10.3c-0.5-1.1-3-6.3-2.8-7
		c0-0.1,0.1-0.2,0.2-0.2c5.7-2.2,10.8-5.4,15.3-9.5c0.3-0.3,0.7-0.6,1.1-0.9c1.3-1.1,2.7-2.3,3.4-3.6c1-1.9,1.2-4,0.5-5.6
		c-0.4-0.9-1.8-1.8-2.8-2c-0.7-0.1-1.4,0.1-2.1,0.3c-5.4,1.6-10.9,3.2-15.7,6.2c-2.7,1.7-5.2,3.1-8,4.5c-0.6,0.3-1.1,0.5-1.6,0.8
		c-2.1,0.9-3.6,1.6-5.1,3.6c-1.8,2.3-1.5,4.8-1.2,7.8c0.3,2.1,0.5,4.3,0.9,6.5c0.2,1.1,0.5,2.3,0.7,3.4c0.9,4,1.7,8.2,1.1,12.2
		l-0.2,1.1l-0.5-1c-1.6-3.6-4.8-6.2-7.9-8.7c-3.4-2.7-6.9-5.6-8.4-9.7c-0.3-0.9-0.5-1.9-0.6-2.8c-0.1-0.7-0.2-1.4-0.4-2.1
		c-0.4-1.6-1-3.2-1.7-4.7c-1.2-2.6-2.8-5.4-5-8.7c-4.8-7-7.9-7.9-10.4-7.8c-0.2,0-0.4,0-0.6,0.1c-0.2,0.2-0.2,0.6,0,1.2
		c2.1,5.9,2.9,12.2,3.8,18.3c0.4,3,0.7,6.1,1,9.1l0.2,1.5c0.1,0.6,0.1,1.3,0.1,2c0.1,2.5,0.3,5.2,1.8,7c5.8,7,12.2,13.3,19.1,18.8
		l1,0.8l0.3,0.2L212.9,458.7z"/>
	<path fill="#ECC2C0" d="M245.1,492.9c4.7,0.6,10.1,0.2,15.1-0.9c3.2-0.7,6.4-1.3,9.6-1.8c2.2-0.4,4.6-0.8,6.9-1.2
		c1.2-0.2,2.5-0.6,3.8-1c1.4-0.4,2.9-0.9,4.4-1.1c0.9-0.2,5-2.1,5.2-2.7c0.2-0.7,0.4-1.5,0.6-2.2l-46.7,9.6
		C244.4,491.9,244.8,492.4,245.1,492.9z"/>
	<path fill="#441211" d="M213,459.1l0,0.2c0.1-0.1,0.2-0.1,0.3-0.2C213.3,459.2,213.1,459.1,213,459.1z"/>
	<path fill="#441211" d="M253.7,376.2c1-0.3,2.1,0,2.9,0.7c15.2,14.2,27.3,31.9,33.4,51.8c5.1,16.6,5.6,36.2,1.1,53.1l0.2,0
		c0.1,0,0.1,0,0.2,0c4.4-16.7,4-36.3-1.1-53.1c-5.9-19.1-17.4-37.1-33.5-52c-0.9-0.8-2.1-1.1-3.2-0.8c-0.7,0.2-1.3,0.7-1.7,1.3
		c0,0.3-0.1,0.5-0.1,0.8C252.1,377.2,252.8,376.5,253.7,376.2z"/>
	<path fill="#441211" d="M243.6,491.5c-5.6-7-12.7-13.4-19.4-19.2c-0.1-0.1-0.3-0.2-0.5-0.2l0.2,0.2l0,0.2c0,0,0.1,0,0.1,0
		c6.3,5.5,13.5,11.9,19.2,19.1c0.1,0,0.2-0.1,0.2-0.1L243.6,491.5z"/>
	<path fill="#441211" d="M187.3,414.7c-2-2.5-1.8-6.1-2.1-9.2c-0.3-3.5-0.7-7.1-1.1-10.6c-0.8-6.1-1.7-12.3-3.7-18.2
		c-0.2-0.5-0.3-1.2,0.1-1.6c0.2-0.2,0.5-0.2,0.8-0.2c4.6-0.1,8,4.1,10.6,7.9c1.9,2.8,3.7,5.7,5,8.7c0.7,1.5,1.3,3.1,1.7,4.8
		c0.4,1.6,0.5,3.4,1.1,5c2.7,7.8,12.9,10.8,16.3,18.4c0.8-5.2-0.9-10.4-1.8-15.5c-0.4-2.1-0.7-4.3-0.9-6.5c-0.4-3-0.6-5.6,1.3-8
		c2-2.5,4-3,6.9-4.5c2.9-1.4,5.3-2.8,8-4.5c4.8-3,10.4-4.7,15.8-6.3c0.7-0.2,1.5-0.4,2.2-0.3c1.1,0.2,2.6,1.2,3,2.2
		c0.8,1.9,0.4,4.1-0.5,5.9c-0.9,1.8-3,3.3-4.5,4.7c-4.5,4.1-9.8,7.3-15.4,9.5c-0.4,0.2,4.8,11.7,8.5,17.1c2.8,4,6,8,10.5,9.8
		c4.5,1.8,10.5,0.7,12.8-3.6c0.8-1.5,1.1-3.3,1-5c-0.3-9.6-9.9-16.8-11.5-26.3c-0.3-1.7-0.3-3.4-0.2-5.1c-0.1,0.8-0.2,1.7-0.4,2.5
		c0,0.9,0.1,1.8,0.3,2.7c0.8,4.5,3.3,8.5,5.7,12.3c2.9,4.6,5.6,8.9,5.8,13.9c0.1,1.9-0.3,3.5-1,4.9c-1.8,3.4-7,5.6-12.4,3.5
		c-4.5-1.8-7.8-5.9-10.4-9.7c-3.6-5.2-8.1-15.1-8.5-16.7c5.7-2.2,10.8-5.4,15.3-9.5c0.3-0.3,0.7-0.6,1.1-0.9
		c1.3-1.1,2.8-2.4,3.5-3.8c0.2-0.4,0.4-0.9,0.5-1.3c0.1-1.1,0.3-2.1,0.4-3.1c-0.1-0.6-0.2-1.2-0.4-1.7c-0.5-1.2-2.1-2.2-3.2-2.4
		c-0.8-0.2-1.7,0.1-2.4,0.3c-5.4,1.6-11,3.3-15.9,6.3c-2.7,1.7-5.1,3.1-8,4.5c-0.6,0.3-1.1,0.5-1.6,0.7c-2.1,0.9-3.7,1.7-5.4,3.8
		c-2,2.6-1.7,5.3-1.3,8.2c0.3,2.1,0.5,4.3,0.9,6.5c0.2,1.1,0.5,2.3,0.7,3.4c0.8,3.6,1.5,7.3,1.2,10.9c-1.8-3.2-4.7-5.6-7.6-7.9
		c-3.5-2.8-6.8-5.5-8.2-9.4c-0.3-0.9-0.5-1.8-0.6-2.7c-0.1-0.7-0.3-1.5-0.5-2.2c-0.4-1.6-1-3.2-1.7-4.8c-1.2-2.7-2.8-5.5-5-8.8
		c-2.8-4.1-6.3-8.2-10.9-8.1c-0.3,0-0.7,0-1,0.3c-0.7,0.6-0.3,1.6-0.2,1.9c2.1,5.8,2.9,12.1,3.7,18.1c0.4,3,0.7,6.1,1,9l0.2,1.5
		c0.1,0.6,0.1,1.3,0.1,1.9c0.2,2.6,0.3,5.4,2,7.4c5.3,6.4,11.2,12.3,17.5,17.5l1.5,0.8C199.2,427.7,192.9,421.5,187.3,414.7z"/>
	<path fill="#441211" d="M251.1,378.1c-0.1,1-0.2,2.1-0.4,3.1C251.1,380.1,251.2,379.1,251.1,378.1z"/>
	<path fill="#441211" d="M250.7,386c0.1-0.9,0.2-1.7,0.4-2.5c0.1-1.6,0.3-3.3,0.5-4.9c0-0.2,0.1-0.4,0.2-0.6c0-0.3,0.1-0.5,0.1-0.8
		c-0.3,0.4-0.5,0.9-0.6,1.3C250.9,381,250.7,383.5,250.7,386z"/>
	<path fill="#441211" d="M244.8,493.5l0.1,0c1.6,0.2,3.2,0.3,4.9,0.3c3.5,0,7.1-0.4,10.6-1.2c3.2-0.7,6.4-1.3,9.5-1.8
		c2.3-0.4,4.6-0.8,6.9-1.2c1.3-0.3,2.6-0.6,3.8-1c1.4-0.4,2.9-0.9,4.3-1.1c0.6-0.1,5.4-2,5.8-3.1c0.3-0.8,0.5-1.7,0.7-2.6
		c-0.1,0-0.1,0-0.2,0l-0.2,0c-0.2,0.8-0.4,1.6-0.7,2.4c-0.2,0.8-4.8,2.8-5.5,2.9c-2.7,0.5-5.4,1.6-8.1,2.1c-5.5,1.1-11,1.7-16.4,3
		c-4.9,1.1-10.3,1.6-15.3,0.9c-0.4-0.6-0.9-1.1-1.3-1.7l-0.1,0c-0.1,0-0.2,0.1-0.2,0.1c0.5,0.6,1,1.2,1.4,1.8L244.8,493.5z"/>
	<path fill="#441211" d="M213.2,459.6c0.1,0,0.2-0.1,0.3-0.1l-0.3-0.6c-0.1,0-0.2,0-0.3-0.1l0.1,0.4c0.2,0.1,0.3,0.1,0.4,0
		c-0.1,0.1-0.2,0.1-0.3,0.2l0,0L213.2,459.6z"/>
	<path fill="#441211" d="M290,428.7c-6.1-19.9-18.1-37.7-33.4-51.8c-0.8-0.7-1.9-1-2.9-0.7c-0.9,0.3-1.6,1-1.9,1.8
		c-0.2,1.8-0.4,3.6-0.7,5.4c-0.1,1.7-0.1,3.4,0.2,5.1c1.6,9.4,11.3,16.7,11.5,26.3c0,1.7-0.2,3.5-1,5c-2.3,4.3-8.3,5.4-12.8,3.6
		c-4.5-1.8-7.8-5.8-10.5-9.8c-3.8-5.4-9-16.9-8.5-17.1c5.7-2.2,10.9-5.5,15.4-9.5c1.5-1.4,3.6-2.9,4.5-4.7c0.9-1.8,1.3-4,0.5-5.9
		c-0.4-1-1.9-2-3-2.2c-0.7-0.1-1.5,0.1-2.2,0.3c-5.5,1.6-11,3.3-15.8,6.3c-2.7,1.7-5.1,3.1-8,4.5c-2.9,1.4-4.9,1.9-6.9,4.5
		c-1.9,2.4-1.6,5-1.3,8c0.3,2.2,0.5,4.3,0.9,6.5c0.9,5.1,2.6,10.4,1.8,15.5c-3.4-7.6-13.6-10.6-16.3-18.4c-0.5-1.6-0.6-3.3-1.1-5
		c-0.4-1.6-1-3.2-1.7-4.8c-1.4-3.1-3.1-6-5-8.7c-2.6-3.8-6-8.1-10.6-7.9c-0.3,0-0.6,0-0.8,0.2c-0.4,0.4-0.3,1-0.1,1.6
		c2.1,5.9,2.9,12.1,3.7,18.2c0.5,3.5,0.8,7,1.1,10.6c0.3,3.1,0,6.7,2.1,9.2c5.6,6.8,11.9,13,18.8,18.5l1.6,0.9l-1-0.8
		c-6.9-5.5-13.3-11.8-19.1-18.8c-1.5-1.9-1.7-4.5-1.8-7c0-0.7-0.1-1.3-0.1-2l-0.2-1.5c-0.3-3-0.6-6-1-9.1
		c-0.8-6.1-1.7-12.4-3.8-18.3c-0.2-0.6-0.2-1,0-1.2c0.1-0.1,0.4-0.1,0.6-0.1c2.4-0.1,5.6,0.8,10.4,7.8c2.2,3.3,3.8,6,5,8.7
		c0.7,1.6,1.3,3.2,1.7,4.7c0.2,0.7,0.3,1.4,0.4,2.1c0.2,0.9,0.3,1.9,0.6,2.8c1.4,4.2,5,7,8.4,9.7c3.1,2.5,6.3,5.1,7.9,8.7l0.5,1
		l0.2-1.1c0.6-4.1-0.3-8.2-1.1-12.2c-0.2-1.1-0.5-2.3-0.7-3.4c-0.4-2.1-0.7-4.3-0.9-6.5c-0.3-2.9-0.6-5.4,1.2-7.8
		c1.5-2,3.1-2.7,5.1-3.6c0.5-0.2,1-0.5,1.6-0.8c2.9-1.4,5.3-2.8,8-4.5c4.8-3,10.4-4.7,15.7-6.2c0.7-0.2,1.4-0.4,2.1-0.3
		c1,0.2,2.4,1.1,2.8,2c0.7,1.7,0.5,3.7-0.5,5.6c-0.7,1.4-2.1,2.6-3.4,3.6c-0.4,0.3-0.8,0.6-1.1,0.9c-4.5,4.1-9.7,7.3-15.3,9.5
		c-0.1,0-0.2,0.1-0.2,0.2c-0.2,0.7,2.3,6,2.8,7c1,2,3.5,7,5.7,10.3c2.7,3.8,6,8,10.7,9.9c2.3,0.9,5,1.1,7.5,0.5
		c2.6-0.7,4.7-2.2,5.8-4.3c0.8-1.4,1.1-3.2,1.1-5.2c-0.1-5.2-3.1-9.8-5.9-14.2c-2.4-3.8-4.9-7.8-5.7-12.1c-0.6-3.2-0.2-6.5,0.3-9.9
		c0.1-0.9,0.9-1.8,1.9-2.1c0.8-0.3,1.8,0,2.6,0.6c16,14.8,27.5,32.7,33.3,51.7c5.1,16.8,5.5,36.4,1,53.1l0.4-0.1
		C295.6,464.9,295.1,445.4,290,428.7z"/>
	<path fill="#441211" d="M224.5,472c-0.2-0.2-0.6-0.3-1-0.3l0.3,0.4c0.2,0,0.4,0.1,0.5,0.2c6.7,5.8,13.8,12.2,19.4,19.2l0.4-0.1
		C238.2,484.2,230.9,477.6,224.5,472z"/>
	<path fill="#441211" d="M251.6,378.6c-0.2,1.6-0.4,3.2-0.5,4.9c0.3-1.9,0.5-3.7,0.7-5.4C251.7,378.2,251.6,378.4,251.6,378.6z"/>
	<path fill="#441211" d="M290.1,484.1c-0.2,0.6-4.4,2.5-5.2,2.7c-1.5,0.3-3,0.7-4.4,1.1c-1.2,0.4-2.5,0.7-3.8,1
		c-2.3,0.5-4.6,0.8-6.9,1.2c-3.1,0.5-6.4,1.1-9.6,1.8c-5,1.2-10.4,1.5-15.1,0.9c-0.4-0.5-0.8-1-1.1-1.4l-0.4,0.1
		c0.4,0.6,0.9,1.1,1.3,1.7c5.1,0.6,10.5,0.2,15.3-0.9c5.5-1.3,10.9-1.9,16.4-3c2.7-0.5,5.4-1.7,8.1-2.1c0.7-0.1,5.3-2.1,5.5-2.9
		c0.2-0.8,0.5-1.6,0.7-2.4l-0.4,0.1C290.5,482.6,290.3,483.4,290.1,484.1z"/>
	<path fill="#EDC2C0" d="M244.4,500.8C244.4,500.8,244.5,500.8,244.4,500.8c0.3,0,0.5-0.2,0.6-0.4l1.5-1.7l-0.3-0.2l-1.5,1.7
		c-0.1,0.1-0.2,0.2-0.3,0.3c-0.1,0-0.3-0.1-0.4-0.1l-1.5-0.9l-0.2,0.3l1.5,0.9C244,500.7,244.2,500.8,244.4,500.8z"/>
	<path fill="#EDC2C0" d="M251,500.4C251,500.4,251,500.4,251,500.4c0.3,0,0.5-0.2,0.6-0.4l1.5-1.7l-0.3-0.2l-1.5,1.7
		c-0.1,0.1-0.2,0.2-0.3,0.3c-0.1,0-0.3-0.1-0.4-0.1l-1.5-0.9l-0.2,0.3l1.5,0.9C250.6,500.3,250.7,500.4,251,500.4z"/>
	<path fill="#EDC2C0" d="M257.6,499.7c0,0,0.1,0,0.1,0c0.2-0.1,0.4-0.3,0.5-0.4l1.3-1.8l-0.3-0.2l-1.3,1.8c-0.1,0.1-0.2,0.3-0.3,0.3
		c-0.1,0-0.3,0-0.4-0.1l-1.6-0.8l-0.2,0.3l1.6,0.8C257.2,499.6,257.4,499.7,257.6,499.7z"/>
	<path fill="#EDC2C0" d="M264.1,498.8c0,0,0.1,0,0.1,0c0.2-0.1,0.4-0.3,0.5-0.4l1.3-1.8l-0.3-0.2l-1.3,1.8c-0.1,0.1-0.2,0.3-0.3,0.3
		c-0.1,0-0.3,0-0.4-0.1l-1.6-0.8l-0.2,0.3l1.6,0.8C263.7,498.7,263.9,498.8,264.1,498.8z"/>
	<path fill="#EDC2C0" d="M270.6,497.2c0.1,0,0.1,0,0.2,0c0.2-0.1,0.4-0.3,0.5-0.4l1.3-1.9l-0.3-0.2l-1.3,1.9
		c-0.1,0.1-0.2,0.3-0.3,0.3c-0.1,0-0.3,0-0.4-0.1l-1.6-0.8l-0.1,0.3l1.6,0.8C270.3,497.1,270.4,497.2,270.6,497.2z"/>
	<path fill="#EDC2C0" d="M277.1,496.1c0.1,0,0.1,0,0.2,0c0.2-0.1,0.4-0.3,0.5-0.4l1.3-1.9l-0.3-0.2l-1.3,1.9
		c-0.1,0.1-0.2,0.3-0.3,0.3c-0.1,0-0.3,0-0.4-0.1l-1.6-0.8l-0.1,0.3l1.6,0.8C276.7,496,276.9,496.1,277.1,496.1z"/>
	<path fill="#EDC2C0" d="M283.6,494.1c0.1,0,0.1,0,0.2,0c0.2-0.1,0.4-0.3,0.5-0.4l1.3-1.9l-0.3-0.2l-1.3,1.9
		c-0.1,0.1-0.2,0.3-0.3,0.3c-0.1,0-0.3,0-0.4-0.1l-1.6-0.8l-0.1,0.3l1.6,0.8C283.2,494,283.4,494.1,283.6,494.1z"/>
	<path fill="#EDC2C0" d="M290.1,492.9c0.1,0,0.1,0,0.2,0c0.2-0.1,0.4-0.3,0.5-0.4l1.3-1.9l-0.3-0.2l-1.3,1.9
		c-0.1,0.1-0.2,0.3-0.3,0.3c-0.1,0-0.3,0-0.4-0.1l-1.6-0.8L288,492l1.6,0.8C289.7,492.8,289.9,492.9,290.1,492.9z"/>
	<path fill="#EDC2C0" d="M242,506.8C242,506.8,242.1,506.8,242,506.8c0.3,0,0.5-0.2,0.6-0.4l1.5-1.7l-0.3-0.2l-1.5,1.7
		c-0.1,0.1-0.2,0.2-0.3,0.3c-0.1,0-0.3-0.1-0.4-0.1l-1.5-0.9l-0.2,0.3l1.5,0.9C241.6,506.7,241.8,506.8,242,506.8z"/>
	<path fill="#EDC2C0" d="M293.5,497.6c0.1,0.1,0.3,0.2,0.5,0.2c0,0,0.1,0,0.1,0c0.2,0,0.4-0.2,0.5-0.4l1.5-1.7l-0.3-0.2l-1.5,1.7
		c-0.1,0.1-0.2,0.2-0.3,0.3c-0.1,0-0.3-0.1-0.4-0.1l-1.5-0.9l-0.2,0.3L293.5,497.6z"/>
	<path fill="#EDC2C0" d="M248.6,506.4C248.6,506.4,248.6,506.4,248.6,506.4c0.3,0,0.5-0.2,0.6-0.4l1.5-1.7l-0.3-0.2l-1.5,1.7
		c-0.1,0.1-0.2,0.2-0.3,0.3c-0.1,0-0.3-0.1-0.4-0.1l-1.5-0.9l-0.2,0.3l1.5,0.9C248.2,506.3,248.4,506.4,248.6,506.4z"/>
	<path fill="#EDC2C0" d="M255.2,505.6c0,0,0.1,0,0.1,0c0.2-0.1,0.4-0.3,0.5-0.4l1.3-1.8l-0.3-0.2l-1.3,1.8c-0.1,0.1-0.2,0.3-0.3,0.3
		c-0.1,0-0.3,0-0.4-0.1l-1.6-0.8l-0.2,0.3l1.6,0.8C254.8,505.5,255,505.6,255.2,505.6z"/>
	<path fill="#EDC2C0" d="M261.7,504.8c0,0,0.1,0,0.1,0c0.2-0.1,0.4-0.3,0.5-0.4l1.3-1.8l-0.3-0.2l-1.3,1.8c-0.1,0.1-0.2,0.3-0.3,0.3
		c-0.1,0-0.3,0-0.4-0.1l-1.6-0.8l-0.2,0.3l1.6,0.8C261.3,504.7,261.5,504.8,261.7,504.8z"/>
	<path fill="#EDC2C0" d="M268.2,503.2c0.1,0,0.1,0,0.2,0c0.2-0.1,0.4-0.3,0.5-0.4l1.3-1.9l-0.3-0.2l-1.3,1.9
		c-0.1,0.1-0.2,0.3-0.3,0.3c-0.1,0-0.3,0-0.4-0.1l-1.6-0.8l-0.1,0.3l1.6,0.8C267.9,503.1,268,503.2,268.2,503.2z"/>
	<path fill="#EDC2C0" d="M274.7,502.1c0.1,0,0.1,0,0.2,0c0.2-0.1,0.4-0.3,0.5-0.4l1.3-1.9l-0.3-0.2l-1.3,1.9
		c-0.1,0.1-0.2,0.3-0.3,0.3c-0.1,0-0.3,0-0.4-0.1l-1.6-0.8l-0.1,0.3l1.6,0.8C274.4,502,274.5,502.1,274.7,502.1z"/>
	<path fill="#EDC2C0" d="M281.2,500c0.1,0,0.1,0,0.2,0c0.2-0.1,0.4-0.3,0.5-0.4l1.3-1.9l-0.3-0.2l-1.3,1.9c-0.1,0.1-0.2,0.3-0.3,0.3
		c-0.1,0-0.3,0-0.4-0.1l-1.6-0.8l-0.1,0.3l1.6,0.8C280.9,499.9,281,500,281.2,500z"/>
	<path fill="#EDC2C0" d="M287.7,498.9c0.1,0,0.1,0,0.2,0c0.2-0.1,0.4-0.3,0.5-0.4l1.3-1.9l-0.3-0.2l-1.3,1.9
		c-0.1,0.1-0.2,0.3-0.3,0.3c-0.1,0-0.3,0-0.4-0.1l-1.6-0.8l-0.1,0.3l1.6,0.8C287.3,498.8,287.5,498.9,287.7,498.9z"/>
	<path fill="#EDC2C0" d="M285.2,504.8c-0.1,0.1-0.2,0.3-0.3,0.3c-0.1,0-0.3,0-0.4-0.1l-1.6-0.8l-0.1,0.3l1.6,0.8
		c0.1,0.1,0.3,0.1,0.5,0.1c0.1,0,0.1,0,0.2,0c0.2-0.1,0.4-0.3,0.5-0.4l1.3-1.9l-0.3-0.2L285.2,504.8z"/>
	<path fill="#EDC2C0" d="M291.4,504.3c0.2-0.1,0.4-0.3,0.5-0.4l1.3-1.9l-0.3-0.2l-1.3,1.9c-0.1,0.1-0.2,0.3-0.3,0.3
		c-0.1,0-0.3,0-0.4-0.1l-1.6-0.8l-0.1,0.3l1.6,0.8c0.1,0.1,0.3,0.1,0.5,0.1C291.3,504.3,291.4,504.3,291.4,504.3z"/>
	<g>
		<path fill="#ECC2C0" d="M198.2,462.9c-4.7-0.7-8.1-4.2-10.6-7.2c-0.3-0.3-0.6-0.7-0.9-1.1c-1.4-1.8-2.9-3.7-5-4.3
			c-0.5-0.2-3.3-0.2-3.9,0.4c-0.1,0.1-0.1,0.1-0.1,0.2c0.5,4.6,2.2,9.2,5.1,14c4.6,7.7,10.7,9.9,14.4,9.4c3.2-0.4,6.1-0.5,9-0.6
			c3.2-0.1,6.6-0.2,10.1-0.7c1.2-0.2,2.4-0.5,3.4-0.7c1.4-0.4,2.7-0.7,3.6-0.6l-10.3-12.1C208.4,461.7,203.3,463.7,198.2,462.9z"/>
		<path fill="#441211" stroke="#441211" stroke-width="0.25" stroke-miterlimit="10" d="M219.9,472.3c-1.1,0.3-2.3,0.6-3.4,0.7
			c-3.6,0.5-6.9,0.6-10.1,0.7c-2.9,0.1-5.8,0.2-9,0.6c-3.8,0.4-9.8-1.8-14.4-9.4c-2.9-4.8-4.6-9.4-5.1-14c0,0,0-0.1,0.1-0.2
			c0.7-0.6,3.4-0.5,3.9-0.4c2.1,0.6,3.6,2.6,5,4.3c0.3,0.4,0.6,0.7,0.9,1.1c2.4,3,5.9,6.5,10.6,7.2c5.1,0.7,10.2-1.2,15-3.4
			l-0.2-0.3l0,0c-4.5,2-9.7,4-14.7,3.3c-4.4-0.6-7.7-3.8-10.4-7c-1.6-2-3.4-4.8-6-5.5c-0.7-0.2-4.6-0.3-4.4,0.9
			c0.6,5.2,2.6,9.8,5.2,14.1c3.1,5.1,8.8,10.3,14.8,9.6c6.8-0.8,12.4-0.3,19.1-1.3c2.9-0.4,5.9-1.6,7.3-1.3l-0.3-0.4
			C222.6,471.6,221.4,471.9,219.9,472.3z"/>
	</g>
	<g>
		<path fill="#ECC2C0" d="M206.4,433.9c-1-0.2-2.1-0.4-3.1-0.6c-2.1-0.4-4.3-0.8-6.5-1.3c-0.4-0.1-0.7-0.2-1.1-0.3
			c-2-0.5-4.1-0.9-5.9-2.1c-1.7-1.1-3.3-2.8-4.8-5.1c-1.5-2.4-2.9-4.9-4.3-7.3c-1.8-3.3-3.7-6.7-6-9.8c-1-1.3-2.3-2.3-3.7-2.8
			c-0.8-0.3-1.4-0.3-1.9-0.2c-1.3,0.3-1.4,1.7-1.4,3.4c0,0.2,0,0.4,0,0.6c0,0.9,0,1.5,0,2.2c0.1,3.4,0.9,6.8,2.6,11.3
			c6.9,18.6,14.4,24.1,20.1,26.8c2.7,1.3,5.5,2.3,8.3,3.3c2.5,0.9,5.1,1.9,7.6,3l0.1,0.1c1.5,0.7,3,1.4,4.4,2.2
			c0.1,0.1,0.4,0.2,0.6,0.5c0.3,0.2,1,0.8,1.5,1l-4.9-24.4l-0.3-0.2l0.1,0L206.4,433.9z"/>
		<path fill="#441211" stroke="#441211" stroke-width="0.25" stroke-miterlimit="10" d="M211.4,457.7c-0.3-0.2-0.5-0.4-0.6-0.5
			c-1.4-0.8-2.9-1.5-4.4-2.2l-0.1-0.1c-2.5-1.1-5.1-2.1-7.6-3c-2.7-1-5.6-2-8.3-3.3c-5.7-2.7-13.1-8.2-20.1-26.8
			c-1.7-4.5-2.5-7.9-2.6-11.3c0-0.6,0-1.3,0-2.2c0-0.2,0-0.4,0-0.6c0-1.7,0.2-3.1,1.4-3.4c0.5-0.1,1.1-0.1,1.9,0.2
			c1.4,0.5,2.7,1.5,3.7,2.8c2.3,3.1,4.1,6.5,6,9.8c1.3,2.4,2.7,4.9,4.3,7.3c1.5,2.3,3.1,4,4.8,5.1c1.8,1.2,3.9,1.6,5.9,2.1
			c0.4,0.1,0.7,0.2,1.1,0.3c2.1,0.5,4.3,0.9,6.5,1.3c1,0.2,2.1,0.4,3.1,0.6l1.3,0.3l-0.1,0l-1.6-0.9c0.1,0.1,0.3,0.2,0.4,0.3
			c-3.2-0.6-6.4-1.2-9.6-2c-2.3-0.6-4.9-1-6.9-2.3c-1.9-1.3-3.5-3.1-4.7-5.1c-3.6-5.6-6.3-11.7-10.3-17.1c-1-1.3-2.3-2.4-3.9-2.9
			c-0.7-0.2-1.4-0.4-2.1-0.2c-1.8,0.5-1.6,2.8-1.7,4.3c0,0.7-0.1,1.5,0,2.2c0.2,3.9,1.3,7.7,2.6,11.4c3.9,10.6,9.6,21.9,20.2,27
			c5.1,2.5,10.7,3.9,15.9,6.3c1.5,0.7,3.1,1.4,4.5,2.3c0.4,0.2,1.6,1.3,2.4,1.6l-0.1-0.4C212.4,458.5,211.7,457.9,211.4,457.7z"/>
	</g>
</g>
</svg>
