<?xml version="1.0" encoding="utf-8"?>
<!-- Generator: Adobe Illustrator 23.0.2, SVG Export Plug-In . SVG Version: 6.00 Build 0)  -->
<svg version="1.1" id="Layer_1" xmlns="http://www.w3.org/2000/svg" xmlns:xlink="http://www.w3.org/1999/xlink" x="0px" y="0px"
	 width="96px" height="66.1px" viewBox="0 0 96 66.1" enable-background="new 0 0 96 66.1" xml:space="preserve">
<path fill="#D7F1F4" stroke="#441211" stroke-miterlimit="10" d="M86.7,19.1c-2.8,0-5.3,1.3-6.9,3.4C78.7,14.1,71.6,7.7,63,7.7
	c-3,0-5.9,0.8-8.3,2.2c-3.3-5.6-9.4-9.4-16.4-9.4c-10.4,0-18.8,8.3-19.1,18.6C8.8,19.4,0.5,27.8,0.5,38.2c0,10.6,8.6,19.1,19.1,19.1
	c2.2,0,4.3-0.4,6.3-1.1c3.3,5.6,9.4,9.4,16.4,9.4c9.1,0,16.7-6.4,18.6-14.9c2.5,2.8,6.2,4.6,10.3,4.6c7.7,0,13.9-6.2,13.9-13.9
	c0-1.8-0.3-3.5-0.9-5c0.8,0.2,1.6,0.4,2.5,0.4c4.8,0,8.8-3.9,8.8-8.8C95.5,23,91.6,19.1,86.7,19.1z"/>
</svg>
