<?xml version="1.0" encoding="utf-8"?>
<!-- Generator: Adobe Illustrator 23.0.2, SVG Export Plug-In . SVG Version: 6.00 Build 0)  -->
<svg version="1.1" id="Layer_1" xmlns="http://www.w3.org/2000/svg" xmlns:xlink="http://www.w3.org/1999/xlink" x="0px" y="0px"
	 width="86.3px" height="123.6px" viewBox="0 0 86.3 123.6" enable-background="new 0 0 86.3 123.6" xml:space="preserve">
<g>
	<path fill="none" stroke="#441211" stroke-miterlimit="10" d="M61.3,123.6c-0.2-4-0.5-8.7-0.8-12.7c-0.2-3-0.4-5.9-0.9-8.9
		c-0.7-3.7-2-7.2-3.2-10.8c-2.5-7.9-3.9-16.1-4.4-24.4"/>
	<g>
		<path fill="#ECC2C0" stroke="#441211" stroke-miterlimit="10" d="M58.1,59.5c1.3,0.3,2.7-0.1,3.8-0.8C63,58,63.9,57,65,56.2
			c3.4-2.7,7.6-4.1,11.5-6c3.9-1.9,7.7-4.7,9-8.8c0.8-2.6,0.4-5.4-0.5-8c-0.9-2.6-2.4-4.9-3.9-7.1c-0.6-1-1.3-1.9-2.3-2.6
			c-0.6-0.4-1.4-0.6-2.1-1c-2.7-1.3-4.3-4.1-5.7-6.7c-1.6-2.9-2.5-6.2-3.8-9.3c-1.3-3.1-3.8-6.3-7.1-6.2c-1.7,0-3.4,1-4.3,2.5
			c-1.1,1.8-0.9,4.1-1,6.2c-0.4,8.5-5.7,16-7.3,24.3c-0.5,2.7-0.4,5.6-0.4,8.4c0,2.3-0.2,4.6,0.1,6.9c0.2,1.1,0.5,2,1.1,2.9
			c1.6,2.4,0.9,5.6,2.1,8.1c0.1,0.3,0.4,0.6,0.7,0.6c0.3,0,0.5-0.2,0.6-0.4c0.5-0.6,1.1-1.2,1.7-1.7c0.5-0.5,1.2-1,1.9-0.8
			c0.3,0,1,1,1.3,1.2C57.4,59.1,57.3,59.3,58.1,59.5z"/>
		<path fill="none" stroke="#441211" stroke-linejoin="round" stroke-miterlimit="10" d="M52.2,55.6c0.6-2.5,2.4-4.5,4.4-6.2
			c2-1.6,4.2-3,6.1-4.8c1.8-1.8,3.3-4.3,3.1-6.8"/>
		<path fill="none" stroke="#441211" stroke-linejoin="round" stroke-miterlimit="10" d="M59.7,43.6c0.7-1,1.4-2.1,2.1-3.1
			c1.4-2.1,2.9-4.3,3.7-6.7c1-3,0.9-6.2,0.7-9.3"/>
		<path fill="none" stroke="#441211" stroke-linejoin="round" stroke-miterlimit="10" d="M57.3,54.2c0.7-2.8,3.1-4.7,5.6-6.2
			c2.5-1.4,5.2-2.7,6.9-4.9c1.3-1.7,2-3.8,1.9-5.9"/>
		<path fill="none" stroke="#441211" stroke-linejoin="round" stroke-miterlimit="10" d="M73.1,33.1c0.6-2.6,0.8-5.2,0.6-7.9"/>
		<path fill="none" stroke="#441211" stroke-linejoin="round" stroke-miterlimit="10" d="M75.5,32.6c0-0.8-0.1-1.6-0.1-2.4"/>
		<path fill="none" stroke="#441211" stroke-linejoin="round" stroke-miterlimit="10" d="M68,50.2c2.6,0,5.1-1.2,7.3-2.7
			c1.8-1.2,3.6-2.6,4.3-4.7"/>
		<path fill="none" stroke="#441211" stroke-linejoin="round" stroke-miterlimit="10" d="M58.8,56.1c1.4-1.8,3.3-3.1,5.4-3.8"/>
		<path fill="none" stroke="#441211" stroke-linejoin="round" stroke-miterlimit="10" d="M50.5,51.6c-0.4-2.4,0.6-4.9,1.6-7.1
			c1.3-2.9,2.8-5.7,3.8-8.7s1.6-6.3,1-9.4"/>
		<path fill="none" stroke="#441211" stroke-linejoin="round" stroke-miterlimit="10" d="M50.6,37.2c-0.2-2.4-0.3-5,0.4-7.3
			c0.4-1.3,1.1-2.4,1.8-3.5c1-1.5,2-2.8,3.1-4.2"/>
	</g>
	<path fill="none" d="M44.8,31.5c-0.4-1.8-1.3-3.5-2.5-4.8"/>
	<path fill="none" d="M27.4,24c-0.3,1,0.2,2.1,0.9,2.8s1.7,1.2,2.5,1.8c4.1,2.7,6.8,7.4,7,12.3"/>
	<path fill="#ECC2C0" stroke="#441211" stroke-miterlimit="10" d="M44.3,62.9c-1-2.8-2.3-5.6-3.7-8.2c-0.3-0.5-0.5-0.9-0.9-1.2
		c-0.4-0.3-0.9-0.4-1.4-0.6c-2.2-0.8-3.7-2.8-5.6-4.2c-2.7-2-6-2.8-9.3-3c-3.3-0.2-6.6,0-9.9-0.1c-1.8-0.1-3.7-0.2-5.5,0.1
		s-3.6,1.2-4.5,2.8s-0.7,3.9,0.8,4.9c1,0.7,2.4,0.8,3.1,1.8c0.7,0.9,0.4,2.2,0.4,3.4c0.1,1.7,0.9,3.4,2.3,4.4
		c0.4,0.3,0.9,0.5,1.2,0.9c0.5,0.6,0.7,1.5,0.9,2.3c1,4.8,3.3,9.6,7.3,12.4c2,1.4,4.4,2.2,6.8,2.8c5.1,1.4,10.3,2.3,15.6,3.2
		c0.9,0.2,1.8,0.3,2.7,0.1c2.4-0.5,3.8-3.1,4.1-5.5s-0.3-4.9,0-7.4c0.1-1.2,0.7-2.3-0.5-2.3c-1.7,0-2.1-2.1-2-3.2
		C46.3,65,44.7,64,44.3,62.9z"/>
	<path fill="none" stroke="#441211" stroke-linejoin="round" stroke-miterlimit="10" d="M39.3,73.1c0-1.5,0.6-3,1.6-4.1"/>
	<path fill="none" stroke="#441211" stroke-linejoin="round" stroke-miterlimit="10" d="M29.4,72.8c0.6-4.2,3-8.1,6.4-10.6
		c0.9-0.6,1.9-1.2,3-1"/>
	<path fill="none" stroke="#441211" stroke-linejoin="round" stroke-miterlimit="10" d="M11,64c1.3-0.4,2.3-1.5,3.3-2.4
		c5.1-4.8,12.5-7.1,19.5-6.1"/>
	<path fill="none" stroke="#441211" stroke-linejoin="round" stroke-miterlimit="10" d="M20.2,55.3c3.4-1.7,7.2-2.6,10.9-2.4"/>
	<path fill="none" stroke="#441211" stroke-linejoin="round" stroke-miterlimit="10" d="M6.9,54.3c5.1,0.5,9.9-3.7,15.1-3.2"/>
	<path fill="none" stroke="#441211" stroke-linejoin="round" stroke-miterlimit="10" d="M33.4,79.8c1.3-1.7,2.3-3.7,2.8-5.8
		c0.3-1.4,0.5-2.9,0.9-4.3c0.5-1.4,1.3-2.7,2.7-3.3"/>
	<g>
		<path fill="#ECC2C0" stroke="#441211" stroke-miterlimit="10" d="M40.4,55.6c-0.5-0.9-1.3-1.5-2.1-2.2c-1.8-1.5-3.7-3-5.8-4
			c-3.7-1.6-7.9-1.3-11.9-0.6c-4,0.7-7.9,1.9-11.9,1.9c-0.9,0-1.9,0-2.7-0.5c-1-0.6-1.6-1.6-2.1-2.7c-0.8-1.6-1.7-3.3-2.5-4.9
			c-0.6-1.1-1.1-2.3-0.9-3.5c0.3-1.7,1.8-2.8,2.7-4.2c1.1-1.8,1.3-4,1.9-6s2-4.1,4.1-4.3c0.2-2.7,2.2-4.9,4.2-6.7
			c1.8-1.6,4.2-3,6.5-2.3c0.5,0.2,1,0.4,1.6,0.5c1.6,0.2,3-1.1,4-2.4c1-1.3,2.2-2.8,3.9-2.8c0-1.6,1.3-3.1,2.8-3.7
			c1.5-0.6,3.2-0.7,4.8-0.7c4-0.1,8-0.1,11.9-0.2c3.8,0,8.1,0.1,10.5,3c2.2,2.6,2,6.4,2.4,9.8c0.3,2.4,0.9,4.8,1.2,7.2
			c0.6,5.8-1.2,11.7-4.3,16.7c-1.5,2.4-3.4,4.7-4.2,7.4c-0.8,2.7-0.4,6-2.4,8.1c-1.6,1.6-2.9,2.3-3.8,4.4c-0.6,1.5-1.5,2.9-3.3,2.5
			C40.6,64.9,42.1,58.3,40.4,55.6z"/>
		<path fill="none" stroke="#441211" stroke-linejoin="round" stroke-miterlimit="10" d="M44.7,61.8c-0.7-2.6-0.3-5.3-0.3-8
			c0.1-2.7-0.2-5.5-1.8-7.7"/>
		<path fill="none" stroke="#441211" stroke-linejoin="round" stroke-miterlimit="10" d="M47.1,53.9c-0.3-3.3,0.8-6.5,0.9-9.8
			c0.5-8.1-2-16.5-7.3-22.6"/>
		<path fill="none" stroke="#441211" stroke-linejoin="round" stroke-miterlimit="10" d="M29.2,11c7.6,7.9,12.8,17.9,15,28.7"/>
		<path fill="none" stroke="#441211" stroke-linejoin="round" stroke-miterlimit="10" d="M50.4,13.6c2.4,5.1,4.3,10.5,5.1,16.1
			c0.8,5.6,0.5,11.4-1.5,16.7"/>
		<path fill="none" stroke="#441211" stroke-linejoin="round" stroke-miterlimit="10" d="M42.5,53.9c-1.4-3.2-2.9-6.4-6-8.2"/>
		<path fill="none" stroke="#441211" stroke-linejoin="round" stroke-miterlimit="10" d="M25.7,46c3-0.4,6,0.3,8.8,1.5
			c2.2,1,4.4,2.3,5.8,4.2c2.4,3.2,2.4,7.5,2,11.5"/>
		<path fill="none" stroke="#441211" stroke-linejoin="round" stroke-miterlimit="10" d="M9.3,24.2C9,25.8,10,27.4,11,28.6
			c5.5,6.7,13.6,10.4,21.5,13.9"/>
		<path fill="none" stroke="#441211" stroke-linejoin="round" stroke-miterlimit="10" d="M22.4,25.8c-0.5,0.9-0.3,2.1,0.3,3
			s1.3,1.6,2.1,2.3c3.1,2.7,6.2,5.3,9.3,8"/>
		<path fill="none" stroke="#441211" stroke-linejoin="round" stroke-miterlimit="10" d="M32.5,33.3c-1.1-0.2-2.2-0.9-2.8-1.9"/>
		<path fill="none" stroke="#441211" stroke-linejoin="round" stroke-miterlimit="10" d="M27.3,30.9c-1.6-1.6-2.8-3.6-3.5-5.7
			c-1.1-3-1.3-6.5-3.5-8.9"/>
		<path fill="none" stroke="#441211" stroke-linejoin="round" stroke-miterlimit="10" d="M52.5,11.1c1,1.1,1.8,2.4,2.4,3.8"/>
		<path fill="none" stroke="#441211" stroke-linejoin="round" stroke-miterlimit="10" d="M4.4,40.2c1.7,1.5,4.1,2.1,6.3,2.3
			s4.6,0,6.9,0.2c2,0.1,4,0.5,5.9,1.2"/>
		<path fill="none" stroke="#441211" stroke-linejoin="round" stroke-miterlimit="10" d="M6.7,44.5c0.6,0.7,1.6,1.1,2.5,0.7"/>
		<path fill="none" stroke="#441211" stroke-linejoin="round" stroke-miterlimit="10" d="M48,58.1c0.3,0.1,0.5-0.3,0.6-0.6
			c0.3-1.9,0.4-3.8,0.3-5.7"/>
	</g>
	<path fill="#441211" stroke="#441211" stroke-miterlimit="10" d="M51.6,66.8c1.5,0.1,2.9-0.8,4.2-1.7c1-0.7,2.1-1.6,2.6-2.7
		c0.5-1.2,0-2.8-1.2-3.2c-0.3-0.1-0.6-0.1-0.8-0.2c-0.7-0.4-0.3-1.5-0.9-2.1c-0.5-0.5-1.3-0.3-1.8,0.2c-0.5,0.4-0.8,1-1.3,1.5
		c-1.1,1-2.8,0.9-4.1,1.6c-1.5,0.8-2.2,2.8-1.6,4.4c0.2,0.5,0.5,1,0.2,1.4c-0.1,0.3-0.4,0.4-0.6,0.6c-0.4,0.5-0.3,1.2,0.1,1.7
		c0.3,0.5,0.9,0.8,1.4,1c0.2,0.1,0.4,0.2,0.6,0.1c0.4,0,0.6-0.4,0.9-0.7c0.9-1.2,2.3-1.9,3.7-2.1"/>
</g>
</svg>
