<?xml version="1.0" encoding="utf-8"?>
<!-- Generator: Adobe Illustrator 23.0.2, SVG Export Plug-In . SVG Version: 6.00 Build 0)  -->
<svg version="1.1" id="Layer_1" xmlns="http://www.w3.org/2000/svg" xmlns:xlink="http://www.w3.org/1999/xlink" x="0px" y="0px"
	 viewBox="0 0 184.7 215" enable-background="new 0 0 184.7 215" xml:space="preserve">
<g>
	<g>
		<path fill="#441211" d="M112.4,29.4l-0.9-0.1c1.9-11.1,3.1-20.4,3.8-29.3l0.9,0.1C115.5,9,114.3,18.3,112.4,29.4z"/>
	</g>
	<g>
		<path fill="#441211" d="M169,150.1c1,0,2.1-0.1,3.1-0.1c0.3,0,0.5,0,0.8,0.1c0.2,0.1,0.4,0.4,0.5,0.6c5.5,11.6,6.3,24.8,8.1,37.4
			c0.8,5.9,2.7,11.6,3.2,17.5c-2.9-0.5-7.1,0.7-10,1c-7.9,0.8-15.9,1.5-23.8,2.3c-16,1.5-32.1,3.1-48.1,4.6
			c-1.6,0.2-3.3,0.3-4.9,0.4c0.5-2.2,0.8-4.1,0.7-6.4c-0.7-13.5-2.3-27.4-1.3-40.9c0-0.3,0-0.5,0.2-0.7c0.2-0.2,0.4-0.3,0.6-0.4
			c1.9-0.7,3.9-1.4,5.9-2"/>
	</g>
	<g>
		<path fill="#ECC2C0" d="M167.8,153.4c7.1-23.7,6.7-51.8-0.6-75.5c-8.3-27.1-24.7-51.2-45.4-70.5c-1.1-1-2.6-1.4-3.9-0.9
			c-1.5,0.5-2.7,1.9-2.8,3.2c-0.6,4.5-1.2,9.1-0.4,13.6c2.2,12.8,15.3,22.7,15.7,35.7c0.1,2.4-0.3,4.8-1.4,6.9
			c-3.1,5.9-11.3,7.4-17.4,4.9c-6.1-2.5-10.6-7.9-14.3-13.3c-5.1-7.4-12.2-23-11.6-23.2c7.7-3,14.8-7.4,21-13
			c2.1-1.9,4.9-3.9,6.2-6.4c1.3-2.5,1.7-5.5,0.7-8c-0.6-1.4-2.6-2.7-4.1-3c-1-0.2-2,0.1-3,0.4c-7.4,2.2-14.9,4.5-21.5,8.5
			c-3.7,2.3-6.9,4.2-10.9,6.1c-3.9,1.9-6.7,2.6-9.4,6.1c-2.6,3.3-2.2,6.8-1.7,10.9c0.4,2.9,0.7,5.9,1.2,8.8c1.3,7,3.5,14.1,2.4,21.1
			c-4.6-10.3-18.5-14.4-22.2-25c-0.7-2.2-0.9-4.5-1.5-6.7c-0.6-2.2-1.4-4.4-2.3-6.5c-1.8-4.2-4.3-8.1-6.8-11.9
			c-3.5-5.2-8.2-11-14.5-10.8c-0.4,0-0.8,0.1-1,0.3c-0.6,0.5-0.4,1.4-0.1,2.1c2.8,8,4,16.4,5.1,24.7c0.6,4.8,1.1,9.6,1.6,14.4
			c0.4,4.2,0,9.1,2.8,12.5c7.8,9.4,16.5,18.1,26,25.7c-4.3-0.9-8.7-1.6-13-2.7c-3.2-0.8-6.6-1.3-9.4-3.1c-2.6-1.7-4.7-4.2-6.4-6.9
			c-4.9-7.6-8.6-15.9-13.9-23.2c-1.3-1.8-3.1-3.2-5.2-4c-0.9-0.3-1.9-0.5-2.8-0.3c-2.5,0.6-2.2,3.8-2.3,5.8c0,1-0.1,2,0,3
			C0.7,58.5,2.2,63.7,4,68.7c5.4,14.4,13,29.8,27.5,36.8c7,3.3,14.6,5.3,21.6,8.6c2.1,0.9,4.2,1.9,6.1,3.1c0.7,0.4,3,2.5,3.7,2.2
			c-6.3,2.8-13.5,5.7-20.5,4.7c-6-0.9-10.5-5.1-14.1-9.6c-2.2-2.7-4.6-6.5-8.2-7.5c-0.9-0.3-6.2-0.3-6,1.2c0.8,7,3.5,13.4,7.1,19.2
			c4.2,7,11.9,14,20.1,13c9.2-1.1,16.9-0.5,26-1.8c4.5-0.7,9.2-2.6,10.5-1.4c9.9,8.6,20.3,18,28.1,28.4c6.9,0.8,14.2,0.3,20.9-1.3
			c7.4-1.7,14.9-2.6,22.3-4.1c3.7-0.7,7.4-2.2,11.1-2.9C161.3,157.2,167.5,154.5,167.8,153.4z"/>
		<path fill="#441211" d="M112.6,166.4c-2.3,0-4.5-0.1-6.6-0.4l-0.2,0l-0.1-0.2c-8.1-10.7-18.7-20.2-28.1-28.4
			c-0.7-0.6-3-0.1-5.4,0.5c-1.5,0.4-3.1,0.8-4.8,1c-4.9,0.7-9.5,0.9-13.9,1c-3.9,0.1-7.9,0.3-12.2,0.8c-0.5,0.1-1.1,0.1-1.6,0.1
			c-8,0-15.1-7-18.9-13.4c-4-6.7-6.4-13-7.1-19.4c0-0.3,0-0.7,0.4-1c1.3-1.1,5.3-0.9,6.2-0.7c3.1,0.9,5.3,3.7,7.2,6.2
			c0.4,0.5,0.8,1,1.2,1.5c3.2,3.9,7.7,8.5,13.8,9.4c6.4,0.9,12.9-1.5,19.1-4.2c-0.5-0.3-1.2-0.8-1.9-1.3c-0.3-0.2-0.6-0.5-0.8-0.6
			c-1.9-1.1-3.9-2.1-5.9-3l-0.2-0.1c-3.4-1.5-6.9-2.8-10.3-4.1c-3.8-1.4-7.6-2.8-11.3-4.5c-15-7.2-22.7-23.6-27.7-37
			c-2.3-6.2-3.4-11-3.6-15.7c0-0.9,0-1.8,0-3c0-0.2,0-0.5,0-0.8c0-2,0.1-4.8,2.6-5.4c0.9-0.2,1.9-0.1,3.1,0.3c2.1,0.7,4,2.2,5.5,4.1
			c3.1,4.2,5.7,8.9,8.2,13.4c1.8,3.3,3.7,6.7,5.8,9.9c2,3.1,4,5.3,6.3,6.7c2.3,1.5,5,2.1,7.7,2.7c0.5,0.1,1,0.2,1.5,0.4
			c2.9,0.7,5.9,1.3,8.8,1.8c0.8,0.2,1.6,0.3,2.4,0.5C43,76.5,34.7,68.2,27.2,59.1c-2.3-2.8-2.5-6.5-2.7-10.1
			c-0.1-0.9-0.1-1.8-0.2-2.6l-0.2-2.1c-0.4-4-0.8-8.2-1.4-12.3c-1.1-8.2-2.2-16.7-5.1-24.6c-0.2-0.5-0.7-1.9,0.3-2.6
			c0.4-0.3,0.9-0.4,1.3-0.4c6.4-0.2,11.1,5.5,14.9,11c3.1,4.5,5.3,8.3,6.9,11.9c1,2.2,1.8,4.4,2.3,6.6c0.3,1,0.4,2,0.6,3
			c0.2,1.2,0.4,2.5,0.8,3.7c1.9,5.4,6.4,9,11.1,12.8c3.9,3.2,8,6.4,10.4,10.8c0.4-4.9-0.6-9.9-1.7-14.8c-0.3-1.5-0.7-3.1-0.9-4.7
			c-0.5-2.9-0.9-5.9-1.2-8.8c-0.5-4-0.9-7.7,1.8-11.2c2.2-2.9,4.5-3.9,7.3-5.2c0.7-0.3,1.4-0.6,2.2-1c3.9-1.9,7.1-3.8,10.8-6.1
			c6.7-4.1,14.3-6.4,21.6-8.6c0.9-0.3,2.1-0.6,3.2-0.4c1.6,0.3,3.8,1.7,4.4,3.3c1,2.5,0.7,5.6-0.7,8.4c-1,2-3,3.7-4.8,5.2
			c-0.5,0.4-1,0.9-1.5,1.3c-6.1,5.6-13.1,9.9-20.8,13c0.5,2.1,6.6,15.5,11.5,22.7c3.5,5.1,8,10.7,14.1,13.2c7.3,3,14.5-0.1,16.9-4.7
			c1-1.8,1.4-4.1,1.3-6.6c-0.2-6.8-3.9-12.7-7.8-18.9c-3.3-5.3-6.8-10.7-7.8-16.8c-0.8-4.5-0.3-9.1,0.4-13.8c0.2-1.5,1.5-3,3.1-3.6
			c1.5-0.5,3.1-0.1,4.4,1c21.8,20.3,37.6,44.7,45.5,70.7c7.4,24,7.6,52.3,0.6,75.7l0,0c-0.4,1.5-7.1,4.1-7.8,4.2
			c-2,0.3-4,0.9-5.9,1.5c-1.7,0.5-3.5,1-5.2,1.4c-3.1,0.6-6.3,1.2-9.4,1.7c-4.3,0.7-8.7,1.4-13,2.4
			C122.3,165.9,117.4,166.4,112.6,166.4z M106.3,165.2c6.4,0.8,13.7,0.3,20.5-1.3c4.3-1,8.8-1.7,13-2.5c3.1-0.5,6.2-1,9.3-1.7
			c1.7-0.3,3.4-0.9,5.1-1.4c2-0.6,4-1.2,6-1.5c1.2-0.2,6.8-2.8,7.1-3.6c7-23.3,6.8-51.4-0.6-75.2c-7.9-25.8-23.6-50.2-45.3-70.3
			c-1-0.9-2.3-1.2-3.5-0.8c-1.3,0.4-2.4,1.7-2.5,2.8c-0.6,4.6-1.1,9.1-0.4,13.5c1,5.9,4.4,11.2,7.7,16.4c3.8,6,7.8,12.3,8,19.4
			c0.1,2.7-0.4,5.1-1.5,7.1c-1.5,2.8-4.3,4.9-7.9,5.8c-3.3,0.8-7,0.6-10.1-0.7c-6.4-2.6-10.9-8.3-14.5-13.5
			c-3.1-4.5-6.5-11.3-7.8-14c-0.7-1.4-4.1-8.6-3.9-9.5c0-0.2,0.2-0.3,0.3-0.3c7.7-3,14.7-7.3,20.8-12.9c0.5-0.4,1-0.8,1.5-1.3
			c1.7-1.5,3.7-3.1,4.6-4.9c1.3-2.6,1.6-5.4,0.7-7.7c-0.5-1.3-2.4-2.5-3.8-2.7c-0.9-0.2-1.9,0.1-2.8,0.4c-7.3,2.2-14.8,4.4-21.4,8.5
			c-3.7,2.3-7,4.2-10.9,6.1c-0.8,0.4-1.5,0.7-2.2,1c-2.8,1.3-4.9,2.2-7,4.9c-2.5,3.2-2.1,6.6-1.6,10.5c0.3,2.9,0.7,5.9,1.2,8.8
			c0.3,1.5,0.6,3.1,0.9,4.6c1.2,5.5,2.4,11.1,1.5,16.6l-0.2,1.5L66.2,66c-2.2-4.9-6.5-8.4-10.8-11.8c-4.6-3.7-9.5-7.6-11.4-13.3
			c-0.4-1.2-0.7-2.6-0.9-3.9c-0.2-1-0.3-2-0.6-2.9c-0.6-2.1-1.4-4.3-2.3-6.4c-1.6-3.6-3.7-7.3-6.8-11.8C26.9,6.4,22.6,5.2,19.3,5.3
			c-0.3,0-0.6,0-0.8,0.2c-0.3,0.2-0.3,0.8,0,1.6c2.9,8,4,16.6,5.1,24.8c0.6,4.1,1,8.3,1.4,12.3l0.2,2.1c0.1,0.9,0.1,1.8,0.2,2.7
			c0.2,3.5,0.4,7,2.5,9.6c7.8,9.5,16.6,18.1,26,25.6l1.5,1.2L53.6,85c-1.4-0.3-2.8-0.6-4.2-0.8c-2.9-0.6-5.9-1.1-8.8-1.8
			c-0.5-0.1-1-0.2-1.5-0.3c-2.8-0.6-5.6-1.3-8-2.8c-2.3-1.5-4.5-3.8-6.5-7c-2.1-3.2-4-6.6-5.8-9.9c-2.5-4.5-5-9.1-8.1-13.3
			c-1.3-1.8-3.1-3.1-5-3.8c-1-0.4-1.9-0.4-2.6-0.3C1.2,45.3,1,47.1,1,49.4c0,0.3,0,0.5,0,0.8c-0.1,1.2-0.1,2.1,0,2.9
			c0.2,4.6,1.3,9.3,3.5,15.4c9.4,25.3,19.5,32.8,27.3,36.5c3.6,1.7,7.5,3.1,11.2,4.5c3.4,1.2,7,2.5,10.4,4.1l0.2,0.1
			c2,0.9,4.1,1.9,6,3c0.2,0.1,0.5,0.3,0.8,0.6c0.6,0.4,2.1,1.6,2.5,1.5l0.3,0.8c-6.6,3-13.7,5.8-20.8,4.8
			c-6.4-0.9-11.1-5.7-14.4-9.7c-0.4-0.5-0.8-1-1.2-1.5c-1.9-2.4-4-5.1-6.8-5.9c-0.7-0.2-4.4-0.2-5.3,0.5c-0.1,0.1-0.1,0.2-0.1,0.2
			c0.7,6.2,3,12.4,7,19c6.3,10.4,14.5,13.4,19.6,12.8c4.3-0.5,8.3-0.7,12.2-0.8c4.4-0.2,8.9-0.3,13.8-1c1.6-0.2,3.2-0.6,4.7-1
			c2.9-0.7,5.2-1.3,6.2-0.4C87.5,145,98.2,154.5,106.3,165.2z"/>
	</g>
	<g>
		<path fill="#EDC2C0" d="M105.3,176c-0.3,0-0.6-0.2-0.7-0.3l-2.1-1.3l0.2-0.4l2.1,1.3c0.2,0.1,0.4,0.2,0.6,0.2
			c0.2,0,0.3-0.2,0.5-0.4l2-2.3l0.3,0.3l-2,2.3c-0.2,0.2-0.4,0.4-0.7,0.5C105.4,176,105.3,176,105.3,176z"/>
	</g>
	<g>
		<path fill="#EDC2C0" d="M114.2,175.5c-0.3,0-0.6-0.2-0.7-0.3l-2.1-1.3l0.2-0.4l2.1,1.3c0.2,0.1,0.4,0.2,0.6,0.2
			c0.2,0,0.3-0.2,0.5-0.4l2-2.3l0.3,0.3l-2,2.3c-0.2,0.2-0.4,0.4-0.7,0.5C114.3,175.5,114.2,175.5,114.2,175.5z"/>
	</g>
	<g>
		<path fill="#EDC2C0" d="M123.2,174.4c-0.3,0-0.5-0.1-0.7-0.2l-2.1-1.1l0.2-0.4l2.1,1.1c0.2,0.1,0.4,0.2,0.6,0.2
			c0.2,0,0.3-0.2,0.4-0.4l1.8-2.5l0.4,0.3l-1.8,2.5c-0.1,0.2-0.3,0.5-0.7,0.6C123.3,174.4,123.2,174.4,123.2,174.4z"/>
	</g>
	<g>
		<path fill="#EDC2C0" d="M132,173.3c-0.3,0-0.5-0.1-0.7-0.2l-2.1-1.1l0.2-0.4l2.1,1.1c0.2,0.1,0.4,0.2,0.6,0.2
			c0.2,0,0.3-0.2,0.4-0.4l1.8-2.5l0.4,0.3l-1.8,2.5c-0.1,0.2-0.4,0.5-0.7,0.6C132.2,173.3,132.1,173.3,132,173.3z"/>
	</g>
	<g>
		<path fill="#EDC2C0" d="M141,171.1c-0.3,0-0.5-0.1-0.7-0.2l-2.2-1l0.2-0.4l2.2,1c0.2,0.1,0.4,0.2,0.6,0.1c0.2,0,0.3-0.2,0.4-0.4
			l1.7-2.5l0.4,0.3l-1.7,2.5c-0.1,0.2-0.3,0.5-0.7,0.6C141.1,171.1,141,171.1,141,171.1z"/>
	</g>
	<g>
		<path fill="#EDC2C0" d="M149.8,169.6c-0.3,0-0.5-0.1-0.7-0.2l-2.2-1l0.2-0.4l2.2,1c0.2,0.1,0.4,0.2,0.6,0.1c0.2,0,0.3-0.2,0.4-0.4
			l1.7-2.5l0.4,0.3l-1.7,2.5c-0.1,0.2-0.3,0.5-0.7,0.6C149.9,169.6,149.8,169.6,149.8,169.6z"/>
	</g>
	<g>
		<path fill="#EDC2C0" d="M158.6,166.8c-0.3,0-0.5-0.1-0.7-0.2l-2.2-1l0.2-0.4l2.2,1c0.2,0.1,0.4,0.2,0.6,0.1c0.2,0,0.3-0.2,0.4-0.4
			l1.7-2.5l0.4,0.3l-1.7,2.5c-0.1,0.2-0.3,0.5-0.7,0.6C158.8,166.8,158.7,166.8,158.6,166.8z"/>
	</g>
	<g>
		<path fill="#EDC2C0" d="M167.4,165.3c-0.3,0-0.5-0.1-0.7-0.2l-2.2-1l0.2-0.4l2.2,1c0.2,0.1,0.4,0.2,0.6,0.1c0.2,0,0.3-0.2,0.4-0.4
			l1.7-2.5l0.4,0.3l-1.7,2.5c-0.1,0.2-0.3,0.5-0.7,0.6C167.6,165.3,167.5,165.3,167.4,165.3z"/>
	</g>
	<g>
		<path fill="#EDC2C0" d="M102,184.1c-0.3,0-0.6-0.2-0.7-0.3l-2.1-1.3l0.2-0.4l2.1,1.3c0.2,0.1,0.4,0.2,0.6,0.2
			c0.2,0,0.3-0.2,0.5-0.4l2-2.3l0.3,0.3l-2,2.3c-0.2,0.2-0.4,0.4-0.7,0.5C102.1,184.1,102.1,184.1,102,184.1z"/>
	</g>
	<g>
		<path fill="#EDC2C0" d="M172.7,171.9c-0.3,0-0.6-0.2-0.7-0.3l-2.1-1.3l0.2-0.4l2.1,1.3c0.2,0.1,0.4,0.2,0.6,0.2
			c0.2,0,0.3-0.2,0.5-0.4l2-2.3l0.3,0.3l-2,2.3c-0.2,0.2-0.4,0.4-0.7,0.5C172.8,171.9,172.8,171.9,172.7,171.9z"/>
	</g>
	<g>
		<path fill="#EDC2C0" d="M110.9,183.6c-0.3,0-0.6-0.2-0.7-0.3l-2.1-1.3l0.2-0.4l2.1,1.3c0.2,0.1,0.4,0.2,0.6,0.2
			c0.2,0,0.3-0.2,0.5-0.4l2-2.3l0.3,0.3l-2,2.3c-0.2,0.2-0.4,0.4-0.7,0.5C111,183.6,111,183.6,110.9,183.6z"/>
	</g>
	<g>
		<path fill="#EDC2C0" d="M119.9,182.6c-0.3,0-0.5-0.1-0.7-0.2l-2.1-1.1l0.2-0.4l2.1,1.1c0.2,0.1,0.4,0.2,0.6,0.2
			c0.2,0,0.3-0.2,0.4-0.4l1.8-2.5l0.4,0.3l-1.8,2.5c-0.1,0.2-0.4,0.5-0.7,0.6C120.1,182.6,120,182.6,119.9,182.6z"/>
	</g>
	<g>
		<path fill="#EDC2C0" d="M128.8,181.4c-0.3,0-0.5-0.1-0.7-0.2l-2.1-1.1l0.2-0.4l2.1,1.1c0.2,0.1,0.4,0.2,0.6,0.2
			c0.2,0,0.3-0.2,0.4-0.4l1.8-2.5l0.4,0.3l-1.8,2.5c-0.1,0.2-0.3,0.5-0.7,0.6C128.9,181.4,128.9,181.4,128.8,181.4z"/>
	</g>
	<g>
		<path fill="#EDC2C0" d="M137.7,179.2c-0.3,0-0.5-0.1-0.7-0.2l-2.2-1l0.2-0.4l2.2,1c0.2,0.1,0.4,0.2,0.6,0.1c0.2,0,0.3-0.2,0.4-0.4
			l1.7-2.5l0.4,0.3l-1.7,2.5c-0.1,0.2-0.3,0.5-0.7,0.6C137.8,179.2,137.8,179.2,137.7,179.2z"/>
	</g>
	<g>
		<path fill="#EDC2C0" d="M146.5,177.7c-0.3,0-0.5-0.1-0.7-0.2l-2.2-1l0.2-0.4l2.2,1c0.2,0.1,0.4,0.2,0.6,0.1c0.2,0,0.3-0.2,0.4-0.4
			l1.7-2.5l0.4,0.3l-1.7,2.5c-0.1,0.2-0.3,0.5-0.7,0.6C146.7,177.7,146.6,177.7,146.5,177.7z"/>
	</g>
	<g>
		<path fill="#EDC2C0" d="M155.4,174.9c-0.3,0-0.5-0.1-0.7-0.2l-2.2-1l0.2-0.4l2.2,1c0.2,0.1,0.4,0.2,0.6,0.1c0.2,0,0.3-0.2,0.4-0.4
			l1.7-2.5l0.4,0.3l-1.7,2.5c-0.1,0.2-0.3,0.5-0.7,0.6C155.5,174.9,155.4,174.9,155.4,174.9z"/>
	</g>
	<g>
		<path fill="#EDC2C0" d="M164.2,173.4c-0.3,0-0.5-0.1-0.7-0.2l-2.2-1l0.2-0.4l2.2,1c0.2,0.1,0.4,0.2,0.6,0.1c0.2,0,0.3-0.2,0.4-0.4
			l1.7-2.5l0.4,0.3l-1.7,2.5c-0.1,0.2-0.3,0.5-0.7,0.6C164.3,173.4,164.2,173.4,164.2,173.4z"/>
	</g>
	<g>
		<path fill="#EDC2C0" d="M106.9,191.4c-0.3,0-0.6-0.2-0.7-0.3l-2.1-1.3l0.2-0.4l2.1,1.3c0.2,0.1,0.4,0.2,0.6,0.2
			c0.2,0,0.3-0.2,0.5-0.4l2-2.3l0.3,0.3l-2,2.3c-0.2,0.2-0.4,0.4-0.7,0.5C107,191.4,106.9,191.4,106.9,191.4z"/>
	</g>
	<g>
		<path fill="#EDC2C0" d="M115.8,190.9c-0.3,0-0.6-0.2-0.7-0.3l-2.1-1.3l0.2-0.4l2.1,1.3c0.2,0.1,0.4,0.2,0.6,0.2
			c0.2,0,0.3-0.2,0.5-0.4l2-2.3l0.3,0.3l-2,2.3c-0.2,0.2-0.4,0.4-0.7,0.5C115.9,190.9,115.9,190.9,115.8,190.9z"/>
	</g>
	<g>
		<path fill="#EDC2C0" d="M124.8,189.9c-0.3,0-0.5-0.1-0.7-0.2l-2.1-1.1l0.2-0.4l2.1,1.1c0.2,0.1,0.4,0.2,0.6,0.2
			c0.2,0,0.3-0.2,0.4-0.4l1.8-2.5l0.4,0.3l-1.8,2.5c-0.1,0.2-0.4,0.5-0.7,0.6C124.9,189.9,124.9,189.9,124.8,189.9z"/>
	</g>
	<g>
		<path fill="#EDC2C0" d="M133.7,188.7c-0.3,0-0.5-0.1-0.7-0.2l-2.1-1.1l0.2-0.4l2.1,1.1c0.2,0.1,0.4,0.2,0.6,0.2
			c0.2,0,0.3-0.2,0.4-0.4l1.8-2.5l0.4,0.3l-1.8,2.5c-0.1,0.2-0.4,0.5-0.7,0.6C133.8,188.7,133.7,188.7,133.7,188.7z"/>
	</g>
	<g>
		<path fill="#EDC2C0" d="M142.6,186.6c-0.3,0-0.5-0.1-0.7-0.2l-2.2-1l0.2-0.4l2.2,1c0.2,0.1,0.4,0.2,0.6,0.1c0.2,0,0.3-0.2,0.4-0.4
			l1.7-2.5l0.4,0.3l-1.7,2.5c-0.1,0.2-0.3,0.5-0.7,0.6C142.7,186.5,142.7,186.6,142.6,186.6z"/>
	</g>
	<g>
		<path fill="#EDC2C0" d="M151.4,185c-0.3,0-0.5-0.1-0.7-0.2l-2.2-1l0.2-0.4l2.2,1c0.2,0.1,0.4,0.2,0.6,0.1c0.2,0,0.3-0.2,0.4-0.4
			l1.7-2.5l0.4,0.3l-1.7,2.5c-0.1,0.2-0.3,0.5-0.7,0.6C151.5,185,151.5,185,151.4,185z"/>
	</g>
	<g>
		<path fill="#EDC2C0" d="M160.2,182.2c-0.3,0-0.5-0.1-0.7-0.2l-2.2-1l0.2-0.4l2.2,1c0.2,0.1,0.4,0.2,0.6,0.1c0.2,0,0.3-0.2,0.4-0.4
			l1.7-2.5l0.4,0.3l-1.7,2.5c-0.1,0.2-0.3,0.5-0.7,0.6C160.4,182.2,160.3,182.2,160.2,182.2z"/>
	</g>
	<g>
		<path fill="#EDC2C0" d="M169,180.7c-0.3,0-0.5-0.1-0.7-0.2l-2.2-1l0.2-0.4l2.2,1c0.2,0.1,0.4,0.2,0.6,0.1c0.2,0,0.3-0.2,0.4-0.4
			l1.7-2.5l0.4,0.3l-1.7,2.5c-0.1,0.2-0.3,0.5-0.7,0.6C169.2,180.7,169.1,180.7,169,180.7z"/>
	</g>
	<g>
		<path fill="#EDC2C0" d="M103.6,199.6c-0.3,0-0.6-0.2-0.7-0.3l-2.1-1.3l0.2-0.4l2.1,1.3c0.2,0.1,0.4,0.2,0.6,0.2
			c0.2,0,0.3-0.2,0.5-0.4l2-2.3l0.3,0.3l-2,2.3c-0.2,0.2-0.4,0.4-0.7,0.5C103.7,199.6,103.7,199.6,103.6,199.6z"/>
	</g>
	<g>
		<path fill="#EDC2C0" d="M174.4,187.4c-0.3,0-0.6-0.2-0.7-0.3l-2.1-1.3l0.2-0.4l2.1,1.3c0.2,0.1,0.4,0.2,0.6,0.2
			c0.2,0,0.3-0.2,0.5-0.4l2-2.3l0.3,0.3l-2,2.3c-0.2,0.2-0.4,0.4-0.7,0.5C174.5,187.4,174.4,187.4,174.4,187.4z"/>
	</g>
	<g>
		<path fill="#EDC2C0" d="M112.6,199c-0.3,0-0.6-0.2-0.7-0.3l-2.1-1.3l0.2-0.4l2.1,1.3c0.2,0.1,0.4,0.2,0.6,0.2
			c0.2,0,0.3-0.2,0.5-0.4l2-2.3l0.3,0.3l-2,2.3c-0.2,0.2-0.4,0.4-0.7,0.5C112.7,199,112.6,199,112.6,199z"/>
	</g>
	<g>
		<path fill="#EDC2C0" d="M121.6,198c-0.3,0-0.5-0.1-0.7-0.2l-2.1-1.1l0.2-0.4l2.1,1.1c0.2,0.1,0.4,0.2,0.6,0.2
			c0.2,0,0.3-0.2,0.4-0.4l1.8-2.5l0.4,0.3l-1.8,2.5c-0.1,0.2-0.3,0.5-0.7,0.6C121.7,198,121.6,198,121.6,198z"/>
	</g>
	<g>
		<path fill="#EDC2C0" d="M130.4,196.8c-0.3,0-0.5-0.1-0.7-0.2l-2.1-1.1l0.2-0.4l2.1,1.1c0.2,0.1,0.4,0.2,0.6,0.2
			c0.2,0,0.3-0.2,0.4-0.4l1.8-2.5l0.4,0.3l-1.8,2.5c-0.1,0.2-0.3,0.5-0.7,0.6C130.5,196.8,130.5,196.8,130.4,196.8z"/>
	</g>
	<g>
		<path fill="#EDC2C0" d="M139.3,194.7c-0.3,0-0.5-0.1-0.7-0.2l-2.2-1l0.2-0.4l2.2,1c0.2,0.1,0.4,0.2,0.6,0.1c0.2,0,0.3-0.2,0.4-0.4
			l1.7-2.5l0.4,0.3l-1.7,2.5c-0.1,0.2-0.3,0.5-0.7,0.6C139.5,194.7,139.4,194.7,139.3,194.7z"/>
	</g>
	<g>
		<path fill="#EDC2C0" d="M148.1,193.2c-0.3,0-0.5-0.1-0.7-0.2l-2.2-1l0.2-0.4l2.2,1c0.2,0.1,0.4,0.2,0.6,0.1c0.2,0,0.3-0.2,0.4-0.4
			l1.7-2.5l0.4,0.3l-1.7,2.5c-0.1,0.2-0.3,0.5-0.7,0.6C148.3,193.1,148.2,193.2,148.1,193.2z"/>
	</g>
	<g>
		<path fill="#EDC2C0" d="M157,190.4c-0.3,0-0.5-0.1-0.7-0.2l-2.2-1l0.2-0.4l2.2,1c0.2,0.1,0.4,0.2,0.6,0.1c0.2,0,0.3-0.2,0.4-0.4
			l1.7-2.5l0.4,0.3l-1.7,2.5c-0.1,0.2-0.3,0.5-0.7,0.6C157.1,190.4,157.1,190.4,157,190.4z"/>
	</g>
	<g>
		<path fill="#EDC2C0" d="M165.8,188.8c-0.3,0-0.5-0.1-0.7-0.2l-2.2-1l0.2-0.4l2.2,1c0.2,0.1,0.4,0.2,0.6,0.1c0.2,0,0.3-0.2,0.4-0.4
			l1.7-2.5l0.4,0.3l-1.7,2.5c-0.1,0.2-0.3,0.5-0.7,0.6C165.9,188.8,165.9,188.8,165.8,188.8z"/>
	</g>
	<g>
		<path fill="#EDC2C0" d="M106.9,207.7c-0.3,0-0.6-0.2-0.7-0.3l-2.1-1.3l0.2-0.4l2.1,1.3c0.2,0.1,0.4,0.2,0.6,0.2
			c0.2,0,0.3-0.2,0.5-0.4l2-2.3l0.3,0.3l-2,2.3c-0.2,0.2-0.4,0.4-0.7,0.5C107,207.7,106.9,207.7,106.9,207.7z"/>
	</g>
	<g>
		<path fill="#EDC2C0" d="M115.8,207.2c-0.3,0-0.6-0.2-0.7-0.3l-2.1-1.3l0.2-0.4l2.1,1.3c0.2,0.1,0.4,0.2,0.6,0.2
			c0.2,0,0.3-0.2,0.5-0.4l2-2.3l0.3,0.3l-2,2.3c-0.2,0.2-0.4,0.4-0.7,0.5C115.9,207.2,115.9,207.2,115.8,207.2z"/>
	</g>
	<g>
		<path fill="#EDC2C0" d="M124.8,206.1c-0.3,0-0.5-0.1-0.7-0.2l-2.1-1.1l0.2-0.4l2.1,1.1c0.2,0.1,0.4,0.2,0.6,0.2
			c0.2,0,0.3-0.2,0.4-0.4l1.8-2.5l0.4,0.3l-1.8,2.5c-0.1,0.2-0.4,0.5-0.7,0.6C124.9,206.1,124.9,206.1,124.8,206.1z"/>
	</g>
	<g>
		<path fill="#EDC2C0" d="M133.7,205c-0.3,0-0.5-0.1-0.7-0.2l-2.1-1.1l0.2-0.4l2.1,1.1c0.2,0.1,0.4,0.2,0.6,0.2
			c0.2,0,0.3-0.2,0.4-0.4l1.8-2.5l0.4,0.3l-1.8,2.5c-0.1,0.2-0.3,0.5-0.7,0.6C133.8,205,133.7,205,133.7,205z"/>
	</g>
	<g>
		<path fill="#EDC2C0" d="M142.6,202.8c-0.3,0-0.5-0.1-0.7-0.2l-2.2-1l0.2-0.4l2.2,1c0.2,0.1,0.4,0.2,0.6,0.1c0.2,0,0.3-0.2,0.4-0.4
			l1.7-2.5l0.4,0.3l-1.7,2.5c-0.1,0.2-0.3,0.5-0.7,0.6C142.7,202.8,142.7,202.8,142.6,202.8z"/>
	</g>
	<g>
		<path fill="#EDC2C0" d="M151.4,201.3c-0.3,0-0.5-0.1-0.7-0.2l-2.2-1l0.2-0.4l2.2,1c0.2,0.1,0.4,0.2,0.6,0.1c0.2,0,0.3-0.2,0.4-0.4
			l1.7-2.5l0.4,0.3l-1.7,2.5c-0.1,0.2-0.3,0.5-0.7,0.6C151.5,201.3,151.5,201.3,151.4,201.3z"/>
	</g>
	<g>
		<path fill="#EDC2C0" d="M160.2,198.5c-0.3,0-0.5-0.1-0.7-0.2l-2.2-1l0.2-0.4l2.2,1c0.2,0.1,0.4,0.2,0.6,0.1c0.2,0,0.3-0.2,0.4-0.4
			l1.7-2.5l0.4,0.3l-1.7,2.5c-0.1,0.2-0.3,0.5-0.7,0.6C160.4,198.5,160.3,198.5,160.2,198.5z"/>
	</g>
	<g>
		<path fill="#EDC2C0" d="M169,197c-0.3,0-0.5-0.1-0.7-0.2l-2.2-1l0.2-0.4l2.2,1c0.2,0.1,0.4,0.2,0.6,0.1c0.2,0,0.3-0.2,0.4-0.4
			l1.7-2.5l0.4,0.3l-1.7,2.5c-0.1,0.2-0.3,0.5-0.7,0.6C169.2,197,169.1,197,169,197z"/>
	</g>
	<g>
		<path fill="#EDC2C0" d="M103.7,215c-0.3,0-0.6-0.2-0.7-0.3l-2.1-1.3l0.2-0.4l2.1,1.3c0.2,0.1,0.4,0.2,0.6,0.2
			c0.2,0,0.3-0.2,0.5-0.4l2-2.3l0.3,0.3l-2,2.3c-0.2,0.2-0.4,0.4-0.7,0.5C103.7,215,103.7,215,103.7,215z"/>
	</g>
	<g>
		<path fill="#EDC2C0" d="M174.4,203.6c-0.3,0-0.6-0.2-0.7-0.3l-2.1-1.3l0.2-0.4l2.1,1.3c0.2,0.1,0.4,0.2,0.6,0.2
			c0.2,0,0.3-0.2,0.5-0.4l2-2.3l0.3,0.3l-2,2.3c-0.2,0.2-0.4,0.4-0.7,0.5C174.5,203.6,174.4,203.6,174.4,203.6z"/>
	</g>
	<g>
		<path fill="#EDC2C0" d="M112.6,214.5c-0.3,0-0.6-0.2-0.7-0.3l-2.1-1.3l0.2-0.4l2.1,1.3c0.2,0.1,0.4,0.2,0.6,0.2
			c0.2,0,0.3-0.2,0.5-0.4l2-2.3l0.3,0.3l-2,2.3c-0.2,0.2-0.4,0.4-0.7,0.5C112.7,214.5,112.6,214.5,112.6,214.5z"/>
	</g>
	<g>
		<path fill="#EDC2C0" d="M121.6,213.5c-0.3,0-0.5-0.1-0.7-0.2l-2.1-1.1l0.2-0.4l2.1,1.1c0.2,0.1,0.4,0.2,0.6,0.2
			c0.2,0,0.3-0.2,0.4-0.4l1.8-2.5l0.4,0.3l-1.8,2.5c-0.1,0.2-0.4,0.5-0.7,0.6C121.7,213.4,121.6,213.5,121.6,213.5z"/>
	</g>
	<g>
		<path fill="#EDC2C0" d="M130.4,212.3c-0.3,0-0.5-0.1-0.7-0.2l-2.1-1.1l0.2-0.4l2.1,1.1c0.2,0.1,0.4,0.2,0.6,0.2
			c0.2,0,0.3-0.2,0.4-0.4l1.8-2.5l0.4,0.3l-1.8,2.5c-0.1,0.2-0.3,0.5-0.7,0.6C130.5,212.3,130.5,212.3,130.4,212.3z"/>
	</g>
	<g>
		<path fill="#EDC2C0" d="M139.3,210.9c-0.3,0-0.5-0.1-0.7-0.2l-2.2-1l0.2-0.4l2.2,1c0.2,0.1,0.4,0.2,0.6,0.1c0.2,0,0.3-0.2,0.4-0.4
			l1.7-2.5l0.4,0.3l-1.7,2.5c-0.1,0.2-0.3,0.5-0.7,0.6C139.5,210.9,139.4,210.9,139.3,210.9z"/>
	</g>
	<g>
		<path fill="#EDC2C0" d="M148.1,209.4c-0.3,0-0.5-0.1-0.7-0.2l-2.2-1l0.2-0.4l2.2,1c0.2,0.1,0.4,0.2,0.6,0.1c0.2,0,0.3-0.2,0.4-0.4
			l1.7-2.5l0.4,0.3l-1.7,2.5c-0.1,0.2-0.3,0.5-0.7,0.6C148.3,209.4,148.2,209.4,148.1,209.4z"/>
	</g>
	<g>
		<path fill="#EDC2C0" d="M157,206.6c-0.3,0-0.5-0.1-0.7-0.2l-2.2-1l0.2-0.4l2.2,1c0.2,0.1,0.4,0.2,0.6,0.1c0.2,0,0.3-0.2,0.4-0.4
			l1.7-2.5l0.4,0.3l-1.7,2.5c-0.1,0.2-0.3,0.5-0.7,0.6C157.1,206.6,157.1,206.6,157,206.6z"/>
	</g>
	<g>
		<path fill="#EDC2C0" d="M165.8,205.1c-0.3,0-0.5-0.1-0.7-0.2l-2.2-1l0.2-0.4l2.2,1c0.2,0.1,0.4,0.2,0.6,0.1c0.2,0,0.3-0.2,0.4-0.4
			l1.7-2.5l0.4,0.3l-1.7,2.5c-0.1,0.2-0.3,0.5-0.7,0.6C165.9,205.1,165.9,205.1,165.8,205.1z"/>
	</g>
</g>
</svg>
