<?xml version="1.0" encoding="utf-8"?>
<!-- Generator: Adobe Illustrator 23.0.2, SVG Export Plug-In . SVG Version: 6.00 Build 0)  -->
<svg version="1.1" id="Layer_1" xmlns="http://www.w3.org/2000/svg" xmlns:xlink="http://www.w3.org/1999/xlink" x="0px" y="0px"
	 width="135.6px" height="158.1px" viewBox="0 0 135.6 158.1" enable-background="new 0 0 135.6 158.1" xml:space="preserve">
<g>
	<path fill="none" d="M81.8,21.5c0.7-4.2,1.3-8.1,1.8-11.7c-0.1,0.4-0.3,0.9-0.5,1.3c-0.7,1.5-2.2,2.7-3.5,3.8
		c-0.4,0.3-0.7,0.6-1.1,0.9c-4.5,4.1-9.7,7.3-15.3,9.5c0.4,1.5,4.8,11.4,8.5,16.7c2.6,3.8,5.9,7.9,10.4,9.7
		c5.4,2.2,10.6-0.1,12.4-3.5c0.7-1.3,1-3,1-4.9c-0.1-5-2.9-9.3-5.8-13.9c-2.5-3.9-5-7.9-5.7-12.3c-0.2-0.9-0.2-1.8-0.3-2.7
		c-0.3,2.3-0.7,4.6-1.1,7.1L81.8,21.5z"/>
	<path fill="#441211" d="M83.5,9.8c-0.5,3.6-1,7.5-1.8,11.7l0.7,0.1c0.4-2.5,0.8-4.8,1.1-7.1c-0.1-2.5,0.2-4.9,0.5-7.4
		c0.1-0.5,0.3-0.9,0.6-1.3c0.2-1.9,0.4-3.8,0.5-5.7L84.5,0c-0.2,2.2-0.4,4.4-0.6,6.6C84,7.7,83.9,8.7,83.5,9.8z"/>
	<path fill="#ECC2C0" d="M45.7,87.3c0.1,0.1,0.3,0.1,0.3,0.1l0.3,0.6c-0.1,0-0.2,0.1-0.3,0.1l10.3,12.1c0.4,0,0.8,0.1,1,0.3
		c6.4,5.6,13.7,12.1,19.5,19.4l46.7-9.6c4.5-16.6,4.1-36.3-1-53.1c-5.8-19-17.3-36.9-33.3-51.7c-0.7-0.7-1.7-0.9-2.6-0.6
		c-0.9,0.3-1.7,1.2-1.9,2.1c-0.5,3.4-0.8,6.7-0.3,9.9c0.7,4.3,3.2,8.3,5.7,12.1c2.8,4.4,5.7,9,5.9,14.2c0.1,2-0.3,3.8-1.1,5.2
		c-1.1,2.1-3.2,3.6-5.8,4.3c-2.4,0.6-5.1,0.4-7.5-0.5c-4.7-1.9-8-6.1-10.7-9.9c-2.3-3.3-4.8-8.3-5.7-10.3c-0.5-1.1-3-6.3-2.8-7
		c0-0.1,0.1-0.2,0.2-0.2c5.7-2.2,10.8-5.4,15.3-9.5c0.3-0.3,0.7-0.6,1.1-0.9c1.3-1.1,2.7-2.3,3.4-3.6c1-1.9,1.2-4,0.5-5.6
		c-0.4-0.9-1.8-1.8-2.8-2c-0.7-0.1-1.4,0.1-2.1,0.3c-5.4,1.6-10.9,3.2-15.7,6.2c-2.7,1.7-5.2,3.1-8,4.5c-0.6,0.3-1.1,0.5-1.6,0.8
		c-2.1,0.9-3.6,1.6-5.1,3.6c-1.8,2.3-1.5,4.8-1.2,7.8c0.3,2.1,0.5,4.3,0.9,6.5c0.2,1.1,0.5,2.3,0.7,3.4c0.9,4,1.7,8.2,1.1,12.2
		l-0.2,1.1l-0.5-1c-1.6-3.6-4.8-6.2-7.9-8.7c-3.4-2.7-6.9-5.6-8.4-9.7c-0.3-0.9-0.5-1.9-0.6-2.8c-0.1-0.7-0.2-1.4-0.4-2.1
		c-0.4-1.6-1-3.2-1.7-4.7c-1.2-2.6-2.8-5.4-5-8.7c-4.8-7-7.9-7.9-10.4-7.8c-0.2,0-0.4,0-0.6,0.1c-0.2,0.2-0.2,0.6,0,1.2
		c2.1,5.9,2.9,12.2,3.8,18.3c0.4,3,0.7,6.1,1,9.1l0.2,1.5c0.1,0.6,0.1,1.3,0.1,2c0.1,2.5,0.3,5.2,1.8,7c5.8,7,12.2,13.3,19.1,18.8
		l1,0.8l0.3,0.2L45.7,87.3z"/>
	<path fill="#ECC2C0" d="M77.9,121.4c4.7,0.6,10.1,0.2,15.1-0.9c3.2-0.7,6.4-1.3,9.6-1.8c2.2-0.4,4.6-0.8,6.9-1.2
		c1.2-0.2,2.5-0.6,3.8-1c1.4-0.4,2.9-0.9,4.4-1.1c0.9-0.2,5-2.1,5.2-2.7c0.2-0.7,0.4-1.5,0.6-2.2L76.8,120
		C77.2,120.5,77.6,121,77.9,121.4z"/>
	<path fill="#441211" d="M45.8,87.7l0,0.2c0.1-0.1,0.2-0.1,0.3-0.2C46,87.8,45.9,87.7,45.8,87.7z"/>
	<path fill="#441211" d="M86.5,4.8c1-0.3,2.1,0,2.9,0.7c15.2,14.2,27.3,31.9,33.4,51.8c5.1,16.6,5.6,36.2,1.1,53.1l0.2,0
		c0.1,0,0.1,0,0.2,0c4.4-16.7,4-36.3-1.1-53.1c-5.9-19.1-17.4-37.1-33.5-52c-0.9-0.8-2.1-1.1-3.2-0.8c-0.7,0.2-1.3,0.7-1.7,1.3
		c0,0.3-0.1,0.5-0.1,0.8C84.9,5.8,85.6,5.1,86.5,4.8z"/>
	<path fill="#441211" d="M76.4,120.1c-5.6-7-12.7-13.4-19.4-19.2c-0.1-0.1-0.3-0.2-0.5-0.2l0.2,0.2l0,0.2c0,0,0.1,0,0.1,0
		c6.3,5.5,13.5,11.9,19.2,19.1c0.1,0,0.2-0.1,0.2-0.1L76.4,120.1z"/>
	<path fill="#441211" d="M20.1,43.3c-2-2.5-1.8-6.1-2.1-9.2c-0.3-3.5-0.7-7.1-1.1-10.6c-0.8-6.1-1.7-12.3-3.7-18.2
		c-0.2-0.5-0.3-1.2,0.1-1.6c0.2-0.2,0.5-0.2,0.8-0.2c4.6-0.1,8,4.1,10.6,7.9c1.9,2.8,3.7,5.7,5,8.7c0.7,1.5,1.3,3.1,1.7,4.8
		c0.4,1.6,0.5,3.4,1.1,5c2.7,7.8,12.9,10.8,16.3,18.4c0.8-5.2-0.9-10.4-1.8-15.5c-0.4-2.1-0.7-4.3-0.9-6.5c-0.4-3-0.6-5.6,1.3-8
		c2-2.5,4-3,6.9-4.5c2.9-1.4,5.3-2.8,8-4.5C67,6.4,72.5,4.8,78,3.1c0.7-0.2,1.5-0.4,2.2-0.3c1.1,0.2,2.6,1.2,3,2.2
		C84,7,83.6,9.2,82.7,11c-0.9,1.8-3,3.3-4.5,4.7c-4.5,4.1-9.8,7.3-15.4,9.5c-0.4,0.2,4.8,11.7,8.5,17.1c2.8,4,6,8,10.5,9.8
		c4.5,1.8,10.5,0.7,12.8-3.6c0.8-1.5,1.1-3.3,1-5c-0.3-9.6-9.9-16.8-11.5-26.3c-0.3-1.7-0.3-3.4-0.2-5.1c-0.1,0.8-0.2,1.7-0.4,2.5
		c0,0.9,0.1,1.8,0.3,2.7c0.8,4.5,3.3,8.5,5.7,12.3c2.9,4.6,5.6,8.9,5.8,13.9c0.1,1.9-0.3,3.5-1,4.9c-1.8,3.4-7,5.6-12.4,3.5
		c-4.5-1.8-7.8-5.9-10.4-9.7c-3.6-5.2-8.1-15.1-8.5-16.7c5.7-2.2,10.8-5.4,15.3-9.5c0.3-0.3,0.7-0.6,1.1-0.9
		c1.3-1.1,2.8-2.4,3.5-3.8c0.2-0.4,0.4-0.9,0.5-1.3c0.1-1.1,0.3-2.1,0.4-3.1c-0.1-0.6-0.2-1.2-0.4-1.7c-0.5-1.2-2.1-2.2-3.2-2.4
		c-0.8-0.2-1.7,0.1-2.4,0.3c-5.4,1.6-11,3.3-15.9,6.3c-2.7,1.7-5.1,3.1-8,4.5c-0.6,0.3-1.1,0.5-1.6,0.7c-2.1,0.9-3.7,1.7-5.4,3.8
		c-2,2.6-1.7,5.3-1.3,8.2c0.3,2.1,0.5,4.3,0.9,6.5c0.2,1.1,0.5,2.3,0.7,3.4c0.8,3.6,1.5,7.3,1.2,10.9c-1.8-3.2-4.7-5.6-7.6-7.9
		c-3.5-2.8-6.8-5.5-8.2-9.4c-0.3-0.9-0.5-1.8-0.6-2.7c-0.1-0.7-0.3-1.5-0.5-2.2c-0.4-1.6-1-3.2-1.7-4.8c-1.2-2.7-2.8-5.5-5-8.8
		C22.1,7.2,18.6,3.1,14,3.2c-0.3,0-0.7,0-1,0.3c-0.7,0.6-0.3,1.6-0.2,1.9c2.1,5.8,2.9,12.1,3.7,18.1c0.4,3,0.7,6.1,1,9l0.2,1.5
		c0.1,0.6,0.1,1.3,0.1,1.9c0.2,2.6,0.3,5.4,2,7.4C25.1,49.9,31,55.8,37.3,61l1.5,0.8C32,56.3,25.7,50.1,20.1,43.3z"/>
	<path fill="#441211" d="M83.9,6.6c-0.1,1-0.2,2.1-0.4,3.1C83.9,8.7,84,7.7,83.9,6.6z"/>
	<path fill="#441211" d="M83.5,14.5c0.1-0.9,0.2-1.7,0.4-2.5c0.1-1.6,0.3-3.3,0.5-4.9c0-0.2,0.1-0.4,0.2-0.6c0-0.3,0.1-0.5,0.1-0.8
		c-0.3,0.4-0.5,0.9-0.6,1.3C83.7,9.6,83.4,12.1,83.5,14.5z"/>
	<path fill="#441211" d="M77.6,122.1l0.1,0c1.6,0.2,3.2,0.3,4.9,0.3c3.5,0,7.1-0.4,10.6-1.2c3.2-0.7,6.4-1.3,9.5-1.8
		c2.3-0.4,4.6-0.8,6.9-1.2c1.3-0.3,2.6-0.6,3.8-1c1.4-0.4,2.9-0.9,4.3-1.1c0.6-0.1,5.4-2,5.8-3.1c0.3-0.8,0.5-1.7,0.7-2.6
		c-0.1,0-0.1,0-0.2,0l-0.2,0c-0.2,0.8-0.4,1.6-0.7,2.4c-0.2,0.8-4.8,2.8-5.5,2.9c-2.7,0.5-5.4,1.6-8.1,2.1c-5.5,1.1-11,1.7-16.4,3
		c-4.9,1.1-10.3,1.6-15.3,0.9c-0.4-0.6-0.9-1.1-1.3-1.7l-0.1,0c-0.1,0-0.2,0.1-0.2,0.1c0.5,0.6,1,1.2,1.4,1.8L77.6,122.1z"/>
	<path fill="#441211" d="M46,88.1c0.1,0,0.2-0.1,0.3-0.1L46,87.4c-0.1,0-0.2,0-0.3-0.1l0.1,0.4c0.2,0.1,0.3,0.1,0.4,0
		c-0.1,0.1-0.2,0.1-0.3,0.2l0,0L46,88.1z"/>
	<path fill="#441211" d="M122.8,57.3c-6.1-19.9-18.1-37.7-33.4-51.8c-0.8-0.7-1.9-1-2.9-0.7c-0.9,0.3-1.6,1-1.9,1.8
		c-0.2,1.8-0.4,3.6-0.7,5.4c-0.1,1.7-0.1,3.4,0.2,5.1c1.6,9.4,11.3,16.7,11.5,26.3c0,1.7-0.2,3.5-1,5c-2.3,4.3-8.3,5.4-12.8,3.6
		c-4.5-1.8-7.8-5.8-10.5-9.8c-3.8-5.4-9-16.9-8.5-17.1c5.7-2.2,10.9-5.5,15.4-9.5c1.5-1.4,3.6-2.9,4.5-4.7c0.9-1.8,1.3-4,0.5-5.9
		c-0.4-1-1.9-2-3-2.2c-0.7-0.1-1.5,0.1-2.2,0.3c-5.5,1.6-11,3.3-15.8,6.3c-2.7,1.7-5.1,3.1-8,4.5c-2.9,1.4-4.9,1.9-6.9,4.5
		c-1.9,2.4-1.6,5-1.3,8c0.3,2.2,0.5,4.3,0.9,6.5c0.9,5.1,2.6,10.4,1.8,15.5C45.4,40.8,35.1,37.8,32.4,30c-0.5-1.6-0.6-3.3-1.1-5
		c-0.4-1.6-1-3.2-1.7-4.8c-1.4-3.1-3.1-6-5-8.7C22,7.7,18.6,3.4,14,3.6c-0.3,0-0.6,0-0.8,0.2c-0.4,0.4-0.3,1-0.1,1.6
		c2.1,5.9,2.9,12.1,3.7,18.2c0.5,3.5,0.8,7,1.1,10.6c0.3,3.1,0,6.7,2.1,9.2c5.6,6.8,11.9,13,18.8,18.5l1.6,0.9l-1-0.8
		c-6.9-5.5-13.3-11.8-19.1-18.8c-1.5-1.9-1.7-4.5-1.8-7c0-0.7-0.1-1.3-0.1-2l-0.2-1.5c-0.3-3-0.6-6-1-9.1
		c-0.8-6.1-1.7-12.4-3.8-18.3c-0.2-0.6-0.2-1,0-1.2c0.1-0.1,0.4-0.1,0.6-0.1c2.4-0.1,5.6,0.8,10.4,7.8c2.2,3.3,3.8,6,5,8.7
		c0.7,1.6,1.3,3.2,1.7,4.7c0.2,0.7,0.3,1.4,0.4,2.1c0.2,0.9,0.3,1.9,0.6,2.8c1.4,4.2,5,7,8.4,9.7c3.1,2.5,6.3,5.1,7.9,8.7l0.5,1
		l0.2-1.1c0.6-4.1-0.3-8.2-1.1-12.2c-0.2-1.1-0.5-2.3-0.7-3.4c-0.4-2.1-0.7-4.3-0.9-6.5c-0.3-2.9-0.6-5.4,1.2-7.8
		c1.5-2,3.1-2.7,5.1-3.6c0.5-0.2,1-0.5,1.6-0.8c2.9-1.4,5.3-2.8,8-4.5c4.8-3,10.4-4.7,15.7-6.2c0.7-0.2,1.4-0.4,2.1-0.3
		c1,0.2,2.4,1.1,2.8,2c0.7,1.7,0.5,3.7-0.5,5.6c-0.7,1.4-2.1,2.6-3.4,3.6c-0.4,0.3-0.8,0.6-1.1,0.9c-4.5,4.1-9.7,7.3-15.3,9.5
		c-0.1,0-0.2,0.1-0.2,0.2c-0.2,0.7,2.3,6,2.8,7c1,2,3.5,7,5.7,10.3c2.7,3.8,6,8,10.7,9.9c2.3,0.9,5,1.1,7.5,0.5
		c2.6-0.7,4.7-2.2,5.8-4.3c0.8-1.4,1.1-3.2,1.1-5.2c-0.1-5.2-3.1-9.8-5.9-14.2c-2.4-3.8-4.9-7.8-5.7-12.1c-0.6-3.2-0.2-6.5,0.3-9.9
		c0.1-0.9,0.9-1.8,1.9-2.1c0.8-0.3,1.8,0,2.6,0.6c16,14.8,27.5,32.7,33.3,51.7c5.1,16.8,5.5,36.4,1,53.1l0.4-0.1
		C128.4,93.5,127.9,73.9,122.8,57.3z"/>
	<path fill="#441211" d="M57.3,100.6c-0.2-0.2-0.6-0.3-1-0.3l0.3,0.4c0.2,0,0.4,0.1,0.5,0.2c6.7,5.8,13.8,12.2,19.4,19.2l0.4-0.1
		C71,112.7,63.7,106.2,57.3,100.6z"/>
	<path fill="#441211" d="M84.4,7.1c-0.2,1.6-0.4,3.2-0.5,4.9c0.3-1.9,0.5-3.7,0.7-5.4C84.5,6.8,84.4,7,84.4,7.1z"/>
	<path fill="#441211" d="M122.9,112.7c-0.2,0.6-4.4,2.5-5.2,2.7c-1.5,0.3-3,0.7-4.4,1.1c-1.2,0.4-2.5,0.7-3.8,1
		c-2.3,0.5-4.6,0.8-6.9,1.2c-3.1,0.5-6.4,1.1-9.6,1.8c-5,1.2-10.4,1.5-15.1,0.9c-0.4-0.5-0.8-1-1.1-1.4l-0.4,0.1
		c0.4,0.6,0.9,1.1,1.3,1.7c5.1,0.6,10.5,0.2,15.3-0.9c5.5-1.3,10.9-1.9,16.4-3c2.7-0.5,5.4-1.7,8.1-2.1c0.7-0.1,5.3-2.1,5.5-2.9
		c0.2-0.8,0.5-1.6,0.7-2.4l-0.4,0.1C123.3,111.2,123.1,112,122.9,112.7z"/>
</g>
</svg>
