<?xml version="1.0" encoding="utf-8"?>
<!-- Generator: Adobe Illustrator 23.0.2, SVG Export Plug-In . SVG Version: 6.00 Build 0)  -->
<svg version="1.1" id="Layer_1" xmlns="http://www.w3.org/2000/svg" xmlns:xlink="http://www.w3.org/1999/xlink" x="0px" y="0px"
	 viewBox="0 0 411.39 478.97" style="enable-background:new 0 0 411.39 478.97;" xml:space="preserve">
<style type="text/css">
	.st0{fill:none;stroke:#441211;stroke-width:2;stroke-miterlimit:10;}
	.st1{fill:#ECC2C0;stroke:#441211;stroke-width:2;stroke-miterlimit:10;}
	.st2{fill:#441211;}
	.st3{fill:none;stroke:#441211;stroke-linejoin:round;stroke-miterlimit:10;}
	.st4{fill:#441211;stroke:#441211;stroke-width:2;stroke-miterlimit:10;}
	.st5{fill:none;stroke:#EDC2C0;stroke-miterlimit:10;}
	.st6{fill:#D7F1F4;}
	.st7{fill:none;}
</style>
<g>
	<path class="st0" d="M249.36,65.34c4.16-24.48,6.88-45.49,8.42-65.26"/>
	<path class="st2" d="M376.46,334.34c2.33-0.08,4.67-0.17,7-0.25c0.57-0.02,1.18-0.03,1.68,0.26c0.52,0.3,0.81,0.87,1.07,1.42
		c12.33,25.94,14.03,55.28,17.99,83.27c1.85,13.05,6,25.74,7.2,38.87c-6.52-1.09-15.76,1.62-22.3,2.25
		c-17.68,1.72-35.36,3.42-53.04,5.11c-35.7,3.42-71.4,6.81-107.1,10.2c-3.6,0.34-7.29,0.77-10.85,0.98
		c1.19-4.84,1.89-9.18,1.62-14.3c-1.59-30.13-5.19-61-2.88-91.14c0.04-0.58,0.1-1.2,0.46-1.66c0.34-0.45,0.89-0.67,1.42-0.87
		c4.33-1.66,8.71-3.17,13.14-4.54"/>
	<path class="st1" d="M373.86,341.76c15.83-52.89,14.95-115.33-1.24-168.11C354.11,113.34,317.66,59.5,271.47,16.56
		c-2.34-2.18-5.72-3.12-8.75-2.07c-3.41,1.18-5.93,4.29-6.32,7.14c-1.39,10.06-2.56,20.32-0.86,30.33
		c4.85,28.59,34.13,50.65,34.9,79.64c0.14,5.25-0.67,10.62-3.12,15.26c-6.89,13.04-25.18,16.44-38.85,10.92
		c-13.68-5.52-23.55-17.55-31.95-29.67c-11.4-16.45-27.14-51.24-25.81-51.76c17.15-6.7,33.06-16.55,46.7-28.91
		c4.58-4.15,10.97-8.67,13.77-14.18c2.8-5.51,3.84-12.17,1.55-17.91c-1.26-3.16-5.76-6.09-9.1-6.72c-2.25-0.42-4.55,0.24-6.75,0.89
		c-16.52,4.92-33.27,9.94-47.92,19.04c-8.18,5.08-15.48,9.38-24.19,13.63c-8.78,4.28-14.82,5.8-20.86,13.49
		c-5.7,7.27-4.91,15.05-3.81,24.22c0.78,6.56,1.57,13.12,2.75,19.62c2.84,15.55,7.84,31.44,5.44,47.06
		c-10.19-22.99-41.21-31.99-49.42-55.76c-1.66-4.8-1.92-10.09-3.27-15.01c-1.35-4.95-3.11-9.79-5.18-14.48
		c-4.12-9.32-9.47-18.05-15.2-26.45c-7.9-11.59-18.21-24.48-32.24-24.08c-0.81,0.02-1.68,0.11-2.31,0.63
		c-1.32,1.07-0.84,3.15-0.27,4.75c6.31,17.73,8.84,36.53,11.34,55.1c1.43,10.65,2.41,21.35,3.47,32.05
		c0.92,9.3,0.09,20.36,6.24,27.81c17.31,20.98,36.74,40.22,58.03,57.15c-9.66-1.97-19.37-3.64-28.96-5.93
		c-7.06-1.69-14.75-2.93-20.91-6.95c-5.9-3.85-10.49-9.45-14.29-15.31c-10.94-16.89-19.12-35.44-31.06-51.72
		c-2.95-4.02-6.96-7.2-11.67-8.83c-2.01-0.7-4.25-1.14-6.35-0.62c-5.53,1.37-4.93,8.4-5.14,12.92c-0.11,2.22-0.16,4.43-0.07,6.65
		c0.49,11.94,3.8,23.46,7.94,34.56c11.92,32.01,28.95,66.43,61.28,81.9c15.6,7.46,32.43,11.9,48.14,19.11
		c4.6,2.11,9.32,4.26,13.68,6.86c1.45,0.86,6.68,5.59,8.33,4.87c-13.97,6.22-30.06,12.74-45.69,10.51
		c-13.31-1.9-23.36-11.45-31.47-21.32c-4.97-6.04-10.24-14.44-18.22-16.76c-1.99-0.58-13.86-0.76-13.45,2.75
		c1.86,15.7,7.85,29.74,15.74,42.8c9.36,15.5,26.57,31.21,44.74,29.06c20.46-2.43,37.66-1.05,58.01-4
		c10.12-1.46,20.42-5.88,23.47-3.23c21.94,19.06,45.17,40.15,62.7,63.33c15.35,1.86,31.71,0.62,46.49-2.83
		c16.55-3.86,33.12-5.82,49.78-9.16c8.2-1.65,16.43-5,24.68-6.41C359.35,350.15,373.13,344.19,373.86,341.76z"/>
	<path class="st5" d="M228.55,388.2c1.53,0.94,3.06,1.88,4.59,2.82c0.48,0.3,1.02,0.6,1.57,0.51c0.54-0.09,0.95-0.53,1.3-0.95
		c1.49-1.73,2.97-3.45,4.46-5.18"/>
	<path class="st5" d="M248.43,387.02c1.53,0.94,3.06,1.88,4.59,2.82c0.48,0.3,1.02,0.6,1.57,0.51c0.54-0.09,0.95-0.53,1.3-0.95
		c1.49-1.73,2.97-3.45,4.46-5.18"/>
	<path class="st5" d="M268.3,385.16c1.59,0.83,3.19,1.66,4.78,2.48c0.5,0.26,1.06,0.53,1.61,0.4c0.53-0.13,0.9-0.6,1.23-1.04
		c1.36-1.83,2.71-3.66,4.07-5.49"/>
	<path class="st5" d="M288.05,382.54c1.59,0.83,3.19,1.66,4.78,2.48c0.5,0.26,1.06,0.53,1.61,0.4c0.53-0.13,0.9-0.6,1.23-1.04
		c1.36-1.83,2.71-3.66,4.07-5.49"/>
	<path class="st5" d="M307.84,378c1.63,0.76,3.25,1.52,4.88,2.29c0.51,0.24,1.08,0.48,1.62,0.33c0.53-0.15,0.88-0.64,1.19-1.09
		c1.28-1.88,2.56-3.77,3.84-5.65"/>
	<path class="st5" d="M327.46,374.58c1.63,0.76,3.25,1.52,4.88,2.29c0.51,0.24,1.08,0.48,1.62,0.33c0.53-0.15,0.88-0.64,1.19-1.09
		c1.28-1.88,2.56-3.77,3.84-5.65"/>
	<path class="st5" d="M347.17,368.4c1.63,0.76,3.25,1.52,4.88,2.29c0.51,0.24,1.08,0.48,1.62,0.33c0.53-0.15,0.88-0.64,1.19-1.09
		c1.28-1.88,2.56-3.77,3.84-5.65"/>
	<path class="st5" d="M366.79,364.98c1.63,0.76,3.25,1.52,4.88,2.29c0.51,0.24,1.08,0.48,1.62,0.33c0.53-0.15,0.88-0.64,1.19-1.09
		c1.28-1.88,2.56-3.77,3.84-5.65"/>
	<path class="st5" d="M221.3,406.31c1.53,0.94,3.06,1.88,4.59,2.82c0.48,0.3,1.02,0.6,1.57,0.51c0.54-0.09,0.95-0.53,1.3-0.95
		c1.49-1.73,2.97-3.45,4.46-5.18"/>
	<path class="st5" d="M378.84,379.15c1.53,0.94,3.06,1.88,4.59,2.82c0.48,0.3,1.02,0.6,1.57,0.51c0.54-0.09,0.95-0.53,1.3-0.95
		c1.49-1.73,2.97-3.45,4.46-5.18"/>
	<path class="st5" d="M241.19,405.12c1.53,0.94,3.06,1.88,4.59,2.82c0.48,0.3,1.02,0.6,1.57,0.51c0.54-0.09,0.95-0.53,1.3-0.95
		c1.49-1.73,2.97-3.45,4.46-5.18"/>
	<path class="st5" d="M261.06,403.26c1.59,0.83,3.19,1.66,4.78,2.48c0.5,0.26,1.06,0.53,1.61,0.4c0.53-0.13,0.9-0.6,1.23-1.04
		c1.36-1.83,2.71-3.66,4.07-5.49"/>
	<path class="st5" d="M280.8,400.65c1.59,0.83,3.19,1.66,4.78,2.48c0.5,0.26,1.06,0.53,1.61,0.4c0.53-0.13,0.9-0.6,1.23-1.04
		c1.36-1.83,2.71-3.66,4.07-5.49"/>
	<path class="st5" d="M300.59,396.11c1.63,0.76,3.25,1.52,4.88,2.29c0.51,0.24,1.08,0.48,1.62,0.33c0.53-0.15,0.88-0.64,1.19-1.09
		c1.28-1.88,2.56-3.77,3.84-5.65"/>
	<path class="st5" d="M320.21,392.69c1.63,0.76,3.25,1.52,4.88,2.29c0.51,0.24,1.08,0.48,1.62,0.33c0.53-0.15,0.88-0.64,1.19-1.09
		c1.28-1.88,2.56-3.77,3.84-5.65"/>
	<path class="st5" d="M339.93,386.51c1.63,0.76,3.25,1.52,4.88,2.29c0.51,0.24,1.08,0.48,1.62,0.33c0.53-0.15,0.88-0.64,1.19-1.09
		c1.28-1.88,2.56-3.77,3.84-5.65"/>
	<path class="st5" d="M359.55,383.09c1.63,0.76,3.25,1.52,4.88,2.29c0.51,0.24,1.08,0.48,1.62,0.33c0.53-0.15,0.88-0.64,1.19-1.09
		c1.28-1.88,2.56-3.77,3.84-5.65"/>
	<path class="st5" d="M232.17,422.6c1.53,0.94,3.06,1.88,4.59,2.82c0.48,0.3,1.02,0.6,1.57,0.51c0.54-0.09,0.95-0.53,1.3-0.95
		c1.49-1.73,2.97-3.45,4.46-5.18"/>
	<path class="st5" d="M252.05,421.42c1.53,0.94,3.06,1.88,4.59,2.82c0.48,0.3,1.02,0.6,1.57,0.51c0.54-0.09,0.95-0.53,1.3-0.95
		c1.49-1.73,2.97-3.45,4.46-5.18"/>
	<path class="st5" d="M271.92,419.56c1.59,0.83,3.19,1.66,4.78,2.48c0.5,0.26,1.06,0.53,1.61,0.4c0.53-0.13,0.9-0.6,1.23-1.04
		c1.36-1.83,2.71-3.66,4.07-5.49"/>
	<path class="st5" d="M291.67,416.94c1.59,0.83,3.19,1.66,4.78,2.48c0.5,0.26,1.06,0.53,1.61,0.4c0.53-0.13,0.9-0.6,1.23-1.04
		c1.36-1.83,2.71-3.66,4.07-5.49"/>
	<path class="st5" d="M311.46,412.41c1.63,0.76,3.25,1.52,4.88,2.29c0.51,0.24,1.08,0.48,1.62,0.33c0.53-0.15,0.88-0.64,1.19-1.09
		c1.28-1.88,2.56-3.77,3.84-5.65"/>
	<path class="st5" d="M331.08,408.99c1.63,0.76,3.25,1.52,4.88,2.29c0.51,0.24,1.08,0.48,1.62,0.33c0.53-0.15,0.88-0.64,1.19-1.09
		c1.28-1.88,2.56-3.77,3.84-5.65"/>
	<path class="st5" d="M350.79,402.81c1.63,0.76,3.25,1.52,4.88,2.29c0.51,0.24,1.08,0.48,1.62,0.33c0.53-0.15,0.88-0.64,1.19-1.09
		c1.28-1.88,2.56-3.77,3.84-5.65"/>
	<path class="st5" d="M370.41,399.39c1.63,0.76,3.25,1.52,4.88,2.29c0.51,0.24,1.08,0.48,1.62,0.33c0.53-0.15,0.88-0.64,1.19-1.09
		c1.28-1.88,2.56-3.77,3.84-5.65"/>
	<path class="st5" d="M224.92,440.71c1.53,0.94,3.06,1.88,4.59,2.82c0.48,0.3,1.02,0.6,1.57,0.51c0.54-0.09,0.95-0.53,1.3-0.95
		c1.49-1.73,2.97-3.45,4.46-5.18"/>
	<path class="st5" d="M382.46,413.55c1.53,0.94,3.06,1.88,4.59,2.82c0.48,0.3,1.02,0.6,1.57,0.51c0.54-0.09,0.95-0.53,1.3-0.95
		c1.49-1.73,2.97-3.45,4.46-5.18"/>
	<path class="st5" d="M244.81,439.53c1.53,0.94,3.06,1.88,4.59,2.82c0.48,0.3,1.02,0.6,1.57,0.51c0.54-0.09,0.95-0.53,1.3-0.95
		c1.49-1.73,2.97-3.45,4.46-5.18"/>
	<path class="st5" d="M264.68,437.67c1.59,0.83,3.19,1.66,4.78,2.48c0.5,0.26,1.06,0.53,1.61,0.4c0.53-0.13,0.9-0.6,1.23-1.04
		c1.36-1.83,2.71-3.66,4.07-5.49"/>
	<path class="st5" d="M284.43,435.05c1.59,0.83,3.19,1.66,4.78,2.48c0.5,0.26,1.06,0.53,1.61,0.4c0.53-0.13,0.9-0.6,1.23-1.04
		c1.36-1.83,2.71-3.66,4.07-5.49"/>
	<path class="st5" d="M304.21,430.51c1.63,0.76,3.25,1.52,4.88,2.29c0.51,0.24,1.08,0.48,1.62,0.33c0.53-0.15,0.88-0.64,1.19-1.09
		c1.28-1.88,2.56-3.77,3.84-5.65"/>
	<path class="st5" d="M323.84,427.09c1.63,0.76,3.25,1.52,4.88,2.29c0.51,0.24,1.08,0.48,1.62,0.33c0.53-0.15,0.88-0.64,1.19-1.09
		c1.28-1.88,2.56-3.77,3.84-5.65"/>
	<path class="st5" d="M343.55,420.91c1.63,0.76,3.25,1.52,4.88,2.29c0.51,0.24,1.08,0.48,1.62,0.33c0.53-0.15,0.88-0.64,1.19-1.09
		c1.28-1.88,2.56-3.77,3.84-5.65"/>
	<path class="st5" d="M363.17,417.49c1.63,0.76,3.25,1.52,4.88,2.29c0.51,0.24,1.08,0.48,1.62,0.33c0.53-0.15,0.88-0.64,1.19-1.09
		c1.28-1.88,2.56-3.77,3.84-5.65"/>
	<path class="st5" d="M232.17,458.82c1.53,0.94,3.06,1.88,4.59,2.82c0.48,0.3,1.02,0.6,1.57,0.51c0.54-0.09,0.95-0.53,1.3-0.95
		c1.49-1.73,2.97-3.45,4.46-5.18"/>
	<path class="st5" d="M252.05,457.63c1.53,0.94,3.06,1.88,4.59,2.82c0.48,0.3,1.02,0.6,1.57,0.51c0.54-0.09,0.95-0.53,1.3-0.95
		c1.49-1.73,2.97-3.45,4.46-5.18"/>
	<path class="st5" d="M271.92,455.78c1.59,0.83,3.19,1.66,4.78,2.48c0.5,0.26,1.06,0.53,1.61,0.4c0.53-0.13,0.9-0.6,1.23-1.04
		c1.36-1.83,2.71-3.66,4.07-5.49"/>
	<path class="st5" d="M291.67,453.16c1.59,0.83,3.19,1.66,4.78,2.48c0.5,0.26,1.06,0.53,1.61,0.4c0.53-0.13,0.9-0.6,1.23-1.04
		c1.36-1.83,2.71-3.66,4.07-5.49"/>
	<path class="st5" d="M311.46,448.62c1.63,0.76,3.25,1.52,4.88,2.29c0.51,0.24,1.08,0.48,1.62,0.33c0.53-0.15,0.88-0.64,1.19-1.09
		c1.28-1.88,2.56-3.77,3.84-5.65"/>
	<path class="st5" d="M331.08,445.2c1.63,0.76,3.25,1.52,4.88,2.29c0.51,0.24,1.08,0.48,1.62,0.33c0.53-0.15,0.88-0.64,1.19-1.09
		c1.28-1.88,2.56-3.77,3.84-5.65"/>
	<path class="st5" d="M350.79,439.02c1.63,0.76,3.25,1.52,4.88,2.29c0.51,0.24,1.08,0.48,1.62,0.33c0.53-0.15,0.88-0.64,1.19-1.09
		c1.28-1.88,2.56-3.77,3.84-5.65"/>
	<path class="st5" d="M370.41,435.6c1.63,0.76,3.25,1.52,4.88,2.29c0.51,0.24,1.08,0.48,1.62,0.33c0.53-0.15,0.88-0.64,1.19-1.09
		c1.28-1.88,2.56-3.77,3.84-5.65"/>
	<path class="st5" d="M224.92,475.12c1.53,0.94,3.06,1.88,4.59,2.82c0.48,0.3,1.02,0.6,1.57,0.51c0.54-0.09,0.95-0.53,1.3-0.95
		c1.49-1.73,2.97-3.45,4.46-5.18"/>
	<path class="st5" d="M382.46,449.77c1.53,0.94,3.06,1.88,4.59,2.82c0.48,0.3,1.02,0.6,1.57,0.51c0.54-0.09,0.95-0.53,1.3-0.95
		c1.49-1.73,2.97-3.45,4.46-5.18"/>
	<path class="st5" d="M244.81,473.93c1.53,0.94,3.06,1.88,4.59,2.82c0.48,0.3,1.02,0.6,1.57,0.51c0.54-0.09,0.95-0.53,1.3-0.95
		c1.49-1.73,2.97-3.45,4.46-5.18"/>
	<path class="st5" d="M264.68,472.07c1.59,0.83,3.19,1.66,4.78,2.48c0.5,0.26,1.06,0.53,1.61,0.4c0.53-0.13,0.9-0.6,1.23-1.04
		c1.36-1.83,2.71-3.66,4.07-5.49"/>
	<path class="st5" d="M284.43,469.46c1.59,0.83,3.19,1.66,4.78,2.48c0.5,0.26,1.06,0.53,1.61,0.4c0.53-0.13,0.9-0.6,1.23-1.04
		c1.36-1.83,2.71-3.66,4.07-5.49"/>
	<path class="st5" d="M304.21,466.73c1.63,0.76,3.25,1.52,4.88,2.29c0.51,0.24,1.08,0.48,1.62,0.33c0.53-0.15,0.88-0.64,1.19-1.09
		c1.28-1.88,2.56-3.77,3.84-5.65"/>
	<path class="st5" d="M323.84,463.31c1.63,0.76,3.25,1.52,4.88,2.29c0.51,0.24,1.08,0.48,1.62,0.33c0.53-0.15,0.88-0.64,1.19-1.09
		c1.28-1.88,2.56-3.77,3.84-5.65"/>
	<path class="st5" d="M343.55,457.13c1.63,0.76,3.25,1.52,4.88,2.29c0.51,0.24,1.08,0.48,1.62,0.33c0.53-0.15,0.88-0.64,1.19-1.09
		c1.28-1.88,2.56-3.77,3.84-5.65"/>
	<path class="st5" d="M363.17,453.71c1.63,0.76,3.25,1.52,4.88,2.29c0.51,0.24,1.08,0.48,1.62,0.33c0.53-0.15,0.88-0.64,1.19-1.09
		c1.28-1.88,2.56-3.77,3.84-5.65"/>
</g>
</svg>
