<?xml version="1.0" encoding="utf-8"?>
<!-- Generator: Adobe Illustrator 23.0.2, SVG Export Plug-In . SVG Version: 6.00 Build 0)  -->
<svg version="1.1" id="Layer_1" xmlns="http://www.w3.org/2000/svg" xmlns:xlink="http://www.w3.org/1999/xlink" x="0px" y="0px"
	 width="104.2px" height="104.6px" viewBox="0 0 104.2 104.6" enable-background="new 0 0 104.2 104.6" xml:space="preserve">
<g>
	<path fill="none" stroke="#441211" stroke-miterlimit="10" d="M61.6,21.5c-1.6,0.3-2.2-1.9-2-3.5c0.5-4.1,2-8.1,4.3-11.5
		c0.7-1,1.4-1.9,1.7-3c0.3-1.1-0.1-2.5-1.1-3"/>
	<path fill="none" stroke="#441211" stroke-miterlimit="10" d="M21.4,42c0.2,1.6-2,2.2-3.6,1.9c-4.1-0.6-8-2.2-11.4-4.7
		c-0.9-0.7-1.9-1.5-3-1.8c-1.1-0.3-2.5,0-3,1"/>
	<path fill="none" stroke="#441211" stroke-miterlimit="10" d="M41.6,83.2c1.6-0.3,2.2,2,1.9,3.6c-0.6,4.1-2.2,8-4.6,11.4
		c-0.7,0.9-1.5,1.9-1.8,3c-0.3,1.1,0,2.5,1,3"/>
	<path fill="none" stroke="#441211" stroke-miterlimit="10" d="M82.8,63c-0.3-1.6,2-2.2,3.6-1.9c4.1,0.6,8,2.2,11.4,4.6
		c0.9,0.7,1.9,1.5,3,1.8c1.1,0.3,2.5,0,3-1"/>
	<path fill="none" stroke="#441211" stroke-miterlimit="10" d="M36.9,23.9C36,25.2,34,24,33,22.8c-2.6-3.2-4.3-7.1-5.1-11.2
		c-0.2-1.1-0.4-2.3-1-3.3c-0.6-1-1.8-1.7-2.9-1.3"/>
	<path fill="none" stroke="#441211" stroke-miterlimit="10" d="M22.9,66.7c1.3,0.9,0.1,2.9-1.2,3.9c-3.3,2.5-7.3,4.1-11.3,4.7
		c-1.2,0.2-2.4,0.3-3.4,0.8S5.3,78,5.6,79.1"/>
	<path fill="none" stroke="#441211" stroke-miterlimit="10" d="M66.4,81.6c0.9-1.3,2.9-0.1,3.9,1.2c2.5,3.3,4.1,7.2,4.8,11.3
		c0.2,1.2,0.3,2.4,0.9,3.4c0.6,1,1.8,1.8,2.9,1.4"/>
	<path fill="none" stroke="#441211" stroke-miterlimit="10" d="M81.2,38.2c-1.3-0.9-0.1-2.9,1.2-3.9c3.3-2.5,7.2-4.1,11.3-4.8
		c1.2-0.2,2.4-0.3,3.4-0.9s1.8-1.8,1.4-2.9"/>
</g>
</svg>
