<?xml version="1.0" encoding="utf-8"?>
<!-- Generator: Adobe Illustrator 23.0.2, SVG Export Plug-In . SVG Version: 6.00 Build 0)  -->
<svg version="1.1" id="Layer_1" xmlns="http://www.w3.org/2000/svg" xmlns:xlink="http://www.w3.org/1999/xlink" x="0px" y="0px"
	 viewBox="0 0 119.89 183.81" style="enable-background:new 0 0 119.89 183.81;" xml:space="preserve">
<style type="text/css">
	.st0{fill:none;stroke:#441211;stroke-width:2;stroke-miterlimit:10;}
	.st1{fill:#ECC2C0;stroke:#441211;stroke-width:2;stroke-miterlimit:10;}
	.st2{fill:#441211;}
	.st3{fill:none;stroke:#441211;stroke-linejoin:round;stroke-miterlimit:10;}
	.st4{fill:#441211;stroke:#441211;stroke-width:2;stroke-miterlimit:10;}
	.st5{fill:none;stroke:#EDC2C0;stroke-miterlimit:10;}
	.st6{fill:#D7F1F4;}
	.st7{fill:none;}
</style>
<g>
	<path class="st1" d="M34.76,179.76c3.91,1,8.08-0.36,11.49-2.52c3.41-2.15,6.27-5.06,9.41-7.6c10.18-8.22,22.97-12.3,34.74-18.03
		s23.4-14.2,27.19-26.72c2.38-7.88,1.3-16.5-1.52-24.24c-2.83-7.74-7.31-14.75-11.84-21.62c-1.92-2.9-3.93-5.88-6.86-7.75
		c-1.96-1.25-4.23-1.94-6.33-2.95c-8.13-3.93-12.96-12.32-17.3-20.24c-4.88-8.89-7.64-18.83-11.44-28.24
		C58.49,10.45,50.92,0.88,40.78,1c-5.27,0.06-10.42,3.04-13.1,7.58c-3.28,5.55-2.78,12.44-3.11,18.88
		C23.24,53.17,7.39,75.9,2.38,101.15c-1.61,8.12-1.16,17.11-1.15,25.33c0,6.99-0.7,14,0.37,20.95c0.53,3.45,1.55,5.92,3.38,8.8
		c4.7,7.34,2.65,16.87,6.44,24.65c0.45,0.92,1.14,1.94,2.16,1.92c0.79-0.02,1.4-0.66,1.92-1.25c1.65-1.84,3.42-3.59,5.28-5.22
		c1.65-1.45,3.68-2.9,5.85-2.54c0.84,0.14,3.1,3.17,3.83,3.6C32.64,178.66,32.33,179.14,34.76,179.76z"/>
	<path class="st3" d="M16.83,167.86c1.83-7.6,7.41-13.75,13.47-18.69s12.82-9.05,18.37-14.57s9.89-12.91,9.41-20.72"/>
	<path class="st3" d="M39.56,131.57c2.08-3.11,4.17-6.22,6.25-9.33c4.33-6.45,8.7-13.01,11.07-20.41c2.88-9,2.61-18.68,2.06-28.12"
		/>
	<path class="st3" d="M32.48,163.62c2.03-8.41,9.53-14.28,17-18.64c7.47-4.36,15.66-8.13,21.01-14.93c3.94-5.01,6-11.46,5.7-17.82"
		/>
	<path class="st3" d="M80.17,99.88c1.74-7.79,2.4-15.82,1.97-23.79"/>
	<path class="st3" d="M87.59,98.24c-0.14-2.38-0.27-4.77-0.41-7.15"/>
	<path class="st3" d="M64.76,151.68c7.95,0.02,15.42-3.75,22.07-8.1c5.48-3.59,10.94-8.03,12.91-14.27"/>
	<path class="st3" d="M37,169.31c4.19-5.37,10.01-9.44,16.5-11.53"/>
	<path class="st3" d="M11.71,155.8c-1.3-7.35,1.73-14.71,4.89-21.47c4.08-8.72,8.52-17.31,11.59-26.44s4.72-18.94,3.02-28.42"/>
	<path class="st3" d="M12.16,112.17c-0.52-7.4-1.01-15.02,1.26-22.08c1.23-3.83,3.24-7.37,5.45-10.74
		c2.89-4.43,6.14-8.62,9.42-12.76"/>
</g>
</svg>
