<?xml version="1.0" encoding="utf-8"?>
<!-- Generator: Adobe Illustrator 23.0.2, SVG Export Plug-In . SVG Version: 6.00 Build 0)  -->
<svg version="1.1" id="Layer_1" xmlns="http://www.w3.org/2000/svg" xmlns:xlink="http://www.w3.org/1999/xlink" x="0px" y="0px"
	 viewBox="0 0 39.87 40.98" style="enable-background:new 0 0 39.87 40.98;" xml:space="preserve">
<style type="text/css">
	.st0{fill:none;stroke:#441211;stroke-width:2;stroke-miterlimit:10;}
	.st1{fill:#ECC2C0;stroke:#441211;stroke-width:2;stroke-miterlimit:10;}
	.st2{fill:#441211;}
	.st3{fill:none;stroke:#441211;stroke-linejoin:round;stroke-miterlimit:10;}
	.st4{fill:#441211;stroke:#441211;stroke-width:2;stroke-miterlimit:10;}
	.st5{fill:none;stroke:#EDC2C0;stroke-miterlimit:10;}
	.st6{fill:#D7F1F4;}
	.st7{fill:none;}
</style>
<path class="st4" d="M17.78,32.18c4.64,0.27,8.82-2.57,12.59-5.28c3.15-2.27,6.46-4.72,7.92-8.32c1.46-3.6,0.12-8.61-3.62-9.65
	c-0.81-0.22-1.69-0.26-2.39-0.72c-1.99-1.29-1.06-4.69-2.71-6.38C28.16,0.39,25.63,1,24.11,2.31s-2.51,3.17-4.03,4.49
	c-3.41,2.98-8.61,2.65-12.56,4.85C2.97,14.18,0.79,20.27,2.7,25.1c0.55,1.4,1.4,2.94,0.74,4.29c-0.38,0.78-1.18,1.25-1.72,1.94
	c-1.11,1.42-0.85,3.57,0.19,5.05c1.03,1.48,2.67,2.41,4.32,3.14c0.61,0.27,1.27,0.53,1.94,0.45c1.18-0.15,1.95-1.27,2.67-2.21
	c2.68-3.5,6.84-5.84,11.22-6.3"/>
</svg>
