<?xml version="1.0" encoding="utf-8"?>
<!-- Generator: Adobe Illustrator 23.0.2, SVG Export Plug-In . SVG Version: 6.00 Build 0)  -->
<svg version="1.1" id="Layer_1" xmlns="http://www.w3.org/2000/svg" xmlns:xlink="http://www.w3.org/1999/xlink" x="0px" y="0px"
	 viewBox="0 0 233.7 218.5" style="enable-background:new 0 0 233.7 218.5;" xml:space="preserve">
<style type="text/css">
	.st0{fill:none;stroke:#441211;stroke-width:2;stroke-miterlimit:10;}
	.st1{fill:#ECC2C0;stroke:#441211;stroke-width:2;stroke-miterlimit:10;}
	.st2{fill:#441211;}
	.st3{fill:none;stroke:#441211;stroke-linejoin:round;stroke-miterlimit:10;}
	.st4{fill:#441211;stroke:#441211;stroke-width:2;stroke-miterlimit:10;}
	.st5{fill:none;stroke:#EDC2C0;stroke-miterlimit:10;}
	.st6{fill:#D7F1F4;}
	.st7{fill:none;}
</style>
<g>
	<path class="st1" d="M142.55,125.71c-14.74-4.67-29.4-6.36-45.36-1.98c-14.88,4.08-28.46,12.12-40.34,21.96
		c16.1,8.79,35.16,10.12,53.5,9.98c9.12-0.06,18.37-0.46,27.05-3.27c7.88-2.54,16.24-7.57,20.29-15.07
		c2.17-4.01,1.78-5.21-2.14-6.83C151.19,128.7,146.87,127.08,142.55,125.71z"/>
	<path class="st1" d="M102.32,184.75c14.34,6.52,28.91,13.11,44.47,15.55c15.09,2.36,32.44,0.32,44.99-9.39
		c3.56-2.75,11.13-9,11.05-13.98c-0.13-8.46-22.09-7.39-27.17-7.42C150.99,169.35,124.42,173.19,102.32,184.75z"/>
	<path class="st1" d="M147.26,46.96c-0.32,1.44,8.06,8.01,9.14,9.18c3.52,3.8,6.68,7.92,9.45,12.3
		c11.18,17.65,12.75,35.99,12.62,56.38c-0.03,4.26-0.04,9.74-2.16,13.55c-5.45,9.8-15.58-11.84-17.27-15.43
		C148.02,99.49,141.4,72.94,147.26,46.96z"/>
	<path class="st1" d="M81.21,42.53c-6.03-12.93-11.43-27.7-6.65-41.14c14.91,7.34,26.1,20.94,33.05,36.04
		c6.95,15.1,10.01,31.69,11.84,48.21c0.56,5.08-2.92,10.01-7.74,5.38c-3.49-3.35-6.74-9.06-9.78-12.99
		C93.52,67.17,87.01,54.96,81.21,42.53z"/>
	<path class="st1" d="M17.9,91.11c-4.97,1.77-9.65,3.91-13.65,6.55c3.79,4.64,14.76,6.8,20.52,8.09c7.69,1.73,15.62,2.37,23.5,1.94
		c15.5-0.84,30.84-5.82,43.55-14.81c2.13-1.51,6.36-4.5,6.51-7.45c0.39-7.56-44.82-2.47-49.24-1.7
		C39.54,85.4,28.09,87.48,17.9,91.11z"/>
	<path class="st1" d="M48.71,18.86c-1.58-1.1-3.2-2.15-4.85-3.14c-6.67-3.99-13.99-6.81-21.45-8.9C20.68,6.33,0.84,2.64,1,3.35
		c3.31,14.79,12.09,30.5,20.69,42.89c8.37,12.05,19.32,22.7,33.2,28.07c6.69,2.59,26.49,4.91,27.63-6.24
		c0.71-7-6.42-18.19-9.94-23.9C66.46,34.24,58.29,25.54,48.71,18.86z"/>
	<path class="st0" d="M0.86,2.37c7.02,9.12,42,38.97,50.49,46.74c11.09,10.14,24.29,17.62,36.91,25.77
		c28.5,18.4,54.4,40.49,80.21,62.51c6.57,5.6,13.15,11.22,19.11,17.47c8.14,8.53,15.04,18.15,21.92,27.73
		c7.26,10.12,16.13,25.2,23.39,35.32"/>
	<path class="st0" d="M3.39,97.46c14.38,2.15,44.22-5,58.35-8.44c11.94-2.91,27.07-4.13,39.28-5.51"/>
	<path class="st0" d="M116.24,93.66c-5.08-12.51-7.56-25.85-12.32-38.47C96.66,35.88,85.12,18.61,74.4,1.1"/>
	<path class="st0" d="M174.56,141.84c-1.86-4.64-2.01-9.59-2.97-14.5c-2.93-14.91-5.66-28.64-11.7-42.6
		c-5.24-12.11-11.34-24.81-13.22-38"/>
	<path class="st0" d="M56.65,145.64c22.82-6.34,82.99-9.52,107.28-12.63"/>
	<path class="st0" d="M102.29,184.95c8.91,0.98,51.44-4.31,60.3-5.63c12.78-1.91,28.35-2.6,41.13-4.51"/>
	<path class="st3" d="M143.55,192.88c3.18-1.4,6.49-2.61,9.93-3.08c3.05-0.42,6.15-0.25,9.2-0.61c7.05-0.85,13.69-4.7,17.92-10.4"/>
	<path class="st3" d="M131.92,189.73c0.26-1.17,1.74-1.5,2.92-1.67c3.26-0.47,6.43-1.53,9.32-3.12"/>
	<path class="st3" d="M123.42,148.79c4.13,0.44,8.21-1.44,11.44-4.05c3.23-2.62,5.78-5.95,8.54-9.05"/>
	<path class="st3" d="M103.63,149.42c2.21-0.2,4.35-1.13,6-2.62c1.79-1.61,2.96-3.77,4.33-5.75c1.36-1.98,3.08-3.9,5.39-4.59"/>
	<path class="st3" d="M82.28,147.88c3.25-0.18,6.51-0.82,9.45-2.21c3.12-1.47,5.79-3.71,8.43-5.93"/>
	<path class="st3" d="M147.97,175.92c5.43-0.61,10.96-0.24,16.26,1.08c1.47,0.36,2.91,0.8,4.37,1.19"/>
	<path class="st3" d="M171.26,124.55c-1.76,0.45-3.5-0.81-4.72-2.16c-4.8-5.31-6.26-12.75-9.35-19.21"/>
	<path class="st3" d="M168.79,110.16c1.46-5.14,2.93-10.56,1.66-15.75c-1.36-5.54-5.76-10.41-5.29-16.09"/>
	<path class="st3" d="M160.44,89.01c-5.03-2.38-9.31-6.33-12.09-11.15"/>
	<path class="st3" d="M126.17,135.89c-3.48-0.69-4.91-4.87-7.74-7c-3.79-2.86-9.25-1.54-13.75-3.04"/>
	<path class="st3" d="M109.85,137.86c-4.81-3.44-10.68-5.4-16.6-5.54"/>
	<path class="st3" d="M84.47,141.24c-4.04-1.69-8.35-2.75-12.72-3.13"/>
	<path class="st3" d="M81.67,86.65c-6.35,8.78-16.73,14.52-27.54,15.25"/>
	<path class="st3" d="M62.65,89.06c-5.61,2.78-11.06,5.88-16.32,9.3c-3.25,2.11-6.62,4.41-10.48,4.72"/>
	<path class="st3" d="M35.5,95.02c-1.82,2.74-4.53,4.88-7.62,6.02"/>
	<path class="st3" d="M49.43,90.49c-5.6-0.7-11.27-0.85-16.9-0.45"/>
	<path class="st3" d="M72.94,64.18c0.66-4.62-0.48-9.47-3.12-13.32C66.3,45.72,60.25,42.34,58,36.53"/>
	<path class="st3" d="M57.25,53c-1.6-10.73-6.51-20.95-13.91-28.89"/>
	<path class="st3" d="M42.12,40.23c-0.75-4.98-3.62-9.34-6.41-13.53c-2.18-3.27-4.36-6.55-6.55-9.82"/>
	<path class="st3" d="M63.89,58.78c-5.36,1.02-10.85,2.04-16.24,1.16c-4.19-0.68-8.19-2.52-11.43-5.27
		c-2.47-2.09-4.54-4.72-7.37-6.28"/>
	<path class="st3" d="M47.06,45.66c-2.86-0.66-5.33-2.45-8.13-3.32c-2.07-0.64-4.26-0.75-6.34-1.33c-2.83-0.78-5.42-2.43-7.32-4.67"
		/>
	<path class="st3" d="M111.25,77.28c0.93-5.31,1.86-10.76,0.91-16.07c-0.87-4.88-3.32-9.58-2.86-14.52"/>
	<path class="st3" d="M107.36,66.33c-3.03,0.36-5.69-1.98-7.51-4.42c-2.03-2.72-3.57-5.77-5.43-8.61s-4.11-5.55-7.11-7.14"/>
	<path class="st3" d="M101.46,47.1c0.4-7.59-1.65-15.29-5.77-21.68"/>
	<path class="st3" d="M94.99,35.88c-2.56-0.06-5.32-0.19-7.32-1.78c-1.27-1.01-2.07-2.48-2.83-3.92c-1.69-3.17-3.38-6.35-5.07-9.52"
		/>
	<path class="st3" d="M26.8,26.52c-0.92-0.43-1.5-1.33-2.04-2.19c-2.47-3.95-4.95-7.91-7.42-11.86"/>
</g>
</svg>
