<?xml version="1.0" encoding="utf-8"?>
<!-- Generator: Adobe Illustrator 23.0.2, SVG Export Plug-In . SVG Version: 6.00 Build 0)  -->
<svg version="1.1" id="Layer_1" xmlns="http://www.w3.org/2000/svg" xmlns:xlink="http://www.w3.org/1999/xlink" x="0px" y="0px"
	 viewBox="0 0 86 81.4" enable-background="new 0 0 86 81.4" xml:space="preserve">
<g>
	<path fill="#ECC2C0" stroke="#441211" stroke-miterlimit="10" d="M54.8,67.3c-0.7-1.2-1.8-2.1-2.9-3c-2.5-2-5-4.1-7.9-5.4
		c-5-2.2-10.8-1.8-16.1-0.8c-5.4,1-10.7,2.5-16.2,2.7c-1.2,0-2.5,0-3.6-0.6c-1.4-0.8-2.2-2.2-2.9-3.6c-1.1-2.2-2.3-4.4-3.4-6.7
		c-0.8-1.5-1.5-3.1-1.3-4.8c0.3-2.2,2.4-3.8,3.7-5.7C5.8,37,5.9,34,6.7,31.3s2.7-5.6,5.5-5.9c0.3-3.7,3-6.7,5.8-9.1
		c2.5-2.1,5.7-4,8.8-3.1c0.7,0.2,1.4,0.6,2.1,0.7c2.2,0.3,4.1-1.5,5.5-3.3c1.4-1.8,3-3.8,5.2-3.8c0-2.2,1.7-4.2,3.8-5.1
		s4.4-0.9,6.6-1c5.4-0.1,10.8-0.1,16.2-0.2c5.1-0.1,11,0.2,14.3,4.1c3,3.5,2.7,8.7,3.2,13.3c0.4,3.3,1.2,6.5,1.6,9.7
		c0.8,7.9-1.6,16-5.9,22.7c-2.1,3.3-4.7,6.4-5.7,10.1c-1,3.7-0.6,8.2-3.2,11c-2.1,2.2-3.9,3.1-5.2,6c-0.9,2-2,3.9-4.5,3.5
		C55,79.9,57.1,71,54.8,67.3z"/>
	<path fill="none" stroke="#441211" stroke-linejoin="round" stroke-miterlimit="10" d="M60.6,75.7c-0.9-3.5-0.4-7.3-0.3-10.9
		s-0.3-7.5-2.5-10.4"/>
	<path fill="none" stroke="#441211" stroke-linejoin="round" stroke-miterlimit="10" d="M63.9,64.9c-0.4-4.5,1-8.9,1.3-13.4
		c0.6-11-2.7-22.4-10-30.8"/>
	<path fill="none" stroke="#441211" stroke-linejoin="round" stroke-miterlimit="10" d="M39.6,6.6C49.9,17.3,57.1,31,60,45.6"/>
	<path fill="none" stroke="#441211" stroke-linejoin="round" stroke-miterlimit="10" d="M68.4,10.2c3.2,7,5.9,14.3,7,21.9
		s0.7,15.6-2.1,22.7"/>
	<path fill="none" stroke="#441211" stroke-linejoin="round" stroke-miterlimit="10" d="M57.7,65c-1.9-4.3-4-8.7-8.2-11.2"/>
	<path fill="none" stroke="#441211" stroke-linejoin="round" stroke-miterlimit="10" d="M34.8,54.2c4-0.5,8.2,0.4,11.9,2
		c3.1,1.3,6,3.1,8,5.8c3.2,4.4,3.3,10.2,2.7,15.6"/>
	<path fill="none" stroke="#441211" stroke-linejoin="round" stroke-miterlimit="10" d="M12.5,24.6c-0.4,2.2,0.9,4.3,2.3,6
		c7.4,9.1,18.5,14.1,29.2,18.9"/>
	<path fill="none" stroke="#441211" stroke-linejoin="round" stroke-miterlimit="10" d="M30.2,26.7c-0.6,1.3-0.4,2.9,0.4,4.1
		c0.7,1.2,1.8,2.2,2.9,3.1c4.2,3.6,8.4,7.2,12.6,10.9"/>
	<path fill="none" stroke="#441211" stroke-linejoin="round" stroke-miterlimit="10" d="M44.1,37c-1.5-0.3-2.9-1.3-3.8-2.6"/>
	<path fill="none" stroke="#441211" stroke-linejoin="round" stroke-miterlimit="10" d="M37,33.7c-2.1-2.2-3.8-4.9-4.8-7.8
		c-1.5-4.1-1.8-8.9-4.7-12.2"/>
	<path fill="none" stroke="#441211" stroke-linejoin="round" stroke-miterlimit="10" d="M71.2,6.7c1.3,1.5,2.4,3.3,3.2,5.1"/>
	<path fill="none" stroke="#441211" stroke-linejoin="round" stroke-miterlimit="10" d="M5.8,46.4c2.3,2,5.5,2.9,8.6,3.1
		s6.2,0,9.3,0.2c2.7,0.2,5.4,0.7,8,1.6"/>
	<path fill="none" stroke="#441211" stroke-linejoin="round" stroke-miterlimit="10" d="M8.9,52.2c0.8,1,2.2,1.4,3.4,1"/>
	<path fill="none" stroke="#441211" stroke-linejoin="round" stroke-miterlimit="10" d="M65.1,70.6c0.4,0.2,0.7-0.4,0.8-0.8
		c0.5-2.6,0.6-5.2,0.4-7.8"/>
</g>
</svg>
