<?xml version="1.0" encoding="utf-8"?>
<!-- Generator: Adobe Illustrator 23.0.2, SVG Export Plug-In . SVG Version: 6.00 Build 0)  -->
<svg version="1.1" id="Layer_1" xmlns="http://www.w3.org/2000/svg" xmlns:xlink="http://www.w3.org/1999/xlink" x="0px" y="0px"
	 viewBox="0 0 141.48 120.68" style="enable-background:new 0 0 141.48 120.68;" xml:space="preserve">
<style type="text/css">
	.st0{fill:none;stroke:#441211;stroke-width:2;stroke-miterlimit:10;}
	.st1{fill:#ECC2C0;stroke:#441211;stroke-width:2;stroke-miterlimit:10;}
	.st2{fill:#441211;}
	.st3{fill:none;stroke:#441211;stroke-linejoin:round;stroke-miterlimit:10;}
	.st4{fill:#441211;stroke:#441211;stroke-width:2;stroke-miterlimit:10;}
	.st5{fill:none;stroke:#EDC2C0;stroke-miterlimit:10;}
	.st6{fill:#D7F1F4;}
	.st7{fill:none;}
</style>
<g>
	<path class="st1" d="M126.72,53.56c-3.16-8.53-6.95-16.82-11.33-24.79c-0.76-1.39-1.58-2.82-2.87-3.75
		c-1.21-0.88-2.71-1.24-4.12-1.75c-6.71-2.45-11.36-8.47-17.1-12.72c-8.06-5.96-18.26-8.35-28.26-9.07S43,1.56,32.98,1.27
		c-5.53-0.16-11.11-0.65-16.56,0.32S5.53,5.24,2.7,9.99s-2.17,11.75,2.4,14.87c3.02,2.07,7.32,2.35,9.47,5.31
		c2.06,2.83,1.19,6.73,1.31,10.23c0.17,5.16,2.86,10.18,7.05,13.19c1.26,0.91,2.66,1.65,3.7,2.81c1.66,1.85,2.15,4.44,2.65,6.88
		c3.03,14.61,9.87,29.21,22.22,37.58c6.19,4.2,13.4,6.6,20.61,8.6c15.46,4.29,31.31,6.95,47.14,9.59c2.73,0.46,5.53,0.91,8.25,0.39
		c7.31-1.41,11.54-9.39,12.3-16.79c0.77-7.4-0.84-14.89-0.09-22.3c0.36-3.57,2.16-7.03-1.43-7.03c-5.07,0-6.34-6.34-5.95-9.62
		C132.78,59.91,128.02,57.05,126.72,53.56z"/>
	<path class="st3" d="M111.55,84.64c0-4.6,1.8-9.17,4.95-12.52"/>
	<path class="st3" d="M111.97,101.31c1.7,0.11,2.93-1.56,3.68-3.1c1.35-2.77,2.3-5.74,2.8-8.78"/>
	<path class="st3" d="M81.75,83.7c1.86-12.68,9.03-24.5,19.42-32.01c2.65-1.91,5.85-3.62,9.04-2.9"/>
	<path class="st3" d="M25.82,57.06c3.94-1.24,6.88-4.43,9.89-7.26c15.6-14.61,38.02-21.61,59.16-18.48"/>
	<path class="st3" d="M53.87,30.59c10.17-5.24,21.72-7.78,33.16-7.29"/>
	<path class="st3" d="M13.46,27.73c15.6,1.66,30-11.21,45.6-9.57"/>
	<path class="st3" d="M78.88,107.18c7.42-5.86,12.8-14.25,15.01-23.44"/>
	<path class="st3" d="M93.81,104.97c4.04-5.16,6.96-11.18,8.51-17.55c1.04-4.29,1.47-8.73,2.88-12.91c1.4-4.18,4-8.24,8.03-10.05"/>
</g>
</svg>
