<?xml version="1.0" encoding="utf-8"?>
<!-- Generator: Adobe Illustrator 23.0.2, SVG Export Plug-In . SVG Version: 6.00 Build 0)  -->
<svg version="1.1" id="Layer_1" xmlns="http://www.w3.org/2000/svg" xmlns:xlink="http://www.w3.org/1999/xlink" x="0px" y="0px"
	 viewBox="0 0 191.35 181.17" style="enable-background:new 0 0 191.35 181.17;" xml:space="preserve">
<style type="text/css">
	.st0{fill:none;stroke:#441211;stroke-width:2;stroke-miterlimit:10;}
	.st1{fill:#ECC2C0;stroke:#441211;stroke-width:2;stroke-miterlimit:10;}
	.st2{fill:#441211;}
	.st3{fill:none;stroke:#441211;stroke-linejoin:round;stroke-miterlimit:10;}
	.st4{fill:#441211;stroke:#441211;stroke-width:2;stroke-miterlimit:10;}
	.st5{fill:none;stroke:#EDC2C0;stroke-miterlimit:10;}
	.st6{fill:#D7F1F4;}
	.st7{fill:none;}
</style>
<g>
	<path class="st1" d="M121.92,149.89c-1.63-2.61-4.03-4.64-6.39-6.61c-5.47-4.56-11.08-9.15-17.62-11.97
		c-11.19-4.83-23.98-4.04-35.97-1.87s-23.84,5.63-36.02,5.9c-2.75,0.06-5.62-0.07-8.03-1.41c-3.05-1.69-4.8-4.98-6.37-8.09
		c-2.51-4.95-5.03-9.89-7.54-14.84c-1.69-3.33-3.44-6.95-2.87-10.64c0.76-5.01,5.4-8.36,8.15-12.61c3.46-5.35,3.87-12.04,5.61-18.17
		s5.92-12.57,12.27-13.09c0.73-8.19,6.58-14.99,12.83-20.34c5.5-4.7,12.66-8.97,19.59-6.92c1.61,0.48,3.12,1.28,4.78,1.53
		c4.93,0.75,9.12-3.44,12.18-7.38s6.68-8.4,11.67-8.52c-0.07-4.97,3.86-9.29,8.43-11.26s9.69-2.06,14.66-2.12
		c12.04-0.16,24.09-0.32,36.13-0.47c11.46-0.15,24.53,0.4,31.91,9.16c6.65,7.9,6,19.34,7.18,29.59c0.83,7.28,2.75,14.41,3.49,21.7
		c1.79,17.63-3.53,35.59-13.07,50.52c-4.66,7.29-10.41,14.16-12.7,22.51c-2.28,8.31-1.24,18.18-7.18,24.42
		c-4.71,4.95-8.65,6.88-11.55,13.4c-1.96,4.4-4.55,8.66-10.13,7.72C122.49,177.87,127.04,158.09,121.92,149.89z"/>
	<path class="st3" d="M134.81,168.5c-1.98-7.88-0.98-16.15-0.78-24.28c0.2-8.12-0.6-16.78-5.5-23.27"/>
	<path class="st3" d="M142.34,144.49c-0.84-10.06,2.29-19.83,2.87-29.81c1.41-24.51-5.98-49.87-22.25-68.52"/>
	<path class="st3" d="M88.08,14.65c22.95,23.88,38.93,54.38,45.51,86.84"/>
	<path class="st3" d="M152.17,22.66c7.17,15.57,13.07,31.88,15.58,48.84s1.52,34.67-4.69,50.65"/>
	<path class="st3" d="M128.38,144.66c-4.24-9.65-8.93-19.3-18.23-24.91"/>
	<path class="st3" d="M77.37,120.56c8.99-1.19,18.17,0.89,26.52,4.44c6.79,2.88,13.35,6.89,17.71,12.84
		c7.13,9.72,7.27,22.82,6.02,34.81"/>
	<path class="st3" d="M27.64,54.71c-0.85,4.87,2.1,9.54,5.23,13.36C49.43,88.23,74.16,99.5,98,110.11"/>
	<path class="st3" d="M67.21,59.42c-1.43,2.85-0.8,6.38,0.81,9.13c1.61,2.75,4.07,4.88,6.48,6.96c9.37,8.07,18.74,16.14,28.11,24.21
		"/>
	<path class="st3" d="M98.08,82.33c-3.43-0.69-6.54-2.83-8.39-5.8"/>
	<path class="st3" d="M82.3,75c-4.71-4.97-8.37-10.93-10.67-17.38c-3.29-9.2-4.06-19.76-10.5-27.11"/>
	<path class="st3" d="M158.59,14.91c2.97,3.39,5.39,7.26,7.14,11.41"/>
	<path class="st3" d="M12.71,103.16c5.22,4.55,12.31,6.38,19.21,6.94s13.86,0,20.76,0.49c6.1,0.43,12.14,1.66,17.91,3.67"/>
	<path class="st3" d="M19.72,116.15c1.72,2.26,4.98,3.18,7.63,2.17"/>
	<path class="st3" d="M144.83,157.23c0.88,0.36,1.54-0.85,1.72-1.78c1.06-5.71,1.34-11.56,0.85-17.35"/>
</g>
</svg>
