<?xml version="1.0" encoding="utf-8"?>
<!-- Generator: Adobe Illustrator 23.0.2, SVG Export Plug-In . SVG Version: 6.00 Build 0)  -->
<svg version="1.1" id="Layer_1" xmlns="http://www.w3.org/2000/svg" xmlns:xlink="http://www.w3.org/1999/xlink" x="0px" y="0px"
	 viewBox="0 0 53.9 82.6" enable-background="new 0 0 53.9 82.6" xml:space="preserve">
<g>
	<path fill="#ECC2C0" stroke="#441211" stroke-miterlimit="10" d="M15.7,80.7c1.8,0.4,3.6-0.2,5.2-1.1c1.5-1,2.8-2.3,4.2-3.4
		c4.6-3.7,10.3-5.5,15.6-8.1c5.3-2.6,10.5-6.4,12.2-12c1.1-3.5,0.6-7.4-0.7-10.9c-1.3-3.5-3.3-6.6-5.3-9.7c-0.9-1.3-1.8-2.6-3.1-3.5
		c-0.9-0.6-1.9-0.9-2.8-1.3c-3.6-1.8-5.8-5.5-7.8-9.1C31,17.6,29.7,13.2,28,9c-1.7-4.2-5.1-8.5-9.7-8.5c-2.4,0-4.7,1.4-5.9,3.4
		c-1.5,2.5-1.2,5.6-1.4,8.5c-0.6,11.5-7.7,21.7-10,33.1c-0.7,3.6-0.5,7.7-0.5,11.4c0,3.1-0.3,6.3,0.2,9.4c0.2,1.5,0.7,2.7,1.5,4
		c2.1,3.3,1.2,7.6,2.9,11.1c0.2,0.4,0.5,0.9,1,0.9c0.4,0,0.6-0.3,0.9-0.6c0.7-0.8,1.5-1.6,2.4-2.3c0.7-0.7,1.7-1.3,2.6-1.1
		c0.4,0.1,1.4,1.4,1.7,1.6C14.7,80.3,14.6,80.5,15.7,80.7z"/>
	<path fill="none" stroke="#441211" stroke-linejoin="round" stroke-miterlimit="10" d="M7.6,75.4c0.8-3.4,3.3-6.2,6-8.4
		c2.7-2.2,5.8-4.1,8.2-6.5s4.4-5.8,4.2-9.3"/>
	<path fill="none" stroke="#441211" stroke-linejoin="round" stroke-miterlimit="10" d="M17.8,59.1c0.9-1.4,1.9-2.8,2.8-4.2
		c1.9-2.9,3.9-5.8,5-9.2c1.3-4,1.2-8.4,0.9-12.6"/>
	<path fill="none" stroke="#441211" stroke-linejoin="round" stroke-miterlimit="10" d="M14.6,73.5c0.9-3.8,4.3-6.4,7.6-8.4
		s7-3.6,9.4-6.7c1.8-2.2,2.7-5.1,2.6-8"/>
	<path fill="none" stroke="#441211" stroke-linejoin="round" stroke-miterlimit="10" d="M36,44.9c0.8-3.5,1.1-7.1,0.9-10.7"/>
	<path fill="none" stroke="#441211" stroke-linejoin="round" stroke-miterlimit="10" d="M39.4,44.2c-0.1-1.1-0.1-2.1-0.2-3.2"/>
	<path fill="none" stroke="#441211" stroke-linejoin="round" stroke-miterlimit="10" d="M29.1,68.1c3.6,0,6.9-1.7,9.9-3.6
		c2.5-1.6,4.9-3.6,5.8-6.4"/>
	<path fill="none" stroke="#441211" stroke-linejoin="round" stroke-miterlimit="10" d="M16.7,76.1c1.9-2.4,4.5-4.2,7.4-5.2"/>
	<path fill="none" stroke="#441211" stroke-linejoin="round" stroke-miterlimit="10" d="M5.3,70c-0.6-3.3,0.8-6.6,2.2-9.6
		c1.8-3.9,3.8-7.8,5.2-11.9s2.1-8.5,1.4-12.8"/>
	<path fill="none" stroke="#441211" stroke-linejoin="round" stroke-miterlimit="10" d="M5.5,50.4c-0.2-3.3-0.5-6.7,0.6-9.9
		c0.6-1.7,1.5-3.3,2.4-4.8c1.3-2,2.8-3.9,4.2-5.7"/>
</g>
</svg>
