<?xml version="1.0" encoding="utf-8"?>
<!-- Generator: Adobe Illustrator 23.0.2, SVG Export Plug-In . SVG Version: 6.00 Build 0)  -->
<svg version="1.1" id="Layer_1" xmlns="http://www.w3.org/2000/svg" xmlns:xlink="http://www.w3.org/1999/xlink" x="0px" y="0px"
	 viewBox="0 0 64.89 83.64" style="enable-background:new 0 0 64.89 83.64;" xml:space="preserve">
<style type="text/css">
	.st0{fill:none;stroke:#441211;stroke-width:2;stroke-miterlimit:10;}
	.st1{fill:#ECC2C0;stroke:#441211;stroke-width:2;stroke-miterlimit:10;}
	.st2{fill:#441211;}
	.st3{fill:none;stroke:#441211;stroke-linejoin:round;stroke-miterlimit:10;}
	.st4{fill:#441211;stroke:#441211;stroke-width:2;stroke-miterlimit:10;}
	.st5{fill:none;stroke:#EDC2C0;stroke-miterlimit:10;}
	.st6{fill:#D7F1F4;}
	.st7{fill:none;}
</style>
<g>
	<path class="st1" d="M8.14,71.61C8.07,71.36,8,71.1,7.93,70.85c-0.97-3.32-2.57-6.43-3.82-9.66C0.19,51.01,0,39.61,3.39,29.26
		c1.97-6,5.11-9.87,8.79-14.82c2.43-3.28,2.43-7.19,3.18-11.05c0.17-0.9,0.5-1.91,1.34-2.27c0.49-0.2,1.05-0.13,1.56,0.01
		c2.95,0.79,4.99,3.39,7.53,5.09c5.45,3.65,11.32,1.57,17.88,1.44c0.59-0.01,1.23-0.01,1.72,0.32c0.43,0.28,1.96,2.03,2.21,2.48
		c1.65,2.97,3.8,5.67,6.33,7.94c2.12,1.9,8.89,1.62,9.74,4.34c1.18,3.74-3.04,7.97-4.96,10.73c-2.84,4.09-2.76,7.86-4.09,12.49
		c-2.37,8.27-8.15,14.58-15.54,18.77c-3.66,2.08-7.57,3.66-11.55,4.99c-3.97,1.33-8.55,1.95-11.86,4.7c-2.41,2-3.68,5.27-5.26,7.91
		c-0.87-0.43-1.74-0.87-2.61-1.3C9.09,78.09,8.94,74.73,8.14,71.61z"/>
	<g>
		<path class="st2" d="M63.69,22.74c-0.83-2.65-5.87-2.57-7.98-3.48c-4.11-1.77-6.51-6.35-8.94-9.86c-0.42-0.61-0.87-1.24-1.55-1.53
			c-0.56-0.24-1.19-0.21-1.79-0.17c-6.29,0.35-13.38,1.82-18.75-2.4c-1.74-1.36-6.96-6.72-8.95-3.12c-0.45,0.82-0.51,1.78-0.6,2.71
			c-0.22,2.25-2.13,6.62-0.69,8.04c0.56,0.55,1.92,0.87,2.64,1.19c2.94,1.33,5.87,2.65,8.81,3.98c7.45,3.36,14.9,6.72,22.35,10.08
			c3.6,1.62,7.2,3.25,10.8,4.87C61.59,29.47,64.63,25.72,63.69,22.74z"/>
	</g>
	<path class="st3" d="M10.77,42.63c-0.96-10.14,2.56-20.72,9.19-28.43"/>
	<path class="st3" d="M21.61,24.97c1.13-3.73,3.31-7.14,6.22-9.74"/>
	<path class="st3" d="M28.59,39.14c2-6.16,7.15-10.79,8.71-17.13"/>
	<path class="st3" d="M34.61,49.46c6.69-6.02,11.41-14.19,13.28-22.99"/>
	<path class="st3" d="M9.72,50.33c-0.47,10.07,1.95,20.6,0.2,30.55"/>
	<path class="st3" d="M22.67,49.67c0.31,5.28,0.6,10.73-1.26,15.68c-1.01,2.7-2.63,5.12-4.23,7.52"/>
	<path class="st3" d="M26.98,67.28c7.17-3.58,13.18-9.43,16.96-16.5"/>
</g>
</svg>
