<?xml version="1.0" encoding="utf-8"?>
<!-- Generator: Adobe Illustrator 23.0.2, SVG Export Plug-In . SVG Version: 6.00 Build 0)  -->
<svg version="1.1" id="Layer_1" xmlns="http://www.w3.org/2000/svg" xmlns:xlink="http://www.w3.org/1999/xlink" x="0px" y="0px"
	 viewBox="0 0 53.2 93.7" enable-background="new 0 0 53.2 93.7" xml:space="preserve">
<g>
	<path fill="none" stroke="#441211" stroke-miterlimit="10" d="M0.5,93.6C0.9,91,3,89.6,4.6,87.3c2.5-3.6,4.4-7.7,6.2-11.7
		c4.3-9.6,8.6-19.3,12.9-28.9c1.5-3.3,2.9-6.6,4.4-9.9"/>
	<g>
		<path fill="#ECC2C0" stroke="#441211" stroke-miterlimit="10" d="M27.6,32.2c0-0.1-0.1-0.2-0.1-0.3c-0.4-1.5-1.2-2.9-1.7-4.3
			c-1.8-4.6-1.8-9.7-0.3-14.3c0.9-2.7,2.3-4.4,3.9-6.7c1.1-1.5,1.1-3.2,1.4-5c0.1-0.4,0.2-0.9,0.6-1c0.2-0.1,0.5-0.1,0.7,0
			c1.3,0.4,2.2,1.5,3.4,2.3c2.4,1.6,5.1,0.7,8,0.6c0.3,0,0.6,0,0.8,0.1c0.2,0.1,0.9,0.9,1,1.1c0.7,1.3,1.7,2.5,2.8,3.6
			c1,0.9,4,0.7,4.4,1.9c0.5,1.7-1.4,3.6-2.2,4.8c-1.3,1.8-1.2,3.5-1.8,5.6c-1.1,3.7-3.7,6.5-7,8.4c-1.6,0.9-3.4,1.6-5.2,2.2
			c-1.8,0.6-3.8,0.9-5.3,2.1c-1.1,0.9-1.7,2.4-2.4,3.5c-0.4-0.2-0.8-0.4-1.2-0.6C28.1,35.1,28,33.6,27.6,32.2z"/>
		<g>
			<path fill="#441211" d="M52.6,10.3c-0.4-1.2-2.6-1.2-3.6-1.6c-1.8-0.8-2.9-2.9-4-4.4c-0.2-0.3-0.4-0.6-0.7-0.7
				c-0.2-0.1-0.5-0.1-0.8-0.1c-2.8,0.2-6,0.8-8.4-1.1c-0.8-0.6-3.1-3-4-1.4c-0.2,0.4-0.2,0.8-0.3,1.2c-0.1,1-1,3-0.3,3.6
				c0.3,0.2,0.9,0.4,1.2,0.5c1.3,0.6,2.6,1.2,4,1.8c3.3,1.5,6.7,3,10,4.5c1.6,0.7,3.2,1.5,4.8,2.2C51.6,13.3,53,11.6,52.6,10.3z"/>
		</g>
		<path fill="none" stroke="#441211" stroke-linejoin="round" stroke-miterlimit="10" d="M28.8,19.2c-0.4-4.6,1.1-9.3,4.1-12.8"/>
		<path fill="none" stroke="#441211" stroke-linejoin="round" stroke-miterlimit="10" d="M33.7,11.3c0.5-1.7,1.5-3.2,2.8-4.4"/>
		<path fill="none" stroke="#441211" stroke-linejoin="round" stroke-miterlimit="10" d="M36.8,17.6c0.9-2.8,3.2-4.8,3.9-7.7"/>
		<path fill="none" stroke="#441211" stroke-linejoin="round" stroke-miterlimit="10" d="M39.5,22.3c3-2.7,5.1-6.4,6-10.3"/>
		<path fill="none" stroke="#441211" stroke-linejoin="round" stroke-miterlimit="10" d="M28.3,22.6c-0.2,4.5,0.9,9.2,0.1,13.7"/>
		<path fill="none" stroke="#441211" stroke-linejoin="round" stroke-miterlimit="10" d="M34.2,22.3c0.1,2.4,0.3,4.8-0.6,7
			c-0.5,1.2-1.2,2.3-1.9,3.4"/>
		<path fill="none" stroke="#441211" stroke-linejoin="round" stroke-miterlimit="10" d="M36.1,30.3c3.2-1.6,5.9-4.2,7.6-7.4"/>
	</g>
</g>
</svg>
