<?xml version="1.0" encoding="utf-8"?>
<!-- Generator: Adobe Illustrator 23.0.2, SVG Export Plug-In . SVG Version: 6.00 Build 0)  -->
<svg version="1.1" id="Layer_1" xmlns="http://www.w3.org/2000/svg" xmlns:xlink="http://www.w3.org/1999/xlink" x="0px" y="0px"
	 viewBox="0 0 18 18.5" enable-background="new 0 0 18 18.5" xml:space="preserve">
<path fill="#441211" stroke="#441211" stroke-miterlimit="10" d="M8,14.5c2.1,0.1,4-1.2,5.7-2.4c1.4-1,2.9-2.1,3.6-3.7
	c0.7-1.6,0.1-3.9-1.6-4.3c-0.4-0.1-0.8-0.1-1.1-0.3c-0.9-0.6-0.5-2.1-1.2-2.9c-0.6-0.6-1.8-0.4-2.4,0.2c-0.7,0.6-1.1,1.4-1.8,2
	C7.5,4.4,5.2,4.3,3.4,5.3c-2,1.1-3,3.9-2.2,6c0.2,0.6,0.6,1.3,0.3,1.9c-0.2,0.3-0.5,0.6-0.8,0.9c-0.5,0.6-0.4,1.6,0.1,2.3
	s1.2,1.1,1.9,1.4C3.1,17.9,3.4,18,3.7,18c0.5-0.1,0.9-0.6,1.2-1c1.2-1.6,3.1-2.6,5-2.8"/>
</svg>
