<?xml version="1.0" encoding="utf-8"?>
<!-- Generator: Adobe Illustrator 23.0.2, SVG Export Plug-In . SVG Version: 6.00 Build 0)  -->
<svg version="1.1" id="Layer_1" xmlns="http://www.w3.org/2000/svg" xmlns:xlink="http://www.w3.org/1999/xlink" x="0px" y="0px"
	 viewBox="0 0 63.6 54.3" enable-background="new 0 0 63.6 54.3" xml:space="preserve">
<g>
	<path fill="#ECC2C0" stroke="#441211" stroke-miterlimit="10" d="M56.9,24.1c-1.4-3.8-3.1-7.6-5.1-11.1c-0.3-0.6-0.7-1.3-1.3-1.7
		c-0.5-0.4-1.2-0.6-1.8-0.8c-3-1.1-5.1-3.8-7.7-5.7C37.4,2.1,32.8,1,28.4,0.7s-9,0-13.5-0.1c-2.5-0.1-5-0.3-7.4,0.1S2.5,2.4,1.3,4.5
		s-1,5.3,1.1,6.7c1.4,0.9,3.3,1.1,4.3,2.4c0.9,1.3,0.5,3,0.6,4.6c0.1,2.3,1.3,4.6,3.2,5.9c0.6,0.4,1.2,0.7,1.7,1.3
		c0.7,0.8,1,2,1.2,3.1c1.4,6.6,4.4,13.1,10,16.9c2.8,1.9,6,3,9.3,3.9c6.9,1.9,14.1,3.1,21.2,4.3c1.2,0.2,2.5,0.4,3.7,0.2
		c3.3-0.6,5.2-4.2,5.5-7.5c0.3-3.3-0.4-6.7,0-10c0.2-1.6,1-3.2-0.6-3.2c-2.3,0-2.8-2.8-2.7-4.3C59.7,26.9,57.5,25.7,56.9,24.1z"/>
	<path fill="none" stroke="#441211" stroke-linejoin="round" stroke-miterlimit="10" d="M50.1,38c0-2.1,0.8-4.1,2.2-5.6"/>
	<path fill="none" stroke="#441211" stroke-linejoin="round" stroke-miterlimit="10" d="M50.3,45.5c0.8,0.1,1.3-0.7,1.7-1.4
		c0.6-1.2,1-2.6,1.3-3.9"/>
	<path fill="none" stroke="#441211" stroke-linejoin="round" stroke-miterlimit="10" d="M36.7,37.6c0.8-5.7,4.1-11,8.7-14.4
		c1.2-0.9,2.6-1.6,4.1-1.3"/>
	<path fill="none" stroke="#441211" stroke-linejoin="round" stroke-miterlimit="10" d="M11.6,25.7c1.8-0.6,3.1-2,4.4-3.3
		c7-6.6,17.1-9.7,26.6-8.3"/>
	<path fill="none" stroke="#441211" stroke-linejoin="round" stroke-miterlimit="10" d="M24.2,13.8c4.6-2.4,9.8-3.5,14.9-3.3"/>
	<path fill="none" stroke="#441211" stroke-linejoin="round" stroke-miterlimit="10" d="M6.1,12.5c7,0.7,13.5-5,20.5-4.3"/>
	<path fill="none" stroke="#441211" stroke-linejoin="round" stroke-miterlimit="10" d="M35.5,48.2c3.3-2.6,5.7-6.4,6.7-10.5"/>
	<path fill="none" stroke="#441211" stroke-linejoin="round" stroke-miterlimit="10" d="M42.2,47.2c1.8-2.3,3.1-5,3.8-7.9
		c0.5-1.9,0.7-3.9,1.3-5.8s1.8-3.7,3.6-4.5"/>
</g>
</svg>
