<?xml version="1.0" encoding="utf-8"?>
<!-- Generator: Adobe Illustrator 23.0.2, SVG Export Plug-In . SVG Version: 6.00 Build 0)  -->
<svg version="1.1" id="Layer_1" xmlns="http://www.w3.org/2000/svg" xmlns:xlink="http://www.w3.org/1999/xlink" x="0px" y="0px"
	 width="64.5px" height="47.9px" viewBox="0 0 64.5 47.9" enable-background="new 0 0 64.5 47.9" xml:space="preserve">
<g>
	<path fill="none" stroke="#D7F1F4" stroke-width="0.25" stroke-miterlimit="10" d="M31.2,44.5c0.1,0,0.2-0.2,0.3-0.3l0.1-0.1
		c-0.4,0-0.8,0.1-1.3,0.1l0.4,0.2C30.9,44.5,31.1,44.5,31.2,44.5z"/>
	<path fill="none" stroke="#D7F1F4" stroke-width="0.25" stroke-miterlimit="10" d="M18.1,46.3c0.1,0,0.2-0.1,0.3-0.3l0.6-0.8
		c-0.9,0.1-1.8,0.2-2.7,0.3l1.4,0.7C17.8,46.3,18,46.4,18.1,46.3z"/>
	<path fill="none" stroke="#D7F1F4" stroke-width="0.25" stroke-miterlimit="10" d="M24.6,45.5c0.1,0,0.2-0.1,0.3-0.3l0.4-0.5
		c-0.7,0.1-1.4,0.1-2.1,0.2l1,0.5C24.4,45.4,24.5,45.5,24.6,45.5z"/>
	<path fill="none" stroke="#D7F1F4" stroke-width="0.25" stroke-miterlimit="10" d="M11.5,47.1c0.1,0,0.2-0.1,0.3-0.3l0.8-1
		c-1,0.1-1.9,0.2-2.9,0.3l1.3,0.8C11.2,47,11.4,47.1,11.5,47.1z"/>
	<path fill="none" stroke="#D7F1F4" stroke-width="0.25" stroke-miterlimit="10" d="M4.9,47.5c0.1,0,0.2-0.1,0.3-0.3l0.6-0.7
		c-0.5,0.1-1.1,0.1-1.6,0.2c-0.2,0-0.5,0-0.7,0.1l1,0.6C4.7,47.4,4.8,47.5,4.9,47.5z"/>
	<path fill="#EDC2C0" d="M62.1,28c-1.3-9.2-1.9-18.9-5.9-27.5c-0.1-0.2-0.2-0.4-0.4-0.5C55.6,0,55.4,0,55.2,0
		c-0.7,0-1.4,0.1-2.1,0.1c-0.2,0.9-0.5,1.7-0.7,2.6c-0.3,1.1-5.2,3-5.8,3.1c-1.4,0.2-2.9,0.7-4.3,1.1c-1.2,0.4-2.5,0.8-3.8,1
		c-2.3,0.5-4.6,0.8-6.9,1.2c-3.1,0.5-6.4,1.1-9.5,1.8c-3.5,0.8-7.1,1.2-10.6,1.2c-1.7,0-3.3-0.1-4.9-0.3l-0.1,0l-0.1-0.1
		C5.9,11.1,5.5,10.5,5,9.9c-1.4,0.4-2.8,0.9-4.1,1.4c-0.2,0.1-0.4,0.1-0.5,0.3c-0.1,0.2-0.1,0.4-0.2,0.5c-0.8,9.9,0.4,20.1,1,30.1
		C1.3,44,1.1,45.4,0.7,47c0.8,0,1.5-0.1,2.3-0.2l-0.2-0.1L3,46.4l0.5,0.3c0.2,0,0.5,0,0.7-0.1c0.5-0.1,1.1-0.1,1.6-0.2l0.8-1L7,45.7
		l-0.6,0.7c1-0.1,2.1-0.2,3.1-0.3L9.6,46l0.2,0.1c1-0.1,1.9-0.2,2.9-0.3l0.6-0.7l0.3,0.2l-0.4,0.5c1-0.1,1.9-0.2,2.9-0.3l0.1-0.1
		l0.2,0.1c0.9-0.1,1.8-0.2,2.7-0.3l0.8-1l0.3,0.2l-0.6,0.8c1.1-0.1,2.1-0.2,3.2-0.3l-0.2-0.1l0.2-0.3l0.6,0.3
		c0.7-0.1,1.4-0.1,2.1-0.2l0.9-1.3l0.3,0.2l-0.8,1c1.3-0.1,2.6-0.2,3.9-0.4L29,43.9l0.1-0.3l1.2,0.5c0.4,0,0.8-0.1,1.3-0.1l1.2-1.7
		l0.3,0.2L32,44c1.7-0.2,3.4-0.3,5.1-0.5l-1.6-0.7l0.1-0.3l1.6,0.8c0.2,0.1,0.3,0.1,0.4,0.1c0.1,0,0.2-0.2,0.3-0.3l1.3-1.9l0.3,0.2
		l-1.3,1.9c0,0.1-0.1,0.1-0.1,0.2c0.5,0,1-0.1,1.5-0.1c5.8-0.6,11.7-1.1,17.5-1.7c2.2-0.2,5.2-1.1,7.4-0.7
		C64.1,36.5,62.7,32.3,62.1,28z M55.3,15.7c0.1,0.1,0.3,0.2,0.4,0.1c0.1,0,0.2-0.1,0.3-0.3l1.5-1.7l0.3,0.2l-1.5,1.7
		c-0.1,0.1-0.3,0.3-0.5,0.4c0,0-0.1,0-0.1,0c-0.2,0-0.4-0.1-0.5-0.2L53.6,15l0.2-0.3L55.3,15.7z M52.5,22.5l-1.6-0.8l0.1-0.3
		l1.6,0.8c0.2,0.1,0.3,0.1,0.4,0.1c0.1,0,0.2-0.2,0.3-0.3l1.3-1.9l0.3,0.2l-1.3,1.9c-0.1,0.1-0.2,0.4-0.5,0.4c-0.1,0-0.1,0-0.2,0
		C52.8,22.6,52.6,22.5,52.5,22.5z M52.5,26.3l-1.3,1.9c-0.1,0.1-0.2,0.4-0.5,0.4c-0.1,0-0.1,0-0.2,0c-0.2,0-0.4-0.1-0.5-0.1
		l-1.6-0.8l0.1-0.3l1.6,0.8c0.2,0.1,0.3,0.1,0.4,0.1c0.1,0,0.2-0.2,0.3-0.3l1.3-1.9L52.5,26.3z M49.8,10.1l1.6,0.8
		c0.2,0.1,0.3,0.1,0.4,0.1c0.1,0,0.2-0.2,0.3-0.3l1.3-1.9l0.3,0.2l-1.3,1.9c-0.1,0.1-0.2,0.4-0.5,0.4c-0.1,0-0.1,0-0.2,0
		c-0.2,0-0.4-0.1-0.5-0.1l-1.6-0.8L49.8,10.1z M47.4,16l1.6,0.8c0.2,0.1,0.3,0.1,0.4,0.1c0.1,0,0.2-0.2,0.3-0.3l1.3-1.9l0.3,0.2
		L50,16.8c-0.1,0.1-0.2,0.4-0.5,0.4c-0.1,0-0.1,0-0.2,0c-0.2,0-0.4-0.1-0.5-0.1l-1.6-0.8L47.4,16z M43.3,11.2l1.6,0.8
		c0.2,0.1,0.3,0.1,0.4,0.1c0.1,0,0.2-0.2,0.3-0.3l1.3-1.9l0.3,0.2l-1.3,1.9c-0.1,0.1-0.2,0.4-0.5,0.4c-0.1,0-0.1,0-0.2,0
		c-0.2,0-0.4-0.1-0.5-0.1l-1.6-0.8L43.3,11.2z M40.9,17.2l1.6,0.8C42.7,18,42.9,18,43,18c0.1,0,0.2-0.2,0.3-0.3l1.3-1.9l0.3,0.2
		l-1.3,1.9c-0.1,0.1-0.2,0.4-0.5,0.4c-0.1,0-0.1,0-0.2,0c-0.2,0-0.4-0.1-0.5-0.1l-1.6-0.8L40.9,17.2z M44.5,29.1l1.3-1.9l0.3,0.2
		l-1.3,1.9c-0.1,0.1-0.2,0.4-0.5,0.4c-0.1,0-0.1,0-0.2,0c-0.2,0-0.4-0.1-0.5-0.1L42,28.8l0.1-0.3l1.6,0.8c0.2,0.1,0.3,0.1,0.4,0.1
		C44.3,29.3,44.4,29.2,44.5,29.1z M36.8,13.2l1.6,0.8c0.2,0.1,0.3,0.1,0.4,0.1c0.1,0,0.2-0.2,0.3-0.3l1.3-1.9l0.3,0.2L39.4,14
		c-0.1,0.1-0.2,0.4-0.5,0.4c-0.1,0-0.1,0-0.2,0c-0.2,0-0.4-0.1-0.5-0.1l-1.6-0.8L36.8,13.2z M30.3,14.3l1.6,0.8
		c0.2,0.1,0.3,0.1,0.4,0.1c0.1,0,0.2-0.2,0.3-0.3L34,13l0.3,0.2L33,15.1c-0.1,0.1-0.2,0.4-0.5,0.4c-0.1,0-0.1,0-0.2,0
		c-0.2,0-0.4-0.1-0.5-0.1l-1.6-0.8L30.3,14.3z M23.8,15.8l1.6,0.8c0.2,0.1,0.3,0.1,0.4,0.1c0.1,0,0.2-0.1,0.3-0.3l1.3-1.8l0.3,0.2
		l-1.3,1.8c-0.1,0.1-0.3,0.3-0.5,0.4c0,0-0.1,0-0.1,0c-0.2,0-0.4-0.1-0.5-0.2l-1.6-0.8L23.8,15.8z M17.3,16.7l1.6,0.8
		c0.2,0.1,0.3,0.1,0.4,0.1c0.1,0,0.2-0.1,0.3-0.3l1.3-1.8l0.3,0.2l-1.3,1.8c-0.1,0.1-0.3,0.3-0.5,0.4c0,0-0.1,0-0.1,0
		c-0.2,0-0.4-0.1-0.5-0.2L17.2,17L17.3,16.7z M14.9,22.7l1.6,0.8c0.2,0.1,0.3,0.1,0.4,0.1c0.1,0,0.2-0.1,0.3-0.3l1.3-1.8l0.3,0.2
		l-1.3,1.8c-0.1,0.1-0.3,0.3-0.5,0.4c0,0-0.1,0-0.1,0c-0.2,0-0.4-0.1-0.5-0.2L14.8,23L14.9,22.7z M10.8,17.3l1.5,0.9
		c0.1,0.1,0.3,0.2,0.4,0.1c0.1,0,0.2-0.1,0.3-0.3l1.5-1.7l0.3,0.2l-1.5,1.7c-0.1,0.1-0.3,0.3-0.5,0.4c0,0-0.1,0-0.1,0
		c-0.2,0-0.4-0.1-0.5-0.2l-1.5-0.9L10.8,17.3z M8.4,23.3l1.5,0.9c0.1,0.1,0.3,0.2,0.4,0.1c0.1,0,0.2-0.1,0.3-0.3l1.5-1.7l0.3,0.2
		l-1.5,1.7c-0.1,0.1-0.3,0.3-0.5,0.4c0,0-0.1,0-0.1,0c-0.2,0-0.4-0.1-0.5-0.2l-1.5-0.9L8.4,23.3z M4.2,17.7l1.5,0.9
		c0.1,0.1,0.3,0.2,0.4,0.1c0.1,0,0.2-0.1,0.3-0.3l1.5-1.7L8.2,17l-1.5,1.7c-0.1,0.1-0.3,0.3-0.5,0.4c0,0-0.1,0-0.1,0
		c-0.2,0-0.4-0.1-0.5-0.2L4,18L4.2,17.7z M1.6,24l0.2-0.3l1.5,0.9c0.1,0.1,0.3,0.2,0.4,0.1c0.1,0,0.2-0.1,0.3-0.3l1.5-1.7L5.8,23
		l-1.5,1.7c-0.1,0.1-0.3,0.3-0.5,0.4c0,0-0.1,0-0.1,0c-0.2,0-0.4-0.1-0.5-0.2L1.6,24z M4.9,36.5c-0.2,0-0.4-0.1-0.5-0.2l-1.5-0.9
		L3,35.1L4.5,36c0.1,0.1,0.3,0.2,0.4,0.1c0.1,0,0.2-0.1,0.3-0.3l1.5-1.7L7,34.4l-1.5,1.7C5.4,36.2,5.2,36.4,4.9,36.5
		C4.9,36.5,4.9,36.5,4.9,36.5z M7.9,42.1c-0.1,0.1-0.3,0.3-0.5,0.4c0,0-0.1,0-0.1,0c-0.2,0-0.4-0.1-0.5-0.2l-1.5-0.9L5.4,41L6.9,42
		c0.1,0.1,0.3,0.2,0.4,0.1c0.1,0,0.2-0.1,0.3-0.3l1.5-1.7l0.3,0.2L7.9,42.1z M7.9,30.1c-0.1,0.1-0.3,0.3-0.5,0.4c0,0-0.1,0-0.1,0
		c-0.2,0-0.4-0.1-0.5-0.2l-1.5-0.9l0.2-0.3L6.9,30c0.1,0.1,0.3,0.2,0.4,0.1c0.1,0,0.2-0.1,0.3-0.3l1.5-1.7l0.3,0.2L7.9,30.1z
		 M11.4,36.1c-0.2,0-0.4-0.1-0.5-0.2l-1.5-0.9l0.2-0.3l1.5,0.9c0.1,0.1,0.3,0.2,0.4,0.1c0.1,0,0.2-0.1,0.3-0.3l1.5-1.7l0.3,0.2
		l-1.5,1.7C12,35.8,11.8,36,11.4,36.1C11.5,36.1,11.5,36.1,11.4,36.1z M14.5,41.7c-0.1,0.1-0.3,0.3-0.5,0.4c0,0-0.1,0-0.1,0
		c-0.2,0-0.4-0.1-0.5-0.2l-1.5-0.9l0.2-0.3l1.5,0.9c0.1,0.1,0.3,0.2,0.4,0.1c0.1,0,0.2-0.1,0.3-0.3l1.5-1.7l0.3,0.2L14.5,41.7z
		 M14.5,29.7c-0.1,0.1-0.3,0.3-0.5,0.4c0,0-0.1,0-0.1,0c-0.2,0-0.4-0.1-0.5-0.2L11.8,29l0.2-0.3l1.5,0.9c0.1,0.1,0.3,0.2,0.4,0.1
		c0.1,0,0.2-0.1,0.3-0.3l1.5-1.7l0.3,0.2L14.5,29.7z M18,35.3c-0.2,0-0.4-0.1-0.5-0.2L16,34.3l0.2-0.3l1.6,0.8
		c0.2,0.1,0.3,0.1,0.4,0.1c0.1,0,0.2-0.1,0.3-0.3l1.3-1.8l0.3,0.2l-1.3,1.8c-0.1,0.1-0.3,0.3-0.5,0.4C18.1,35.3,18.1,35.3,18,35.3z
		 M21.1,40.9c-0.1,0.1-0.3,0.3-0.5,0.4c0,0-0.1,0-0.1,0c-0.2,0-0.4-0.1-0.5-0.2l-1.6-0.8l0.2-0.3l1.6,0.8c0.2,0.1,0.3,0.1,0.4,0.1
		c0.1,0,0.2-0.1,0.3-0.3l1.3-1.8l0.3,0.2L21.1,40.9z M21.1,28.9c-0.1,0.1-0.3,0.3-0.5,0.4c0,0-0.1,0-0.1,0c-0.2,0-0.4-0.1-0.5-0.2
		l-1.6-0.8l0.2-0.3l1.6,0.8c0.2,0.1,0.3,0.1,0.4,0.1c0.1,0,0.2-0.1,0.3-0.3l1.3-1.8l0.3,0.2L21.1,28.9z M21.3,22.1l0.2-0.3l1.6,0.8
		c0.2,0.1,0.3,0.1,0.4,0.1c0.1,0,0.2-0.1,0.3-0.3l1.3-1.8l0.3,0.2L24,22.7c-0.1,0.1-0.3,0.3-0.5,0.4c0,0-0.1,0-0.1,0
		c-0.2,0-0.4-0.1-0.5-0.2L21.3,22.1z M24.6,34.5c-0.2,0-0.4-0.1-0.5-0.2l-1.6-0.8l0.2-0.3l1.6,0.8c0.2,0.1,0.3,0.1,0.4,0.1
		c0.1,0,0.2-0.1,0.3-0.3l1.3-1.8l0.3,0.2L25.2,34c-0.1,0.1-0.3,0.3-0.5,0.4C24.7,34.4,24.6,34.5,24.6,34.5z M27.6,40
		c-0.1,0.1-0.3,0.3-0.5,0.4c0,0-0.1,0-0.1,0c-0.2,0-0.4-0.1-0.5-0.2l-1.6-0.8l0.2-0.3l1.6,0.8c0.2,0.1,0.3,0.1,0.4,0.1
		c0.1,0,0.2-0.1,0.3-0.3l1.3-1.8l0.3,0.2L27.6,40z M27.6,28.1c-0.1,0.1-0.3,0.3-0.5,0.4c0,0-0.1,0-0.1,0c-0.2,0-0.4-0.1-0.5-0.2
		l-1.6-0.8l0.2-0.3l1.6,0.8c0.2,0.1,0.3,0.1,0.4,0.1c0.1,0,0.2-0.1,0.3-0.3l1.3-1.8l0.3,0.2L27.6,28.1z M27.8,20.6l0.1-0.3l1.6,0.8
		c0.2,0.1,0.3,0.1,0.4,0.1c0.1,0,0.2-0.2,0.3-0.3l1.3-1.9l0.3,0.2l-1.3,1.9c-0.1,0.1-0.2,0.4-0.5,0.4c-0.1,0-0.1,0-0.2,0
		c-0.2,0-0.4-0.1-0.5-0.1L27.8,20.6z M31.1,32.9c-0.2,0-0.4-0.1-0.5-0.1L29,32l0.1-0.3l1.6,0.8c0.2,0.1,0.3,0.1,0.4,0.1
		c0.1,0,0.2-0.2,0.3-0.3l1.3-1.9l0.3,0.2l-1.3,1.9c-0.1,0.1-0.2,0.4-0.5,0.4C31.2,32.9,31.2,32.9,31.1,32.9z M34.1,38.4
		c-0.1,0.1-0.2,0.4-0.5,0.4c-0.1,0-0.1,0-0.2,0c-0.2,0-0.4-0.1-0.5-0.1L31.4,38l0.1-0.3l1.6,0.8c0.2,0.1,0.3,0.1,0.4,0.1
		c0.1,0,0.2-0.2,0.3-0.3l1.3-1.9l0.3,0.2L34.1,38.4z M34.1,26.4c-0.1,0.1-0.2,0.4-0.5,0.4c-0.1,0-0.1,0-0.2,0
		c-0.2,0-0.4-0.1-0.5-0.1L31.4,26l0.1-0.3l1.6,0.8c0.2,0.1,0.3,0.1,0.4,0.1c0.1,0,0.2-0.2,0.3-0.3l1.3-1.9l0.3,0.2L34.1,26.4z
		 M34.3,19.5l0.1-0.3l1.6,0.8c0.2,0.1,0.3,0.1,0.4,0.1c0.1,0,0.2-0.2,0.3-0.3l1.3-1.9l0.3,0.2L37,19.9c-0.1,0.1-0.2,0.4-0.5,0.4
		c-0.1,0-0.1,0-0.2,0c-0.2,0-0.4-0.1-0.5-0.1L34.3,19.5z M37.8,31.7c-0.1,0-0.1,0-0.2,0c-0.2,0-0.4-0.1-0.5-0.1l-1.6-0.8l0.1-0.3
		l1.6,0.8c0.2,0.1,0.3,0.1,0.4,0.1c0.1,0,0.2-0.2,0.3-0.3l1.3-1.9l0.3,0.2l-1.3,1.9C38.1,31.4,38,31.7,37.8,31.7z M40.6,37.3
		c-0.1,0.1-0.2,0.4-0.5,0.4c-0.1,0-0.1,0-0.2,0c-0.2,0-0.4-0.1-0.5-0.1l-1.6-0.8l0.1-0.3l1.6,0.8c0.2,0.1,0.3,0.1,0.4,0.1
		c0.1,0,0.2-0.2,0.3-0.3l1.3-1.9l0.3,0.2L40.6,37.3z M40.6,25.3c-0.1,0.1-0.2,0.4-0.5,0.4c-0.1,0-0.1,0-0.2,0
		c-0.2,0-0.4-0.1-0.5-0.1l-1.6-0.8l0.1-0.3l1.6,0.8c0.2,0.1,0.3,0.1,0.4,0.1c0.1,0,0.2-0.2,0.3-0.3l1.3-1.9l0.3,0.2L40.6,25.3z
		 M44.7,41.2c-0.1,0.1-0.2,0.4-0.5,0.4c-0.1,0-0.1,0-0.2,0c-0.2,0-0.4-0.1-0.5-0.1L42,40.8l0.1-0.3l1.6,0.8c0.2,0.1,0.3,0.1,0.4,0.1
		c0.1,0,0.2-0.2,0.3-0.3l1.3-1.9l0.3,0.2L44.7,41.2z M47.1,35.2c-0.1,0.1-0.2,0.4-0.5,0.4c-0.1,0-0.1,0-0.2,0
		c-0.2,0-0.4-0.1-0.5-0.1l-1.6-0.8l0.1-0.3l1.6,0.8c0.2,0.1,0.3,0.1,0.4,0.1c0.1,0,0.2-0.2,0.3-0.3l1.3-1.9l0.3,0.2L47.1,35.2z
		 M47.1,23.3c-0.1,0.1-0.2,0.4-0.5,0.4c-0.1,0-0.1,0-0.2,0c-0.2,0-0.4-0.1-0.5-0.1l-1.6-0.8l0.1-0.3l1.6,0.8
		c0.2,0.1,0.3,0.1,0.4,0.1c0.1,0,0.2-0.2,0.3-0.3l1.3-1.9l0.3,0.2L47.1,23.3z M51.2,40.1c-0.1,0.1-0.2,0.4-0.5,0.4
		c-0.1,0-0.1,0-0.2,0c-0.2,0-0.4-0.1-0.5-0.1l-1.6-0.8l0.1-0.3l1.6,0.8c0.2,0.1,0.3,0.1,0.4,0.1c0.1,0,0.2-0.2,0.3-0.3l1.3-1.9
		l0.3,0.2L51.2,40.1z M53.1,34.5c-0.1,0-0.1,0-0.2,0c-0.2,0-0.4-0.1-0.5-0.1l-1.6-0.8l0.1-0.3l1.6,0.8c0.2,0.1,0.3,0.1,0.4,0.1
		c0.1,0,0.2-0.2,0.3-0.3l1.3-1.9l0.3,0.2l-1.3,1.9C53.5,34.2,53.4,34.5,53.1,34.5z M57.5,39.1c-0.1,0.1-0.3,0.3-0.5,0.4
		c0,0-0.1,0-0.1,0c-0.2,0-0.4-0.1-0.5-0.2l-1.5-0.9L55,38l1.5,0.9c0.1,0.1,0.3,0.2,0.4,0.1c0.1,0,0.2-0.1,0.3-0.3l1.5-1.7l0.3,0.2
		L57.5,39.1z M57.5,27.1c-0.1,0.1-0.3,0.3-0.5,0.4c0,0-0.1,0-0.1,0c-0.2,0-0.4-0.1-0.5-0.2l-1.5-0.9l0.2-0.3l1.5,0.9
		c0.1,0.1,0.3,0.2,0.4,0.1c0.1,0,0.2-0.1,0.3-0.3l1.5-1.7l0.3,0.2L57.5,27.1z"/>
	<path fill="none" stroke="#D7F1F4" stroke-width="0.25" stroke-miterlimit="10" d="M6.1,19.1C6.1,19.1,6.1,19.1,6.1,19.1
		c0.3,0,0.5-0.2,0.6-0.4L8.2,17l-0.3-0.2l-1.5,1.7c-0.1,0.1-0.2,0.2-0.3,0.3c-0.1,0-0.3-0.1-0.4-0.1l-1.5-0.9L4,18l1.5,0.9
		C5.7,19,5.9,19.1,6.1,19.1z"/>
	<path fill="none" stroke="#D7F1F4" stroke-width="0.25" stroke-miterlimit="10" d="M12.6,18.7C12.7,18.7,12.7,18.7,12.6,18.7
		c0.3,0,0.5-0.2,0.6-0.4l1.5-1.7l-0.3-0.2L13,18.2c-0.1,0.1-0.2,0.2-0.3,0.3c-0.1,0-0.3-0.1-0.4-0.1l-1.5-0.9l-0.2,0.3l1.5,0.9
		C12.2,18.6,12.4,18.7,12.6,18.7z"/>
	<path fill="none" stroke="#D7F1F4" stroke-width="0.25" stroke-miterlimit="10" d="M19.2,18c0,0,0.1,0,0.1,0
		c0.2-0.1,0.4-0.3,0.5-0.4l1.3-1.8L21,15.6l-1.3,1.8c-0.1,0.1-0.2,0.3-0.3,0.3c-0.1,0-0.3,0-0.4-0.1l-1.6-0.8L17.2,17l1.6,0.8
		C18.9,17.9,19,18,19.2,18z"/>
	<path fill="none" stroke="#D7F1F4" stroke-width="0.25" stroke-miterlimit="10" d="M25.8,17.1c0,0,0.1,0,0.1,0
		c0.2-0.1,0.4-0.3,0.5-0.4l1.3-1.8l-0.3-0.2l-1.3,1.8c-0.1,0.1-0.2,0.3-0.3,0.3c-0.1,0-0.3,0-0.4-0.1l-1.6-0.8l-0.2,0.3l1.6,0.8
		C25.4,17,25.6,17.1,25.8,17.1z"/>
	<path fill="none" stroke="#D7F1F4" stroke-width="0.25" stroke-miterlimit="10" d="M32.3,15.5c0.1,0,0.1,0,0.2,0
		c0.2-0.1,0.4-0.3,0.5-0.4l1.3-1.9L34,13l-1.3,1.9c-0.1,0.1-0.2,0.3-0.3,0.3c-0.1,0-0.3,0-0.4-0.1l-1.6-0.8l-0.1,0.3l1.6,0.8
		C31.9,15.5,32.1,15.5,32.3,15.5z"/>
	<path fill="none" stroke="#D7F1F4" stroke-width="0.25" stroke-miterlimit="10" d="M38.8,14.4c0.1,0,0.1,0,0.2,0
		c0.2-0.1,0.4-0.3,0.5-0.4l1.3-1.9l-0.3-0.2l-1.3,1.9c-0.1,0.1-0.2,0.3-0.3,0.3c-0.1,0-0.3,0-0.4-0.1l-1.6-0.8l-0.1,0.3l1.6,0.8
		C38.4,14.3,38.6,14.4,38.8,14.4z"/>
	<path fill="none" stroke="#D7F1F4" stroke-width="0.25" stroke-miterlimit="10" d="M45.3,12.4c0.1,0,0.1,0,0.2,0
		c0.2-0.1,0.4-0.3,0.5-0.4l1.3-1.9l-0.3-0.2l-1.3,1.9c-0.1,0.1-0.2,0.3-0.3,0.3c-0.1,0-0.3,0-0.4-0.1l-1.6-0.8l-0.1,0.3l1.6,0.8
		C44.9,12.3,45.1,12.4,45.3,12.4z"/>
	<path fill="none" stroke="#D7F1F4" stroke-width="0.25" stroke-miterlimit="10" d="M51.8,11.2c0.1,0,0.1,0,0.2,0
		c0.2-0.1,0.4-0.3,0.5-0.4l1.3-1.9l-0.3-0.2l-1.3,1.9c-0.1,0.1-0.2,0.3-0.3,0.3c-0.1,0-0.3,0-0.4-0.1l-1.6-0.8l-0.1,0.3l1.6,0.8
		C51.4,11.2,51.6,11.2,51.8,11.2z"/>
	<path fill="none" stroke="#D7F1F4" stroke-width="0.25" stroke-miterlimit="10" d="M3.7,25.1C3.7,25.1,3.8,25.1,3.7,25.1
		c0.3,0,0.5-0.2,0.6-0.4L5.8,23l-0.3-0.2l-1.5,1.7c-0.1,0.1-0.2,0.2-0.3,0.3c-0.1,0-0.3-0.1-0.4-0.1l-1.5-0.9L1.6,24l1.5,0.9
		C3.3,25,3.5,25.1,3.7,25.1z"/>
	<path fill="none" stroke="#D7F1F4" stroke-width="0.25" stroke-miterlimit="10" d="M55.1,15.9c0.1,0.1,0.3,0.2,0.5,0.2
		c0,0,0.1,0,0.1,0c0.2,0,0.4-0.2,0.5-0.4l1.5-1.7l-0.3-0.2l-1.5,1.7c-0.1,0.1-0.2,0.2-0.3,0.3c-0.1,0-0.3-0.1-0.4-0.1l-1.5-0.9
		L53.6,15L55.1,15.9z"/>
	<path fill="none" stroke="#D7F1F4" stroke-width="0.25" stroke-miterlimit="10" d="M10.2,24.7C10.3,24.7,10.3,24.7,10.2,24.7
		c0.3,0,0.5-0.2,0.6-0.4l1.5-1.7l-0.3-0.2l-1.5,1.7c-0.1,0.1-0.2,0.2-0.3,0.3c-0.1,0-0.3-0.1-0.4-0.1l-1.5-0.9l-0.2,0.3l1.5,0.9
		C9.8,24.6,10,24.7,10.2,24.7z"/>
	<path fill="none" stroke="#D7F1F4" stroke-width="0.25" stroke-miterlimit="10" d="M16.9,24c0,0,0.1,0,0.1,0
		c0.2-0.1,0.4-0.3,0.5-0.4l1.3-1.8l-0.3-0.2l-1.3,1.8c-0.1,0.1-0.2,0.3-0.3,0.3c-0.1,0-0.3,0-0.4-0.1l-1.6-0.8L14.8,23l1.6,0.8
		C16.5,23.9,16.7,24,16.9,24z"/>
	<path fill="none" stroke="#D7F1F4" stroke-width="0.25" stroke-miterlimit="10" d="M23.4,23.1c0,0,0.1,0,0.1,0
		c0.2-0.1,0.4-0.3,0.5-0.4l1.3-1.8l-0.3-0.2l-1.3,1.8c-0.1,0.1-0.2,0.3-0.3,0.3c-0.1,0-0.3,0-0.4-0.1l-1.6-0.8l-0.2,0.3l1.6,0.8
		C23,23,23.2,23.1,23.4,23.1z"/>
	<path fill="none" stroke="#D7F1F4" stroke-width="0.25" stroke-miterlimit="10" d="M29.9,21.5c0.1,0,0.1,0,0.2,0
		c0.2-0.1,0.4-0.3,0.5-0.4l1.3-1.9L31.6,19l-1.3,1.9c-0.1,0.1-0.2,0.3-0.3,0.3c-0.1,0-0.3,0-0.4-0.1L28,20.3l-0.1,0.3l1.6,0.8
		C29.6,21.4,29.7,21.5,29.9,21.5z"/>
	<path fill="none" stroke="#D7F1F4" stroke-width="0.25" stroke-miterlimit="10" d="M36.4,20.4c0.1,0,0.1,0,0.2,0
		c0.2-0.1,0.4-0.3,0.5-0.4l1.3-1.9L38,17.9l-1.3,1.9c-0.1,0.1-0.2,0.3-0.3,0.3c-0.1,0-0.3,0-0.4-0.1l-1.6-0.8l-0.1,0.3l1.6,0.8
		C36,20.3,36.2,20.4,36.4,20.4z"/>
	<path fill="none" stroke="#D7F1F4" stroke-width="0.25" stroke-miterlimit="10" d="M42.9,18.4c0.1,0,0.1,0,0.2,0
		c0.2-0.1,0.4-0.3,0.5-0.4l1.3-1.9l-0.3-0.2l-1.3,1.9C43.2,17.9,43.1,18,43,18c-0.1,0-0.3,0-0.4-0.1l-1.6-0.8l-0.1,0.3l1.6,0.8
		C42.5,18.3,42.7,18.4,42.9,18.4z"/>
	<path fill="none" stroke="#D7F1F4" stroke-width="0.25" stroke-miterlimit="10" d="M49.4,17.2c0.1,0,0.1,0,0.2,0
		c0.2-0.1,0.4-0.3,0.5-0.4l1.3-1.9L51,14.7l-1.3,1.9c-0.1,0.1-0.2,0.3-0.3,0.3c-0.1,0-0.3,0-0.4-0.1L47.4,16l-0.1,0.3l1.6,0.8
		C49,17.1,49.2,17.2,49.4,17.2z"/>
	<path fill="none" stroke="#D7F1F4" stroke-width="0.25" stroke-miterlimit="10" d="M7.6,29.9c-0.1,0.1-0.2,0.2-0.3,0.3
		c-0.1,0-0.3-0.1-0.4-0.1l-1.5-0.9l-0.2,0.3l1.5,0.9c0.1,0.1,0.3,0.2,0.5,0.2c0,0,0.1,0,0.1,0c0.2,0,0.4-0.2,0.5-0.4l1.5-1.7
		l-0.3-0.2L7.6,29.9z"/>
	<path fill="none" stroke="#D7F1F4" stroke-width="0.25" stroke-miterlimit="10" d="M14.2,29.5c-0.1,0.1-0.2,0.2-0.3,0.3
		c-0.1,0-0.3-0.1-0.4-0.1L12,28.7L11.8,29l1.5,0.9c0.1,0.1,0.3,0.2,0.5,0.2c0,0,0.1,0,0.1,0c0.2,0,0.4-0.2,0.5-0.4l1.5-1.7l-0.3-0.2
		L14.2,29.5z"/>
	<path fill="none" stroke="#D7F1F4" stroke-width="0.25" stroke-miterlimit="10" d="M20.8,28.7c-0.1,0.1-0.2,0.3-0.3,0.3
		c-0.1,0-0.3,0-0.4-0.1l-1.6-0.8l-0.2,0.3l1.6,0.8c0.1,0.1,0.3,0.2,0.5,0.2c0,0,0.1,0,0.1,0c0.2-0.1,0.4-0.3,0.5-0.4l1.3-1.8
		l-0.3-0.2L20.8,28.7z"/>
	<path fill="none" stroke="#D7F1F4" stroke-width="0.25" stroke-miterlimit="10" d="M27.3,27.9c-0.1,0.1-0.2,0.3-0.3,0.3
		c-0.1,0-0.3,0-0.4-0.1L25,27.2l-0.2,0.3l1.6,0.8c0.1,0.1,0.3,0.2,0.5,0.2c0,0,0.1,0,0.1,0c0.2-0.1,0.4-0.3,0.5-0.4l1.3-1.8L28.7,26
		L27.3,27.9z"/>
	<path fill="none" stroke="#D7F1F4" stroke-width="0.25" stroke-miterlimit="10" d="M33.9,26.3c-0.1,0.1-0.2,0.3-0.3,0.3
		c-0.1,0-0.3,0-0.4-0.1l-1.6-0.8L31.4,26l1.6,0.8c0.1,0.1,0.3,0.1,0.5,0.1c0.1,0,0.1,0,0.2,0c0.2-0.1,0.4-0.3,0.5-0.4l1.3-1.9
		l-0.3-0.2L33.9,26.3z"/>
	<path fill="none" stroke="#D7F1F4" stroke-width="0.25" stroke-miterlimit="10" d="M40.4,25.1c-0.1,0.1-0.2,0.3-0.3,0.3
		c-0.1,0-0.3,0-0.4-0.1L38,24.6l-0.1,0.3l1.6,0.8c0.1,0.1,0.3,0.1,0.5,0.1c0.1,0,0.1,0,0.2,0c0.2-0.1,0.4-0.3,0.5-0.4l1.3-1.9
		l-0.3-0.2L40.4,25.1z"/>
	<path fill="none" stroke="#D7F1F4" stroke-width="0.25" stroke-miterlimit="10" d="M46.9,23.1c-0.1,0.1-0.2,0.3-0.3,0.3
		c-0.1,0-0.3,0-0.4-0.1l-1.6-0.8l-0.1,0.3l1.6,0.8c0.1,0.1,0.3,0.1,0.5,0.1c0.1,0,0.1,0,0.2,0c0.2-0.1,0.4-0.3,0.5-0.4l1.3-1.9
		l-0.3-0.2L46.9,23.1z"/>
	<path fill="none" stroke="#D7F1F4" stroke-width="0.25" stroke-miterlimit="10" d="M53.1,22.6c0.2-0.1,0.4-0.3,0.5-0.4l1.3-1.9
		l-0.3-0.2L53.3,22c-0.1,0.1-0.2,0.3-0.3,0.3c-0.1,0-0.3,0-0.4-0.1L51,21.4l-0.1,0.3l1.6,0.8c0.1,0.1,0.3,0.1,0.5,0.1
		C53,22.6,53.1,22.6,53.1,22.6z"/>
	<path fill="none" stroke="#D7F1F4" stroke-width="0.25" stroke-miterlimit="10" d="M5.5,36.1L7,34.4l-0.3-0.2l-1.5,1.7
		C5.1,36,5,36.1,4.9,36.1c-0.1,0-0.3-0.1-0.4-0.1L3,35.1l-0.2,0.3l1.5,0.9c0.1,0.1,0.3,0.2,0.5,0.2c0,0,0.1,0,0.1,0
		C5.2,36.4,5.4,36.2,5.5,36.1z"/>
	<path fill="none" stroke="#D7F1F4" stroke-width="0.25" stroke-miterlimit="10" d="M57.2,26.9c-0.1,0.1-0.2,0.2-0.3,0.3
		c-0.1,0-0.3-0.1-0.4-0.1L55,26.1l-0.2,0.3l1.5,0.9c0.1,0.1,0.3,0.2,0.5,0.2c0,0,0.1,0,0.1,0c0.2,0,0.4-0.2,0.5-0.4l1.5-1.7
		l-0.3-0.2L57.2,26.9z"/>
	<path fill="none" stroke="#D7F1F4" stroke-width="0.25" stroke-miterlimit="10" d="M12.1,35.7l1.5-1.7l-0.3-0.2l-1.5,1.7
		c-0.1,0.1-0.2,0.2-0.3,0.3c-0.1,0-0.3-0.1-0.4-0.1l-1.5-0.9l-0.2,0.3l1.5,0.9c0.1,0.1,0.3,0.2,0.5,0.2c0,0,0.1,0,0.1,0
		C11.8,36,12,35.8,12.1,35.7z"/>
	<path fill="none" stroke="#D7F1F4" stroke-width="0.25" stroke-miterlimit="10" d="M18.7,34.9l1.3-1.8l-0.3-0.2l-1.3,1.8
		c-0.1,0.1-0.2,0.3-0.3,0.3c-0.1,0-0.3,0-0.4-0.1L16.1,34L16,34.3l1.6,0.8c0.1,0.1,0.3,0.2,0.5,0.2c0,0,0.1,0,0.1,0
		C18.4,35.2,18.6,35,18.7,34.9z"/>
	<path fill="none" stroke="#D7F1F4" stroke-width="0.25" stroke-miterlimit="10" d="M25.2,34l1.3-1.8L26.3,32l-1.3,1.8
		c-0.1,0.1-0.2,0.3-0.3,0.3c-0.1,0-0.3,0-0.4-0.1l-1.6-0.8l-0.2,0.3l1.6,0.8c0.1,0.1,0.3,0.2,0.5,0.2c0,0,0.1,0,0.1,0
		C24.9,34.4,25.1,34.2,25.2,34z"/>
	<path fill="none" stroke="#D7F1F4" stroke-width="0.25" stroke-miterlimit="10" d="M31.8,32.4l1.3-1.9l-0.3-0.2l-1.3,1.9
		c-0.1,0.1-0.2,0.3-0.3,0.3c-0.1,0-0.3,0-0.4-0.1l-1.6-0.8L29,32l1.6,0.8c0.1,0.1,0.3,0.1,0.5,0.1c0.1,0,0.1,0,0.2,0
		C31.5,32.8,31.7,32.6,31.8,32.4z"/>
	<path fill="none" stroke="#D7F1F4" stroke-width="0.25" stroke-miterlimit="10" d="M38.2,31.3l1.3-1.9l-0.3-0.2L38,31.1
		c-0.1,0.1-0.2,0.3-0.3,0.3c-0.1,0-0.3,0-0.4-0.1l-1.6-0.8l-0.1,0.3l1.6,0.8c0.1,0.1,0.3,0.1,0.5,0.1c0.1,0,0.1,0,0.2,0
		C38,31.7,38.1,31.4,38.2,31.3z"/>
	<path fill="none" stroke="#D7F1F4" stroke-width="0.25" stroke-miterlimit="10" d="M42.1,28.5L42,28.8l1.6,0.8
		c0.1,0.1,0.3,0.1,0.5,0.1c0.1,0,0.1,0,0.2,0c0.2-0.1,0.4-0.3,0.5-0.4l1.3-1.9l-0.3-0.2l-1.3,1.9c-0.1,0.1-0.2,0.3-0.3,0.3
		c-0.1,0-0.3,0-0.4-0.1L42.1,28.5z"/>
	<path fill="none" stroke="#D7F1F4" stroke-width="0.25" stroke-miterlimit="10" d="M50.9,27.9c-0.1,0.1-0.2,0.3-0.3,0.3
		c-0.1,0-0.3,0-0.4-0.1l-1.6-0.8l-0.1,0.3l1.6,0.8c0.1,0.1,0.3,0.1,0.5,0.1c0.1,0,0.1,0,0.2,0c0.2-0.1,0.4-0.3,0.5-0.4l1.3-1.9
		l-0.3-0.2L50.9,27.9z"/>
	<path fill="none" stroke="#D7F1F4" stroke-width="0.25" stroke-miterlimit="10" d="M7.6,41.9c-0.1,0.1-0.2,0.2-0.3,0.3
		c-0.1,0-0.3-0.1-0.4-0.1L5.4,41l-0.2,0.3l1.5,0.9c0.1,0.1,0.3,0.2,0.5,0.2c0,0,0.1,0,0.1,0c0.2,0,0.4-0.2,0.5-0.4l1.5-1.7l-0.3-0.2
		L7.6,41.9z"/>
	<path fill="none" stroke="#D7F1F4" stroke-width="0.25" stroke-miterlimit="10" d="M14.2,41.5c-0.1,0.1-0.2,0.2-0.3,0.3
		c-0.1,0-0.3-0.1-0.4-0.1L12,40.6l-0.2,0.3l1.5,0.9c0.1,0.1,0.3,0.2,0.5,0.2c0,0,0.1,0,0.1,0c0.2,0,0.4-0.2,0.5-0.4l1.5-1.7
		l-0.3-0.2L14.2,41.5z"/>
	<path fill="none" stroke="#D7F1F4" stroke-width="0.25" stroke-miterlimit="10" d="M20.8,40.7c-0.1,0.1-0.2,0.3-0.3,0.3
		c-0.1,0-0.3,0-0.4-0.1L18.5,40l-0.2,0.3l1.6,0.8c0.1,0.1,0.3,0.2,0.5,0.2c0,0,0.1,0,0.1,0c0.2-0.1,0.4-0.3,0.5-0.4l1.3-1.8
		l-0.3-0.2L20.8,40.7z"/>
	<path fill="none" stroke="#D7F1F4" stroke-width="0.25" stroke-miterlimit="10" d="M27.3,39.8c-0.1,0.1-0.2,0.3-0.3,0.3
		c-0.1,0-0.3,0-0.4-0.1L25,39.2l-0.2,0.3l1.6,0.8c0.1,0.1,0.3,0.2,0.5,0.2c0,0,0.1,0,0.1,0c0.2-0.1,0.4-0.3,0.5-0.4l1.3-1.8L28.7,38
		L27.3,39.8z"/>
	<path fill="none" stroke="#D7F1F4" stroke-width="0.25" stroke-miterlimit="10" d="M33.9,38.2c-0.1,0.1-0.2,0.3-0.3,0.3
		c-0.1,0-0.3,0-0.4-0.1l-1.6-0.8L31.4,38l1.6,0.8c0.1,0.1,0.3,0.1,0.5,0.1c0.1,0,0.1,0,0.2,0c0.2-0.1,0.4-0.3,0.5-0.4l1.3-1.9
		l-0.3-0.2L33.9,38.2z"/>
	<path fill="none" stroke="#D7F1F4" stroke-width="0.25" stroke-miterlimit="10" d="M40.4,37.1c-0.1,0.1-0.2,0.3-0.3,0.3
		c-0.1,0-0.3,0-0.4-0.1L38,36.5l-0.1,0.3l1.6,0.8c0.1,0.1,0.3,0.1,0.5,0.1c0.1,0,0.1,0,0.2,0c0.2-0.1,0.4-0.3,0.5-0.4l1.3-1.9
		l-0.3-0.2L40.4,37.1z"/>
	<path fill="none" stroke="#D7F1F4" stroke-width="0.25" stroke-miterlimit="10" d="M46.9,35c-0.1,0.1-0.2,0.3-0.3,0.3
		c-0.1,0-0.3,0-0.4-0.1l-1.6-0.8l-0.1,0.3l1.6,0.8c0.1,0.1,0.3,0.1,0.5,0.1c0.1,0,0.1,0,0.2,0c0.2-0.1,0.4-0.3,0.5-0.4l1.3-1.9
		l-0.3-0.2L46.9,35z"/>
	<path fill="none" stroke="#D7F1F4" stroke-width="0.25" stroke-miterlimit="10" d="M54.6,32.1l-1.3,1.9c-0.1,0.1-0.2,0.3-0.3,0.3
		c-0.1,0-0.3,0-0.4-0.1L51,33.4l-0.1,0.3l1.6,0.8c0.1,0.1,0.3,0.1,0.5,0.1c0.1,0,0.1,0,0.2,0c0.2-0.1,0.4-0.3,0.5-0.4l1.3-1.9
		L54.6,32.1z"/>
	<path fill="none" stroke="#D7F1F4" stroke-width="0.25" stroke-miterlimit="10" d="M5.3,47.2c-0.1,0.1-0.2,0.2-0.3,0.3
		c-0.1,0-0.3-0.1-0.4-0.1l-1-0.6c-0.2,0-0.4,0-0.5,0.1l1.4,0.8c0.1,0.1,0.3,0.2,0.5,0.2c0,0,0.1,0,0.1,0c0.2,0,0.4-0.2,0.5-0.4
		l0.8-1c-0.2,0-0.3,0-0.5,0L5.3,47.2z"/>
	<path fill="none" stroke="#D7F1F4" stroke-width="0.25" stroke-miterlimit="10" d="M3,46.4l-0.2,0.3L3,46.8c0.2,0,0.4,0,0.5-0.1
		L3,46.4z"/>
	<path fill="none" stroke="#D7F1F4" stroke-width="0.25" stroke-miterlimit="10" d="M6.7,45.5l-0.8,1c0.2,0,0.3,0,0.5,0L7,45.7
		L6.7,45.5z"/>
	<path fill="none" stroke="#D7F1F4" stroke-width="0.25" stroke-miterlimit="10" d="M57.2,38.9c-0.1,0.1-0.2,0.2-0.3,0.3
		c-0.1,0-0.3-0.1-0.4-0.1L55,38l-0.2,0.3l1.5,0.9c0.1,0.1,0.3,0.2,0.5,0.2c0,0,0.1,0,0.1,0c0.2,0,0.4-0.2,0.5-0.4l1.5-1.7l-0.3-0.2
		L57.2,38.9z"/>
	<path fill="none" stroke="#D7F1F4" stroke-width="0.25" stroke-miterlimit="10" d="M11.8,46.8c-0.1,0.1-0.2,0.2-0.3,0.3
		c-0.1,0-0.3-0.1-0.4-0.1l-1.3-0.8c-0.1,0-0.2,0-0.3,0l-0.1,0.1l1.5,0.9c0.1,0.1,0.3,0.2,0.5,0.2c0,0,0.1,0,0.1,0
		c0.2,0,0.4-0.2,0.5-0.4l1.1-1.2c-0.2,0-0.3,0-0.5,0L11.8,46.8z"/>
	<path fill="none" stroke="#D7F1F4" stroke-width="0.25" stroke-miterlimit="10" d="M13.3,45.1l-0.6,0.7c0.2,0,0.3,0,0.5,0l0.4-0.5
		L13.3,45.1z"/>
	<path fill="none" stroke="#D7F1F4" stroke-width="0.25" stroke-miterlimit="10" d="M9.6,46l-0.1,0.1c0.1,0,0.2,0,0.3,0L9.6,46z"/>
	<path fill="none" stroke="#D7F1F4" stroke-width="0.25" stroke-miterlimit="10" d="M18.4,46.1c-0.1,0.1-0.2,0.3-0.3,0.3
		c-0.1,0-0.3,0-0.4-0.1l-1.4-0.7c-0.1,0-0.2,0-0.3,0L16,45.7l1.6,0.8c0.1,0.1,0.3,0.2,0.5,0.2c0,0,0.1,0,0.1,0
		c0.2-0.1,0.4-0.3,0.5-0.4l0.8-1c-0.1,0-0.3,0-0.4,0L18.4,46.1z"/>
	<path fill="none" stroke="#D7F1F4" stroke-width="0.25" stroke-miterlimit="10" d="M16.1,45.4L16,45.5c0.1,0,0.2,0,0.3,0L16.1,45.4
		z"/>
	<path fill="none" stroke="#D7F1F4" stroke-width="0.25" stroke-miterlimit="10" d="M19.8,44.2l-0.8,1c0.1,0,0.3,0,0.4,0l0.6-0.8
		L19.8,44.2z"/>
	<path fill="none" stroke="#D7F1F4" stroke-width="0.25" stroke-miterlimit="10" d="M24.9,45.2c-0.1,0.1-0.2,0.3-0.3,0.3
		c-0.1,0-0.3,0-0.4-0.1l-1-0.5c-0.2,0-0.4,0-0.6,0.1l1.4,0.7c0.1,0.1,0.3,0.2,0.5,0.2c0,0,0.1,0,0.1,0c0.2-0.1,0.4-0.3,0.5-0.4
		l0.6-0.8c-0.1,0-0.3,0-0.4,0L24.9,45.2z"/>
	<path fill="none" stroke="#D7F1F4" stroke-width="0.25" stroke-miterlimit="10" d="M26.3,43.4l-0.9,1.3c0.1,0,0.3,0,0.4,0l0.8-1
		L26.3,43.4z"/>
	<path fill="none" stroke="#D7F1F4" stroke-width="0.25" stroke-miterlimit="10" d="M22.6,44.5l-0.2,0.3l0.2,0.1
		c0.2,0,0.4,0,0.6-0.1L22.6,44.5z"/>
	<path fill="none" stroke="#D7F1F4" stroke-width="0.25" stroke-miterlimit="10" d="M31.5,44.2c-0.1,0.1-0.2,0.3-0.3,0.3
		c-0.1,0-0.3,0-0.4-0.1l-0.4-0.2c-0.2,0-0.4,0-0.6,0.1l1,0.4c0.1,0.1,0.3,0.1,0.5,0.1c0.1,0,0.1,0,0.2,0c0.2-0.1,0.4-0.3,0.5-0.4
		L32,44c-0.1,0-0.3,0-0.4,0L31.5,44.2z"/>
	<path fill="none" stroke="#D7F1F4" stroke-width="0.25" stroke-miterlimit="10" d="M32.8,42.3l-1.2,1.7c0.1,0,0.3,0,0.4,0l1-1.5
		L32.8,42.3z"/>
	<path fill="none" stroke="#D7F1F4" stroke-width="0.25" stroke-miterlimit="10" d="M29.2,43.6L29,43.9l0.7,0.3c0.2,0,0.4,0,0.6-0.1
		L29.2,43.6z"/>
	<path fill="none" stroke="#D7F1F4" stroke-width="0.25" stroke-miterlimit="10" d="M37.1,43.6c0.1,0.1,0.3,0.1,0.5,0.1
		c0.1,0,0.1,0,0.2,0c0.1,0,0.2-0.1,0.3-0.2C37.7,43.5,37.4,43.5,37.1,43.6L37.1,43.6z"/>
	<path fill="none" stroke="#D7F1F4" stroke-width="0.25" stroke-miterlimit="10" d="M39.5,41.4l-0.3-0.2L38,43.1
		c-0.1,0.1-0.2,0.3-0.3,0.3c-0.1,0-0.3,0-0.4-0.1l-1.6-0.8l-0.1,0.3l1.6,0.7c0.3,0,0.7-0.1,1-0.1c0.1-0.1,0.1-0.1,0.1-0.2L39.5,41.4
		z"/>
	<path fill="none" stroke="#D7F1F4" stroke-width="0.25" stroke-miterlimit="10" d="M44.5,41c-0.1,0.1-0.2,0.3-0.3,0.3
		c-0.1,0-0.3,0-0.4-0.1l-1.6-0.8L42,40.8l1.6,0.8c0.1,0.1,0.3,0.1,0.5,0.1c0.1,0,0.1,0,0.2,0c0.2-0.1,0.4-0.3,0.5-0.4l1.3-1.9
		l-0.3-0.2L44.5,41z"/>
	<path fill="none" stroke="#D7F1F4" stroke-width="0.25" stroke-miterlimit="10" d="M50.9,39.9c-0.1,0.1-0.2,0.3-0.3,0.3
		c-0.1,0-0.3,0-0.4-0.1l-1.6-0.8l-0.1,0.3l1.6,0.8c0.1,0.1,0.3,0.1,0.5,0.1c0.1,0,0.1,0,0.2,0c0.2-0.1,0.4-0.3,0.5-0.4l1.3-1.9
		L52.2,38L50.9,39.9z"/>
</g>
</svg>
