<?xml version="1.0" encoding="utf-8"?>
<!-- Generator: Adobe Illustrator 23.0.2, SVG Export Plug-In . SVG Version: 6.00 Build 0)  -->
<svg version="1.1" id="Layer_1" xmlns="http://www.w3.org/2000/svg" xmlns:xlink="http://www.w3.org/1999/xlink" x="0px" y="0px"
	 width="36.5px" height="64px" viewBox="0 0 36.5 64" enable-background="new 0 0 36.5 64" xml:space="preserve">
<g>
	<path fill="none" stroke="#441211" stroke-miterlimit="10" d="M0.5,63.9c0.3-1.8,1.7-2.8,2.8-4.3c1.7-2.5,3-5.2,4.2-7.9
		c2.9-6.5,5.9-13.1,8.8-19.7c1-2.3,2-4.5,3-6.8"/>
	<g>
		<path fill="#ECC2C0" stroke="#441211" stroke-miterlimit="10" d="M19,22.1c0-0.1,0-0.2-0.1-0.2c-0.3-1-0.8-2-1.2-3
			c-1.2-3.1-1.3-6.6-0.2-9.8c0.6-1.8,1.6-3,2.7-4.5c0.7-1,0.7-2.2,1-3.4c0.1-0.3,0.2-0.6,0.4-0.7c0.1-0.1,0.3,0,0.5,0
			c0.9,0.2,1.5,1,2.3,1.6c1.7,1.1,3.5,0.5,5.5,0.4c0.2,0,0.4,0,0.5,0.1c0.1,0.1,0.6,0.6,0.7,0.8c0.5,0.9,1.2,1.7,1.9,2.4
			c0.6,0.6,2.7,0.5,3,1.3c0.4,1.1-0.9,2.4-1.5,3.3c-0.9,1.2-0.8,2.4-1.2,3.8c-0.7,2.5-2.5,4.5-4.7,5.7c-1.1,0.6-2.3,1.1-3.5,1.5
			c-1.2,0.4-2.6,0.6-3.6,1.4c-0.7,0.6-1.1,1.6-1.6,2.4c-0.3-0.1-0.5-0.3-0.8-0.4C19.3,24,19.2,23,19,22.1z"/>
		<g>
			<path fill="#441211" d="M35.9,7.1c-0.3-0.8-1.8-0.8-2.4-1.1c-1.3-0.5-2-1.9-2.7-3c-0.1-0.2-0.3-0.4-0.5-0.5
				c-0.2-0.1-0.4-0.1-0.5-0.1c-1.9,0.1-4.1,0.6-5.7-0.7c-0.5-0.4-2.1-2.1-2.7-1c-0.1,0.2-0.2,0.5-0.2,0.8c-0.1,0.7-0.6,2-0.2,2.5
				c0.2,0.2,0.6,0.3,0.8,0.4c0.9,0.4,1.8,0.8,2.7,1.2c2.3,1,4.6,2.1,6.8,3.1c1.1,0.5,2.2,1,3.3,1.5C35.3,9.2,36.2,8.1,35.9,7.1z"/>
		</g>
		<path fill="none" stroke="#441211" stroke-linejoin="round" stroke-miterlimit="10" d="M19.8,13.2c-0.3-3.1,0.8-6.3,2.8-8.7"/>
		<path fill="none" stroke="#441211" stroke-linejoin="round" stroke-miterlimit="10" d="M23.1,7.8c0.3-1.1,1-2.2,1.9-3"/>
		<path fill="none" stroke="#441211" stroke-linejoin="round" stroke-miterlimit="10" d="M25.2,12.2c0.6-1.9,2.2-3.3,2.7-5.2"/>
		<path fill="none" stroke="#441211" stroke-linejoin="round" stroke-miterlimit="10" d="M27,15.3c2-1.8,3.5-4.3,4.1-7"/>
		<path fill="none" stroke="#441211" stroke-linejoin="round" stroke-miterlimit="10" d="M19.4,15.6c-0.1,3.1,0.6,6.3,0.1,9.3"/>
		<path fill="none" stroke="#441211" stroke-linejoin="round" stroke-miterlimit="10" d="M23.4,15.4c0.1,1.6,0.2,3.3-0.4,4.8
			c-0.3,0.8-0.8,1.6-1.3,2.3"/>
		<path fill="none" stroke="#441211" stroke-linejoin="round" stroke-miterlimit="10" d="M24.7,20.7c2.2-1.1,4-2.9,5.2-5"/>
	</g>
</g>
</svg>
