<?xml version="1.0" encoding="utf-8"?>
<!-- Generator: Adobe Illustrator 23.0.2, SVG Export Plug-In . SVG Version: 6.00 Build 0)  -->
<svg version="1.1" id="Layer_1" xmlns="http://www.w3.org/2000/svg" xmlns:xlink="http://www.w3.org/1999/xlink" x="0px" y="0px"
	 width="77.4px" height="72.4px" viewBox="0 0 77.4 72.4" enable-background="new 0 0 77.4 72.4" xml:space="preserve">
<g>
	<path fill="#ECC2C0" stroke="#441211" stroke-miterlimit="10" d="M47.2,41.7c-4.9-1.5-9.7-2.1-15-0.7c-4.9,1.3-9.4,4-13.3,7.2
		c5.3,2.9,11.6,3.3,17.7,3.3c3,0,6.1-0.2,8.9-1.1c2.6-0.8,5.4-2.5,6.7-5c0.7-1.3,0.6-1.7-0.7-2.3C50.1,42.7,48.6,42.2,47.2,41.7z"/>
	<path fill="#ECC2C0" stroke="#441211" stroke-miterlimit="10" d="M33.9,61.2c4.7,2.2,9.5,4.3,14.7,5.1c5,0.8,10.7,0.1,14.9-3.1
		c1.2-0.9,3.7-3,3.6-4.6c0-2.8-7.3-2.4-9-2.4C50,56.1,41.2,57.4,33.9,61.2z"/>
	<path fill="#ECC2C0" stroke="#441211" stroke-miterlimit="10" d="M48.7,16c2.4,2,4.5,4.2,6.2,6.8c3.7,5.8,4.2,11.9,4.2,18.6
		c0,1.4,0,3.2-0.7,4.5c-1.8,3.2-5.1-3.9-5.7-5.1c-1.8-3.8-3.2-7.9-4-12.1c-0.4-2.1-0.6-4.3-0.6-6.4C48,20.3,47.9,17.9,48.7,16z"/>
	<path fill="#ECC2C0" stroke="#441211" stroke-miterlimit="10" d="M27,14.3c-2-4.3-3.8-9.1-2.2-13.6c4.9,2.4,8.6,6.9,10.9,11.9
		c2.3,5,3.3,10.5,3.9,15.9c0.2,1.7-1,3.3-2.6,1.8c-1.2-1.1-2.2-3-3.2-4.3C31,22.4,28.9,18.4,27,14.3z"/>
	<path fill="#ECC2C0" stroke="#441211" stroke-miterlimit="10" d="M6.1,30.3c-1.6,0.6-3.2,1.3-4.5,2.2c1.2,1.5,4.9,2.2,6.8,2.7
		c2.5,0.6,5.2,0.8,7.8,0.6c5.1-0.3,10.2-1.9,14.4-4.9c0.7-0.5,2.1-1.5,2.1-2.5c0.1-2.5-14.8-0.8-16.3-0.6
		C13.2,28.4,9.4,29.1,6.1,30.3z"/>
	<path fill="#ECC2C0" stroke="#441211" stroke-miterlimit="10" d="M16.2,6.5c-0.5-0.4-1.1-0.7-1.6-1C12.4,4.1,10,3.2,7.6,2.5
		C7,2.3,0.4,1.1,0.5,1.3c1.1,4.9,4,10.1,6.8,14.2c2.8,4,6.4,7.5,11,9.3c2.2,0.9,8.7,1.6,9.1-2.1c0.2-2.3-2.1-6-3.3-7.9
		C22.1,11.5,19.4,8.7,16.2,6.5z"/>
	<path fill="none" stroke="#441211" stroke-miterlimit="10" d="M0.5,1c2.3,3,13.9,12.9,16.7,15.4c3.7,3.3,8,5.8,12.2,8.5
		c9.4,6.1,18,13.4,26.5,20.6c2.2,1.8,4.3,3.7,6.3,5.8c2.7,2.8,5,6,7.2,9.2c2.4,3.3,5.3,8.3,7.7,11.7"/>
	<path fill="none" stroke="#441211" stroke-miterlimit="10" d="M1.3,32.4c4.7,0.7,14.6-1.6,19.3-2.8c3.9-1,8.9-1.4,13-1.8"/>
	<path fill="none" stroke="#441211" stroke-miterlimit="10" d="M38.5,31.1c-1.7-4.1-2.5-8.5-4.1-12.7c-2.4-6.4-6.2-12.1-9.7-17.9"/>
	<path fill="none" stroke="#441211" stroke-miterlimit="10" d="M57.8,47c-0.6-1.5-0.7-3.2-1-4.8c-1-4.9-1.9-9.5-3.9-14.1
		c-1.7-4-3.7-8.2-4.4-12.5"/>
	<path fill="none" stroke="#441211" stroke-miterlimit="10" d="M18.9,48.3c7.5-2.1,27.4-3.1,35.4-4.2"/>
	<path fill="none" stroke="#441211" stroke-miterlimit="10" d="M33.9,61.3c2.9,0.3,17-1.4,19.9-1.9c4.2-0.6,9.4-0.9,13.6-1.5"/>
	<path fill="none" stroke="#441211" stroke-linejoin="round" stroke-miterlimit="10" d="M47.5,63.9c1.1-0.5,2.1-0.9,3.3-1
		c1-0.1,2-0.1,3-0.2c2.3-0.3,4.5-1.6,5.9-3.4"/>
	<path fill="none" stroke="#441211" stroke-linejoin="round" stroke-miterlimit="10" d="M43.7,62.9c0.1-0.4,0.6-0.5,1-0.6
		c1.1-0.2,2.1-0.5,3.1-1"/>
	<path fill="none" stroke="#441211" stroke-linejoin="round" stroke-miterlimit="10" d="M40.9,49.3c1.4,0.1,2.7-0.5,3.8-1.3
		c1.1-0.9,1.9-2,2.8-3"/>
	<path fill="none" stroke="#441211" stroke-linejoin="round" stroke-miterlimit="10" d="M34.4,49.6c0.7-0.1,1.4-0.4,2-0.9
		c0.6-0.5,1-1.2,1.4-1.9c0.5-0.7,1-1.3,1.8-1.5"/>
	<path fill="none" stroke="#441211" stroke-linejoin="round" stroke-miterlimit="10" d="M27.3,49c1.1-0.1,2.1-0.3,3.1-0.7
		c1-0.5,1.9-1.2,2.8-2"/>
	<path fill="none" stroke="#441211" stroke-linejoin="round" stroke-miterlimit="10" d="M49,58.3c1.8-0.2,3.6-0.1,5.4,0.4
		c0.5,0.1,1,0.3,1.4,0.4"/>
	<path fill="none" stroke="#441211" stroke-linejoin="round" stroke-miterlimit="10" d="M56.7,41.3c-0.6,0.1-1.2-0.3-1.6-0.7
		c-1.6-1.8-2.1-4.2-3.1-6.3"/>
	<path fill="none" stroke="#441211" stroke-linejoin="round" stroke-miterlimit="10" d="M55.9,36.6c0.5-1.7,1-3.5,0.5-5.2
		c-0.4-1.8-1.9-3.4-1.7-5.3"/>
	<path fill="none" stroke="#441211" stroke-linejoin="round" stroke-miterlimit="10" d="M53.1,29.6c-1.7-0.8-3.1-2.1-4-3.7"/>
	<path fill="none" stroke="#441211" stroke-linejoin="round" stroke-miterlimit="10" d="M41.8,45.1c-1.1-0.2-1.6-1.6-2.6-2.3
		c-1.3-0.9-3.1-0.5-4.5-1"/>
	<path fill="none" stroke="#441211" stroke-linejoin="round" stroke-miterlimit="10" d="M36.4,45.7c-1.6-1.1-3.5-1.8-5.5-1.8"/>
	<path fill="none" stroke="#441211" stroke-linejoin="round" stroke-miterlimit="10" d="M28,46.9c-1.3-0.6-2.8-0.9-4.2-1"/>
	<path fill="none" stroke="#441211" stroke-linejoin="round" stroke-miterlimit="10" d="M27.1,28.8c-2.1,2.9-5.5,4.8-9.1,5"/>
	<path fill="none" stroke="#441211" stroke-linejoin="round" stroke-miterlimit="10" d="M20.8,29.6c-1.9,0.9-3.7,1.9-5.4,3.1
		c-1.1,0.7-2.2,1.5-3.5,1.6"/>
	<path fill="none" stroke="#441211" stroke-linejoin="round" stroke-miterlimit="10" d="M11.9,31.6c-0.6,0.9-1.5,1.6-2.5,2"/>
	<path fill="none" stroke="#441211" stroke-linejoin="round" stroke-miterlimit="10" d="M16.5,30.1c-1.8-0.2-3.7-0.3-5.6-0.1"/>
	<path fill="none" stroke="#441211" stroke-linejoin="round" stroke-miterlimit="10" d="M24.2,21.4c0.2-1.5-0.2-3.1-1-4.4
		c-1.2-1.7-3.2-2.8-3.9-4.7"/>
	<path fill="none" stroke="#441211" stroke-linejoin="round" stroke-miterlimit="10" d="M19.1,17.7c-0.5-3.5-2.1-6.9-4.6-9.5"/>
	<path fill="none" stroke="#441211" stroke-linejoin="round" stroke-miterlimit="10" d="M14.1,13.5c-0.2-1.6-1.2-3.1-2.1-4.5
		C11.2,8,10.5,6.9,9.8,5.8"/>
	<path fill="none" stroke="#441211" stroke-linejoin="round" stroke-miterlimit="10" d="M21.3,19.6c-1.8,0.3-3.6,0.7-5.4,0.4
		c-1.4-0.2-2.7-0.8-3.8-1.7c-0.8-0.7-1.5-1.6-2.4-2.1"/>
	<path fill="none" stroke="#441211" stroke-linejoin="round" stroke-miterlimit="10" d="M15.7,15.3c-0.9-0.2-1.8-0.8-2.7-1.1
		c-0.7-0.2-1.4-0.2-2.1-0.4C10,13.5,9.1,13,8.5,12.2"/>
	<path fill="none" stroke="#441211" stroke-linejoin="round" stroke-miterlimit="10" d="M36.9,25.7c0.3-1.8,0.6-3.6,0.3-5.3
		c-0.3-1.6-1.1-3.2-0.9-4.8"/>
	<path fill="none" stroke="#441211" stroke-linejoin="round" stroke-miterlimit="10" d="M35.6,22.1c-1,0.1-1.9-0.7-2.5-1.5
		c-0.7-0.9-1.2-1.9-1.8-2.8C30.7,16.9,30,16,29,15.5"/>
	<path fill="none" stroke="#441211" stroke-linejoin="round" stroke-miterlimit="10" d="M33.7,15.8c0.1-2.5-0.5-5-1.9-7.2"/>
	<path fill="none" stroke="#441211" stroke-linejoin="round" stroke-miterlimit="10" d="M31.5,12.1c-0.8,0-1.8-0.1-2.4-0.6
		c-0.4-0.3-0.7-0.8-0.9-1.3c-0.6-1-1.1-2.1-1.7-3.1"/>
	<path fill="none" stroke="#441211" stroke-linejoin="round" stroke-miterlimit="10" d="M9,9C8.7,8.8,8.5,8.5,8.3,8.3
		C7.5,7,6.7,5.7,5.9,4.4"/>
</g>
</svg>
