<?xml version="1.0" encoding="utf-8"?>
<!-- Generator: Adobe Illustrator 23.0.2, SVG Export Plug-In . SVG Version: 6.00 Build 0)  -->
<svg version="1.1" id="Layer_1" xmlns="http://www.w3.org/2000/svg" xmlns:xlink="http://www.w3.org/1999/xlink" x="0px" y="0px"
	 width="135.6px" height="158.1px" viewBox="0 0 135.6 158.1" enable-background="new 0 0 135.6 158.1" xml:space="preserve">
<g>
	<path fill="none" d="M102.3,154.7c0.1,0,0.2-0.2,0.3-0.3l0.1-0.1c-0.4,0-0.8,0.1-1.3,0.1l0.4,0.2
		C102,154.7,102.2,154.8,102.3,154.7z"/>
	<path fill="none" d="M89.2,156.6c0.1,0,0.2-0.1,0.3-0.3l0.6-0.8c-0.9,0.1-1.8,0.2-2.7,0.3l1.4,0.7C89,156.6,89.1,156.6,89.2,156.6z
		"/>
	<path fill="none" d="M81.8,21.5c0.7-4.2,1.3-8.1,1.8-11.7c-0.1,0.4-0.3,0.9-0.5,1.3c-0.7,1.5-2.2,2.7-3.5,3.8
		c-0.4,0.3-0.7,0.6-1.1,0.9c-4.5,4.1-9.7,7.3-15.3,9.5c0.4,1.5,4.8,11.4,8.5,16.7c2.6,3.8,5.9,7.9,10.4,9.7
		c5.4,2.2,10.6-0.1,12.4-3.5c0.7-1.3,1-3,1-4.9c-0.1-5-2.9-9.3-5.8-13.9c-2.5-3.9-5-7.9-5.7-12.3c-0.2-0.9-0.2-1.8-0.3-2.7
		c-0.3,2.3-0.7,4.6-1.1,7.1L81.8,21.5z"/>
	<path fill="none" d="M95.7,155.7c0.1,0,0.2-0.1,0.3-0.3l0.4-0.5c-0.7,0.1-1.4,0.1-2.1,0.2l1,0.5C95.5,155.7,95.6,155.8,95.7,155.7z
		"/>
	<path fill="none" d="M82.6,157.4c0.1,0,0.2-0.1,0.3-0.3l0.8-1c-1,0.1-1.9,0.2-2.9,0.3l1.3,0.8C82.3,157.3,82.5,157.4,82.6,157.4z"
		/>
	<path fill="none" d="M76,157.7c0.1,0,0.2-0.1,0.3-0.3l0.6-0.7c-0.5,0.1-1.1,0.1-1.6,0.2c-0.2,0-0.5,0-0.7,0.1l1,0.6
		C75.8,157.7,75.9,157.8,76,157.7z"/>
	<path fill="#441211" d="M83.5,9.8c-0.5,3.6-1,7.5-1.8,11.7l0.7,0.1c0.4-2.5,0.8-4.8,1.1-7.1c-0.1-2.5,0.2-4.9,0.5-7.4
		c0.1-0.5,0.3-0.9,0.6-1.3c0.2-1.9,0.4-3.8,0.5-5.7L84.5,0c-0.2,2.2-0.4,4.4-0.6,6.6C84,7.7,83.9,8.7,83.5,9.8z"/>
	<path fill="#441211" d="M133.2,138.3c-1.3-9.2-1.9-18.9-5.9-27.5c-0.1-0.2-0.2-0.4-0.4-0.5c-0.2-0.1-0.4-0.1-0.6-0.1
		c-0.7,0-1.4,0.1-2.1,0.1c-0.2,0.9-0.5,1.7-0.7,2.6c-0.3,1.1-5.2,3-5.8,3.1c-1.4,0.2-2.9,0.7-4.3,1.1c-1.2,0.4-2.5,0.8-3.8,1
		c-2.3,0.5-4.6,0.8-6.9,1.2c-3.1,0.5-6.4,1.1-9.5,1.8c-3.5,0.8-7.1,1.2-10.6,1.2c-1.7,0-3.3-0.1-4.9-0.3l-0.1,0l-0.1-0.1
		c-0.5-0.6-0.9-1.2-1.4-1.8c-1.4,0.4-2.8,0.9-4.1,1.4c-0.2,0.1-0.4,0.1-0.5,0.3c-0.1,0.2-0.1,0.4-0.2,0.5c-0.8,9.9,0.4,20.1,1,30.1
		c0.1,1.7-0.1,3.1-0.5,4.7c0.8,0,1.5-0.1,2.3-0.2l-0.2-0.1l0.2-0.3l0.5,0.3c0.2,0,0.5,0,0.7-0.1c0.5-0.1,1.1-0.1,1.6-0.2l0.8-1
		l0.3,0.2l-0.6,0.7c1-0.1,2.1-0.2,3.1-0.3l0.1-0.1l0.2,0.1c1-0.1,1.9-0.2,2.9-0.3l0.6-0.7l0.3,0.2l-0.4,0.5c1-0.1,1.9-0.2,2.9-0.3
		l0.1-0.1l0.2,0.1c0.9-0.1,1.8-0.2,2.7-0.3l0.8-1l0.3,0.2l-0.6,0.8c1.1-0.1,2.1-0.2,3.2-0.3l-0.2-0.1l0.2-0.3l0.6,0.3
		c0.7-0.1,1.4-0.1,2.1-0.2l0.9-1.3l0.3,0.2l-0.8,1c1.3-0.1,2.6-0.2,3.9-0.4l-0.7-0.3l0.1-0.3l1.2,0.5c0.4,0,0.8-0.1,1.3-0.1l1.2-1.7
		l0.3,0.2l-1,1.5c1.7-0.2,3.4-0.3,5.1-0.5l-1.6-0.7l0.1-0.3l1.6,0.8c0.2,0.1,0.3,0.1,0.4,0.1c0.1,0,0.2-0.2,0.3-0.3l1.3-1.9l0.3,0.2
		l-1.3,1.9c0,0.1-0.1,0.1-0.1,0.2c0.5,0,1-0.1,1.5-0.1c5.8-0.6,11.7-1.1,17.5-1.7c2.2-0.2,5.2-1.1,7.4-0.7
		C135.2,146.8,133.8,142.6,133.2,138.3z M126.4,125.9c0.1,0.1,0.3,0.2,0.4,0.1c0.1,0,0.2-0.1,0.3-0.3l1.5-1.7l0.3,0.2l-1.5,1.7
		c-0.1,0.1-0.3,0.3-0.5,0.4c0,0-0.1,0-0.1,0c-0.2,0-0.4-0.1-0.5-0.2l-1.5-0.9l0.2-0.3L126.4,125.9z M123.6,132.7L122,132l0.1-0.3
		l1.6,0.8c0.2,0.1,0.3,0.1,0.4,0.1c0.1,0,0.2-0.2,0.3-0.3l1.3-1.9l0.3,0.2l-1.3,1.9c-0.1,0.1-0.2,0.4-0.5,0.4c-0.1,0-0.1,0-0.2,0
		C123.9,132.9,123.7,132.8,123.6,132.7z M123.6,136.5l-1.3,1.9c-0.1,0.1-0.2,0.4-0.5,0.4c-0.1,0-0.1,0-0.2,0c-0.2,0-0.4-0.1-0.5-0.1
		l-1.6-0.8l0.1-0.3l1.6,0.8c0.2,0.1,0.3,0.1,0.4,0.1c0.1,0,0.2-0.2,0.3-0.3l1.3-1.9L123.6,136.5z M120.9,120.3l1.6,0.8
		c0.2,0.1,0.3,0.1,0.4,0.1c0.1,0,0.2-0.2,0.3-0.3l1.3-1.9l0.3,0.2l-1.3,1.9c-0.1,0.1-0.2,0.4-0.5,0.4c-0.1,0-0.1,0-0.2,0
		c-0.2,0-0.4-0.1-0.5-0.1l-1.6-0.8L120.9,120.3z M118.5,126.3l1.6,0.8c0.2,0.1,0.3,0.1,0.4,0.1c0.1,0,0.2-0.2,0.3-0.3l1.3-1.9
		l0.3,0.2l-1.3,1.9c-0.1,0.1-0.2,0.4-0.5,0.4c-0.1,0-0.1,0-0.2,0c-0.2,0-0.4-0.1-0.5-0.1l-1.6-0.8L118.5,126.3z M114.4,121.4
		l1.6,0.8c0.2,0.1,0.3,0.1,0.4,0.1c0.1,0,0.2-0.2,0.3-0.3l1.3-1.9l0.3,0.2l-1.3,1.9c-0.1,0.1-0.2,0.4-0.5,0.4c-0.1,0-0.1,0-0.2,0
		c-0.2,0-0.4-0.1-0.5-0.1l-1.6-0.8L114.4,121.4z M112.1,127.4l1.6,0.8c0.2,0.1,0.3,0.1,0.4,0.1c0.1,0,0.2-0.2,0.3-0.3l1.3-1.9
		l0.3,0.2l-1.3,1.9c-0.1,0.1-0.2,0.4-0.5,0.4c-0.1,0-0.1,0-0.2,0c-0.2,0-0.4-0.1-0.5-0.1l-1.6-0.8L112.1,127.4z M115.6,139.3
		l1.3-1.9l0.3,0.2l-1.3,1.9c-0.1,0.1-0.2,0.4-0.5,0.4c-0.1,0-0.1,0-0.2,0c-0.2,0-0.4-0.1-0.5-0.1l-1.6-0.8l0.1-0.3l1.6,0.8
		c0.2,0.1,0.3,0.1,0.4,0.1C115.4,139.6,115.5,139.5,115.6,139.3z M107.9,123.5l1.6,0.8c0.2,0.1,0.3,0.1,0.4,0.1
		c0.1,0,0.2-0.2,0.3-0.3l1.3-1.9l0.3,0.2l-1.3,1.9c-0.1,0.1-0.2,0.4-0.5,0.4c-0.1,0-0.1,0-0.2,0c-0.2,0-0.4-0.1-0.5-0.1l-1.6-0.8
		L107.9,123.5z M101.5,124.6l1.6,0.8c0.2,0.1,0.3,0.1,0.4,0.1c0.1,0,0.2-0.2,0.3-0.3l1.3-1.9l0.3,0.2l-1.3,1.9
		c-0.1,0.1-0.2,0.4-0.5,0.4c-0.1,0-0.1,0-0.2,0c-0.2,0-0.4-0.1-0.5-0.1l-1.6-0.8L101.5,124.6z M94.9,126.1l1.6,0.8
		c0.2,0.1,0.3,0.1,0.4,0.1c0.1,0,0.2-0.1,0.3-0.3l1.3-1.8l0.3,0.2l-1.3,1.8c-0.1,0.1-0.3,0.3-0.5,0.4c0,0-0.1,0-0.1,0
		c-0.2,0-0.4-0.1-0.5-0.2l-1.6-0.8L94.9,126.1z M88.4,127l1.6,0.8c0.2,0.1,0.3,0.1,0.4,0.1c0.1,0,0.2-0.1,0.3-0.3l1.3-1.8l0.3,0.2
		l-1.3,1.8c-0.1,0.1-0.3,0.3-0.5,0.4c0,0-0.1,0-0.1,0c-0.2,0-0.4-0.1-0.5-0.2l-1.6-0.8L88.4,127z M86,132.9l1.6,0.8
		c0.2,0.1,0.3,0.1,0.4,0.1c0.1,0,0.2-0.1,0.3-0.3l1.3-1.8l0.3,0.2l-1.3,1.8c-0.1,0.1-0.3,0.3-0.5,0.4c0,0-0.1,0-0.1,0
		c-0.2,0-0.4-0.1-0.5-0.2l-1.6-0.8L86,132.9z M81.9,127.6l1.5,0.9c0.1,0.1,0.3,0.2,0.4,0.1c0.1,0,0.2-0.1,0.3-0.3l1.5-1.7l0.3,0.2
		l-1.5,1.7c-0.1,0.1-0.3,0.3-0.5,0.4c0,0-0.1,0-0.1,0c-0.2,0-0.4-0.1-0.5-0.2l-1.5-0.9L81.9,127.6z M79.5,133.6l1.5,0.9
		c0.1,0.1,0.3,0.2,0.4,0.1c0.1,0,0.2-0.1,0.3-0.3l1.5-1.7l0.3,0.2l-1.5,1.7c-0.1,0.1-0.3,0.3-0.5,0.4c0,0-0.1,0-0.1,0
		c-0.2,0-0.4-0.1-0.5-0.2l-1.5-0.9L79.5,133.6z M75.3,128l1.5,0.9c0.1,0.1,0.3,0.2,0.4,0.1c0.1,0,0.2-0.1,0.3-0.3l1.5-1.7l0.3,0.2
		l-1.5,1.7c-0.1,0.1-0.3,0.3-0.5,0.4c0,0-0.1,0-0.1,0c-0.2,0-0.4-0.1-0.5-0.2l-1.5-0.9L75.3,128z M72.7,134.2l0.2-0.3l1.5,0.9
		c0.1,0.1,0.3,0.2,0.4,0.1c0.1,0,0.2-0.1,0.3-0.3l1.5-1.7l0.3,0.2l-1.5,1.7c-0.1,0.1-0.3,0.3-0.5,0.4c0,0-0.1,0-0.1,0
		c-0.2,0-0.4-0.1-0.5-0.2L72.7,134.2z M76,146.7c-0.2,0-0.4-0.1-0.5-0.2l-1.5-0.9l0.2-0.3l1.5,0.9c0.1,0.1,0.3,0.2,0.4,0.1
		c0.1,0,0.2-0.1,0.3-0.3l1.5-1.7l0.3,0.2l-1.5,1.7C76.5,146.5,76.3,146.7,76,146.7C76.1,146.7,76,146.7,76,146.7z M79,152.3
		c-0.1,0.1-0.3,0.3-0.5,0.4c0,0-0.1,0-0.1,0c-0.2,0-0.4-0.1-0.5-0.2l-1.5-0.9l0.2-0.3l1.5,0.9c0.1,0.1,0.3,0.2,0.4,0.1
		c0.1,0,0.2-0.1,0.3-0.3l1.5-1.7l0.3,0.2L79,152.3z M79,140.4c-0.1,0.1-0.3,0.3-0.5,0.4c0,0-0.1,0-0.1,0c-0.2,0-0.4-0.1-0.5-0.2
		l-1.5-0.9l0.2-0.3l1.5,0.9c0.1,0.1,0.3,0.2,0.4,0.1c0.1,0,0.2-0.1,0.3-0.3l1.5-1.7l0.3,0.2L79,140.4z M82.6,146.3
		c-0.2,0-0.4-0.1-0.5-0.2l-1.5-0.9l0.2-0.3l1.5,0.9c0.1,0.1,0.3,0.2,0.4,0.1c0.1,0,0.2-0.1,0.3-0.3l1.5-1.7l0.3,0.2l-1.5,1.7
		C83.1,146.1,82.9,146.3,82.6,146.3C82.6,146.3,82.6,146.3,82.6,146.3z M85.6,151.9c-0.1,0.1-0.3,0.3-0.5,0.4c0,0-0.1,0-0.1,0
		c-0.2,0-0.4-0.1-0.5-0.2l-1.5-0.9l0.2-0.3l1.5,0.9c0.1,0.1,0.3,0.2,0.4,0.1c0.1,0,0.2-0.1,0.3-0.3l1.5-1.7l0.3,0.2L85.6,151.9z
		 M85.6,140c-0.1,0.1-0.3,0.3-0.5,0.4c0,0-0.1,0-0.1,0c-0.2,0-0.4-0.1-0.5-0.2l-1.5-0.9l0.2-0.3l1.5,0.9c0.1,0.1,0.3,0.2,0.4,0.1
		c0.1,0,0.2-0.1,0.3-0.3l1.5-1.7l0.3,0.2L85.6,140z M89.2,145.6c-0.2,0-0.4-0.1-0.5-0.2l-1.6-0.8l0.2-0.3l1.6,0.8
		c0.2,0.1,0.3,0.1,0.4,0.1c0.1,0,0.2-0.1,0.3-0.3l1.3-1.8l0.3,0.2l-1.3,1.8c-0.1,0.1-0.3,0.3-0.5,0.4
		C89.3,145.6,89.2,145.6,89.2,145.6z M92.2,151.1c-0.1,0.1-0.3,0.3-0.5,0.4c0,0-0.1,0-0.1,0c-0.2,0-0.4-0.1-0.5-0.2l-1.6-0.8
		l0.2-0.3l1.6,0.8c0.2,0.1,0.3,0.1,0.4,0.1c0.1,0,0.2-0.1,0.3-0.3l1.3-1.8l0.3,0.2L92.2,151.1z M92.2,139.2
		c-0.1,0.1-0.3,0.3-0.5,0.4c0,0-0.1,0-0.1,0c-0.2,0-0.4-0.1-0.5-0.2l-1.6-0.8l0.2-0.3l1.6,0.8c0.2,0.1,0.3,0.1,0.4,0.1
		c0.1,0,0.2-0.1,0.3-0.3l1.3-1.8l0.3,0.2L92.2,139.2z M92.4,132.4l0.2-0.3l1.6,0.8c0.2,0.1,0.3,0.1,0.4,0.1c0.1,0,0.2-0.1,0.3-0.3
		l1.3-1.8l0.3,0.2l-1.3,1.8c-0.1,0.1-0.3,0.3-0.5,0.4c0,0-0.1,0-0.1,0c-0.2,0-0.4-0.1-0.5-0.2L92.4,132.4z M95.7,144.7
		c-0.2,0-0.4-0.1-0.5-0.2l-1.6-0.8l0.2-0.3l1.6,0.8c0.2,0.1,0.3,0.1,0.4,0.1c0.1,0,0.2-0.1,0.3-0.3l1.3-1.8l0.3,0.2l-1.3,1.8
		c-0.1,0.1-0.3,0.3-0.5,0.4C95.8,144.7,95.7,144.7,95.7,144.7z M98.7,150.3c-0.1,0.1-0.3,0.3-0.5,0.4c0,0-0.1,0-0.1,0
		c-0.2,0-0.4-0.1-0.5-0.2l-1.6-0.8l0.2-0.3l1.6,0.8c0.2,0.1,0.3,0.1,0.4,0.1c0.1,0,0.2-0.1,0.3-0.3l1.3-1.8l0.3,0.2L98.7,150.3z
		 M98.7,138.3c-0.1,0.1-0.3,0.3-0.5,0.4c0,0-0.1,0-0.1,0c-0.2,0-0.4-0.1-0.5-0.2l-1.6-0.8l0.2-0.3l1.6,0.8c0.2,0.1,0.3,0.1,0.4,0.1
		c0.1,0,0.2-0.1,0.3-0.3l1.3-1.8l0.3,0.2L98.7,138.3z M98.9,130.9l0.1-0.3l1.6,0.8c0.2,0.1,0.3,0.1,0.4,0.1c0.1,0,0.2-0.2,0.3-0.3
		l1.3-1.9l0.3,0.2l-1.3,1.9c-0.1,0.1-0.2,0.4-0.5,0.4c-0.1,0-0.1,0-0.2,0c-0.2,0-0.4-0.1-0.5-0.1L98.9,130.9z M102.2,143.1
		c-0.2,0-0.4-0.1-0.5-0.1l-1.6-0.8l0.1-0.3l1.6,0.8c0.2,0.1,0.3,0.1,0.4,0.1c0.1,0,0.2-0.2,0.3-0.3l1.3-1.9l0.3,0.2l-1.3,1.9
		c-0.1,0.1-0.2,0.4-0.5,0.4C102.3,143.1,102.3,143.1,102.2,143.1z M105.3,148.7c-0.1,0.1-0.2,0.4-0.5,0.4c-0.1,0-0.1,0-0.2,0
		c-0.2,0-0.4-0.1-0.5-0.1l-1.6-0.8l0.1-0.3l1.6,0.8c0.2,0.1,0.3,0.1,0.4,0.1c0.1,0,0.2-0.2,0.3-0.3l1.3-1.9l0.3,0.2L105.3,148.7z
		 M105.3,136.7c-0.1,0.1-0.2,0.4-0.5,0.4c-0.1,0-0.1,0-0.2,0c-0.2,0-0.4-0.1-0.5-0.1l-1.6-0.8l0.1-0.3l1.6,0.8
		c0.2,0.1,0.3,0.1,0.4,0.1c0.1,0,0.2-0.2,0.3-0.3l1.3-1.9l0.3,0.2L105.3,136.7z M105.4,129.8l0.1-0.3l1.6,0.8
		c0.2,0.1,0.3,0.1,0.4,0.1c0.1,0,0.2-0.2,0.3-0.3l1.3-1.9l0.3,0.2l-1.3,1.9c-0.1,0.1-0.2,0.4-0.5,0.4c-0.1,0-0.1,0-0.2,0
		c-0.2,0-0.4-0.1-0.5-0.1L105.4,129.8z M108.9,142c-0.1,0-0.1,0-0.2,0c-0.2,0-0.4-0.1-0.5-0.1l-1.6-0.8l0.1-0.3l1.6,0.8
		c0.2,0.1,0.3,0.1,0.4,0.1c0.1,0,0.2-0.2,0.3-0.3l1.3-1.9l0.3,0.2l-1.3,1.9C109.3,141.7,109.1,141.9,108.9,142z M111.7,147.5
		c-0.1,0.1-0.2,0.4-0.5,0.4c-0.1,0-0.1,0-0.2,0c-0.2,0-0.4-0.1-0.5-0.1l-1.6-0.8l0.1-0.3l1.6,0.8c0.2,0.1,0.3,0.1,0.4,0.1
		c0.1,0,0.2-0.2,0.3-0.3l1.3-1.9l0.3,0.2L111.7,147.5z M111.7,135.6c-0.1,0.1-0.2,0.4-0.5,0.4c-0.1,0-0.1,0-0.2,0
		c-0.2,0-0.4-0.1-0.5-0.1l-1.6-0.8l0.1-0.3l1.6,0.8c0.2,0.1,0.3,0.1,0.4,0.1c0.1,0,0.2-0.2,0.3-0.3l1.3-1.9l0.3,0.2L111.7,135.6z
		 M115.9,151.5c-0.1,0.1-0.2,0.4-0.5,0.4c-0.1,0-0.1,0-0.2,0c-0.2,0-0.4-0.1-0.5-0.1l-1.6-0.8l0.1-0.3l1.6,0.8
		c0.2,0.1,0.3,0.1,0.4,0.1c0.1,0,0.2-0.2,0.3-0.3l1.3-1.9l0.3,0.2L115.9,151.5z M118.2,145.5c-0.1,0.1-0.2,0.4-0.5,0.4
		c-0.1,0-0.1,0-0.2,0c-0.2,0-0.4-0.1-0.5-0.1l-1.6-0.8l0.1-0.3l1.6,0.8c0.2,0.1,0.3,0.1,0.4,0.1c0.1,0,0.2-0.2,0.3-0.3l1.3-1.9
		l0.3,0.2L118.2,145.5z M118.2,133.5c-0.1,0.1-0.2,0.4-0.5,0.4c-0.1,0-0.1,0-0.2,0c-0.2,0-0.4-0.1-0.5-0.1l-1.6-0.8l0.1-0.3l1.6,0.8
		c0.2,0.1,0.3,0.1,0.4,0.1c0.1,0,0.2-0.2,0.3-0.3l1.3-1.9l0.3,0.2L118.2,133.5z M122.3,150.3c-0.1,0.1-0.2,0.4-0.5,0.4
		c-0.1,0-0.1,0-0.2,0c-0.2,0-0.4-0.1-0.5-0.1l-1.6-0.8l0.1-0.3l1.6,0.8c0.2,0.1,0.3,0.1,0.4,0.1c0.1,0,0.2-0.2,0.3-0.3l1.3-1.9
		l0.3,0.2L122.3,150.3z M124.2,144.8c-0.1,0-0.1,0-0.2,0c-0.2,0-0.4-0.1-0.5-0.1l-1.6-0.8l0.1-0.3l1.6,0.8c0.2,0.1,0.3,0.1,0.4,0.1
		c0.1,0,0.2-0.2,0.3-0.3l1.3-1.9l0.3,0.2l-1.3,1.9C124.6,144.5,124.5,144.7,124.2,144.8z M128.6,149.3c-0.1,0.1-0.3,0.3-0.5,0.4
		c0,0-0.1,0-0.1,0c-0.2,0-0.4-0.1-0.5-0.2l-1.5-0.9l0.2-0.3l1.5,0.9c0.1,0.1,0.3,0.2,0.4,0.1c0.1,0,0.2-0.1,0.3-0.3l1.5-1.7l0.3,0.2
		L128.6,149.3z M128.6,137.4c-0.1,0.1-0.3,0.3-0.5,0.4c0,0-0.1,0-0.1,0c-0.2,0-0.4-0.1-0.5-0.2l-1.5-0.9l0.2-0.3l1.5,0.9
		c0.1,0.1,0.3,0.2,0.4,0.1c0.1,0,0.2-0.1,0.3-0.3l1.5-1.7l0.3,0.2L128.6,137.4z"/>
	<path fill="#ECC2C0" d="M45.7,87.3c0.1,0.1,0.3,0.1,0.3,0.1l0.3,0.6c-0.1,0-0.2,0.1-0.3,0.1l10.3,12.1c0.4,0,0.8,0.1,1,0.3
		c6.4,5.6,13.7,12.1,19.5,19.4l46.7-9.6c4.5-16.6,4.1-36.3-1-53.1c-5.8-19-17.3-36.9-33.3-51.7c-0.7-0.7-1.7-0.9-2.6-0.6
		c-0.9,0.3-1.7,1.2-1.9,2.1c-0.5,3.4-0.8,6.7-0.3,9.9c0.7,4.3,3.2,8.3,5.7,12.1c2.8,4.4,5.7,9,5.9,14.2c0.1,2-0.3,3.8-1.1,5.2
		c-1.1,2.1-3.2,3.6-5.8,4.3c-2.4,0.6-5.1,0.4-7.5-0.5c-4.7-1.9-8-6.1-10.7-9.9c-2.3-3.3-4.8-8.3-5.7-10.3c-0.5-1.1-3-6.3-2.8-7
		c0-0.1,0.1-0.2,0.2-0.2c5.7-2.2,10.8-5.4,15.3-9.5c0.3-0.3,0.7-0.6,1.1-0.9c1.3-1.1,2.7-2.3,3.4-3.6c1-1.9,1.2-4,0.5-5.6
		c-0.4-0.9-1.8-1.8-2.8-2c-0.7-0.1-1.4,0.1-2.1,0.3c-5.4,1.6-10.9,3.2-15.7,6.2c-2.7,1.7-5.2,3.1-8,4.5c-0.6,0.3-1.1,0.5-1.6,0.8
		c-2.1,0.9-3.6,1.6-5.1,3.6c-1.8,2.3-1.5,4.8-1.2,7.8c0.3,2.1,0.5,4.3,0.9,6.5c0.2,1.1,0.5,2.3,0.7,3.4c0.9,4,1.7,8.2,1.1,12.2
		l-0.2,1.1l-0.5-1c-1.6-3.6-4.8-6.2-7.9-8.7c-3.4-2.7-6.9-5.6-8.4-9.7c-0.3-0.9-0.5-1.9-0.6-2.8c-0.1-0.7-0.2-1.4-0.4-2.1
		c-0.4-1.6-1-3.2-1.7-4.7c-1.2-2.6-2.8-5.4-5-8.7c-4.8-7-7.9-7.9-10.4-7.8c-0.2,0-0.4,0-0.6,0.1c-0.2,0.2-0.2,0.6,0,1.2
		c2.1,5.9,2.9,12.2,3.8,18.3c0.4,3,0.7,6.1,1,9.1l0.2,1.5c0.1,0.6,0.1,1.3,0.1,2c0.1,2.5,0.3,5.2,1.8,7c5.8,7,12.2,13.3,19.1,18.8
		l1,0.8l0.3,0.2L45.7,87.3z"/>
	<path fill="#ECC2C0" d="M77.9,121.4c4.7,0.6,10.1,0.2,15.1-0.9c3.2-0.7,6.4-1.3,9.6-1.8c2.2-0.4,4.6-0.8,6.9-1.2
		c1.2-0.2,2.5-0.6,3.8-1c1.4-0.4,2.9-0.9,4.4-1.1c0.9-0.2,5-2.1,5.2-2.7c0.2-0.7,0.4-1.5,0.6-2.2L76.8,120
		C77.2,120.5,77.6,121,77.9,121.4z"/>
	<path fill="#441211" d="M45.8,87.7l0,0.2c0.1-0.1,0.2-0.1,0.3-0.2C46,87.8,45.9,87.7,45.8,87.7z"/>
	<path fill="#441211" d="M86.5,4.8c1-0.3,2.1,0,2.9,0.7c15.2,14.2,27.3,31.9,33.4,51.8c5.1,16.6,5.6,36.2,1.1,53.1l0.2,0
		c0.1,0,0.1,0,0.2,0c4.4-16.7,4-36.3-1.1-53.1c-5.9-19.1-17.4-37.1-33.5-52c-0.9-0.8-2.1-1.1-3.2-0.8c-0.7,0.2-1.3,0.7-1.7,1.3
		c0,0.3-0.1,0.5-0.1,0.8C84.9,5.8,85.6,5.1,86.5,4.8z"/>
	<path fill="#441211" d="M76.4,120.1c-5.6-7-12.7-13.4-19.4-19.2c-0.1-0.1-0.3-0.2-0.5-0.2l0.2,0.2l0,0.2c0,0,0.1,0,0.1,0
		c6.3,5.5,13.5,11.9,19.2,19.1c0.1,0,0.2-0.1,0.2-0.1L76.4,120.1z"/>
	<path fill="#441211" d="M20.1,43.3c-2-2.5-1.8-6.1-2.1-9.2c-0.3-3.5-0.7-7.1-1.1-10.6c-0.8-6.1-1.7-12.3-3.7-18.2
		c-0.2-0.5-0.3-1.2,0.1-1.6c0.2-0.2,0.5-0.2,0.8-0.2c4.6-0.1,8,4.1,10.6,7.9c1.9,2.8,3.7,5.7,5,8.7c0.7,1.5,1.3,3.1,1.7,4.8
		c0.4,1.6,0.5,3.4,1.1,5c2.7,7.8,12.9,10.8,16.3,18.4c0.8-5.2-0.9-10.4-1.8-15.5c-0.4-2.1-0.7-4.3-0.9-6.5c-0.4-3-0.6-5.6,1.3-8
		c2-2.5,4-3,6.9-4.5c2.9-1.4,5.3-2.8,8-4.5C67,6.4,72.5,4.8,78,3.1c0.7-0.2,1.5-0.4,2.2-0.3c1.1,0.2,2.6,1.2,3,2.2
		C84,7,83.6,9.2,82.7,11c-0.9,1.8-3,3.3-4.5,4.7c-4.5,4.1-9.8,7.3-15.4,9.5c-0.4,0.2,4.8,11.7,8.5,17.1c2.8,4,6,8,10.5,9.8
		c4.5,1.8,10.5,0.7,12.8-3.6c0.8-1.5,1.1-3.3,1-5c-0.3-9.6-9.9-16.8-11.5-26.3c-0.3-1.7-0.3-3.4-0.2-5.1c-0.1,0.8-0.2,1.7-0.4,2.5
		c0,0.9,0.1,1.8,0.3,2.7c0.8,4.5,3.3,8.5,5.7,12.3c2.9,4.6,5.6,8.9,5.8,13.9c0.1,1.9-0.3,3.5-1,4.9c-1.8,3.4-7,5.6-12.4,3.5
		c-4.5-1.8-7.8-5.9-10.4-9.7c-3.6-5.2-8.1-15.1-8.5-16.7c5.7-2.2,10.8-5.4,15.3-9.5c0.3-0.3,0.7-0.6,1.1-0.9
		c1.3-1.1,2.8-2.4,3.5-3.8c0.2-0.4,0.4-0.9,0.5-1.3c0.1-1.1,0.3-2.1,0.4-3.1c-0.1-0.6-0.2-1.2-0.4-1.7c-0.5-1.2-2.1-2.2-3.2-2.4
		c-0.8-0.2-1.7,0.1-2.4,0.3c-5.4,1.6-11,3.3-15.9,6.3c-2.7,1.7-5.1,3.1-8,4.5c-0.6,0.3-1.1,0.5-1.6,0.7c-2.1,0.9-3.7,1.7-5.4,3.8
		c-2,2.6-1.7,5.3-1.3,8.2c0.3,2.1,0.5,4.3,0.9,6.5c0.2,1.1,0.5,2.3,0.7,3.4c0.8,3.6,1.5,7.3,1.2,10.9c-1.8-3.2-4.7-5.6-7.6-7.9
		c-3.5-2.8-6.8-5.5-8.2-9.4c-0.3-0.9-0.5-1.8-0.6-2.7c-0.1-0.7-0.3-1.5-0.5-2.2c-0.4-1.6-1-3.2-1.7-4.8c-1.2-2.7-2.8-5.5-5-8.8
		C22.1,7.2,18.6,3.1,14,3.2c-0.3,0-0.7,0-1,0.3c-0.7,0.6-0.3,1.6-0.2,1.9c2.1,5.8,2.9,12.1,3.7,18.1c0.4,3,0.7,6.1,1,9l0.2,1.5
		c0.1,0.6,0.1,1.3,0.1,1.9c0.2,2.6,0.3,5.4,2,7.4C25.1,49.9,31,55.8,37.3,61l1.5,0.8C32,56.3,25.7,50.1,20.1,43.3z"/>
	<path fill="#441211" d="M83.9,6.6c-0.1,1-0.2,2.1-0.4,3.1C83.9,8.7,84,7.7,83.9,6.6z"/>
	<path fill="#441211" d="M83.5,14.5c0.1-0.9,0.2-1.7,0.4-2.5c0.1-1.6,0.3-3.3,0.5-4.9c0-0.2,0.1-0.4,0.2-0.6c0-0.3,0.1-0.5,0.1-0.8
		c-0.3,0.4-0.5,0.9-0.6,1.3C83.7,9.6,83.4,12.1,83.5,14.5z"/>
	<path fill="#441211" d="M77.6,122.1l0.1,0c1.6,0.2,3.2,0.3,4.9,0.3c3.5,0,7.1-0.4,10.6-1.2c3.2-0.7,6.4-1.3,9.5-1.8
		c2.3-0.4,4.6-0.8,6.9-1.2c1.3-0.3,2.6-0.6,3.8-1c1.4-0.4,2.9-0.9,4.3-1.1c0.6-0.1,5.4-2,5.8-3.1c0.3-0.8,0.5-1.7,0.7-2.6
		c-0.1,0-0.1,0-0.2,0l-0.2,0c-0.2,0.8-0.4,1.6-0.7,2.4c-0.2,0.8-4.8,2.8-5.5,2.9c-2.7,0.5-5.4,1.6-8.1,2.1c-5.5,1.1-11,1.7-16.4,3
		c-4.9,1.1-10.3,1.6-15.3,0.9c-0.4-0.6-0.9-1.1-1.3-1.7l-0.1,0c-0.1,0-0.2,0.1-0.2,0.1c0.5,0.6,1,1.2,1.4,1.8L77.6,122.1z"/>
	<path fill="#441211" d="M46,88.1c0.1,0,0.2-0.1,0.3-0.1L46,87.4c-0.1,0-0.2,0-0.3-0.1l0.1,0.4c0.2,0.1,0.3,0.1,0.4,0
		c-0.1,0.1-0.2,0.1-0.3,0.2l0,0L46,88.1z"/>
	<path fill="#441211" d="M122.8,57.3c-6.1-19.9-18.1-37.7-33.4-51.8c-0.8-0.7-1.9-1-2.9-0.7c-0.9,0.3-1.6,1-1.9,1.8
		c-0.2,1.8-0.4,3.6-0.7,5.4c-0.1,1.7-0.1,3.4,0.2,5.1c1.6,9.4,11.3,16.7,11.5,26.3c0,1.7-0.2,3.5-1,5c-2.3,4.3-8.3,5.4-12.8,3.6
		c-4.5-1.8-7.8-5.8-10.5-9.8c-3.8-5.4-9-16.9-8.5-17.1c5.7-2.2,10.9-5.5,15.4-9.5c1.5-1.4,3.6-2.9,4.5-4.7c0.9-1.8,1.3-4,0.5-5.9
		c-0.4-1-1.9-2-3-2.2c-0.7-0.1-1.5,0.1-2.2,0.3c-5.5,1.6-11,3.3-15.8,6.3c-2.7,1.7-5.1,3.1-8,4.5c-2.9,1.4-4.9,1.9-6.9,4.5
		c-1.9,2.4-1.6,5-1.3,8c0.3,2.2,0.5,4.3,0.9,6.5c0.9,5.1,2.6,10.4,1.8,15.5C45.4,40.8,35.1,37.8,32.4,30c-0.5-1.6-0.6-3.3-1.1-5
		c-0.4-1.6-1-3.2-1.7-4.8c-1.4-3.1-3.1-6-5-8.7C22,7.7,18.6,3.4,14,3.6c-0.3,0-0.6,0-0.8,0.2c-0.4,0.4-0.3,1-0.1,1.6
		c2.1,5.9,2.9,12.1,3.7,18.2c0.5,3.5,0.8,7,1.1,10.6c0.3,3.1,0,6.7,2.1,9.2c5.6,6.8,11.9,13,18.8,18.5l1.6,0.9l-1-0.8
		c-6.9-5.5-13.3-11.8-19.1-18.8c-1.5-1.9-1.7-4.5-1.8-7c0-0.7-0.1-1.3-0.1-2l-0.2-1.5c-0.3-3-0.6-6-1-9.1
		c-0.8-6.1-1.7-12.4-3.8-18.3c-0.2-0.6-0.2-1,0-1.2c0.1-0.1,0.4-0.1,0.6-0.1c2.4-0.1,5.6,0.8,10.4,7.8c2.2,3.3,3.8,6,5,8.7
		c0.7,1.6,1.3,3.2,1.7,4.7c0.2,0.7,0.3,1.4,0.4,2.1c0.2,0.9,0.3,1.9,0.6,2.8c1.4,4.2,5,7,8.4,9.7c3.1,2.5,6.3,5.1,7.9,8.7l0.5,1
		l0.2-1.1c0.6-4.1-0.3-8.2-1.1-12.2c-0.2-1.1-0.5-2.3-0.7-3.4c-0.4-2.1-0.7-4.3-0.9-6.5c-0.3-2.9-0.6-5.4,1.2-7.8
		c1.5-2,3.1-2.7,5.1-3.6c0.5-0.2,1-0.5,1.6-0.8c2.9-1.4,5.3-2.8,8-4.5c4.8-3,10.4-4.7,15.7-6.2c0.7-0.2,1.4-0.4,2.1-0.3
		c1,0.2,2.4,1.1,2.8,2c0.7,1.7,0.5,3.7-0.5,5.6c-0.7,1.4-2.1,2.6-3.4,3.6c-0.4,0.3-0.8,0.6-1.1,0.9c-4.5,4.1-9.7,7.3-15.3,9.5
		c-0.1,0-0.2,0.1-0.2,0.2c-0.2,0.7,2.3,6,2.8,7c1,2,3.5,7,5.7,10.3c2.7,3.8,6,8,10.7,9.9c2.3,0.9,5,1.1,7.5,0.5
		c2.6-0.7,4.7-2.2,5.8-4.3c0.8-1.4,1.1-3.2,1.1-5.2c-0.1-5.2-3.1-9.8-5.9-14.2c-2.4-3.8-4.9-7.8-5.7-12.1c-0.6-3.2-0.2-6.5,0.3-9.9
		c0.1-0.9,0.9-1.8,1.9-2.1c0.8-0.3,1.8,0,2.6,0.6c16,14.8,27.5,32.7,33.3,51.7c5.1,16.8,5.5,36.4,1,53.1l0.4-0.1
		C128.4,93.5,127.9,73.9,122.8,57.3z"/>
	<path fill="#441211" d="M57.3,100.6c-0.2-0.2-0.6-0.3-1-0.3l0.3,0.4c0.2,0,0.4,0.1,0.5,0.2c6.7,5.8,13.8,12.2,19.4,19.2l0.4-0.1
		C71,112.7,63.7,106.2,57.3,100.6z"/>
	<path fill="#441211" d="M84.4,7.1c-0.2,1.6-0.4,3.2-0.5,4.9c0.3-1.9,0.5-3.7,0.7-5.4C84.5,6.8,84.4,7,84.4,7.1z"/>
	<path fill="#441211" d="M122.9,112.7c-0.2,0.6-4.4,2.5-5.2,2.7c-1.5,0.3-3,0.7-4.4,1.1c-1.2,0.4-2.5,0.7-3.8,1
		c-2.3,0.5-4.6,0.8-6.9,1.2c-3.1,0.5-6.4,1.1-9.6,1.8c-5,1.2-10.4,1.5-15.1,0.9c-0.4-0.5-0.8-1-1.1-1.4l-0.4,0.1
		c0.4,0.6,0.9,1.1,1.3,1.7c5.1,0.6,10.5,0.2,15.3-0.9c5.5-1.3,10.9-1.9,16.4-3c2.7-0.5,5.4-1.7,8.1-2.1c0.7-0.1,5.3-2.1,5.5-2.9
		c0.2-0.8,0.5-1.6,0.7-2.4l-0.4,0.1C123.3,111.2,123.1,112,122.9,112.7z"/>
	<path fill="#EDC2C0" d="M77.2,129.4C77.2,129.4,77.3,129.4,77.2,129.4c0.3,0,0.5-0.2,0.6-0.4l1.5-1.7l-0.3-0.2l-1.5,1.7
		c-0.1,0.1-0.2,0.2-0.3,0.3c-0.1,0-0.3-0.1-0.4-0.1l-1.5-0.9l-0.2,0.3l1.5,0.9C76.8,129.3,77,129.4,77.2,129.4z"/>
	<path fill="#EDC2C0" d="M83.8,129C83.8,129,83.8,129,83.8,129c0.3,0,0.5-0.2,0.6-0.4l1.5-1.7l-0.3-0.2l-1.5,1.7
		c-0.1,0.1-0.2,0.2-0.3,0.3c-0.1,0-0.3-0.1-0.4-0.1l-1.5-0.9l-0.2,0.3l1.5,0.9C83.3,128.9,83.5,129,83.8,129z"/>
	<path fill="#EDC2C0" d="M90.4,128.2c0,0,0.1,0,0.1,0c0.2-0.1,0.4-0.3,0.5-0.4l1.3-1.8l-0.3-0.2l-1.3,1.8c-0.1,0.1-0.2,0.3-0.3,0.3
		c-0.1,0-0.3,0-0.4-0.1l-1.6-0.8l-0.2,0.3l1.6,0.8C90,128.2,90.2,128.2,90.4,128.2z"/>
	<path fill="#EDC2C0" d="M96.9,127.4c0,0,0.1,0,0.1,0c0.2-0.1,0.4-0.3,0.5-0.4l1.3-1.8l-0.3-0.2l-1.3,1.8c-0.1,0.1-0.2,0.3-0.3,0.3
		c-0.1,0-0.3,0-0.4-0.1l-1.6-0.8l-0.2,0.3l1.6,0.8C96.5,127.3,96.7,127.4,96.9,127.4z"/>
	<path fill="#EDC2C0" d="M103.4,125.8c0.1,0,0.1,0,0.2,0c0.2-0.1,0.4-0.3,0.5-0.4l1.3-1.9l-0.3-0.2l-1.3,1.9
		c-0.1,0.1-0.2,0.3-0.3,0.3c-0.1,0-0.3,0-0.4-0.1l-1.6-0.8l-0.1,0.3l1.6,0.8C103.1,125.7,103.2,125.8,103.4,125.8z"/>
	<path fill="#EDC2C0" d="M109.9,124.7c0.1,0,0.1,0,0.2,0c0.2-0.1,0.4-0.3,0.5-0.4l1.3-1.9l-0.3-0.2l-1.3,1.9
		c-0.1,0.1-0.2,0.3-0.3,0.3c-0.1,0-0.3,0-0.4-0.1l-1.6-0.8l-0.1,0.3l1.6,0.8C109.5,124.6,109.7,124.7,109.9,124.7z"/>
	<path fill="#EDC2C0" d="M116.4,122.6c0.1,0,0.1,0,0.2,0c0.2-0.1,0.4-0.3,0.5-0.4l1.3-1.9l-0.3-0.2l-1.3,1.9
		c-0.1,0.1-0.2,0.3-0.3,0.3c-0.1,0-0.3,0-0.4-0.1l-1.6-0.8l-0.1,0.3l1.6,0.8C116,122.6,116.2,122.6,116.4,122.6z"/>
	<path fill="#EDC2C0" d="M122.9,121.5c0.1,0,0.1,0,0.2,0c0.2-0.1,0.4-0.3,0.5-0.4l1.3-1.9l-0.3-0.2l-1.3,1.9
		c-0.1,0.1-0.2,0.3-0.3,0.3c-0.1,0-0.3,0-0.4-0.1l-1.6-0.8l-0.1,0.3l1.6,0.8C122.5,121.4,122.7,121.5,122.9,121.5z"/>
	<path fill="#EDC2C0" d="M74.8,135.4C74.8,135.4,74.9,135.4,74.8,135.4c0.3,0,0.5-0.2,0.6-0.4l1.5-1.7l-0.3-0.2l-1.5,1.7
		c-0.1,0.1-0.2,0.2-0.3,0.3c-0.1,0-0.3-0.1-0.4-0.1l-1.5-0.9l-0.2,0.3l1.5,0.9C74.4,135.3,74.6,135.4,74.8,135.4z"/>
	<path fill="#EDC2C0" d="M126.3,126.2c0.1,0.1,0.3,0.2,0.5,0.2c0,0,0.1,0,0.1,0c0.2,0,0.4-0.2,0.5-0.4l1.5-1.7l-0.3-0.2l-1.5,1.7
		c-0.1,0.1-0.2,0.2-0.3,0.3c-0.1,0-0.3-0.1-0.4-0.1l-1.5-0.9l-0.2,0.3L126.3,126.2z"/>
	<path fill="#EDC2C0" d="M81.4,135C81.4,135,81.4,135,81.4,135c0.3,0,0.5-0.2,0.6-0.4l1.5-1.7l-0.3-0.2l-1.5,1.7
		c-0.1,0.1-0.2,0.2-0.3,0.3c-0.1,0-0.3-0.1-0.4-0.1l-1.5-0.9l-0.2,0.3l1.5,0.9C81,134.9,81.1,135,81.4,135z"/>
	<path fill="#EDC2C0" d="M88,134.2c0,0,0.1,0,0.1,0c0.2-0.1,0.4-0.3,0.5-0.4l1.3-1.8l-0.3-0.2l-1.3,1.8c-0.1,0.1-0.2,0.3-0.3,0.3
		c-0.1,0-0.3,0-0.4-0.1l-1.6-0.8l-0.2,0.3l1.6,0.8C87.6,134.1,87.8,134.2,88,134.2z"/>
	<path fill="#EDC2C0" d="M94.5,133.4c0,0,0.1,0,0.1,0c0.2-0.1,0.4-0.3,0.5-0.4l1.3-1.8l-0.3-0.2l-1.3,1.8c-0.1,0.1-0.2,0.3-0.3,0.3
		c-0.1,0-0.3,0-0.4-0.1l-1.6-0.8l-0.2,0.3l1.6,0.8C94.1,133.3,94.3,133.4,94.5,133.4z"/>
	<path fill="#EDC2C0" d="M101,131.8c0.1,0,0.1,0,0.2,0c0.2-0.1,0.4-0.3,0.5-0.4l1.3-1.9l-0.3-0.2l-1.3,1.9c-0.1,0.1-0.2,0.3-0.3,0.3
		c-0.1,0-0.3,0-0.4-0.1l-1.6-0.8l-0.1,0.3l1.6,0.8C100.7,131.7,100.8,131.8,101,131.8z"/>
	<path fill="#EDC2C0" d="M107.5,130.6c0.1,0,0.1,0,0.2,0c0.2-0.1,0.4-0.3,0.5-0.4l1.3-1.9l-0.3-0.2l-1.3,1.9
		c-0.1,0.1-0.2,0.3-0.3,0.3c-0.1,0-0.3,0-0.4-0.1l-1.6-0.8l-0.1,0.3l1.6,0.8C107.1,130.6,107.3,130.6,107.5,130.6z"/>
	<path fill="#EDC2C0" d="M114,128.6c0.1,0,0.1,0,0.2,0c0.2-0.1,0.4-0.3,0.5-0.4l1.3-1.9l-0.3-0.2l-1.3,1.9c-0.1,0.1-0.2,0.3-0.3,0.3
		c-0.1,0-0.3,0-0.4-0.1l-1.6-0.8l-0.1,0.3l1.6,0.8C113.7,128.5,113.8,128.6,114,128.6z"/>
	<path fill="#EDC2C0" d="M120.5,127.5c0.1,0,0.1,0,0.2,0c0.2-0.1,0.4-0.3,0.5-0.4l1.3-1.9l-0.3-0.2l-1.3,1.9
		c-0.1,0.1-0.2,0.3-0.3,0.3c-0.1,0-0.3,0-0.4-0.1l-1.6-0.8l-0.1,0.3l1.6,0.8C120.1,127.4,120.3,127.5,120.5,127.5z"/>
	<path fill="#EDC2C0" d="M78.8,140.2c-0.1,0.1-0.2,0.2-0.3,0.3c-0.1,0-0.3-0.1-0.4-0.1l-1.5-0.9l-0.2,0.3l1.5,0.9
		c0.1,0.1,0.3,0.2,0.5,0.2c0,0,0.1,0,0.1,0c0.2,0,0.4-0.2,0.5-0.4l1.5-1.7l-0.3-0.2L78.8,140.2z"/>
	<path fill="#EDC2C0" d="M85.3,139.8c-0.1,0.1-0.2,0.2-0.3,0.3c-0.1,0-0.3-0.1-0.4-0.1l-1.5-0.9l-0.2,0.3l1.5,0.9
		c0.1,0.1,0.3,0.2,0.5,0.2c0,0,0.1,0,0.1,0c0.2,0,0.4-0.2,0.5-0.4l1.5-1.7l-0.3-0.2L85.3,139.8z"/>
	<path fill="#EDC2C0" d="M91.9,139c-0.1,0.1-0.2,0.3-0.3,0.3c-0.1,0-0.3,0-0.4-0.1l-1.6-0.8l-0.2,0.3l1.6,0.8
		c0.1,0.1,0.3,0.2,0.5,0.2c0,0,0.1,0,0.1,0c0.2-0.1,0.4-0.3,0.5-0.4l1.3-1.8l-0.3-0.2L91.9,139z"/>
	<path fill="#EDC2C0" d="M98.4,138.1c-0.1,0.1-0.2,0.3-0.3,0.3c-0.1,0-0.3,0-0.4-0.1l-1.6-0.8l-0.2,0.3l1.6,0.8
		c0.1,0.1,0.3,0.2,0.5,0.2c0,0,0.1,0,0.1,0c0.2-0.1,0.4-0.3,0.5-0.4l1.3-1.8l-0.3-0.2L98.4,138.1z"/>
	<path fill="#EDC2C0" d="M105,136.5c-0.1,0.1-0.2,0.3-0.3,0.3c-0.1,0-0.3,0-0.4-0.1l-1.6-0.8l-0.1,0.3l1.6,0.8
		c0.1,0.1,0.3,0.1,0.5,0.1c0.1,0,0.1,0,0.2,0c0.2-0.1,0.4-0.3,0.5-0.4l1.3-1.9l-0.3-0.2L105,136.5z"/>
	<path fill="#EDC2C0" d="M111.5,135.4c-0.1,0.1-0.2,0.3-0.3,0.3c-0.1,0-0.3,0-0.4-0.1l-1.6-0.8l-0.1,0.3l1.6,0.8
		c0.1,0.1,0.3,0.1,0.5,0.1c0.1,0,0.1,0,0.2,0c0.2-0.1,0.4-0.3,0.5-0.4l1.3-1.9l-0.3-0.2L111.5,135.4z"/>
	<path fill="#EDC2C0" d="M118,133.4c-0.1,0.1-0.2,0.3-0.3,0.3c-0.1,0-0.3,0-0.4-0.1l-1.6-0.8l-0.1,0.3l1.6,0.8
		c0.1,0.1,0.3,0.1,0.5,0.1c0.1,0,0.1,0,0.2,0c0.2-0.1,0.4-0.3,0.5-0.4l1.3-1.9l-0.3-0.2L118,133.4z"/>
	<path fill="#EDC2C0" d="M124.2,132.8c0.2-0.1,0.4-0.3,0.5-0.4l1.3-1.9l-0.3-0.2l-1.3,1.9c-0.1,0.1-0.2,0.3-0.3,0.3
		c-0.1,0-0.3,0-0.4-0.1l-1.6-0.8L122,132l1.6,0.8c0.1,0.1,0.3,0.1,0.5,0.1C124.1,132.9,124.2,132.9,124.2,132.8z"/>
	<path fill="#EDC2C0" d="M76.6,146.3l1.5-1.7l-0.3-0.2l-1.5,1.7c-0.1,0.1-0.2,0.2-0.3,0.3c-0.1,0-0.3-0.1-0.4-0.1l-1.5-0.9l-0.2,0.3
		l1.5,0.9c0.1,0.1,0.3,0.2,0.5,0.2c0,0,0.1,0,0.1,0C76.3,146.7,76.5,146.5,76.6,146.3z"/>
	<path fill="#EDC2C0" d="M128.4,137.2c-0.1,0.1-0.2,0.2-0.3,0.3c-0.1,0-0.3-0.1-0.4-0.1l-1.5-0.9l-0.2,0.3l1.5,0.9
		c0.1,0.1,0.3,0.2,0.5,0.2c0,0,0.1,0,0.1,0c0.2,0,0.4-0.2,0.5-0.4l1.5-1.7l-0.3-0.2L128.4,137.2z"/>
	<path fill="#EDC2C0" d="M83.2,146l1.5-1.7l-0.3-0.2l-1.5,1.7c-0.1,0.1-0.2,0.2-0.3,0.3c-0.1,0-0.3-0.1-0.4-0.1l-1.5-0.9l-0.2,0.3
		l1.5,0.9c0.1,0.1,0.3,0.2,0.5,0.2c0,0,0.1,0,0.1,0C82.9,146.3,83.1,146.1,83.2,146z"/>
	<path fill="#EDC2C0" d="M89.8,145.2l1.3-1.8l-0.3-0.2l-1.3,1.8c-0.1,0.1-0.2,0.3-0.3,0.3c-0.1,0-0.3,0-0.4-0.1l-1.6-0.8l-0.2,0.3
		l1.6,0.8c0.1,0.1,0.3,0.2,0.5,0.2c0,0,0.1,0,0.1,0C89.5,145.5,89.7,145.3,89.8,145.2z"/>
	<path fill="#EDC2C0" d="M96.3,144.3l1.3-1.8l-0.3-0.2l-1.3,1.8c-0.1,0.1-0.2,0.3-0.3,0.3c-0.1,0-0.3,0-0.4-0.1l-1.6-0.8l-0.2,0.3
		l1.6,0.8c0.1,0.1,0.3,0.2,0.5,0.2c0,0,0.1,0,0.1,0C96.1,144.6,96.2,144.4,96.3,144.3z"/>
	<path fill="#EDC2C0" d="M102.9,142.7l1.3-1.9l-0.3-0.2l-1.3,1.9c-0.1,0.1-0.2,0.3-0.3,0.3c-0.1,0-0.3,0-0.4-0.1l-1.6-0.8l-0.1,0.3
		l1.6,0.8c0.1,0.1,0.3,0.1,0.5,0.1c0.1,0,0.1,0,0.2,0C102.6,143,102.8,142.8,102.9,142.7z"/>
	<path fill="#EDC2C0" d="M109.4,141.6l1.3-1.9l-0.3-0.2l-1.3,1.9c-0.1,0.1-0.2,0.3-0.3,0.3c-0.1,0-0.3,0-0.4-0.1l-1.6-0.8l-0.1,0.3
		l1.6,0.8c0.1,0.1,0.3,0.1,0.5,0.1c0.1,0,0.1,0,0.2,0C109.1,141.9,109.3,141.7,109.4,141.6z"/>
	<path fill="#EDC2C0" d="M113.3,138.8l-0.1,0.3l1.6,0.8c0.1,0.1,0.3,0.1,0.5,0.1c0.1,0,0.1,0,0.2,0c0.2-0.1,0.4-0.3,0.5-0.4l1.3-1.9
		l-0.3-0.2l-1.3,1.9c-0.1,0.1-0.2,0.3-0.3,0.3c-0.1,0-0.3,0-0.4-0.1L113.3,138.8z"/>
	<path fill="#EDC2C0" d="M122.1,138.2c-0.1,0.1-0.2,0.3-0.3,0.3c-0.1,0-0.3,0-0.4-0.1l-1.6-0.8l-0.1,0.3l1.6,0.8
		c0.1,0.1,0.3,0.1,0.5,0.1c0.1,0,0.1,0,0.2,0c0.2-0.1,0.4-0.3,0.5-0.4l1.3-1.9l-0.3-0.2L122.1,138.2z"/>
	<path fill="#EDC2C0" d="M78.8,152.1c-0.1,0.1-0.2,0.2-0.3,0.3c-0.1,0-0.3-0.1-0.4-0.1l-1.5-0.9l-0.2,0.3l1.5,0.9
		c0.1,0.1,0.3,0.2,0.5,0.2c0,0,0.1,0,0.1,0c0.2,0,0.4-0.2,0.5-0.4l1.5-1.7l-0.3-0.2L78.8,152.1z"/>
	<path fill="#EDC2C0" d="M85.3,151.7c-0.1,0.1-0.2,0.2-0.3,0.3c-0.1,0-0.3-0.1-0.4-0.1l-1.5-0.9l-0.2,0.3l1.5,0.9
		c0.1,0.1,0.3,0.2,0.5,0.2c0,0,0.1,0,0.1,0c0.2,0,0.4-0.2,0.5-0.4l1.5-1.7l-0.3-0.2L85.3,151.7z"/>
	<path fill="#EDC2C0" d="M91.9,150.9c-0.1,0.1-0.2,0.3-0.3,0.3c-0.1,0-0.3,0-0.4-0.1l-1.6-0.8l-0.2,0.3l1.6,0.8
		c0.1,0.1,0.3,0.2,0.5,0.2c0,0,0.1,0,0.1,0c0.2-0.1,0.4-0.3,0.5-0.4l1.3-1.8l-0.3-0.2L91.9,150.9z"/>
	<path fill="#EDC2C0" d="M98.4,150.1c-0.1,0.1-0.2,0.3-0.3,0.3c-0.1,0-0.3,0-0.4-0.1l-1.6-0.8l-0.2,0.3l1.6,0.8
		c0.1,0.1,0.3,0.2,0.5,0.2c0,0,0.1,0,0.1,0c0.2-0.1,0.4-0.3,0.5-0.4l1.3-1.8l-0.3-0.2L98.4,150.1z"/>
	<path fill="#EDC2C0" d="M105,148.5c-0.1,0.1-0.2,0.3-0.3,0.3c-0.1,0-0.3,0-0.4-0.1l-1.6-0.8l-0.1,0.3l1.6,0.8
		c0.1,0.1,0.3,0.1,0.5,0.1c0.1,0,0.1,0,0.2,0c0.2-0.1,0.4-0.3,0.5-0.4l1.3-1.9l-0.3-0.2L105,148.5z"/>
	<path fill="#EDC2C0" d="M111.5,147.3c-0.1,0.1-0.2,0.3-0.3,0.3c-0.1,0-0.3,0-0.4-0.1l-1.6-0.8l-0.1,0.3l1.6,0.8
		c0.1,0.1,0.3,0.1,0.5,0.1c0.1,0,0.1,0,0.2,0c0.2-0.1,0.4-0.3,0.5-0.4l1.3-1.9l-0.3-0.2L111.5,147.3z"/>
	<path fill="#EDC2C0" d="M118,145.3c-0.1,0.1-0.2,0.3-0.3,0.3c-0.1,0-0.3,0-0.4-0.1l-1.6-0.8l-0.1,0.3l1.6,0.8
		c0.1,0.1,0.3,0.1,0.5,0.1c0.1,0,0.1,0,0.2,0c0.2-0.1,0.4-0.3,0.5-0.4l1.3-1.9l-0.3-0.2L118,145.3z"/>
	<path fill="#EDC2C0" d="M125.7,142.3l-1.3,1.9c-0.1,0.1-0.2,0.3-0.3,0.3c-0.1,0-0.3,0-0.4-0.1l-1.6-0.8l-0.1,0.3l1.6,0.8
		c0.1,0.1,0.3,0.1,0.5,0.1c0.1,0,0.1,0,0.2,0c0.2-0.1,0.4-0.3,0.5-0.4l1.3-1.9L125.7,142.3z"/>
	<path fill="#EDC2C0" d="M76.4,157.5c-0.1,0.1-0.2,0.2-0.3,0.3c-0.1,0-0.3-0.1-0.4-0.1l-1-0.6c-0.2,0-0.4,0-0.5,0.1l1.4,0.8
		c0.1,0.1,0.3,0.2,0.5,0.2c0,0,0.1,0,0.1,0c0.2,0,0.4-0.2,0.5-0.4l0.8-1c-0.2,0-0.3,0-0.5,0L76.4,157.5z"/>
	<path fill="#EDC2C0" d="M74.1,156.7l-0.2,0.3l0.2,0.1c0.2,0,0.4,0,0.5-0.1L74.1,156.7z"/>
	<path fill="#EDC2C0" d="M77.8,155.8l-0.8,1c0.2,0,0.3,0,0.5,0l0.6-0.7L77.8,155.8z"/>
	<path fill="#EDC2C0" d="M128.4,149.1c-0.1,0.1-0.2,0.2-0.3,0.3c-0.1,0-0.3-0.1-0.4-0.1l-1.5-0.9l-0.2,0.3l1.5,0.9
		c0.1,0.1,0.3,0.2,0.5,0.2c0,0,0.1,0,0.1,0c0.2,0,0.4-0.2,0.5-0.4l1.5-1.7l-0.3-0.2L128.4,149.1z"/>
	<path fill="#EDC2C0" d="M82.9,157.1c-0.1,0.1-0.2,0.2-0.3,0.3c-0.1,0-0.3-0.1-0.4-0.1l-1.3-0.8c-0.1,0-0.2,0-0.3,0l-0.1,0.1
		l1.5,0.9c0.1,0.1,0.3,0.2,0.5,0.2c0,0,0.1,0,0.1,0c0.2,0,0.4-0.2,0.5-0.4l1.1-1.2c-0.2,0-0.3,0-0.5,0L82.9,157.1z"/>
	<path fill="#EDC2C0" d="M84.4,155.4l-0.6,0.7c0.2,0,0.3,0,0.5,0l0.4-0.5L84.4,155.4z"/>
	<path fill="#EDC2C0" d="M80.7,156.3l-0.1,0.1c0.1,0,0.2,0,0.3,0L80.7,156.3z"/>
	<path fill="#EDC2C0" d="M89.5,156.3c-0.1,0.1-0.2,0.3-0.3,0.3c-0.1,0-0.3,0-0.4-0.1l-1.4-0.7c-0.1,0-0.2,0-0.3,0l-0.1,0.2l1.6,0.8
		c0.1,0.1,0.3,0.2,0.5,0.2c0,0,0.1,0,0.1,0c0.2-0.1,0.4-0.3,0.5-0.4l0.8-1c-0.1,0-0.3,0-0.4,0L89.5,156.3z"/>
	<path fill="#EDC2C0" d="M87.2,155.7l-0.1,0.1c0.1,0,0.2,0,0.3,0L87.2,155.7z"/>
	<path fill="#EDC2C0" d="M90.9,154.5l-0.8,1c0.1,0,0.3,0,0.4,0l0.6-0.8L90.9,154.5z"/>
	<path fill="#EDC2C0" d="M96.1,155.4c-0.1,0.1-0.2,0.3-0.3,0.3c-0.1,0-0.3,0-0.4-0.1l-1-0.5c-0.2,0-0.4,0-0.6,0.1l1.4,0.7
		c0.1,0.1,0.3,0.2,0.5,0.2c0,0,0.1,0,0.1,0c0.2-0.1,0.4-0.3,0.5-0.4l0.6-0.8c-0.1,0-0.3,0-0.4,0L96.1,155.4z"/>
	<path fill="#EDC2C0" d="M97.4,153.6l-0.9,1.3c0.1,0,0.3,0,0.4,0l0.8-1L97.4,153.6z"/>
	<path fill="#EDC2C0" d="M93.7,154.8l-0.2,0.3l0.2,0.1c0.2,0,0.4,0,0.6-0.1L93.7,154.8z"/>
	<path fill="#EDC2C0" d="M102.6,154.5c-0.1,0.1-0.2,0.3-0.3,0.3c-0.1,0-0.3,0-0.4-0.1l-0.4-0.2c-0.2,0-0.4,0-0.6,0.1l1,0.4
		c0.1,0.1,0.3,0.1,0.5,0.1c0.1,0,0.1,0,0.2,0c0.2-0.1,0.4-0.3,0.5-0.4l0.2-0.4c-0.1,0-0.3,0-0.4,0L102.6,154.5z"/>
	<path fill="#EDC2C0" d="M103.9,152.6l-1.2,1.7c0.1,0,0.3,0,0.4,0l1-1.5L103.9,152.6z"/>
	<path fill="#EDC2C0" d="M100.3,153.9l-0.1,0.3l0.7,0.3c0.2,0,0.4,0,0.6-0.1L100.3,153.9z"/>
	<path fill="#EDC2C0" d="M108.2,153.8c0.1,0.1,0.3,0.1,0.5,0.1c0.1,0,0.1,0,0.2,0c0.1,0,0.2-0.1,0.3-0.2
		C108.9,153.7,108.5,153.8,108.2,153.8L108.2,153.8z"/>
	<path fill="#EDC2C0" d="M110.6,151.6l-0.3-0.2l-1.3,1.9c-0.1,0.1-0.2,0.3-0.3,0.3c-0.1,0-0.3,0-0.4-0.1l-1.6-0.8l-0.1,0.3l1.6,0.7
		c0.3,0,0.7-0.1,1-0.1c0.1-0.1,0.1-0.1,0.1-0.2L110.6,151.6z"/>
	<path fill="#EDC2C0" d="M115.6,151.3c-0.1,0.1-0.2,0.3-0.3,0.3c-0.1,0-0.3,0-0.4-0.1l-1.6-0.8l-0.1,0.3l1.6,0.8
		c0.1,0.1,0.3,0.1,0.5,0.1c0.1,0,0.1,0,0.2,0c0.2-0.1,0.4-0.3,0.5-0.4l1.3-1.9l-0.3-0.2L115.6,151.3z"/>
	<path fill="#EDC2C0" d="M122.1,150.2c-0.1,0.1-0.2,0.3-0.3,0.3c-0.1,0-0.3,0-0.4-0.1l-1.6-0.8l-0.1,0.3l1.6,0.8
		c0.1,0.1,0.3,0.1,0.5,0.1c0.1,0,0.1,0,0.2,0c0.2-0.1,0.4-0.3,0.5-0.4l1.3-1.9l-0.3-0.2L122.1,150.2z"/>
	<g>
		<path fill="#ECC2C0" d="M31,91.5c-4.7-0.7-8.1-4.2-10.6-7.2c-0.3-0.3-0.6-0.7-0.9-1.1c-1.4-1.8-2.9-3.7-5-4.3
			c-0.5-0.2-3.3-0.2-3.9,0.4c-0.1,0.1-0.1,0.1-0.1,0.2c0.5,4.6,2.2,9.2,5.1,14c4.6,7.7,10.7,9.9,14.4,9.4c3.2-0.4,6.1-0.5,9-0.6
			c3.2-0.1,6.6-0.2,10.1-0.7c1.2-0.2,2.4-0.5,3.4-0.7c1.4-0.4,2.7-0.7,3.6-0.6L46,88.1C41.2,90.3,36.1,92.2,31,91.5z"/>
		<path fill="#441211" stroke="#441211" stroke-width="0.25" stroke-miterlimit="10" d="M52.7,100.9c-1.1,0.3-2.3,0.6-3.4,0.7
			c-3.6,0.5-6.9,0.6-10.1,0.7c-2.9,0.1-5.8,0.2-9,0.6c-3.8,0.4-9.8-1.8-14.4-9.4c-2.9-4.8-4.6-9.4-5.1-14c0,0,0-0.1,0.1-0.2
			c0.7-0.6,3.4-0.5,3.9-0.4c2.1,0.6,3.6,2.6,5,4.3c0.3,0.4,0.6,0.7,0.9,1.1c2.4,3,5.9,6.5,10.6,7.2c5.1,0.7,10.2-1.2,15-3.4
			l-0.2-0.3l0,0c-4.5,2-9.7,4-14.7,3.3c-4.4-0.6-7.7-3.8-10.4-7c-1.6-2-3.4-4.8-6-5.5c-0.7-0.2-4.6-0.3-4.4,0.9
			c0.6,5.2,2.6,9.8,5.2,14.1c3.1,5.1,8.8,10.3,14.8,9.6c6.8-0.8,12.4-0.3,19.1-1.3c2.9-0.4,5.9-1.6,7.3-1.3l-0.3-0.4
			C55.4,100.2,54.2,100.5,52.7,100.9z"/>
	</g>
	<g>
		<path fill="#ECC2C0" d="M39.2,62.5c-1-0.2-2.1-0.4-3.1-0.6c-2.1-0.4-4.3-0.8-6.5-1.3c-0.4-0.1-0.7-0.2-1.1-0.3
			c-2-0.5-4.1-0.9-5.9-2.1c-1.7-1.1-3.3-2.8-4.8-5.1c-1.5-2.4-2.9-4.9-4.3-7.3c-1.8-3.3-3.7-6.7-6-9.8c-1-1.3-2.3-2.3-3.7-2.8
			c-0.8-0.3-1.4-0.3-1.9-0.2c-1.3,0.3-1.4,1.7-1.4,3.4c0,0.2,0,0.4,0,0.6c0,0.9,0,1.5,0,2.2c0.1,3.4,0.9,6.8,2.6,11.3
			C10,69,17.4,74.5,23.1,77.2c2.7,1.3,5.5,2.3,8.3,3.3c2.5,0.9,5.1,1.9,7.6,3l0.1,0.1c1.5,0.7,3,1.4,4.4,2.2
			c0.1,0.1,0.4,0.2,0.6,0.5c0.3,0.2,1,0.8,1.5,1l-4.9-24.4l-0.3-0.2l0.1,0L39.2,62.5z"/>
		<path fill="#441211" stroke="#441211" stroke-width="0.25" stroke-miterlimit="10" d="M44.2,86.3c-0.3-0.2-0.5-0.4-0.6-0.5
			c-1.4-0.8-2.9-1.5-4.4-2.2L39,83.5c-2.5-1.1-5.1-2.1-7.6-3c-2.7-1-5.6-2-8.3-3.3C17.4,74.5,10,69,3.1,50.4
			c-1.7-4.5-2.5-7.9-2.6-11.3c0-0.6,0-1.3,0-2.2c0-0.2,0-0.4,0-0.6c0-1.7,0.2-3.1,1.4-3.4c0.5-0.1,1.1-0.1,1.9,0.2
			c1.4,0.5,2.7,1.5,3.7,2.8c2.3,3.1,4.1,6.5,6,9.8c1.3,2.4,2.7,4.9,4.3,7.3c1.5,2.3,3.1,4,4.8,5.1c1.8,1.2,3.9,1.6,5.9,2.1
			c0.4,0.1,0.7,0.2,1.1,0.3c2.1,0.5,4.3,0.9,6.5,1.3c1,0.2,2.1,0.4,3.1,0.6l1.3,0.3l-0.1,0l-1.6-0.9c0.1,0.1,0.3,0.2,0.4,0.3
			c-3.2-0.6-6.4-1.2-9.6-2c-2.3-0.6-4.9-1-6.9-2.3c-1.9-1.3-3.5-3.1-4.7-5.1c-3.6-5.6-6.3-11.7-10.3-17.1c-1-1.3-2.3-2.4-3.9-2.9
			c-0.7-0.2-1.4-0.4-2.1-0.2c-1.8,0.5-1.6,2.8-1.7,4.3c0,0.7-0.1,1.5,0,2.2c0.2,3.9,1.3,7.7,2.6,11.4c3.9,10.6,9.6,21.9,20.2,27
			c5.1,2.5,10.7,3.9,15.9,6.3c1.5,0.7,3.1,1.4,4.5,2.3c0.4,0.2,1.6,1.3,2.4,1.6l-0.1-0.4C45.2,87.1,44.5,86.5,44.2,86.3z"/>
	</g>
</g>
</svg>
