<?xml version="1.0" encoding="utf-8"?>
<!-- Generator: Adobe Illustrator 23.0.2, SVG Export Plug-In . SVG Version: 6.00 Build 0)  -->
<svg version="1.1" id="Layer_1" xmlns="http://www.w3.org/2000/svg" xmlns:xlink="http://www.w3.org/1999/xlink" x="0px" y="0px"
	 width="135.6px" height="158.1px" viewBox="0 0 135.6 158.1" enable-background="new 0 0 135.6 158.1" xml:space="preserve">
<g>
	<path fill="none" d="M33.3,154.7c-0.1,0-0.2-0.2-0.3-0.3l-0.1-0.1c0.4,0,0.8,0.1,1.3,0.1l-0.4,0.2
		C33.5,154.7,33.4,154.8,33.3,154.7z"/>
	<path fill="none" d="M46.4,156.6c-0.1,0-0.2-0.1-0.3-0.3l-0.6-0.8c0.9,0.1,1.8,0.2,2.7,0.3l-1.4,0.7
		C46.6,156.6,46.5,156.6,46.4,156.6z"/>
	<path fill="none" d="M53.8,21.5c-0.7-4.2-1.3-8.1-1.8-11.7c0.1,0.4,0.3,0.9,0.5,1.3c0.7,1.5,2.2,2.7,3.5,3.8
		c0.4,0.3,0.7,0.6,1.1,0.9c4.5,4.1,9.7,7.3,15.3,9.5C72.1,27,67.7,36.8,64,42.1c-2.6,3.8-5.9,7.9-10.4,9.7
		c-5.4,2.2-10.6-0.1-12.4-3.5c-0.7-1.3-1-3-1-4.9c0.1-5,2.9-9.3,5.8-13.9c2.5-3.9,5-7.9,5.7-12.3c0.2-0.9,0.2-1.8,0.3-2.7
		c0.3,2.3,0.7,4.6,1.1,7.1L53.8,21.5z"/>
	<path fill="none" d="M39.8,155.7c-0.1,0-0.2-0.1-0.3-0.3l-0.4-0.5c0.7,0.1,1.4,0.1,2.1,0.2l-1,0.5C40.1,155.7,40,155.8,39.8,155.7z
		"/>
	<path fill="none" d="M53,157.4c-0.1,0-0.2-0.1-0.3-0.3l-0.8-1c1,0.1,1.9,0.2,2.9,0.3l-1.3,0.8C53.2,157.3,53.1,157.4,53,157.4z"/>
	<path fill="none" d="M59.5,157.7c-0.1,0-0.2-0.1-0.3-0.3l-0.6-0.7c0.5,0.1,1.1,0.1,1.6,0.2c0.2,0,0.5,0,0.7,0.1l-1,0.6
		C59.8,157.7,59.7,157.8,59.5,157.7z"/>
	<path fill="#441211" d="M52,9.8c0.5,3.6,1,7.5,1.8,11.7l-0.7,0.1c-0.4-2.5-0.8-4.8-1.1-7.1c0.1-2.5-0.2-4.9-0.5-7.4
		c-0.1-0.5-0.3-0.9-0.6-1.3c-0.2-1.9-0.4-3.8-0.5-5.7L51,0c0.2,2.2,0.4,4.4,0.6,6.6C51.6,7.7,51.7,8.7,52,9.8z"/>
	<path fill="#441211" d="M0,151.1c2.2-0.4,5.2,0.5,7.4,0.7c5.8,0.6,11.7,1.1,17.5,1.7c0.5,0,1,0.1,1.5,0.1c-0.1-0.1-0.1-0.1-0.1-0.2
		l-1.3-1.9l0.3-0.2l1.3,1.9c0.1,0.1,0.2,0.3,0.3,0.3c0.1,0,0.3,0,0.4-0.1l1.6-0.8l0.1,0.3l-1.6,0.7c1.7,0.2,3.4,0.3,5.1,0.5l-1-1.5
		l0.3-0.2l1.2,1.7c0.4,0,0.8,0.1,1.3,0.1l1.2-0.5l0.1,0.3l-0.7,0.3c1.3,0.1,2.6,0.2,3.9,0.4l-0.8-1l0.3-0.2l0.9,1.3
		c0.7,0.1,1.4,0.1,2.1,0.2l0.6-0.3l0.2,0.3l-0.2,0.1c1.1,0.1,2.1,0.2,3.2,0.3l-0.6-0.8l0.3-0.2l0.8,1c0.9,0.1,1.8,0.2,2.7,0.3
		l0.2-0.1l0.1,0.1c1,0.1,1.9,0.2,2.9,0.3l-0.4-0.5l0.3-0.2l0.6,0.7c1,0.1,1.9,0.2,2.9,0.3l0.2-0.1l0.1,0.1c1,0.1,2.1,0.2,3.1,0.3
		l-0.6-0.7l0.3-0.2l0.8,1c0.5,0.1,1.1,0.1,1.6,0.2c0.2,0,0.5,0,0.7,0.1l0.5-0.3l0.2,0.3l-0.2,0.1c0.8,0.1,1.6,0.2,2.3,0.2
		c-0.4-1.6-0.6-3-0.5-4.7c0.5-9.9,1.7-20.1,1-30.1c0-0.2,0-0.4-0.2-0.5c-0.1-0.1-0.3-0.2-0.5-0.3c-1.4-0.5-2.7-1-4.1-1.4
		c-0.5,0.6-1,1.2-1.4,1.8l-0.1,0.1l-0.1,0c-1.6,0.2-3.2,0.3-4.9,0.3c-3.5,0-7.1-0.4-10.6-1.2c-3.2-0.7-6.4-1.3-9.5-1.8
		c-2.3-0.4-4.6-0.8-6.9-1.2c-1.3-0.3-2.6-0.6-3.8-1c-1.4-0.4-2.9-0.9-4.3-1.1c-0.6-0.1-5.4-2-5.8-3.1c-0.3-0.8-0.5-1.7-0.7-2.6
		c-0.7,0-1.4-0.1-2.1-0.1c-0.2,0-0.4,0-0.6,0.1c-0.2,0.1-0.3,0.3-0.4,0.5c-4.1,8.6-4.6,18.2-5.9,27.5C1.8,142.6,0.4,146.8,0,151.1z
		 M10.7,125l0.2,0.3l-1.5,0.9c-0.1,0.1-0.3,0.2-0.5,0.2c0,0-0.1,0-0.1,0c-0.2,0-0.4-0.2-0.5-0.4l-1.5-1.7l0.3-0.2l1.5,1.7
		c0.1,0.1,0.2,0.2,0.3,0.3c0.1,0,0.3-0.1,0.4-0.1L10.7,125z M11.5,132.9c-0.1,0-0.1,0-0.2,0c-0.2-0.1-0.4-0.3-0.5-0.4l-1.3-1.9
		l0.3-0.2l1.3,1.9c0.1,0.1,0.2,0.3,0.3,0.3c0.1,0,0.3,0,0.4-0.1l1.6-0.8l0.1,0.3l-1.6,0.8C11.9,132.8,11.7,132.9,11.5,132.9z
		 M12.2,136.3l1.3,1.9c0.1,0.1,0.2,0.3,0.3,0.3c0.1,0,0.3,0,0.4-0.1l1.6-0.8l0.1,0.3l-1.6,0.8c-0.1,0.1-0.3,0.1-0.5,0.1
		c-0.1,0-0.1,0-0.2,0c-0.2-0.1-0.4-0.3-0.5-0.4l-1.3-1.9L12.2,136.3z M14.8,120.6l-1.6,0.8c-0.1,0.1-0.3,0.1-0.5,0.1
		c-0.1,0-0.1,0-0.2,0c-0.2-0.1-0.4-0.3-0.5-0.4l-1.3-1.9L11,119l1.3,1.9c0.1,0.1,0.2,0.3,0.3,0.3c0.1,0,0.3,0,0.4-0.1l1.6-0.8
		L14.8,120.6z M17.2,126.6l-1.6,0.8c-0.1,0.1-0.3,0.1-0.5,0.1c-0.1,0-0.1,0-0.2,0c-0.2-0.1-0.4-0.3-0.5-0.4l-1.3-1.9l0.3-0.2
		l1.3,1.9c0.1,0.1,0.2,0.3,0.3,0.3c0.1,0,0.3,0,0.4-0.1l1.6-0.8L17.2,126.6z M21.3,121.7l-1.6,0.8c-0.1,0.1-0.3,0.1-0.5,0.1
		c-0.1,0-0.1,0-0.2,0c-0.2-0.1-0.4-0.3-0.5-0.4l-1.3-1.9l0.3-0.2l1.3,1.9c0.1,0.1,0.2,0.3,0.3,0.3c0.1,0,0.3,0,0.4-0.1l1.6-0.8
		L21.3,121.7z M23.7,127.7l-1.6,0.8c-0.1,0.1-0.3,0.1-0.5,0.1c-0.1,0-0.1,0-0.2,0c-0.2-0.1-0.4-0.3-0.5-0.4l-1.3-1.9l0.3-0.2
		l1.3,1.9c0.1,0.1,0.2,0.3,0.3,0.3c0.1,0,0.3,0,0.4-0.1l1.6-0.8L23.7,127.7z M20.3,139.6c0.1,0,0.3,0,0.4-0.1l1.6-0.8l0.1,0.3
		l-1.6,0.8c-0.1,0.1-0.3,0.1-0.5,0.1c-0.1,0-0.1,0-0.2,0c-0.2-0.1-0.4-0.3-0.5-0.4l-1.3-1.9l0.3-0.2l1.3,1.9
		C20.1,139.5,20.2,139.6,20.3,139.6z M27.8,123.8l-1.6,0.8c-0.1,0.1-0.3,0.1-0.5,0.1c-0.1,0-0.1,0-0.2,0c-0.2-0.1-0.4-0.3-0.5-0.4
		l-1.3-1.9l0.3-0.2l1.3,1.9c0.1,0.1,0.2,0.3,0.3,0.3c0.1,0,0.3,0,0.4-0.1l1.6-0.8L27.8,123.8z M34.2,124.9l-1.6,0.8
		c-0.1,0.1-0.3,0.1-0.5,0.1c-0.1,0-0.1,0-0.2,0c-0.2-0.1-0.4-0.3-0.5-0.4l-1.3-1.9l0.3-0.2l1.3,1.9c0.1,0.1,0.2,0.3,0.3,0.3
		c0.1,0,0.3,0,0.4-0.1l1.6-0.8L34.2,124.9z M40.8,126.4l-1.6,0.8c-0.1,0.1-0.3,0.2-0.5,0.2c0,0-0.1,0-0.1,0
		c-0.2-0.1-0.4-0.3-0.5-0.4l-1.3-1.8L37,125l1.3,1.8c0.1,0.1,0.2,0.3,0.3,0.3c0.1,0,0.3,0,0.4-0.1l1.6-0.8L40.8,126.4z M47.3,127.3
		l-1.6,0.8c-0.1,0.1-0.3,0.2-0.5,0.2c0,0-0.1,0-0.1,0c-0.2-0.1-0.4-0.3-0.5-0.4l-1.3-1.8l0.3-0.2l1.3,1.8c0.1,0.1,0.2,0.3,0.3,0.3
		c0.1,0,0.3,0,0.4-0.1l1.6-0.8L47.3,127.3z M49.7,133.2l-1.6,0.8c-0.1,0.1-0.3,0.2-0.5,0.2c0,0-0.1,0-0.1,0
		c-0.2-0.1-0.4-0.3-0.5-0.4l-1.3-1.8l0.3-0.2l1.3,1.8c0.1,0.1,0.2,0.3,0.3,0.3c0.1,0,0.3,0,0.4-0.1l1.6-0.8L49.7,133.2z M53.9,127.9
		l-1.5,0.9c-0.1,0.1-0.3,0.2-0.5,0.2c0,0-0.1,0-0.1,0c-0.2,0-0.4-0.2-0.5-0.4l-1.5-1.7l0.3-0.2l1.5,1.7c0.1,0.1,0.2,0.2,0.3,0.3
		c0.1,0,0.3-0.1,0.4-0.1l1.5-0.9L53.9,127.9z M56.3,133.8l-1.5,0.9c-0.1,0.1-0.3,0.2-0.5,0.2c0,0-0.1,0-0.1,0
		c-0.2,0-0.4-0.2-0.5-0.4l-1.5-1.7l0.3-0.2l1.5,1.7c0.1,0.1,0.2,0.2,0.3,0.3c0.1,0,0.3-0.1,0.4-0.1l1.5-0.9L56.3,133.8z M60.4,128.3
		l-1.5,0.9c-0.1,0.1-0.3,0.2-0.5,0.2c0,0-0.1,0-0.1,0c-0.2,0-0.4-0.2-0.5-0.4l-1.5-1.7l0.3-0.2l1.5,1.7c0.1,0.1,0.2,0.2,0.3,0.3
		c0.1,0,0.3-0.1,0.4-0.1l1.5-0.9L60.4,128.3z M61.3,135.2c-0.1,0.1-0.3,0.2-0.5,0.2c0,0-0.1,0-0.1,0c-0.2,0-0.4-0.2-0.5-0.4
		l-1.5-1.7l0.3-0.2l1.5,1.7c0.1,0.1,0.2,0.2,0.3,0.3c0.1,0,0.3-0.1,0.4-0.1l1.5-0.9l0.2,0.3L61.3,135.2z M59.5,146.7
		c-0.2,0-0.4-0.2-0.5-0.4l-1.5-1.7l0.3-0.2l1.5,1.7c0.1,0.1,0.2,0.2,0.3,0.3c0.1,0,0.3-0.1,0.4-0.1l1.5-0.9l0.2,0.3l-1.5,0.9
		C60,146.6,59.8,146.7,59.5,146.7C59.5,146.7,59.5,146.7,59.5,146.7z M55.1,150.6l0.3-0.2l1.5,1.7c0.1,0.1,0.2,0.2,0.3,0.3
		c0.1,0,0.3-0.1,0.4-0.1l1.5-0.9l0.2,0.3l-1.5,0.9c-0.1,0.1-0.3,0.2-0.5,0.2c0,0-0.1,0-0.1,0c-0.2,0-0.4-0.2-0.5-0.4L55.1,150.6z
		 M55.1,138.7l0.3-0.2l1.5,1.7c0.1,0.1,0.2,0.2,0.3,0.3c0.1,0,0.3-0.1,0.4-0.1l1.5-0.9l0.2,0.3l-1.5,0.9c-0.1,0.1-0.3,0.2-0.5,0.2
		c0,0-0.1,0-0.1,0c-0.2,0-0.4-0.2-0.5-0.4L55.1,138.7z M52.9,146.3c-0.2,0-0.4-0.2-0.5-0.4l-1.5-1.7l0.3-0.2l1.5,1.7
		c0.1,0.1,0.2,0.2,0.3,0.3c0.1,0,0.3-0.1,0.4-0.1l1.5-0.9l0.2,0.3l-1.5,0.9C53.4,146.2,53.2,146.3,52.9,146.3
		C53,146.3,53,146.3,52.9,146.3z M48.5,150.2l0.3-0.2l1.5,1.7c0.1,0.1,0.2,0.2,0.3,0.3c0.1,0,0.3-0.1,0.4-0.1l1.5-0.9l0.2,0.3
		l-1.5,0.9c-0.1,0.1-0.3,0.2-0.5,0.2c0,0-0.1,0-0.1,0c-0.2,0-0.4-0.2-0.5-0.4L48.5,150.2z M48.5,138.3l0.3-0.2l1.5,1.7
		c0.1,0.1,0.2,0.2,0.3,0.3c0.1,0,0.3-0.1,0.4-0.1l1.5-0.9l0.2,0.3l-1.5,0.9c-0.1,0.1-0.3,0.2-0.5,0.2c0,0-0.1,0-0.1,0
		c-0.2,0-0.4-0.2-0.5-0.4L48.5,138.3z M46.3,145.6c-0.2-0.1-0.4-0.3-0.5-0.4l-1.3-1.8l0.3-0.2L46,145c0.1,0.1,0.2,0.3,0.3,0.3
		c0.1,0,0.3,0,0.4-0.1l1.6-0.8l0.2,0.3l-1.6,0.8c-0.1,0.1-0.3,0.2-0.5,0.2C46.4,145.6,46.3,145.6,46.3,145.6z M42,149.3l0.3-0.2
		l1.3,1.8c0.1,0.1,0.2,0.3,0.3,0.3c0.1,0,0.3,0,0.4-0.1l1.6-0.8l0.2,0.3l-1.6,0.8c-0.1,0.1-0.3,0.2-0.5,0.2c0,0-0.1,0-0.1,0
		c-0.2-0.1-0.4-0.3-0.5-0.4L42,149.3z M42,137.4l0.3-0.2l1.3,1.8c0.1,0.1,0.2,0.3,0.3,0.3c0.1,0,0.3,0,0.4-0.1l1.6-0.8l0.2,0.3
		l-1.6,0.8c-0.1,0.1-0.3,0.2-0.5,0.2c0,0-0.1,0-0.1,0c-0.2-0.1-0.4-0.3-0.5-0.4L42,137.4z M41.6,133.2c-0.1,0.1-0.3,0.2-0.5,0.2
		c0,0-0.1,0-0.1,0c-0.2-0.1-0.4-0.3-0.5-0.4l-1.3-1.8l0.3-0.2l1.3,1.8c0.1,0.1,0.2,0.3,0.3,0.3c0.1,0,0.3,0,0.4-0.1l1.6-0.8l0.2,0.3
		L41.6,133.2z M39.8,144.7c-0.2-0.1-0.4-0.3-0.5-0.4l-1.3-1.8l0.3-0.2l1.3,1.8c0.1,0.1,0.2,0.3,0.3,0.3c0.1,0,0.3,0,0.4-0.1l1.6-0.8
		l0.2,0.3l-1.6,0.8c-0.1,0.1-0.3,0.2-0.5,0.2C39.8,144.7,39.8,144.7,39.8,144.7z M35.5,148.5l0.3-0.2l1.3,1.8
		c0.1,0.1,0.2,0.3,0.3,0.3c0.1,0,0.3,0,0.4-0.1l1.6-0.8l0.2,0.3l-1.6,0.8c-0.1,0.1-0.3,0.2-0.5,0.2c0,0-0.1,0-0.1,0
		c-0.2-0.1-0.4-0.3-0.5-0.4L35.5,148.5z M35.5,136.5l0.3-0.2l1.3,1.8c0.1,0.1,0.2,0.3,0.3,0.3c0.1,0,0.3,0,0.4-0.1l1.6-0.8l0.2,0.3
		l-1.6,0.8c-0.1,0.1-0.3,0.2-0.5,0.2c0,0-0.1,0-0.1,0c-0.2-0.1-0.4-0.3-0.5-0.4L35.5,136.5z M35,131.6c-0.1,0.1-0.3,0.1-0.5,0.1
		c-0.1,0-0.1,0-0.2,0c-0.2-0.1-0.4-0.3-0.5-0.4l-1.3-1.9l0.3-0.2l1.3,1.9c0.1,0.1,0.2,0.3,0.3,0.3c0.1,0,0.3,0,0.4-0.1l1.6-0.8
		l0.1,0.3L35,131.6z M33.2,143.1c-0.2-0.1-0.4-0.3-0.5-0.4l-1.3-1.9l0.3-0.2l1.3,1.9c0.1,0.1,0.2,0.3,0.3,0.3c0.1,0,0.3,0,0.4-0.1
		l1.6-0.8l0.1,0.3l-1.6,0.8c-0.1,0.1-0.3,0.1-0.5,0.1C33.3,143.1,33.2,143.1,33.2,143.1z M29,146.8l0.3-0.2l1.3,1.9
		c0.1,0.1,0.2,0.3,0.3,0.3c0.1,0,0.3,0,0.4-0.1l1.6-0.8l0.1,0.3l-1.6,0.8c-0.1,0.1-0.3,0.1-0.5,0.1c-0.1,0-0.1,0-0.2,0
		c-0.2-0.1-0.4-0.3-0.5-0.4L29,146.8z M29,134.8l0.3-0.2l1.3,1.9c0.1,0.1,0.2,0.3,0.3,0.3c0.1,0,0.3,0,0.4-0.1l1.6-0.8l0.1,0.3
		l-1.6,0.8c-0.1,0.1-0.3,0.1-0.5,0.1c-0.1,0-0.1,0-0.2,0c-0.2-0.1-0.4-0.3-0.5-0.4L29,134.8z M28.6,130.5c-0.1,0.1-0.3,0.1-0.5,0.1
		c-0.1,0-0.1,0-0.2,0c-0.2-0.1-0.4-0.3-0.5-0.4l-1.3-1.9l0.3-0.2l1.3,1.9c0.1,0.1,0.2,0.3,0.3,0.3c0.1,0,0.3,0,0.4-0.1l1.6-0.8
		l0.1,0.3L28.6,130.5z M26.2,141.6l-1.3-1.9l0.3-0.2l1.3,1.9c0.1,0.1,0.2,0.3,0.3,0.3c0.1,0,0.3,0,0.4-0.1l1.6-0.8l0.1,0.3l-1.6,0.8
		c-0.1,0.1-0.3,0.1-0.5,0.1c-0.1,0-0.1,0-0.2,0C26.5,141.9,26.3,141.7,26.2,141.6z M22.6,145.7l0.3-0.2l1.3,1.9
		c0.1,0.1,0.2,0.3,0.3,0.3c0.1,0,0.3,0,0.4-0.1l1.6-0.8l0.1,0.3l-1.6,0.8c-0.1,0.1-0.3,0.1-0.5,0.1c-0.1,0-0.1,0-0.2,0
		c-0.2-0.1-0.4-0.3-0.5-0.4L22.6,145.7z M22.6,133.7l0.3-0.2l1.3,1.9c0.1,0.1,0.2,0.3,0.3,0.3c0.1,0,0.3,0,0.4-0.1l1.6-0.8l0.1,0.3
		l-1.6,0.8c-0.1,0.1-0.3,0.1-0.5,0.1c-0.1,0-0.1,0-0.2,0c-0.2-0.1-0.4-0.3-0.5-0.4L22.6,133.7z M18.4,149.6l0.3-0.2l1.3,1.9
		c0.1,0.1,0.2,0.3,0.3,0.3c0.1,0,0.3,0,0.4-0.1l1.6-0.8l0.1,0.3l-1.6,0.8c-0.1,0.1-0.3,0.1-0.5,0.1c-0.1,0-0.1,0-0.2,0
		c-0.2-0.1-0.4-0.3-0.5-0.4L18.4,149.6z M16.1,143.6l0.3-0.2l1.3,1.9c0.1,0.1,0.2,0.3,0.3,0.3c0.1,0,0.3,0,0.4-0.1l1.6-0.8l0.1,0.3
		l-1.6,0.8c-0.1,0.1-0.3,0.1-0.5,0.1c-0.1,0-0.1,0-0.2,0c-0.2-0.1-0.4-0.3-0.5-0.4L16.1,143.6z M16.1,131.7l0.3-0.2l1.3,1.9
		c0.1,0.1,0.2,0.3,0.3,0.3c0.1,0,0.3,0,0.4-0.1l1.6-0.8l0.1,0.3l-1.6,0.8c-0.1,0.1-0.3,0.1-0.5,0.1c-0.1,0-0.1,0-0.2,0
		c-0.2-0.1-0.4-0.3-0.5-0.4L16.1,131.7z M12,148.5l0.3-0.2l1.3,1.9c0.1,0.1,0.2,0.3,0.3,0.3c0.1,0,0.3,0,0.4-0.1l1.6-0.8l0.1,0.3
		l-1.6,0.8c-0.1,0.1-0.3,0.1-0.5,0.1c-0.1,0-0.1,0-0.2,0c-0.2-0.1-0.4-0.3-0.5-0.4L12,148.5z M10.8,144.4l-1.3-1.9l0.3-0.2l1.3,1.9
		c0.1,0.1,0.2,0.3,0.3,0.3c0.1,0,0.3,0,0.4-0.1l1.6-0.8l0.1,0.3l-1.6,0.8c-0.1,0.1-0.3,0.1-0.5,0.1c-0.1,0-0.1,0-0.2,0
		C11.1,144.7,10.9,144.5,10.8,144.4z M5.5,147.6l0.3-0.2l1.5,1.7c0.1,0.1,0.2,0.2,0.3,0.3c0.1,0,0.3-0.1,0.4-0.1l1.5-0.9l0.2,0.3
		l-1.5,0.9c-0.1,0.1-0.3,0.2-0.5,0.2c0,0-0.1,0-0.1,0c-0.2,0-0.4-0.2-0.5-0.4L5.5,147.6z M5.5,135.7l0.3-0.2l1.5,1.7
		c0.1,0.1,0.2,0.2,0.3,0.3c0.1,0,0.3-0.1,0.4-0.1l1.5-0.9l0.2,0.3l-1.5,0.9c-0.1,0.1-0.3,0.2-0.5,0.2c0,0-0.1,0-0.1,0
		c-0.2,0-0.4-0.2-0.5-0.4L5.5,135.7z"/>
	<path fill="#ECC2C0" d="M89.9,87.3c-0.1,0.1-0.3,0.1-0.3,0.1L89.3,88c0.1,0,0.2,0.1,0.3,0.1l-10.3,12.1c-0.4,0-0.8,0.1-1,0.3
		c-6.4,5.6-13.7,12.1-19.5,19.4l-46.7-9.6c-4.5-16.6-4.1-36.3,1-53.1c5.8-19,17.3-36.9,33.3-51.7C47.1,5,48.1,4.8,49,5.1
		c0.9,0.3,1.7,1.2,1.9,2.1c0.5,3.4,0.8,6.7,0.3,9.9c-0.7,4.3-3.2,8.3-5.7,12.1c-2.8,4.4-5.7,9-5.9,14.2c-0.1,2,0.3,3.8,1.1,5.2
		c1.1,2.1,3.2,3.6,5.8,4.3c2.4,0.6,5.1,0.4,7.5-0.5c4.7-1.9,8-6.1,10.7-9.9c2.3-3.3,4.8-8.3,5.7-10.3c0.5-1.1,3-6.3,2.8-7
		c0-0.1-0.1-0.2-0.2-0.2c-5.7-2.2-10.8-5.4-15.3-9.5c-0.3-0.3-0.7-0.6-1.1-0.9c-1.3-1.1-2.7-2.3-3.4-3.6c-1-1.9-1.2-4-0.5-5.6
		c0.4-0.9,1.8-1.8,2.8-2c0.7-0.1,1.4,0.1,2.1,0.3c5.4,1.6,10.9,3.2,15.7,6.2c2.7,1.7,5.2,3.1,8,4.5c0.6,0.3,1.1,0.5,1.6,0.8
		c2.1,0.9,3.6,1.6,5.1,3.6c1.8,2.3,1.5,4.8,1.2,7.8c-0.3,2.1-0.5,4.3-0.9,6.5c-0.2,1.1-0.5,2.3-0.7,3.4c-0.9,4-1.7,8.2-1.1,12.2
		l0.2,1.1l0.5-1c1.6-3.6,4.8-6.2,7.9-8.7c3.4-2.7,6.9-5.6,8.4-9.7c0.3-0.9,0.5-1.9,0.6-2.8c0.1-0.7,0.2-1.4,0.4-2.1
		c0.4-1.6,1-3.2,1.7-4.7c1.2-2.6,2.8-5.4,5-8.7c4.8-7,7.9-7.9,10.4-7.8c0.2,0,0.4,0,0.6,0.1c0.2,0.2,0.2,0.6,0,1.2
		c-2.1,5.9-2.9,12.2-3.8,18.3c-0.4,3-0.7,6.1-1,9.1l-0.2,1.5c-0.1,0.6-0.1,1.3-0.1,2c-0.1,2.5-0.3,5.2-1.8,7
		c-5.8,7-12.2,13.3-19.1,18.8l-1,0.8l-0.3,0.2L89.9,87.3z"/>
	<path fill="#ECC2C0" d="M57.6,121.4c-4.7,0.6-10.1,0.2-15.1-0.9c-3.2-0.7-6.4-1.3-9.6-1.8c-2.2-0.4-4.6-0.8-6.9-1.2
		c-1.2-0.2-2.5-0.6-3.8-1c-1.4-0.4-2.9-0.9-4.4-1.1c-0.9-0.2-5-2.1-5.2-2.7c-0.2-0.7-0.4-1.5-0.6-2.2l46.7,9.6
		C58.4,120.5,58,121,57.6,121.4z"/>
	<path fill="#441211" d="M89.8,87.7l0,0.2c-0.1-0.1-0.2-0.1-0.3-0.2C89.5,87.8,89.7,87.7,89.8,87.7z"/>
	<path fill="#441211" d="M49.1,4.8c-1-0.3-2.1,0-2.9,0.7C30.9,19.6,18.9,37.4,12.8,57.3c-5.1,16.6-5.6,36.2-1.1,53.1l-0.2,0
		c-0.1,0-0.1,0-0.2,0C7,93.6,7.3,74,12.5,57.2c5.9-19.1,17.4-37.1,33.5-52c0.9-0.8,2.1-1.1,3.2-0.8c0.7,0.2,1.3,0.7,1.7,1.3
		C50.9,6,51,6.3,51,6.6C50.7,5.8,50,5.1,49.1,4.8z"/>
	<path fill="#441211" d="M59.1,120.1c5.6-7,12.7-13.4,19.4-19.2c0.1-0.1,0.3-0.2,0.5-0.2l-0.2,0.2l0,0.2c0,0-0.1,0-0.1,0
		c-6.3,5.5-13.5,11.9-19.2,19.1c-0.1,0-0.2-0.1-0.2-0.1L59.1,120.1z"/>
	<path fill="#441211" d="M115.5,43.3c2-2.5,1.8-6.1,2.1-9.2c0.3-3.5,0.7-7.1,1.1-10.6c0.8-6.1,1.7-12.3,3.7-18.2
		c0.2-0.5,0.3-1.2-0.1-1.6c-0.2-0.2-0.5-0.2-0.8-0.2c-4.6-0.1-8,4.1-10.6,7.9c-1.9,2.8-3.7,5.7-5,8.7c-0.7,1.5-1.3,3.1-1.7,4.8
		c-0.4,1.6-0.5,3.4-1.1,5c-2.7,7.8-12.9,10.8-16.3,18.4C86,43.2,87.7,38,88.6,32.8c0.4-2.1,0.7-4.3,0.9-6.5c0.4-3,0.6-5.6-1.3-8
		c-2-2.5-4-3-6.9-4.5c-2.9-1.4-5.3-2.8-8-4.5c-4.8-3-10.4-4.7-15.8-6.3c-0.7-0.2-1.5-0.4-2.2-0.3c-1.1,0.2-2.6,1.2-3,2.2
		C51.6,7,52,9.2,52.9,11c0.9,1.8,3,3.3,4.5,4.7c4.5,4.1,9.8,7.3,15.4,9.5c0.4,0.2-4.8,11.7-8.5,17.1c-2.8,4-6,8-10.5,9.8
		c-4.5,1.8-10.5,0.7-12.8-3.6c-0.8-1.5-1.1-3.3-1-5c0.3-9.6,9.9-16.8,11.5-26.3c0.3-1.7,0.3-3.4,0.2-5.1c0.1,0.8,0.2,1.7,0.4,2.5
		c0,0.9-0.1,1.8-0.3,2.7c-0.8,4.5-3.3,8.5-5.7,12.3c-2.9,4.6-5.6,8.9-5.8,13.9c-0.1,1.9,0.3,3.5,1,4.9c1.8,3.4,7,5.6,12.4,3.5
		c4.5-1.8,7.8-5.9,10.4-9.7c3.6-5.2,8.1-15.1,8.5-16.7c-5.7-2.2-10.8-5.4-15.3-9.5c-0.3-0.3-0.7-0.6-1.1-0.9
		c-1.3-1.1-2.8-2.4-3.5-3.8c-0.2-0.4-0.4-0.9-0.5-1.3c-0.1-1.1-0.3-2.1-0.4-3.1c0.1-0.6,0.2-1.2,0.4-1.7c0.5-1.2,2.1-2.2,3.2-2.4
		c0.8-0.2,1.7,0.1,2.4,0.3c5.4,1.6,11,3.3,15.9,6.3c2.7,1.7,5.1,3.1,8,4.5c0.6,0.3,1.1,0.5,1.6,0.7c2.1,0.9,3.7,1.7,5.4,3.8
		c2,2.6,1.7,5.3,1.3,8.2c-0.3,2.1-0.5,4.3-0.9,6.5c-0.2,1.1-0.5,2.3-0.7,3.4c-0.8,3.6-1.5,7.3-1.2,10.9c1.8-3.2,4.7-5.6,7.6-7.9
		c3.5-2.8,6.8-5.5,8.2-9.4c0.3-0.9,0.5-1.8,0.6-2.7c0.1-0.7,0.3-1.5,0.5-2.2c0.4-1.6,1-3.2,1.7-4.8c1.2-2.7,2.8-5.5,5-8.8
		c2.8-4.1,6.3-8.2,10.9-8.1c0.3,0,0.7,0,1,0.3c0.7,0.6,0.3,1.6,0.2,1.9c-2.1,5.8-2.9,12.1-3.7,18.1c-0.4,3-0.7,6.1-1,9l-0.2,1.5
		c-0.1,0.6-0.1,1.3-0.1,1.9c-0.2,2.6-0.3,5.4-2,7.4c-5.3,6.4-11.2,12.3-17.5,17.5l-1.5,0.8C103.6,56.3,109.9,50.1,115.5,43.3z"/>
	<path fill="#441211" d="M51.7,6.6c0.1,1,0.2,2.1,0.4,3.1C51.7,8.7,51.6,7.7,51.7,6.6z"/>
	<path fill="#441211" d="M52,14.5c-0.1-0.9-0.2-1.7-0.4-2.5c-0.1-1.6-0.3-3.3-0.5-4.9c0-0.2-0.1-0.4-0.2-0.6c0-0.3-0.1-0.5-0.1-0.8
		c0.3,0.4,0.5,0.9,0.6,1.3C51.8,9.6,52.1,12.1,52,14.5z"/>
	<path fill="#441211" d="M58,122.1l-0.1,0c-1.6,0.2-3.2,0.3-4.9,0.3c-3.5,0-7.1-0.4-10.6-1.2c-3.2-0.7-6.4-1.3-9.5-1.8
		c-2.3-0.4-4.6-0.8-6.9-1.2c-1.3-0.3-2.6-0.6-3.8-1c-1.4-0.4-2.9-0.9-4.3-1.1c-0.6-0.1-5.4-2-5.8-3.1c-0.3-0.8-0.5-1.7-0.7-2.6
		c0.1,0,0.1,0,0.2,0l0.2,0c0.2,0.8,0.4,1.6,0.7,2.4c0.2,0.8,4.8,2.8,5.5,2.9c2.7,0.5,5.4,1.6,8.1,2.1c5.5,1.1,11,1.7,16.4,3
		c4.9,1.1,10.3,1.6,15.3,0.9c0.4-0.6,0.9-1.1,1.3-1.7l0.1,0c0.1,0,0.2,0.1,0.2,0.1c-0.5,0.6-1,1.2-1.4,1.8L58,122.1z"/>
	<path fill="#441211" d="M89.6,88.1c-0.1,0-0.2-0.1-0.3-0.1l0.3-0.6c0.1,0,0.2,0,0.3-0.1l-0.1,0.4c-0.2,0.1-0.3,0.1-0.4,0
		c0.1,0.1,0.2,0.1,0.3,0.2l0,0L89.6,88.1z"/>
	<path fill="#441211" d="M12.8,57.3c6.1-19.9,18.1-37.7,33.4-51.8c0.8-0.7,1.9-1,2.9-0.7c0.9,0.3,1.6,1,1.9,1.8
		c0.2,1.8,0.4,3.6,0.7,5.4c0.1,1.7,0.1,3.4-0.2,5.1c-1.6,9.4-11.3,16.7-11.5,26.3c0,1.7,0.2,3.5,1,5c2.3,4.3,8.3,5.4,12.8,3.6
		c4.5-1.8,7.8-5.8,10.5-9.8c3.8-5.4,9-16.9,8.5-17.1c-5.7-2.2-10.9-5.5-15.4-9.5c-1.5-1.4-3.6-2.9-4.5-4.7c-0.9-1.8-1.3-4-0.5-5.9
		c0.4-1,1.9-2,3-2.2c0.7-0.1,1.5,0.1,2.2,0.3c5.5,1.6,11,3.3,15.8,6.3c2.7,1.7,5.1,3.1,8,4.5c2.9,1.4,4.9,1.9,6.9,4.5
		c1.9,2.4,1.6,5,1.3,8c-0.3,2.2-0.5,4.3-0.9,6.5C87.7,38,86,43.2,86.8,48.4c3.4-7.6,13.6-10.6,16.3-18.4c0.5-1.6,0.6-3.3,1.1-5
		c0.4-1.6,1-3.2,1.7-4.8c1.4-3.1,3.1-6,5-8.7c2.6-3.8,6-8.1,10.6-7.9c0.3,0,0.6,0,0.8,0.2c0.4,0.4,0.3,1,0.1,1.6
		c-2.1,5.9-2.9,12.1-3.7,18.2c-0.5,3.5-0.8,7-1.1,10.6c-0.3,3.1,0,6.7-2.1,9.2c-5.6,6.8-11.9,13-18.8,18.5l-1.6,0.9l1-0.8
		c6.9-5.5,13.3-11.8,19.1-18.8c1.5-1.9,1.7-4.5,1.8-7c0-0.7,0.1-1.3,0.1-2l0.2-1.5c0.3-3,0.6-6,1-9.1c0.8-6.1,1.7-12.4,3.8-18.3
		c0.2-0.6,0.2-1,0-1.2c-0.1-0.1-0.4-0.1-0.6-0.1c-2.4-0.1-5.6,0.8-10.4,7.8c-2.2,3.3-3.8,6-5,8.7c-0.7,1.6-1.3,3.2-1.7,4.7
		c-0.2,0.7-0.3,1.4-0.4,2.1c-0.2,0.9-0.3,1.9-0.6,2.8c-1.4,4.2-5,7-8.4,9.7c-3.1,2.5-6.3,5.1-7.9,8.7l-0.5,1l-0.2-1.1
		c-0.6-4.1,0.3-8.2,1.1-12.2c0.2-1.1,0.5-2.3,0.7-3.4c0.4-2.1,0.7-4.3,0.9-6.5c0.3-2.9,0.6-5.4-1.2-7.8c-1.5-2-3.1-2.7-5.1-3.6
		c-0.5-0.2-1-0.5-1.6-0.8c-2.9-1.4-5.3-2.8-8-4.5c-4.8-3-10.4-4.7-15.7-6.2c-0.7-0.2-1.4-0.4-2.1-0.3c-1,0.2-2.4,1.1-2.8,2
		c-0.7,1.7-0.5,3.7,0.5,5.6c0.7,1.4,2.1,2.6,3.4,3.6c0.4,0.3,0.8,0.6,1.1,0.9c4.5,4.1,9.7,7.3,15.3,9.5c0.1,0,0.2,0.1,0.2,0.2
		c0.2,0.7-2.3,6-2.8,7c-1,2-3.5,7-5.7,10.3c-2.7,3.8-6,8-10.7,9.9c-2.3,0.9-5,1.1-7.5,0.5c-2.6-0.7-4.7-2.2-5.8-4.3
		c-0.8-1.4-1.1-3.2-1.1-5.2c0.1-5.2,3.1-9.8,5.9-14.2c2.4-3.8,4.9-7.8,5.7-12.1c0.6-3.2,0.2-6.5-0.3-9.9c-0.1-0.9-0.9-1.8-1.9-2.1
		c-0.8-0.3-1.8,0-2.6,0.6c-16,14.8-27.5,32.7-33.3,51.7c-5.1,16.8-5.5,36.4-1,53.1l-0.4-0.1C7.2,93.5,7.7,73.9,12.8,57.3z"/>
	<path fill="#441211" d="M78.3,100.6c0.2-0.2,0.6-0.3,1-0.3l-0.3,0.4c-0.2,0-0.4,0.1-0.5,0.2c-6.7,5.8-13.8,12.2-19.4,19.2l-0.4-0.1
		C64.6,112.7,71.8,106.2,78.3,100.6z"/>
	<path fill="#441211" d="M51.2,7.1c0.2,1.6,0.4,3.2,0.5,4.9c-0.3-1.9-0.5-3.7-0.7-5.4C51.1,6.8,51.1,7,51.2,7.1z"/>
	<path fill="#441211" d="M12.7,112.7c0.2,0.6,4.4,2.5,5.2,2.7c1.5,0.3,3,0.7,4.4,1.1c1.2,0.4,2.5,0.7,3.8,1c2.3,0.5,4.6,0.8,6.9,1.2
		c3.1,0.5,6.4,1.1,9.6,1.8c5,1.2,10.4,1.5,15.1,0.9c0.4-0.5,0.8-1,1.1-1.4l0.4,0.1c-0.4,0.6-0.9,1.1-1.3,1.7
		c-5.1,0.6-10.5,0.2-15.3-0.9c-5.5-1.3-10.9-1.9-16.4-3c-2.7-0.5-5.4-1.7-8.1-2.1c-0.7-0.1-5.3-2.1-5.5-2.9
		c-0.2-0.8-0.5-1.6-0.7-2.4l0.4,0.1C12.3,111.2,12.5,112,12.7,112.7z"/>
	<path fill="#EDC2C0" d="M58.4,129.4C58.3,129.4,58.3,129.4,58.4,129.4c-0.3,0-0.5-0.2-0.6-0.4l-1.5-1.7l0.3-0.2l1.5,1.7
		c0.1,0.1,0.2,0.2,0.3,0.3c0.1,0,0.3-0.1,0.4-0.1l1.5-0.9l0.2,0.3l-1.5,0.9C58.8,129.3,58.6,129.4,58.4,129.4z"/>
	<path fill="#EDC2C0" d="M51.8,129C51.8,129,51.8,129,51.8,129c-0.3,0-0.5-0.2-0.6-0.4l-1.5-1.7l0.3-0.2l1.5,1.7
		c0.1,0.1,0.2,0.2,0.3,0.3c0.1,0,0.3-0.1,0.4-0.1l1.5-0.9l0.2,0.3l-1.5,0.9C52.2,128.9,52,129,51.8,129z"/>
	<path fill="#EDC2C0" d="M45.2,128.2c0,0-0.1,0-0.1,0c-0.2-0.1-0.4-0.3-0.5-0.4l-1.3-1.8l0.3-0.2l1.3,1.8c0.1,0.1,0.2,0.3,0.3,0.3
		c0.1,0,0.3,0,0.4-0.1l1.6-0.8l0.2,0.3l-1.6,0.8C45.6,128.2,45.4,128.2,45.2,128.2z"/>
	<path fill="#EDC2C0" d="M38.7,127.4c0,0-0.1,0-0.1,0c-0.2-0.1-0.4-0.3-0.5-0.4l-1.3-1.8L37,125l1.3,1.8c0.1,0.1,0.2,0.3,0.3,0.3
		c0.1,0,0.3,0,0.4-0.1l1.6-0.8l0.2,0.3l-1.6,0.8C39.1,127.3,38.9,127.4,38.7,127.4z"/>
	<path fill="#EDC2C0" d="M32.1,125.8c-0.1,0-0.1,0-0.2,0c-0.2-0.1-0.4-0.3-0.5-0.4l-1.3-1.9l0.3-0.2l1.3,1.9
		c0.1,0.1,0.2,0.3,0.3,0.3c0.1,0,0.3,0,0.4-0.1l1.6-0.8l0.1,0.3l-1.6,0.8C32.5,125.7,32.3,125.8,32.1,125.8z"/>
	<path fill="#EDC2C0" d="M25.7,124.7c-0.1,0-0.1,0-0.2,0c-0.2-0.1-0.4-0.3-0.5-0.4l-1.3-1.9l0.3-0.2l1.3,1.9
		c0.1,0.1,0.2,0.3,0.3,0.3c0.1,0,0.3,0,0.4-0.1l1.6-0.8l0.1,0.3l-1.6,0.8C26,124.6,25.9,124.7,25.7,124.7z"/>
	<path fill="#EDC2C0" d="M19.2,122.6c-0.1,0-0.1,0-0.2,0c-0.2-0.1-0.4-0.3-0.5-0.4l-1.3-1.9l0.3-0.2l1.3,1.9
		c0.1,0.1,0.2,0.3,0.3,0.3c0.1,0,0.3,0,0.4-0.1l1.6-0.8l0.1,0.3l-1.6,0.8C19.5,122.6,19.4,122.6,19.2,122.6z"/>
	<path fill="#EDC2C0" d="M12.7,121.5c-0.1,0-0.1,0-0.2,0c-0.2-0.1-0.4-0.3-0.5-0.4l-1.3-1.9L11,119l1.3,1.9c0.1,0.1,0.2,0.3,0.3,0.3
		c0.1,0,0.3,0,0.4-0.1l1.6-0.8l0.1,0.3l-1.6,0.8C13.1,121.4,12.9,121.5,12.7,121.5z"/>
	<path fill="#EDC2C0" d="M60.8,135.4C60.7,135.4,60.7,135.4,60.8,135.4c-0.3,0-0.5-0.2-0.6-0.4l-1.5-1.7l0.3-0.2l1.5,1.7
		c0.1,0.1,0.2,0.2,0.3,0.3c0.1,0,0.3-0.1,0.4-0.1l1.5-0.9l0.2,0.3l-1.5,0.9C61.2,135.3,61,135.4,60.8,135.4z"/>
	<path fill="#EDC2C0" d="M9.3,126.2c-0.1,0.1-0.3,0.2-0.5,0.2c0,0-0.1,0-0.1,0c-0.2,0-0.4-0.2-0.5-0.4l-1.5-1.7l0.3-0.2l1.5,1.7
		c0.1,0.1,0.2,0.2,0.3,0.3c0.1,0,0.3-0.1,0.4-0.1l1.5-0.9l0.2,0.3L9.3,126.2z"/>
	<path fill="#EDC2C0" d="M54.2,135C54.2,135,54.1,135,54.2,135c-0.3,0-0.5-0.2-0.6-0.4l-1.5-1.7l0.3-0.2l1.5,1.7
		c0.1,0.1,0.2,0.2,0.3,0.3c0.1,0,0.3-0.1,0.4-0.1l1.5-0.9l0.2,0.3l-1.5,0.9C54.6,134.9,54.4,135,54.2,135z"/>
	<path fill="#EDC2C0" d="M47.6,134.2c0,0-0.1,0-0.1,0c-0.2-0.1-0.4-0.3-0.5-0.4l-1.3-1.8l0.3-0.2l1.3,1.8c0.1,0.1,0.2,0.3,0.3,0.3
		c0.1,0,0.3,0,0.4-0.1l1.6-0.8l0.2,0.3l-1.6,0.8C48,134.1,47.8,134.2,47.6,134.2z"/>
	<path fill="#EDC2C0" d="M41.1,133.4c0,0-0.1,0-0.1,0c-0.2-0.1-0.4-0.3-0.5-0.4l-1.3-1.8l0.3-0.2l1.3,1.8c0.1,0.1,0.2,0.3,0.3,0.3
		c0.1,0,0.3,0,0.4-0.1l1.6-0.8l0.2,0.3l-1.6,0.8C41.5,133.3,41.3,133.4,41.1,133.4z"/>
	<path fill="#EDC2C0" d="M34.5,131.8c-0.1,0-0.1,0-0.2,0c-0.2-0.1-0.4-0.3-0.5-0.4l-1.3-1.9l0.3-0.2l1.3,1.9
		c0.1,0.1,0.2,0.3,0.3,0.3c0.1,0,0.3,0,0.4-0.1l1.6-0.8l0.1,0.3l-1.6,0.8C34.9,131.7,34.7,131.8,34.5,131.8z"/>
	<path fill="#EDC2C0" d="M28.1,130.6c-0.1,0-0.1,0-0.2,0c-0.2-0.1-0.4-0.3-0.5-0.4l-1.3-1.9l0.3-0.2l1.3,1.9
		c0.1,0.1,0.2,0.3,0.3,0.3c0.1,0,0.3,0,0.4-0.1l1.6-0.8l0.1,0.3l-1.6,0.8C28.4,130.6,28.3,130.6,28.1,130.6z"/>
	<path fill="#EDC2C0" d="M21.6,128.6c-0.1,0-0.1,0-0.2,0c-0.2-0.1-0.4-0.3-0.5-0.4l-1.3-1.9l0.3-0.2l1.3,1.9
		c0.1,0.1,0.2,0.3,0.3,0.3c0.1,0,0.3,0,0.4-0.1l1.6-0.8l0.1,0.3l-1.6,0.8C21.9,128.5,21.7,128.6,21.6,128.6z"/>
	<path fill="#EDC2C0" d="M15.1,127.5c-0.1,0-0.1,0-0.2,0c-0.2-0.1-0.4-0.3-0.5-0.4l-1.3-1.9l0.3-0.2l1.3,1.9
		c0.1,0.1,0.2,0.3,0.3,0.3c0.1,0,0.3,0,0.4-0.1l1.6-0.8l0.1,0.3l-1.6,0.8C15.4,127.4,15.3,127.5,15.1,127.5z"/>
	<path fill="#EDC2C0" d="M56.8,140.2c0.1,0.1,0.2,0.2,0.3,0.3c0.1,0,0.3-0.1,0.4-0.1l1.5-0.9l0.2,0.3l-1.5,0.9
		c-0.1,0.1-0.3,0.2-0.5,0.2c0,0-0.1,0-0.1,0c-0.2,0-0.4-0.2-0.5-0.4l-1.5-1.7l0.3-0.2L56.8,140.2z"/>
	<path fill="#EDC2C0" d="M50.2,139.8c0.1,0.1,0.2,0.2,0.3,0.3c0.1,0,0.3-0.1,0.4-0.1l1.5-0.9l0.2,0.3l-1.5,0.9
		c-0.1,0.1-0.3,0.2-0.5,0.2c0,0-0.1,0-0.1,0c-0.2,0-0.4-0.2-0.5-0.4l-1.5-1.7l0.3-0.2L50.2,139.8z"/>
	<path fill="#EDC2C0" d="M43.6,139c0.1,0.1,0.2,0.3,0.3,0.3c0.1,0,0.3,0,0.4-0.1l1.6-0.8l0.2,0.3l-1.6,0.8c-0.1,0.1-0.3,0.2-0.5,0.2
		c0,0-0.1,0-0.1,0c-0.2-0.1-0.4-0.3-0.5-0.4l-1.3-1.8l0.3-0.2L43.6,139z"/>
	<path fill="#EDC2C0" d="M37.1,138.1c0.1,0.1,0.2,0.3,0.3,0.3c0.1,0,0.3,0,0.4-0.1l1.6-0.8l0.2,0.3l-1.6,0.8
		c-0.1,0.1-0.3,0.2-0.5,0.2c0,0-0.1,0-0.1,0c-0.2-0.1-0.4-0.3-0.5-0.4l-1.3-1.8l0.3-0.2L37.1,138.1z"/>
	<path fill="#EDC2C0" d="M30.6,136.5c0.1,0.1,0.2,0.3,0.3,0.3c0.1,0,0.3,0,0.4-0.1l1.6-0.8l0.1,0.3l-1.6,0.8
		c-0.1,0.1-0.3,0.1-0.5,0.1c-0.1,0-0.1,0-0.2,0c-0.2-0.1-0.4-0.3-0.5-0.4l-1.3-1.9l0.3-0.2L30.6,136.5z"/>
	<path fill="#EDC2C0" d="M24.1,135.4c0.1,0.1,0.2,0.3,0.3,0.3c0.1,0,0.3,0,0.4-0.1l1.6-0.8l0.1,0.3l-1.6,0.8
		c-0.1,0.1-0.3,0.1-0.5,0.1c-0.1,0-0.1,0-0.2,0c-0.2-0.1-0.4-0.3-0.5-0.4l-1.3-1.9l0.3-0.2L24.1,135.4z"/>
	<path fill="#EDC2C0" d="M17.6,133.4c0.1,0.1,0.2,0.3,0.3,0.3c0.1,0,0.3,0,0.4-0.1l1.6-0.8l0.1,0.3l-1.6,0.8
		c-0.1,0.1-0.3,0.1-0.5,0.1c-0.1,0-0.1,0-0.2,0c-0.2-0.1-0.4-0.3-0.5-0.4l-1.3-1.9l0.3-0.2L17.6,133.4z"/>
	<path fill="#EDC2C0" d="M11.3,132.8c-0.2-0.1-0.4-0.3-0.5-0.4l-1.3-1.9l0.3-0.2l1.3,1.9c0.1,0.1,0.2,0.3,0.3,0.3
		c0.1,0,0.3,0,0.4-0.1l1.6-0.8l0.1,0.3l-1.6,0.8c-0.1,0.1-0.3,0.1-0.5,0.1C11.4,132.9,11.4,132.9,11.3,132.8z"/>
	<path fill="#EDC2C0" d="M59,146.3l-1.5-1.7l0.3-0.2l1.5,1.7c0.1,0.1,0.2,0.2,0.3,0.3c0.1,0,0.3-0.1,0.4-0.1l1.5-0.9l0.2,0.3
		l-1.5,0.9c-0.1,0.1-0.3,0.2-0.5,0.2c0,0-0.1,0-0.1,0C59.2,146.7,59.1,146.5,59,146.3z"/>
	<path fill="#EDC2C0" d="M7.2,137.2c0.1,0.1,0.2,0.2,0.3,0.3c0.1,0,0.3-0.1,0.4-0.1l1.5-0.9l0.2,0.3l-1.5,0.9
		c-0.1,0.1-0.3,0.2-0.5,0.2c0,0-0.1,0-0.1,0c-0.2,0-0.4-0.2-0.5-0.4l-1.5-1.7l0.3-0.2L7.2,137.2z"/>
	<path fill="#EDC2C0" d="M52.4,146l-1.5-1.7l0.3-0.2l1.5,1.7c0.1,0.1,0.2,0.2,0.3,0.3c0.1,0,0.3-0.1,0.4-0.1l1.5-0.9l0.2,0.3
		l-1.5,0.9c-0.1,0.1-0.3,0.2-0.5,0.2c0,0-0.1,0-0.1,0C52.7,146.3,52.5,146.1,52.4,146z"/>
	<path fill="#EDC2C0" d="M45.8,145.2l-1.3-1.8l0.3-0.2L46,145c0.1,0.1,0.2,0.3,0.3,0.3c0.1,0,0.3,0,0.4-0.1l1.6-0.8l0.2,0.3
		l-1.6,0.8c-0.1,0.1-0.3,0.2-0.5,0.2c0,0-0.1,0-0.1,0C46,145.5,45.9,145.3,45.8,145.2z"/>
	<path fill="#EDC2C0" d="M39.3,144.3l-1.3-1.8l0.3-0.2l1.3,1.8c0.1,0.1,0.2,0.3,0.3,0.3c0.1,0,0.3,0,0.4-0.1l1.6-0.8l0.2,0.3
		l-1.6,0.8c-0.1,0.1-0.3,0.2-0.5,0.2c0,0-0.1,0-0.1,0C39.5,144.6,39.4,144.4,39.3,144.3z"/>
	<path fill="#EDC2C0" d="M32.7,142.7l-1.3-1.9l0.3-0.2l1.3,1.9c0.1,0.1,0.2,0.3,0.3,0.3c0.1,0,0.3,0,0.4-0.1l1.6-0.8l0.1,0.3
		l-1.6,0.8c-0.1,0.1-0.3,0.1-0.5,0.1c-0.1,0-0.1,0-0.2,0C32.9,143,32.8,142.8,32.7,142.7z"/>
	<path fill="#EDC2C0" d="M26.2,141.6l-1.3-1.9l0.3-0.2l1.3,1.9c0.1,0.1,0.2,0.3,0.3,0.3c0.1,0,0.3,0,0.4-0.1l1.6-0.8l0.1,0.3
		l-1.6,0.8c-0.1,0.1-0.3,0.1-0.5,0.1c-0.1,0-0.1,0-0.2,0C26.5,141.9,26.3,141.7,26.2,141.6z"/>
	<path fill="#EDC2C0" d="M22.3,138.8l0.1,0.3l-1.6,0.8c-0.1,0.1-0.3,0.1-0.5,0.1c-0.1,0-0.1,0-0.2,0c-0.2-0.1-0.4-0.3-0.5-0.4
		l-1.3-1.9l0.3-0.2l1.3,1.9c0.1,0.1,0.2,0.3,0.3,0.3c0.1,0,0.3,0,0.4-0.1L22.3,138.8z"/>
	<path fill="#EDC2C0" d="M13.5,138.2c0.1,0.1,0.2,0.3,0.3,0.3c0.1,0,0.3,0,0.4-0.1l1.6-0.8l0.1,0.3l-1.6,0.8
		c-0.1,0.1-0.3,0.1-0.5,0.1c-0.1,0-0.1,0-0.2,0c-0.2-0.1-0.4-0.3-0.5-0.4l-1.3-1.9l0.3-0.2L13.5,138.2z"/>
	<path fill="#EDC2C0" d="M56.8,152.1c0.1,0.1,0.2,0.2,0.3,0.3c0.1,0,0.3-0.1,0.4-0.1l1.5-0.9l0.2,0.3l-1.5,0.9
		c-0.1,0.1-0.3,0.2-0.5,0.2c0,0-0.1,0-0.1,0c-0.2,0-0.4-0.2-0.5-0.4l-1.5-1.7l0.3-0.2L56.8,152.1z"/>
	<path fill="#EDC2C0" d="M50.2,151.7c0.1,0.1,0.2,0.2,0.3,0.3c0.1,0,0.3-0.1,0.4-0.1l1.5-0.9l0.2,0.3l-1.5,0.9
		c-0.1,0.1-0.3,0.2-0.5,0.2c0,0-0.1,0-0.1,0c-0.2,0-0.4-0.2-0.5-0.4l-1.5-1.7l0.3-0.2L50.2,151.7z"/>
	<path fill="#EDC2C0" d="M43.6,150.9c0.1,0.1,0.2,0.3,0.3,0.3c0.1,0,0.3,0,0.4-0.1l1.6-0.8l0.2,0.3l-1.6,0.8
		c-0.1,0.1-0.3,0.2-0.5,0.2c0,0-0.1,0-0.1,0c-0.2-0.1-0.4-0.3-0.5-0.4l-1.3-1.8l0.3-0.2L43.6,150.9z"/>
	<path fill="#EDC2C0" d="M37.1,150.1c0.1,0.1,0.2,0.3,0.3,0.3c0.1,0,0.3,0,0.4-0.1l1.6-0.8l0.2,0.3l-1.6,0.8
		c-0.1,0.1-0.3,0.2-0.5,0.2c0,0-0.1,0-0.1,0c-0.2-0.1-0.4-0.3-0.5-0.4l-1.3-1.8l0.3-0.2L37.1,150.1z"/>
	<path fill="#EDC2C0" d="M30.6,148.5c0.1,0.1,0.2,0.3,0.3,0.3c0.1,0,0.3,0,0.4-0.1l1.6-0.8l0.1,0.3l-1.6,0.8
		c-0.1,0.1-0.3,0.1-0.5,0.1c-0.1,0-0.1,0-0.2,0c-0.2-0.1-0.4-0.3-0.5-0.4l-1.3-1.9l0.3-0.2L30.6,148.5z"/>
	<path fill="#EDC2C0" d="M24.1,147.3c0.1,0.1,0.2,0.3,0.3,0.3c0.1,0,0.3,0,0.4-0.1l1.6-0.8l0.1,0.3l-1.6,0.8
		c-0.1,0.1-0.3,0.1-0.5,0.1c-0.1,0-0.1,0-0.2,0c-0.2-0.1-0.4-0.3-0.5-0.4l-1.3-1.9l0.3-0.2L24.1,147.3z"/>
	<path fill="#EDC2C0" d="M17.6,145.3c0.1,0.1,0.2,0.3,0.3,0.3c0.1,0,0.3,0,0.4-0.1l1.6-0.8l0.1,0.3l-1.6,0.8
		c-0.1,0.1-0.3,0.1-0.5,0.1c-0.1,0-0.1,0-0.2,0c-0.2-0.1-0.4-0.3-0.5-0.4l-1.3-1.9l0.3-0.2L17.6,145.3z"/>
	<path fill="#EDC2C0" d="M9.9,142.3l1.3,1.9c0.1,0.1,0.2,0.3,0.3,0.3c0.1,0,0.3,0,0.4-0.1l1.6-0.8l0.1,0.3l-1.6,0.8
		c-0.1,0.1-0.3,0.1-0.5,0.1c-0.1,0-0.1,0-0.2,0c-0.2-0.1-0.4-0.3-0.5-0.4l-1.3-1.9L9.9,142.3z"/>
	<path fill="#EDC2C0" d="M59.2,157.5c0.1,0.1,0.2,0.2,0.3,0.3c0.1,0,0.3-0.1,0.4-0.1l1-0.6c0.2,0,0.4,0,0.5,0.1l-1.4,0.8
		c-0.1,0.1-0.3,0.2-0.5,0.2c0,0-0.1,0-0.1,0c-0.2,0-0.4-0.2-0.5-0.4l-0.8-1c0.2,0,0.3,0,0.5,0L59.2,157.5z"/>
	<path fill="#EDC2C0" d="M61.5,156.7l0.2,0.3l-0.2,0.1c-0.2,0-0.4,0-0.5-0.1L61.5,156.7z"/>
	<path fill="#EDC2C0" d="M57.7,155.8l0.8,1c-0.2,0-0.3,0-0.5,0l-0.6-0.7L57.7,155.8z"/>
	<path fill="#EDC2C0" d="M7.2,149.1c0.1,0.1,0.2,0.2,0.3,0.3c0.1,0,0.3-0.1,0.4-0.1l1.5-0.9l0.2,0.3l-1.5,0.9
		c-0.1,0.1-0.3,0.2-0.5,0.2c0,0-0.1,0-0.1,0c-0.2,0-0.4-0.2-0.5-0.4l-1.5-1.7l0.3-0.2L7.2,149.1z"/>
	<path fill="#EDC2C0" d="M52.6,157.1c0.1,0.1,0.2,0.2,0.3,0.3c0.1,0,0.3-0.1,0.4-0.1l1.3-0.8c0.1,0,0.2,0,0.3,0l0.1,0.1l-1.5,0.9
		c-0.1,0.1-0.3,0.2-0.5,0.2c0,0-0.1,0-0.1,0c-0.2,0-0.4-0.2-0.5-0.4l-1.1-1.2c0.2,0,0.3,0,0.5,0L52.6,157.1z"/>
	<path fill="#EDC2C0" d="M51.2,155.4l0.6,0.7c-0.2,0-0.3,0-0.5,0l-0.4-0.5L51.2,155.4z"/>
	<path fill="#EDC2C0" d="M54.9,156.3l0.1,0.1c-0.1,0-0.2,0-0.3,0L54.9,156.3z"/>
	<path fill="#EDC2C0" d="M46,156.3c0.1,0.1,0.2,0.3,0.3,0.3c0.1,0,0.3,0,0.4-0.1l1.4-0.7c0.1,0,0.2,0,0.3,0l0.1,0.2l-1.6,0.8
		c-0.1,0.1-0.3,0.2-0.5,0.2c0,0-0.1,0-0.1,0c-0.2-0.1-0.4-0.3-0.5-0.4l-0.8-1c0.1,0,0.3,0,0.4,0L46,156.3z"/>
	<path fill="#EDC2C0" d="M48.3,155.7l0.1,0.1c-0.1,0-0.2,0-0.3,0L48.3,155.7z"/>
	<path fill="#EDC2C0" d="M44.7,154.5l0.8,1c-0.1,0-0.3,0-0.4,0l-0.6-0.8L44.7,154.5z"/>
	<path fill="#EDC2C0" d="M39.5,155.4c0.1,0.1,0.2,0.3,0.3,0.3c0.1,0,0.3,0,0.4-0.1l1-0.5c0.2,0,0.4,0,0.6,0.1l-1.4,0.7
		c-0.1,0.1-0.3,0.2-0.5,0.2c0,0-0.1,0-0.1,0c-0.2-0.1-0.4-0.3-0.5-0.4l-0.6-0.8c0.1,0,0.3,0,0.4,0L39.5,155.4z"/>
	<path fill="#EDC2C0" d="M38.2,153.6l0.9,1.3c-0.1,0-0.3,0-0.4,0l-0.8-1L38.2,153.6z"/>
	<path fill="#EDC2C0" d="M41.8,154.8l0.2,0.3l-0.2,0.1c-0.2,0-0.4,0-0.6-0.1L41.8,154.8z"/>
	<path fill="#EDC2C0" d="M33,154.5c0.1,0.1,0.2,0.3,0.3,0.3c0.1,0,0.3,0,0.4-0.1l0.4-0.2c0.2,0,0.4,0,0.6,0.1l-1,0.4
		c-0.1,0.1-0.3,0.1-0.5,0.1c-0.1,0-0.1,0-0.2,0c-0.2-0.1-0.4-0.3-0.5-0.4l-0.2-0.4c0.1,0,0.3,0,0.4,0L33,154.5z"/>
	<path fill="#EDC2C0" d="M31.7,152.6l1.2,1.7c-0.1,0-0.3,0-0.4,0l-1-1.5L31.7,152.6z"/>
	<path fill="#EDC2C0" d="M35.3,153.9l0.1,0.3l-0.7,0.3c-0.2,0-0.4,0-0.6-0.1L35.3,153.9z"/>
	<path fill="#EDC2C0" d="M27.4,153.8c-0.1,0.1-0.3,0.1-0.5,0.1c-0.1,0-0.1,0-0.2,0c-0.1,0-0.2-0.1-0.3-0.2
		C26.7,153.7,27.1,153.8,27.4,153.8L27.4,153.8z"/>
	<path fill="#EDC2C0" d="M25,151.6l0.3-0.2l1.3,1.9c0.1,0.1,0.2,0.3,0.3,0.3c0.1,0,0.3,0,0.4-0.1l1.6-0.8l0.1,0.3l-1.6,0.7
		c-0.3,0-0.7-0.1-1-0.1c-0.1-0.1-0.1-0.1-0.1-0.2L25,151.6z"/>
	<path fill="#EDC2C0" d="M20,151.3c0.1,0.1,0.2,0.3,0.3,0.3c0.1,0,0.3,0,0.4-0.1l1.6-0.8l0.1,0.3l-1.6,0.8c-0.1,0.1-0.3,0.1-0.5,0.1
		c-0.1,0-0.1,0-0.2,0c-0.2-0.1-0.4-0.3-0.5-0.4l-1.3-1.9l0.3-0.2L20,151.3z"/>
	<path fill="#EDC2C0" d="M13.5,150.2c0.1,0.1,0.2,0.3,0.3,0.3c0.1,0,0.3,0,0.4-0.1l1.6-0.8l0.1,0.3l-1.6,0.8
		c-0.1,0.1-0.3,0.1-0.5,0.1c-0.1,0-0.1,0-0.2,0c-0.2-0.1-0.4-0.3-0.5-0.4l-1.3-1.9l0.3-0.2L13.5,150.2z"/>
	<g>
		<path fill="#ECC2C0" d="M104.6,91.5c4.7-0.7,8.1-4.2,10.6-7.2c0.3-0.3,0.6-0.7,0.9-1.1c1.4-1.8,2.9-3.7,5-4.3
			c0.5-0.2,3.3-0.2,3.9,0.4c0.1,0.1,0.1,0.1,0.1,0.2c-0.5,4.6-2.2,9.2-5.1,14c-4.6,7.7-10.7,9.9-14.4,9.4c-3.2-0.4-6.1-0.5-9-0.6
			c-3.2-0.1-6.6-0.2-10.1-0.7c-1.2-0.2-2.4-0.5-3.4-0.7c-1.4-0.4-2.7-0.7-3.6-0.6l10.3-12.1C94.4,90.3,99.5,92.2,104.6,91.5z"/>
		<path fill="#441211" stroke="#441211" stroke-width="0.25" stroke-miterlimit="10" d="M82.9,100.9c1.1,0.3,2.3,0.6,3.4,0.7
			c3.6,0.5,6.9,0.6,10.1,0.7c2.9,0.1,5.8,0.2,9,0.6c3.8,0.4,9.8-1.8,14.4-9.4c2.9-4.8,4.6-9.4,5.1-14c0,0,0-0.1-0.1-0.2
			c-0.7-0.6-3.4-0.5-3.9-0.4c-2.1,0.6-3.6,2.6-5,4.3c-0.3,0.4-0.6,0.7-0.9,1.1c-2.4,3-5.9,6.5-10.6,7.2c-5.1,0.7-10.2-1.2-15-3.4
			l0.2-0.3l0,0c4.5,2,9.7,4,14.7,3.3c4.4-0.6,7.7-3.8,10.4-7c1.6-2,3.4-4.8,6-5.5c0.7-0.2,4.6-0.3,4.4,0.9
			c-0.6,5.2-2.6,9.8-5.2,14.1c-3.1,5.1-8.8,10.3-14.8,9.6c-6.8-0.8-12.4-0.3-19.1-1.3c-2.9-0.4-5.9-1.6-7.3-1.3l0.3-0.4
			C80.2,100.2,81.4,100.5,82.9,100.9z"/>
	</g>
	<g>
		<path fill="#ECC2C0" d="M96.4,62.5c1-0.2,2.1-0.4,3.1-0.6c2.1-0.4,4.3-0.8,6.5-1.3c0.4-0.1,0.7-0.2,1.1-0.3c2-0.5,4.1-0.9,5.9-2.1
			c1.7-1.1,3.3-2.8,4.8-5.1c1.5-2.4,2.9-4.9,4.3-7.3c1.8-3.3,3.7-6.7,6-9.8c1-1.3,2.3-2.3,3.7-2.8c0.8-0.3,1.4-0.3,1.9-0.2
			c1.3,0.3,1.4,1.7,1.4,3.4c0,0.2,0,0.4,0,0.6c0,0.9,0,1.5,0,2.2c-0.1,3.4-0.9,6.8-2.6,11.3c-6.9,18.6-14.4,24.1-20.1,26.8
			c-2.7,1.3-5.5,2.3-8.3,3.3c-2.5,0.9-5.1,1.9-7.6,3l-0.1,0.1c-1.5,0.7-3,1.4-4.4,2.2c-0.1,0.1-0.4,0.2-0.6,0.5
			c-0.3,0.2-1,0.8-1.5,1l4.9-24.4l0.3-0.2l-0.1,0L96.4,62.5z"/>
		<path fill="#441211" stroke="#441211" stroke-width="0.25" stroke-miterlimit="10" d="M91.4,86.3c0.3-0.2,0.5-0.4,0.6-0.5
			c1.4-0.8,2.9-1.5,4.4-2.2l0.1-0.1c2.5-1.1,5.1-2.1,7.6-3c2.7-1,5.6-2,8.3-3.3c5.7-2.7,13.1-8.2,20.1-26.8
			c1.7-4.5,2.5-7.9,2.6-11.3c0-0.6,0-1.3,0-2.2c0-0.2,0-0.4,0-0.6c0-1.7-0.2-3.1-1.4-3.4c-0.5-0.1-1.1-0.1-1.9,0.2
			c-1.4,0.5-2.7,1.5-3.7,2.8c-2.3,3.1-4.1,6.5-6,9.8c-1.3,2.4-2.7,4.9-4.3,7.3c-1.5,2.3-3.1,4-4.8,5.1c-1.8,1.2-3.9,1.6-5.9,2.1
			c-0.4,0.1-0.7,0.2-1.1,0.3c-2.1,0.5-4.3,0.9-6.5,1.3c-1,0.2-2.1,0.4-3.1,0.6l-1.3,0.3l0.1,0l1.6-0.9c-0.1,0.1-0.3,0.2-0.4,0.3
			c3.2-0.6,6.4-1.2,9.6-2c2.3-0.6,4.9-1,6.9-2.3c1.9-1.3,3.5-3.1,4.7-5.1c3.6-5.6,6.3-11.7,10.3-17.1c1-1.3,2.3-2.4,3.9-2.9
			c0.7-0.2,1.4-0.4,2.1-0.2c1.8,0.5,1.6,2.8,1.7,4.3c0,0.7,0.1,1.5,0,2.2c-0.2,3.9-1.3,7.7-2.6,11.4c-3.9,10.6-9.6,21.9-20.2,27
			c-5.1,2.5-10.7,3.9-15.9,6.3c-1.5,0.7-3.1,1.4-4.5,2.3c-0.4,0.2-1.6,1.3-2.4,1.6l0.1-0.4C90.4,87.1,91.1,86.5,91.4,86.3z"/>
	</g>
</g>
</svg>
