<?xml version="1.0" encoding="utf-8"?>
<!-- Generator: Adobe Illustrator 23.0.2, SVG Export Plug-In . SVG Version: 6.00 Build 0)  -->
<svg version="1.1" id="Layer_1" xmlns="http://www.w3.org/2000/svg" xmlns:xlink="http://www.w3.org/1999/xlink" x="0px" y="0px"
	 width="18.6px" height="68.4px" viewBox="0 0 18.6 68.4" enable-background="new 0 0 18.6 68.4" xml:space="preserve">
<g>
	<path fill="none" stroke="#441211" stroke-miterlimit="10" d="M16.5,68.2c-0.7-1.7,0-3.3,0.1-5.1c0.1-3-0.3-6-0.7-9
		c-1-7.1-2-14.2-3.1-21.3c-0.4-2.4-0.7-4.9-1.1-7.3"/>
	<g>
		<path fill="#ECC2C0" stroke="#441211" stroke-miterlimit="10" d="M9.9,23c-0.1-0.1-0.1-0.1-0.2-0.2C8.9,22.1,8,21.6,7.1,21
			c-2.7-2-4.6-4.9-5.4-8.1C1.3,11,1.4,9.5,1.6,7.6c0.1-1.2-0.5-2.3-1-3.4c-0.1-0.3-0.2-0.6,0-0.8C0.7,3.3,0.8,3.2,1,3.2
			c0.9-0.3,1.8,0.1,2.8,0.1c2,0.1,3.2-1.4,4.9-2.5c0.2-0.1,0.3-0.2,0.5-0.2c0.2,0,0.8,0.2,1,0.3C11,1.3,12,1.6,13,1.8
			c0.9,0.1,2.6-1,3.2-0.5c0.9,0.8,0.5,2.6,0.5,3.6c-0.1,1.5,0.6,2.5,1,3.9c0.7,2.5,0.3,5.1-1,7.4c-0.6,1.1-1.4,2.2-2.2,3.2
			c-0.8,1-1.9,1.9-2.3,3.1c-0.3,0.9-0.1,2-0.1,2.9c-0.3,0-0.6,0.1-0.9,0.1C11.2,24.5,10.6,23.7,9.9,23z"/>
		<g>
			<path fill="#441211" d="M16.3,1.3c-0.6-0.5-1.9,0.3-2.6,0.4c-1.3,0.2-2.7-0.6-3.9-1.1C9.5,0.6,9.3,0.5,9.1,0.5
				c-0.2,0-0.3,0.1-0.5,0.2C7,1.9,5.4,3.4,3.3,3.2C2.7,3.1,0.4,2.6,0.5,3.8c0,0.3,0.2,0.5,0.3,0.8c0.3,0.6,0.5,2.1,1.1,2.2
				c0.2,0.1,0.6-0.1,0.9-0.1c1-0.1,1.9-0.3,2.9-0.4c2.5-0.3,4.9-0.7,7.4-1c1.2-0.2,2.4-0.3,3.6-0.5C16.8,3.4,17,2,16.3,1.3z"/>
		</g>
		<path fill="none" stroke="#441211" stroke-linejoin="round" stroke-miterlimit="10" d="M5.8,15.1c-1.9-2.5-2.7-5.8-2.3-8.8"/>
		<path fill="none" stroke="#441211" stroke-linejoin="round" stroke-miterlimit="10" d="M5.7,8.8c-0.3-1.1-0.3-2.4,0-3.5"/>
		<path fill="none" stroke="#441211" stroke-linejoin="round" stroke-miterlimit="10" d="M9.9,11.3c-0.5-1.9,0.1-4-0.5-5.8"/>
		<path fill="none" stroke="#441211" stroke-linejoin="round" stroke-miterlimit="10" d="M13.1,13c0.7-2.6,0.6-5.5-0.3-8.1"/>
		<path fill="none" stroke="#441211" stroke-linejoin="round" stroke-miterlimit="10" d="M6.8,17.3c1.5,2.7,3.9,5,5,7.9"/>
		<path fill="none" stroke="#441211" stroke-linejoin="round" stroke-miterlimit="10" d="M10,15c0.9,1.3,1.9,2.7,2.2,4.3
			c0.2,0.9,0.2,1.8,0.1,2.6"/>
		<path fill="none" stroke="#441211" stroke-linejoin="round" stroke-miterlimit="10" d="M14,18.8c1.3-2.1,1.9-4.6,1.7-7"/>
	</g>
</g>
</svg>
