<?xml version="1.0" encoding="utf-8"?>
<!-- Generator: Adobe Illustrator 23.0.2, SVG Export Plug-In . SVG Version: 6.00 Build 0)  -->
<svg version="1.1" id="Layer_1" xmlns="http://www.w3.org/2000/svg" xmlns:xlink="http://www.w3.org/1999/xlink" x="0px" y="0px"
	 width="38.9px" height="34.8px" viewBox="0 0 38.9 34.8" enable-background="new 0 0 38.9 34.8" xml:space="preserve">
<g>
	<path fill="#ECC2C0" d="M16.9,18.2c-4.3-2-6.5-6.4-8-10C8.8,7.8,8.6,7.4,8.4,7C7.6,4.9,6.8,2.5,4.9,1.3C4.5,1,1.9,0.2,1.1,0.5
		C1,0.6,0.9,0.6,0.9,0.7c-0.8,4.5-0.6,9.4,0.8,14.9c2.2,8.7,7.3,12.6,11,13.3c3.1,0.6,6,1.4,8.8,2.1c3.1,0.9,6.3,1.7,9.9,2.3
		c1.2,0.2,2.4,0.3,3.5,0.3c1.5,0.1,2.8,0.2,3.6,0.5l-6.2-14.6C27,20.1,21.6,20.4,16.9,18.2z"/>
	<path fill="#441211" stroke="#441211" stroke-width="0.25" stroke-miterlimit="10" d="M34.9,33.6c-1.1-0.1-2.3-0.1-3.5-0.3
		c-3.6-0.6-6.8-1.4-9.9-2.3c-2.8-0.8-5.6-1.5-8.8-2.1c-3.7-0.7-8.8-4.6-11-13.3C0.4,10.1,0.1,5.2,0.9,0.7c0,0,0-0.1,0.1-0.1
		C1.9,0.2,4.5,1,4.9,1.3C6.8,2.5,7.6,4.9,8.4,7c0.2,0.4,0.3,0.9,0.5,1.3c1.5,3.6,3.7,7.9,8,10c4.6,2.2,10.1,1.8,15.3,1.2l-0.1-0.3
		l0,0c-4.9,0.6-10.5,1-15.1-1.2c-4-1.9-6.2-5.9-7.8-9.8c-1-2.4-1.8-5.6-4.1-7.1C4.6,0.7,0.8-0.5,0.6,0.6c-1,5.1-0.4,10.1,0.8,15
		c1.4,5.8,5.3,12.4,11.3,13.5c6.7,1.2,12,3.4,18.7,4.4c2.9,0.5,6.1,0.2,7.3,0.9l-0.2-0.4C37.6,33.8,36.4,33.7,34.9,33.6z"/>
</g>
</svg>
