<?xml version="1.0" encoding="utf-8"?>
<!-- Generator: Adobe Illustrator 23.0.2, SVG Export Plug-In . SVG Version: 6.00 Build 0)  -->
<svg version="1.1" id="Layer_1" xmlns="http://www.w3.org/2000/svg" xmlns:xlink="http://www.w3.org/1999/xlink" x="0px" y="0px"
	 width="93.8px" height="93.5px" viewBox="0 0 93.8 93.5" enable-background="new 0 0 93.8 93.5" xml:space="preserve">
<g>
	<path fill="none" stroke="#441211" stroke-miterlimit="10" d="M43.4,18.4c-1.1,0.8-2.5-0.8-2.9-2.1c-1.1-3.5-1.3-7.2-0.7-10.8
		c0.2-1,0.4-2,0.3-3c-0.2-1-1-2-2-2"/>
	<path fill="none" stroke="#441211" stroke-miterlimit="10" d="M18.5,49.2c0.8,1.2-0.8,2.4-2.2,2.8c-3.5,1-7.2,1.1-10.8,0.3
		c-1-0.2-2-0.5-3-0.4s-2,0.9-2.1,1.9"/>
	<path fill="none" stroke="#441211" stroke-miterlimit="10" d="M49.6,75c1.2-0.8,2.5,0.8,2.8,2.2c1,3.5,1.1,7.2,0.4,10.8
		c-0.2,1-0.5,2-0.3,3c0.2,1,0.9,2,1.9,2.1"/>
	<path fill="none" stroke="#441211" stroke-miterlimit="10" d="M75.2,44c-0.8-1.2,0.8-2.5,2.2-2.8c3.5-1,7.2-1.1,10.8-0.4
		c1,0.2,2,0.5,3,0.3c1-0.2,2-0.9,2.1-1.9"/>
	<path fill="none" stroke="#441211" stroke-miterlimit="10" d="M24.4,29.1c-0.2,1.4-2.3,1.2-3.5,0.6c-3.2-1.7-6-4.1-8.1-7.1
		c-0.6-0.8-1.1-1.7-2-2.3c-0.8-0.6-2.1-0.7-2.8,0"/>
	<path fill="none" stroke="#441211" stroke-miterlimit="10" d="M28.7,68.5c1.4,0.3,1.1,2.3,0.5,3.5c-1.8,3.2-4.3,5.9-7.4,7.9
		c-0.9,0.6-1.8,1.1-2.4,1.9c-0.6,0.8-0.8,2.1-0.1,2.8"/>
	<path fill="none" stroke="#441211" stroke-miterlimit="10" d="M68.8,64.8c0.3-1.4,2.3-1.1,3.5-0.5c3.2,1.8,5.9,4.3,7.9,7.4
		c0.6,0.9,1.1,1.8,1.9,2.4c0.8,0.6,2.1,0.8,2.8,0.1"/>
	<path fill="none" stroke="#441211" stroke-miterlimit="10" d="M65.1,24.7c-1.4-0.3-1.1-2.3-0.5-3.5c1.8-3.2,4.3-5.9,7.4-7.9
		c0.9-0.6,1.8-1.1,2.4-1.9c0.6-0.8,0.8-2.1,0.1-2.8"/>
</g>
</svg>
