<?xml version="1.0" encoding="utf-8"?>
<!-- Generator: Adobe Illustrator 23.0.2, SVG Export Plug-In . SVG Version: 6.00 Build 0)  -->
<svg version="1.1" id="Layer_1" xmlns="http://www.w3.org/2000/svg" xmlns:xlink="http://www.w3.org/1999/xlink" x="0px" y="0px"
	 width="60.4px" height="38.8px" viewBox="0 0 60.4 38.8" enable-background="new 0 0 60.4 38.8" xml:space="preserve">
<g>
	<path fill="#ECC2C0" d="M45.9,16.9c-1,0.1-2.1,0.3-3.1,0.4c-2.1,0.3-4.4,0.6-6.6,0.8c-0.4,0-0.8,0.1-1.1,0.1
		c-2.1,0.2-4.2,0.4-6.2-0.1c-2-0.5-4-1.6-6.2-3.3c-2.2-1.8-4.3-3.7-6.4-5.5c-2.8-2.5-5.6-5.1-8.8-7.3C6.1,1,4.6,0.5,3.1,0.5
		c-0.8,0-1.4,0.1-1.9,0.4c-1.1,0.7-0.8,2-0.3,3.6C1,4.7,1,4.9,1.1,5.1c0.2,0.8,0.4,1.5,0.7,2.1C3,10.3,4.8,13.3,7.8,17
		c12.5,15.4,21.3,18.3,27.6,19c2.9,0.4,6,0.4,8.9,0.5c2.7,0.1,5.5,0.1,8.2,0.4l0.2,0c1.6,0.2,3.3,0.3,4.9,0.7c0.2,0,0.4,0.1,0.7,0.2
		c0.4,0.1,1.2,0.4,1.8,0.5L47.6,16.8l-0.4-0.1l0.1,0L45.9,16.9z"/>
	<path fill="#441211" stroke="#441211" stroke-width="0.25" stroke-miterlimit="10" d="M58.3,37.9c-0.3-0.1-0.6-0.2-0.7-0.2
		c-1.6-0.3-3.3-0.5-4.9-0.7l-0.2,0c-2.7-0.3-5.5-0.3-8.2-0.4c-2.9-0.1-5.9-0.1-8.9-0.5c-6.3-0.8-15.1-3.6-27.6-19
		c-3-3.7-4.9-6.7-6.1-9.9C1.5,6.6,1.3,5.9,1.1,5.1C1,4.9,1,4.7,0.9,4.5c-0.5-1.6-0.8-3,0.3-3.6c0.5-0.3,1.1-0.4,1.9-0.4
		c1.5,0,3,0.5,4.4,1.5c3.1,2.2,6,4.8,8.8,7.3c2,1.9,4.2,3.8,6.4,5.5c2.2,1.7,4.2,2.8,6.2,3.3c2,0.5,4.2,0.3,6.2,0.1
		c0.4,0,0.8-0.1,1.1-0.1c2.2-0.2,4.4-0.5,6.6-0.8c1-0.1,2.1-0.3,3.1-0.4l1.4-0.2l-0.1,0l-1.8-0.3c0.2,0.1,0.3,0.1,0.5,0.2
		c-3.2,0.4-6.4,0.9-9.7,1.2c-2.4,0.2-4.9,0.6-7.3,0c-2.3-0.6-4.3-1.8-6.1-3.3c-5.2-4.1-9.7-9.1-15.2-12.9C6.3,0.7,4.7,0.1,3.1,0.1
		C2.4,0.1,1.6,0.2,1,0.6c-1.6,1-0.7,3.1-0.2,4.6C1,5.9,1.2,6.6,1.4,7.3c1.4,3.7,3.7,6.9,6.1,10C14.7,26,23.6,35,35.4,36.4
		c5.7,0.7,11.4,0.3,17.1,0.9c1.7,0.2,3.4,0.3,5,0.7c0.5,0.1,2,0.7,2.7,0.7L60,38.4C59.5,38.3,58.6,38,58.3,37.9z"/>
</g>
</svg>
